<svg width="374" height="380" viewBox="0 0 374 380" fill="none" xmlns="http://www.w3.org/2000/svg">
<path fill-rule="evenodd" clip-rule="evenodd" d="M0.0146484 345.838V75.3702C0.0177927 67.8177 3.01862 60.5752 8.35798 55.2336C13.6973 49.892 20.9386 46.8881 28.4912 46.8818H298.947L0.0146484 345.838Z" fill="#1EA361"/>
<path fill-rule="evenodd" clip-rule="evenodd" d="M0.011875 351.498V345.822L298.956 46.9014H304.632C312.185 46.9045 319.427 49.9053 324.769 55.2447C330.111 60.5841 333.114 67.8253 333.121 75.3779V81.0779L34.1766 379.998H28.4765C20.924 379.992 13.6827 376.988 8.34334 371.647C3.00397 366.305 0.00314428 359.062 0 351.51" fill="#FEDB43"/>
<path fill-rule="evenodd" clip-rule="evenodd" d="M34.1748 379.999L166.582 247.615L298.954 379.999H34.1748Z" fill="#5384C4"/>
<path fill-rule="evenodd" clip-rule="evenodd" d="M298.954 379.999L166.559 247.591L200.711 213.427L333.119 345.834V351.511C333.116 359.065 330.113 366.31 324.771 371.651C319.429 376.993 312.185 379.996 304.631 379.999H298.954Z" fill="white"/>
<path fill-rule="evenodd" clip-rule="evenodd" d="M333.12 345.837L200.713 213.43L333.12 81.0225V345.837Z" fill="#C2C2C1"/>
<path d="M59.4247 83.7199C76.3705 75.9654 97.5794 79.1242 111.343 91.8187L98.1851 104.881C84.4099 91.2249 58.5578 97.6969 52.1096 115.771C43.797 133.56 57.6909 156.942 77.5224 157.191C90.5019 158.699 103.458 150.007 106.201 137.075C97.1282 137.087 88.0793 137.003 79.0305 137.146L78.8642 120.366L124.465 120.984C125.605 132.063 124.821 143.82 118.86 153.522C109.514 170.907 87.4618 178.507 68.7941 174.113C45.7208 169.328 28.4544 145.66 31.6013 122.219C33.2044 105.689 44.272 90.5718 59.4247 83.7199Z" fill="#EFEFEF"/>
<path d="M274.935 0H285.765C312.757 1.54376 339.143 14.7251 355.495 36.421C366.207 50.1249 372.192 67.13 373.546 84.3964V90.809C372.916 124.297 351.493 151.776 332.933 177.818C312.104 207.244 292.866 239.331 287.522 275.586C286.097 281.725 287.807 290.335 280.468 293.102C278.747 291.76 276.728 290.643 275.516 288.767C273.343 268.496 268.391 248.463 259.628 229.95C249.807 208.373 236.151 188.862 222.257 169.802C213.802 158.367 205.833 146.527 199.243 133.892C188.888 114.975 185.028 92.6259 189.268 71.4051C192.735 54.7799 201.499 39.1047 213.647 27.1109C229.999 11.1151 252.123 1.42501 274.935 0ZM272.833 58.9718C260.031 61.8218 249.284 73.1507 248.204 86.2846C247.679 92.4492 249.012 98.6297 252.03 104.031C255.048 109.431 259.613 113.806 265.138 116.59C271.182 119.672 278.014 120.866 284.746 120.016C291.477 119.167 297.799 116.314 302.889 111.828C307.515 107.617 310.747 102.095 312.154 95.999C313.561 89.9032 313.075 83.5234 310.762 77.7107C304.979 63.2469 287.843 55.0055 272.833 58.7106" fill="#DC4B3E"/>
<ellipse cx="282.035" cy="86.0942" rx="44.5317" ry="44.5317" fill="#DC4B3E"/>
<path d="M292.301 133V59.6316L311 51V133H292.301ZM276 75.0792V59.6316L311 51L309.801 66.4476L276 75.0792Z" fill="white"/>
<path d="M258.85 120L265.767 77H273.157L266.181 120H258.85ZM242 107.697V101.058H275.049V107.697H242ZM245.547 120L252.465 77H259.796L252.878 120H245.547ZM244.01 94.9674V88.3895H277V94.9674H244.01Z" fill="white"/>
</svg>
