<svg width="224" height="224" viewBox="0 0 224 224" fill="none" xmlns="http://www.w3.org/2000/svg">
<circle cx="112" cy="112" r="112" fill="#DC4B3E"/>
<path d="M69.866 152L83.204 71.5157H97.454L84.002 152H69.866ZM37.376 128.972V116.546H101.102V128.972H37.376ZM44.216 152L57.554 71.5157H71.69L58.352 152H44.216ZM41.252 105.146V92.8337H104.864V105.146H41.252Z" fill="white"/>
<path d="M123.002 141.968L153.896 110.048C155.796 108.148 157.316 106.4 158.456 104.804C159.596 103.208 160.432 101.726 160.964 100.358C161.496 98.9137 161.762 97.4697 161.762 96.0257C161.762 92.9097 160.736 90.4777 158.684 88.7297C156.708 86.9057 154.086 85.9937 150.818 85.9937C147.626 85.9937 144.738 86.8677 142.154 88.6157C139.646 90.2877 137.214 93.0617 134.858 96.9377L122.888 86.5637C126.08 81.1677 130.146 77.1017 135.086 74.3657C140.026 71.6297 145.688 70.2617 152.072 70.2617C157.62 70.2617 162.408 71.2877 166.436 73.3397C170.54 75.3917 173.694 78.3177 175.898 82.1177C178.178 85.9177 179.318 90.3637 179.318 95.4557C179.318 98.6477 178.9 101.612 178.064 104.348C177.228 107.008 175.86 109.668 173.96 112.328C172.136 114.912 169.666 117.762 166.55 120.878L145.118 142.196L123.002 141.968ZM123.002 152V141.968L138.164 136.724H180.914V152H123.002Z" fill="white"/>
</svg>
