<svg width="224" height="224" viewBox="0 0 224 224" fill="none" xmlns="http://www.w3.org/2000/svg">
<circle cx="112" cy="112" r="112" fill="#DC4B3E"/>
<path d="M75.7 152L89.038 71.5156H103.288L89.836 152H75.7ZM43.21 128.972V116.546H106.936V128.972H43.21ZM50.05 152L63.388 71.5156H77.524L64.186 152H50.05ZM47.086 105.146V92.8336H110.698V105.146H47.086Z" fill="white"/>
<path d="M154.942 153.254C149.394 153.254 144.302 152.304 139.666 150.404C135.03 148.428 131.116 145.616 127.924 141.968L139.438 130.454C140.882 132.582 142.972 134.33 145.708 135.698C148.52 136.99 151.484 137.636 154.6 137.636C157.412 137.636 159.844 137.142 161.896 136.154C163.948 135.166 165.544 133.76 166.684 131.936C167.9 130.112 168.508 127.946 168.508 125.438C168.508 122.93 167.9 120.802 166.684 119.054C165.544 117.23 163.834 115.824 161.554 114.836C159.35 113.848 156.69 113.354 153.574 113.354C152.13 113.354 150.61 113.468 149.014 113.696C147.494 113.848 146.202 114.114 145.138 114.494L153.004 104.576C155.132 103.968 157.146 103.474 159.046 103.094C161.022 102.638 162.846 102.41 164.518 102.41C168.622 102.41 172.308 103.398 175.576 105.374C178.844 107.274 181.428 110.01 183.328 113.582C185.304 117.078 186.292 121.258 186.292 126.122C186.292 131.442 184.962 136.154 182.302 140.258C179.718 144.362 176.07 147.554 171.358 149.834C166.722 152.114 161.25 153.254 154.942 153.254ZM145.138 114.494V104.576L164.746 81.5476L184.81 81.4336L164.404 104.69L145.138 114.494ZM132.94 86.6776V71.5156H184.81V81.4336L170.788 86.6776H132.94Z" fill="white"/>
</svg>
