<?xml version="1.0" encoding="utf-8"?>
<!-- Generator: Adobe Illustrator 18.1.1, SVG Export Plug-In . SVG Version: 6.00 Build 0)  -->
<svg version="1.1" id="Layer_1" xmlns="http://www.w3.org/2000/svg" xmlns:xlink="http://www.w3.org/1999/xlink" x="0px" y="0px"
	 width="250px" height="74px" viewBox="108 -21 250 74" enable-background="new 108 -21 250 74" xml:space="preserve">
<g>
	<g>
		<polygon fill="#A9D8F1" stroke="#A9D8F1" stroke-width="0.35" stroke-miterlimit="10" points="197.9,30.1 197.9,30.9 197,30.9 
			194.5,38.5 193.5,38.5 191.8,32.9 189.9,38.5 188.9,38.5 188.9,38.4 186.5,30.9 185.4,30.9 185.4,30.1 189.1,30.1 189.1,30.9 
			187.9,30.9 189.6,36.7 191.4,31.5 191.2,30.9 190.1,30.9 190.1,30.1 193.8,30.1 193.8,30.9 192.5,30.9 194.2,36.7 196.1,30.9 
			195,30.9 195,30.1 		"/>
	</g>
	<g>
		<path fill="#A9D8F1" stroke="#A9D8F1" stroke-width="0.35" stroke-miterlimit="10" d="M206.9,35.4v3h-7.3v-0.8h1.4v-6.7h-1.4v-0.8
			h7.2v2.7h-0.7v-0.1c-0.3-1.6-0.4-1.8-1.1-1.8h-2.7v2.8h1.1c0.7,0,0.7,0,0.9-1.2v-0.1h0.7v3.3h-0.7v-0.1c-0.2-1.1-0.3-1.2-0.9-1.2
			h-1.1v3.1h2.7c0.8,0,0.9-0.2,1.3-2.1v-0.1L206.9,35.4L206.9,35.4z"/>
	</g>
	<g>
		<path fill="#A9D8F1" stroke="#A9D8F1" stroke-width="0.35" stroke-miterlimit="10" d="M216.5,37.6l-2.8-7.5h-1l-3,7.5h-0.9v0.8
			h2.9v-0.8h-1.1l0.8-2.1h2.9l0.7,2.1h-1.2v0.8h3.7v-0.8H216.5z M211.8,34.7l1.2-3.1l1.1,3.1H211.8z"/>
	</g>
	<g>
		<path fill="#A9D8F1" stroke="#A9D8F1" stroke-width="0.35" stroke-miterlimit="10" d="M226.1,35.2v3.2h-6.9v-0.8h1.4v-6.7h-1.4
			v-0.8h4.1v0.8h-1.5v6.7h2.4c0.7,0,0.8-0.3,1.2-2.3v-0.1C225.4,35.2,226.1,35.2,226.1,35.2z"/>
	</g>
	<g>
		<path fill="#A9D8F1" stroke="#A9D8F1" stroke-width="0.35" stroke-miterlimit="10" d="M234.9,30.1v3h-0.6V33
			c-0.4-1.9-0.5-2.2-1.4-2.2h-1v6.7h1.4v0.8h-4.1v-0.8h1.4v-6.7h-1c-0.9,0-1,0.3-1.4,2.2v0.1h-0.7v-3H234.9z"/>
	</g>
	<g>
		<polygon fill="#A9D8F1" stroke="#A9D8F1" stroke-width="0.35" stroke-miterlimit="10" points="244.9,30.9 244.9,37.6 246.2,37.6 
			246.2,38.4 242.4,38.4 242.4,37.6 243.6,37.6 243.6,34.5 239.8,34.5 239.8,37.6 241.1,37.6 241.1,38.4 237.2,38.4 237.2,37.6 
			238.6,37.6 238.6,30.9 237.2,30.9 237.2,30.1 241.1,30.1 241.1,30.9 239.8,30.9 239.8,33.7 243.6,33.7 243.6,30.9 242.4,30.9 
			242.4,30.1 246.2,30.1 246.2,30.9 		"/>
	</g>
	<g>
		<polygon fill="#A9D8F1" stroke="#A9D8F1" stroke-width="0.35" stroke-miterlimit="10" points="261.4,30.9 261.4,37.6 262.8,37.6 
			262.8,38.4 259.1,38.4 259.1,37.6 260.2,37.6 260.2,31.2 257.4,38.4 256.8,38.4 256.8,38.4 254.1,31.2 254.1,37.6 255.2,37.6 
			255.2,38.4 251.8,38.4 251.8,37.6 253.1,37.6 253.1,30.9 251.8,30.9 251.8,30.1 255,30.1 257.3,36.3 259.6,30.1 262.8,30.1 
			262.8,30.9 		"/>
	</g>
	<g>
		<path fill="#A9D8F1" stroke="#A9D8F1" stroke-width="0.35" stroke-miterlimit="10" d="M272.1,37.6l-2.8-7.5h-1l-3,7.5h-0.9v0.8
			h2.9v-0.8h-1.1l0.8-2.1h2.9l0.7,2.1h-1.2v0.8h3.7v-0.8H272.1z M267.4,34.7l1.2-3.1l1.1,3.1H267.4z"/>
	</g>
	<g>
		<polygon fill="#A9D8F1" stroke="#A9D8F1" stroke-width="0.35" stroke-miterlimit="10" points="283.8,30.1 283.8,30.9 282.6,30.9 
			282.6,38.6 281.8,38.6 281.7,38.6 277,31.7 277,37.6 278.3,37.6 278.3,38.4 274.8,38.4 274.8,37.6 276.1,37.6 276.1,30.9 
			274.8,30.9 274.8,30.1 277.4,30.1 281.7,36.3 281.7,30.9 280.4,30.9 280.4,30.1 		"/>
	</g>
	<g>
		<path fill="#A9D8F1" stroke="#A9D8F1" stroke-width="0.35" stroke-miterlimit="10" d="M292.5,37.6l-2.8-7.5h-1l-3,7.5h-0.9v0.8
			h2.9v-0.8h-1.1l0.8-2.1h2.9l0.7,2.1h-1.2v0.8h3.7v-0.8H292.5z M287.9,34.7l1.2-3.1l1.1,3.1H287.9z"/>
	</g>
	<g>
		<path fill="#A9D8F1" stroke="#A9D8F1" stroke-width="0.35" stroke-miterlimit="10" d="M303.3,34.2V35h-1.1v3.4h-0.8l-0.3-1
			c-0.5,0.7-1.3,1.2-2.3,1.2c-2.2,0-3.8-1.8-3.8-4.4c0-2.4,1.7-4.3,3.8-4.3c0.9,0,1.7,0.3,2.2,0.9l0.2-0.9h0.8v3.2h-0.7V33
			c-0.4-1.1-1.1-2.3-2.5-2.3c-1.6,0-2.5,1.3-2.5,3.4c0,2.2,1,3.5,2.6,3.5c0.8,0,1.3-0.4,1.5-0.7c0.3-0.4,0.5-1,0.5-1.7V35h-1.5v-0.8
			C299.4,34.2,303.3,34.2,303.3,34.2z"/>
	</g>
	<g>
		<path fill="#A9D8F1" stroke="#A9D8F1" stroke-width="0.35" stroke-miterlimit="10" d="M312.2,35.4v3h-7.3v-0.8h1.4v-6.7h-1.4v-0.8
			h7.2v2.7h-0.7v-0.1c-0.3-1.6-0.4-1.8-1.1-1.8h-2.7v2.8h1.1c0.7,0,0.7,0,0.9-1.2v-0.1h0.7v3.3h-0.7v-0.1c-0.2-1.1-0.3-1.2-0.9-1.2
			h-1.1v3.1h2.7c0.8,0,0.9-0.2,1.3-2.1v-0.1L312.2,35.4L312.2,35.4z"/>
	</g>
	<g>
		<polygon fill="#A9D8F1" stroke="#A9D8F1" stroke-width="0.35" stroke-miterlimit="10" points="324.2,30.9 324.2,37.6 325.6,37.6 
			325.6,38.4 321.9,38.4 321.9,37.6 323,37.6 323,31.2 320.2,38.4 319.6,38.4 319.6,38.4 316.9,31.2 316.9,37.6 318,37.6 318,38.4 
			314.7,38.4 314.7,37.6 315.9,37.6 315.9,30.9 314.7,30.9 314.7,30.1 317.9,30.1 320.1,36.3 322.4,30.1 325.6,30.1 325.6,30.9 		
			"/>
	</g>
	<g>
		<path fill="#A9D8F1" stroke="#A9D8F1" stroke-width="0.35" stroke-miterlimit="10" d="M334.7,35.4v3h-7.3v-0.8h1.4v-6.7h-1.4v-0.8
			h7.2v2.7H334v-0.1c-0.3-1.6-0.4-1.8-1.1-1.8h-2.7v2.8h1.1c0.7,0,0.7,0,0.9-1.2v-0.1h0.7v3.3h-0.7v-0.1c-0.2-1.1-0.3-1.2-0.9-1.2
			h-1.1v3.1h2.7c0.8,0,0.9-0.2,1.3-2.1v-0.1L334.7,35.4L334.7,35.4z"/>
	</g>
	<g>
		<polygon fill="#A9D8F1" stroke="#A9D8F1" stroke-width="0.35" stroke-miterlimit="10" points="346.2,30.1 346.2,30.9 345,30.9 
			345,38.6 344.1,38.6 344.1,38.6 339.4,31.7 339.4,37.6 340.6,37.6 340.6,38.4 337.2,38.4 337.2,37.6 338.5,37.6 338.5,30.9 
			337.2,30.9 337.2,30.1 339.8,30.1 344.1,36.3 344.1,30.9 342.8,30.9 342.8,30.1 		"/>
	</g>
	<g>
		<path fill="#A9D8F1" stroke="#A9D8F1" stroke-width="0.35" stroke-miterlimit="10" d="M355.3,30.1v3h-0.7V33
			c-0.4-1.9-0.5-2.2-1.4-2.2h-1v6.7h1.4v0.8h-4.1v-0.8h1.4v-6.7h-1c-0.9,0-1,0.3-1.4,2.2v0.1h-0.7v-3H355.3z"/>
	</g>
</g>
<g>
	<path fill="#164e94" d="M358,14.6L358,14.6C357.9,14.6,357.9,14.6,358,14.6c-0.2-0.1-0.6,0.2-1.1,0.6h-0.1
		c-1.1,0.7-1.8,0.9-1.9,0.9h-0.1l0.1-0.5c0.1-0.5,0.1-1.1,0.1-1.8c0-2.2-0.9-4.5-1.7-5.3c-0.1-0.1-0.4-0.2-0.8-0.1
		c-0.6,0-7.9,6.3-10.7,8.8l-0.2,0.2l0.1-0.2c0,0,0.5-1.7,1.5-3.6c0.1-0.2,0.2-0.4,0.3-0.6c0.6-1.2,1.2-2.3,1.2-3.2
		c0-0.8-0.8-1.5-1.4-1.5c-1.4,0-5.3,3.3-8.4,6.5l-1.3,1.4l0.8-1.7c0.3-0.6,0.7-1.4,1.1-2.1l0.2-0.4c0.5-0.9,0.9-1.7,1.1-2.1
		c0.3-0.6,0.3-0.6,0.3-0.7c0-0.6-1.1-1.2-2.2-1.2c-0.4,0-1.2,0.1-1.5,0.7c-0.4,0.7-0.8,1.5-1.3,2.3l0,0c-0.2,0.4-0.6,1.2-0.6,1.2
		l0,0l0,0c-0.9,0.4-1.9,0.6-2.9,0.7c-0.6,0-1.1-0.1-1.1-0.1h-0.1l0.1-0.3c0.2-0.6,0.3-1.2,0.3-1.8c0-1.6-0.7-2.5-2-2.5
		c-1,0-2.1,0.8-2.1,2.5c0,1,0.4,1.9,1,2.6l0.1,0.1l-0.1,0.2c-1,2-2.3,2.9-3.8,2.9c-1.3,0-1.9-1.1-1.9-2.2c0-0.3,0-0.6,0.1-0.9
		c0.3-1.2,1.2-2.4,2.4-3.2c0.2-0.1,0.3-0.2,0.5-0.3c0.7-0.3,1-0.8,1-1.3c0-0.4-0.2-0.7-0.5-0.7c-2.4,0-5.8,2.4-6.9,5.6
		c0,0.1-0.1,0.3-0.1,0.4l-0.1,0.2h-0.1c-0.8,0.5-1.5,0.8-2.2,1.2l-0.5,0.2l0.1-0.5c0.1-0.6,0.2-1.3,0.2-2.2c0-1.5-0.2-2.9-0.6-4
		c-0.3-1-0.8-1.5-1.2-1.5c-0.2,0-2.3,1.8-5.5,4.5c-2.4,2.1-5,3.9-5,3.9l-0.1,0.1l0.1-0.5c0.3-1.1,0.9-2.5,1.3-3.6
		c0.5-1.2,1-2.3,1-2.8c0-0.7-1.2-1-1.9-1s-1.2,0.3-1.6,1.1l-1.5,2.9c-0.9,1.8-4,4.4-5.2,4.4c-0.8,0-1.3-0.6-1.3-1.6
		c0-0.7,0.2-1.3,0.5-1.7l0.1-0.1h0.1c1.9-0.3,6.1-2.3,5.9-4.3c0-0.3-0.1-0.5-0.3-0.7c-0.3-0.3-0.9-0.3-1.7-0.2
		c-1.5,0.2-4.4,2.1-6.3,4.6l0,0l-0.1,0.1l-0.5,0.3c-2,1.5-3.4,2.6-5,3.3c-1,0.4-1.9,0.6-2.7,0.6c-1.1,0-1.9-0.4-2.3-1l-0.2-0.3
		l0.4-0.1c3-0.7,6.5-2.5,6.5-5.1c0-1.6-1.1-2.4-3.2-2.4c-2.9,0-6.3,2.4-7.2,5.2l-0.1,0.2h-0.1c0,0-1-0.2-2.4-0.4c0,0,0,0-0.1,0l0,0
		c0-0.2,0.2-0.9,0.1-1.7c0-0.9-0.2-2.1-0.9-3.1c-0.5-0.6-2.4-2.7-6.3-2.9c-1.9-0.1-4.5,0-5.6,0h-0.3h-0.1c-0.9,0-1.4-0.4-1.4-1.3
		c0-2.4,2.5-5.7,6.7-8.8c3.8-2.9,8-4.8,10.4-4.8c0.5,0,0.9,0.1,1.1,0.4c0.2,0.2,0.3,0.6,0.3,1c-0.1,1.3-1.3,2.6-2.7,4l0,0
		c-0.2,0.2-0.4,0.5-0.7,0.7c-1.7,1.8-2,2.3-1.9,3.8c0,0.5,0.1,0.8,0.3,0.9c0.3,0.1,0.7-0.2,1.5-0.9c5.4-5.4,6.5-8,6.5-9.3
		c0-2.1-2-3.2-3.9-3.2c-7.3,0-22.2,9.2-22.2,16.8c0,1,0.5,2.1,1.2,2.8c0.7,0.7,1.7,1,2.7,0.9c0.4,0,0.7-0.1,1.1-0.1h0.4
		c1.6-0.1,3.3-0.3,5.1-0.3h0.1c2.3,0,4.2,0.7,5.1,1.8c0.6,0.8,0.9,1.9,0.7,3.1v0.1h-0.1c0,0-0.9-0.1-1.9-0.1l0,0c0,0,0,0-0.1,0
		c-4.6,0-8.2,1-11.8,3.3c-2.6,1.6-3.9,3.3-4.2,5.1c0,0.2-0.1,0.5-0.1,0.8c0,0.2,0,0.4,0,0.6c0.2,1.7,2.2,3.7,4.9,4
		c0,0,1.1,0.2,2.2,0.2c3.6,0,7.3-1.8,10-4.9c2.3-2.6,2.8-4.5,3.3-6.8v-0.2c1.2,0.2,2.5,0.5,2.5,0.5l0,0l0,0c0.1,2.7,1.7,4.1,4.7,4.1
		c2.4,0,4.5-1.1,7.8-3.2l0.5-0.3l-0.1,0.6c0,0.2,0,0.4,0,0.5c0,1.7,0.9,2.5,2.6,2.5c1.5,0,3.6-1.2,5.5-3.2l0.8-0.8l-0.3,1.1
		c-0.1,0.4-0.2,0.8-0.2,1.1c0,1.2,0.9,1.8,1.7,1.8h0.1c0.5,0,1.4,0,2.5-0.8c3.3-2.4,9.2-7.5,9.2-7.6l0.1-0.1v0.1
		c0,0.1,0.1,0.5,0.1,0.9c0.1,0.4,0.1,0.9,0.1,1.4c0,1.2-0.1,2.1-0.4,3l-0.2,0.6l-0.3-0.5c-0.3-0.7-1.2-0.9-1.6-0.9
		c-1.1,0-1.9,0.8-2.1,1.9c-0.1,0.4,0.1,0.9,0.4,1.3c0.5,0.5,1.2,0.8,2.1,0.8c2.3-0.1,4.1-0.9,7.1-2.8l0.3-0.2l0.1,0.4
		c0.4,1.7,1.8,2.6,3.8,2.6c2.9,0,5.7-2.4,7.2-4.7l0.1-0.2l0.2,0.1c0.4,0.1,1,0.2,1.4,0.2c0.6,0,1.2-0.1,1.8-0.2l0.5-0.1L330,15
		c-0.6,1.5-0.9,2.6-0.9,3.2c0,0.5,1.3,1.2,1.9,1.2c0.6,0,2.5-1.8,3.7-2.9l0.1-0.1c1.4-1.3,3-2.8,4.4-3.8l0.7-0.5l-0.3,0.8
		c-0.4,1.1-1,3.5-1,4.8c0,1.2,0.3,1.6,1.4,1.7c0,0,1.6,0.2,2.3-0.4c3.1-2.3,8.8-7.3,8.9-7.4l0.3-0.4l0.1,0.5
		c0.4,1.4,0.7,3.3,0.4,4.5v0.4l-0.1-0.1c0,0-0.5-0.5-1.2-0.5h-0.1c-0.9,0-1.8,0.5-1.9,1.5c-0.1,0.4,0.1,0.9,0.4,1.2
		c0.3,0.4,0.8,0.7,1.3,0.7c2.5,0.3,4.7-1.4,5.6-2.1C358.4,15.4,358,14.6,358,14.6z M281.8,10.1c0.4,0,0.6,0.3,0.6,0.7
		c0,0.9-1,2.2-3.1,2.7l0,0c-0.1,0-0.1,0-0.2,0.1C279.4,11.5,280.5,10.1,281.8,10.1z M269.9,14.8c-0.1,0.6-0.4,1.1-0.5,1.5v0.1
		c0,0.1-0.1,0.2-0.1,0.3c-0.3,0.6-0.7,1.3-1.4,2.1c-0.6,0.8-1.4,1.5-2.4,2.3c-1.1,1-2.3,1.7-3.3,2.2c-1.1,0.5-2.1,0.7-3.1,0.7
		c-0.5,0-1-0.1-1.4-0.2c-1.7-0.5-2.3-1.4-1.9-3c0.7-3.2,6.8-6.1,13.1-6.1c0.2,0,0.9,0,1,0h0.1L269.9,14.8z"/>
	<path fill="#164e94" d="M205.1,10.3c0.4-0.1,0.7-1,0.6-1.6c0-0.3-0.1-0.4-0.2-0.4c-0.8-0.5-2.3-0.9-3.8-1
		c2.5-5.8,4.8-10.7,7.4-15.5c0.4-0.7,0.6-1.4,0.6-1.9c0-1.4-1.2-1.8-2.3-1.8c-7.3,0-17.8,5.5-21.8,9.2c-0.2,0.2-0.4,0.7-0.4,1.1
		c0,0.6,0.2,1,0.4,1c0,0,0.1,0,0.2-0.1c5.5-4,12.1-6.8,18.1-7.9l0.4-0.1L204-8.4c-2.1,3.9-4.7,9.7-7.2,15.9
		c-4.6,0.8-8.5,2.4-10.7,4.1c-0.6,0.5-0.9,2.7-0.5,2.8s0.7-0.1,1.7-0.7c2.4-1.8,5.2-2.8,8.3-3.5c-0.1,0.1-0.1,0.3-0.2,0.4
		c-1.5,3.8-2.6,7.5-3.2,10.3c-0.2,1.1-0.5,2.6,0.2,3.1c0.5,0.4,1.1,0.4,1.5,0.4c0.7,0,1.2-0.4,1.4-1.1c0.9-3,2.6-7.4,4.6-12.4
		l0.6-1.4h0.1h0.2c1.4,0.1,2.8,0.3,3.9,0.7C204.9,10.3,205,10.3,205.1,10.3z"/>
	<path fill="#164e94" d="M248.8,15.9c-0.5,0-1.4,0.3-2.7,0.9l-0.5,0.2l0.2-0.6c0.2-0.5,0.4-0.9,0.8-1.7c0.9-1.7,1.3-2.7,1.3-3.3
		c0-0.5-0.3-0.8-0.9-1.1l-0.2-0.1c-0.5-0.2-1.1-0.5-1.8-0.7l-0.2-0.1l0.1-0.3c0.1-0.4,0.2-0.8,0.2-1.1c0-1.1-0.7-1.7-2.1-1.7
		c-1.7,0-2.9,1.6-2.9,3.1c0,0.7,0.2,1.2,0.6,1.7l0.3,0.5l-0.3,0.3c-0.4,0.3-0.8,0.6-1.2,0.9c-1.6,1.3-3.4,2.8-5.7,3.6l-0.5,0.2
		l0.2-0.5c0.7-2,1.6-4.1,2.4-5.9c0.1-0.3,0.3-0.6,0.4-0.9l0.2-0.4c0-0.1,0.1-0.2,0.1-0.3c0-0.6-1.2-0.8-2.3-0.8
		c-0.6,0-1.1,0.3-1.3,0.7c-1.4,3-4.7,6.9-8.1,8.2l-0.6,0.2l0.3-0.6c0.4-0.9,0.8-1.8,1.3-2.8c0.2-0.5,0.5-0.9,0.7-1.4
		c0.5-0.9,1-2.1,1.3-2.7c0.2-0.3,0.2-0.4,0.2-0.5c0-0.5-1.2-1.1-2.3-1.1c-0.4,0-1.2,0.1-1.6,0.7c-0.4,0.7-0.8,1.4-1.2,2.1
		c-0.1,0.1-0.1,0.2-0.2,0.3V11l0,0c-0.1,0.1-0.2,0.1-0.3,0.2c-1.6,1.1-3.1,1.6-4.6,1.6c-0.3,0-0.5-0.1-0.5-0.1l0,0l0.1-0.3
		c0.2-0.6,0.3-1.2,0.3-1.8c0-1.7-0.7-2.6-2-2.6c-1.1,0-2.1,0.8-2.1,2.6c0,1,0.4,2,1,2.7l0.1,0.1l-0.1,0.2c-1.1,2-2.4,3-3.9,3
		c-1.3,0-1.9-1.1-1.9-2.3c0-2,1.6-3.8,3.1-4.5c0.7-0.3,1-0.8,1-1.3s-0.2-0.7-0.5-0.7c-2.9,0-7.4,3.5-7.4,7.8c0,0.9,0.3,3.6,4.1,3.6
		c3,0,5.9-2.4,7.3-4.7l0.1-0.2h0.1c0,0,0.3,0.2,1,0.3c0.7,0.1,2.1-0.2,3.1-0.6l0.6-0.2l-0.2,0.6c0,0,0,0.1-0.1,0.1v0.1
		c-0.5,1.2-0.7,2.1-0.7,2.7c0,1.3,0.2,1.9,2.3,1.9c2.3,0,4.7-1.3,7.1-3.8l1.1-1.1l-0.6,1.4c-0.5,1-0.6,1.7-0.6,2.2
		c0,0.8,0.4,1.2,1.2,1.2c2.4,0,5.7-1.8,12.1-6.6l0,0c0,0,0,0,0.1,0l0.2-0.2l0.1,0.1c0.2,0.1,0.5,0.2,0.8,0.3
		c0.2,0.1,0.5,0.2,0.7,0.3l0.3,0.1l-0.1,0.3c-0.2,0.4-0.4,0.9-0.8,1.5l-0.1,0.2c-0.5,0.9-1,1.7-1,2.3c0,1.1,0.5,1.7,1.4,1.7
		c1.4,0,5.1-1.7,5.1-3C249.3,16,249.1,15.9,248.8,15.9z"/>
</g>
<rect x="108" y="-12.2" fill="#BDD6EF" width="13.3" height="50.9"/>
<rect x="125.7" y="-21" fill="#0068AE" width="13.3" height="50.9"/>
<rect x="143.4" y="1.1" fill="#007BB9" width="13.3" height="50.9"/>
<rect x="161.1" y="-12.2" fill="#A9D8F1" width="13.3" height="50.9"/>
</svg>
