<svg width="95" height="18" viewBox="0 0 95 18" fill="none" xmlns="http://www.w3.org/2000/svg">
<path d="M88.1045 17.6998C84.2645 17.6998 81.6005 15.8998 81.3125 12.3238H83.9285C84.0965 15.0118 85.6325 16.4758 88.1045 16.4758C90.3365 16.4758 92.1605 15.3958 92.1605 13.4998C92.1605 11.8438 90.8645 10.9558 88.6325 10.3798L86.6645 9.8758C83.4965 9.0598 82.0325 7.8358 82.0325 5.33981C82.0325 2.2918 84.9125 0.299805 88.1765 0.299805C91.7285 0.299805 94.1765 1.9558 94.4645 5.0038H91.8725C91.7045 2.81981 90.4325 1.5238 88.1765 1.5238C86.0645 1.5238 84.4565 2.79581 84.4565 4.5238C84.4565 5.9638 85.3685 6.75581 87.4085 7.2838L89.6645 7.85981C92.6405 8.6278 94.6085 9.77981 94.6085 12.5638C94.6085 16.0438 91.3925 17.6998 88.1045 17.6998Z" fill="#061B15"></path>
<path d="M72.9455 17.4597L70.9295 12.4437H63.4175L61.4975 17.4597H59.9375L66.4895 0.659668H69.0815L75.8735 17.4597H72.9455ZM63.9215 11.1717H70.4255L67.0895 2.86767L63.9215 11.1717Z" fill="#061B15"></path>
<path d="M43 17.4597V0.659668H45.784V16.1877H53.704V17.4597H43Z" fill="#061B15"></path>
<path d="M26.1518 17.4597V1.93167H20.3438V0.659668H34.7437V1.93167H28.9358V17.4597H26.1518Z" fill="#061B15"></path>
<path d="M13.008 17.4597L10.992 12.4437H3.48L1.56 17.4597H0L6.552 0.659668H9.144L15.936 17.4597H13.008ZM3.984 11.1717H10.488L7.152 2.86767L3.984 11.1717Z" fill="#061B15"></path>
</svg>