<svg preserveAspectRatio="xMidYMid meet" data-bbox="10.059 12.665 493.041 132.835" viewBox="10.059 12.665 493.041 132.835" xmlns="http://www.w3.org/2000/svg" data-type="color" role="img" aria-label="Benaiah Co logo">
    <g>
        <path d="M179.5 49.8c-1-1.1-2.2-2-3.7-2.7-1.5-.7-3.3-1-5.4-1h-13.8v3.1l.5-.1c.3-.1.6-.1.8 0 .2.1.4.3.6.6.1.2.3.7.3 1.6V104c0 .9-.2 1.4-.3 1.6-.2.3-.4.5-.6.6h-.1c-.1 0-.3.2-.7 0l-.5-.2v3.2h.4c2.6.1 5 .1 7.3.1h8.3c1.1 0 2.3-.4 3.4-1.1 1.1-.7 2.2-1.6 3.2-2.7s1.7-2.4 2.3-3.9c.6-1.5.9-3 .9-4.6v-7.4c0-2.1-.3-3.9-.8-5.4-.5-1.5-1.2-2.8-2-3.8s-1.6-1.7-2.5-2.2c-.2-.1-.5-.3-.7-.3.3-.1.5-.2.8-.4.9-.5 1.7-1.3 2.5-2.3.7-1 1.4-2.2 1.9-3.7s.8-3.2.8-5.2V58c0-1.4-.2-2.9-.7-4.2-.6-1.6-1.3-2.8-2.2-4zm-6.7 25.6c-1 .5-2.2.8-3.4.8h-3.9V49h4.3c.8.1 1.5.3 2.2.4.6.2 1.2.4 1.8.8.6.5 1.1 1.3 1.6 2.3.5 1 .7 2.2.7 3.6V66c0 .9 0 1.6-.1 2.3-.1.7-.1 1.3-.2 1.9-.1.1-.1.3-.1.5-.1.3-.2.6-.2.9 0 .3-.1.5-.2.8-.7 1.5-1.5 2.5-2.5 3zm2.5 8.6c.1.3.2.5.2.8.1.3.1.6.2.9v.3l.1.1v.1c.2 1 .3 2 .3 3.2v7.9c0 .6 0 1.2-.1 1.7s-.1 1.1-.3 1.6c-.4 2.1-1.3 3.6-2.7 4.5-1.4.9-2.8 1.3-4.3 1.3h-3.3V79.2h3.9c1.1 0 2.3.4 3.4 1.2 1.1.7 2 1.9 2.6 3.6z" fill="#202944" data-color="1"></path>
        <path d="m190.2 49 .5-.1c.5-.1.7-.1.8 0 .2.1.4.3.7.6.1.2.3.7.3 1.7v53c0 .7-.1 1.3-.3 1.6-.2.3-.4.5-.6.5h-.1l-.1.1c-.1.1-.4.1-.7-.1l-.5-.2v3.2h25.1v-10h-3v.4c-.1 1.3-.2 2.5-.5 3.5-.3.9-.7 1.6-1.3 2.3-.6.6-1.4.9-2.5.9h-8.7V79.3h5.7c.6 0 1.1.2 1.5.5.4.4.6.9.8 1.4.2.5.3 1.2.3 1.9v.4h2.8V72h-2.8v.4c0 .8-.1 1.5-.3 2.1-.2.5-.4.9-.8 1.2-.3.3-.8.5-1.5.5h-5.7V48.7h8.7c1.1 0 1.9.3 2.5 1 .6.7 1.1 1.5 1.4 2.3.3 1 .5 2.2.5 3.5v.4h3V46h-25.1v3z" fill="#202944" data-color="1"></path>
        <path d="m245.8 49.2.5-.1c.4-.1.7-.1 1 0 .2.1.5.3.7.6.2.3.4.8.4 1.6v45.6l-14.7-50.5-.1-.3H224v3.1l.5-.1c.4-.1.7-.1 1 0 .2.1.5.3.7.6.2.3.4.8.4 1.6v52.9c0 .7-.1 1.2-.3 1.5-.2.3-.5.5-.7.6-.3.1-.6.1-1 0l-.5-.1v3.2h8.5v-3.2l-.5.1c-.5.1-.8.1-1.1 0-.2-.1-.4-.3-.7-.6-.1-.2-.3-.6-.3-1.5V61.5l13.7 47.5.1.3h8v-58c0-.7.1-1.3.3-1.6.2-.3.4-.5.6-.6.3-.1.6-.1 1.1 0l.5.1v-3.1h-8.5v3.1z" fill="#202944" data-color="1"></path>
        <path d="M290.1 106.3c-.4-.1-.8-.3-1.1-.6-.3-.3-.5-.8-.6-1.5 0-.1-.1-.5-.4-2.6-.3-1.6-.6-3.8-1.1-6.6-.4-2.7-.9-5.8-1.4-9.2-.5-3.3-1.1-6.8-1.7-10.6-1.3-8.4-2.9-17.9-4.5-28.6l-.1-.3h-5.1l-5.3 29c-.6 3.6-1.3 7.2-1.9 10.6-.6 3.4-1.2 6.5-1.7 9.2-.5 2.7-.9 4.9-1.2 6.6-.3 2-.4 2.4-.4 2.6-.2.7-.4 1.2-.7 1.5-.3.3-.7.5-1.1.6-.5.1-.9.1-1.4 0l-.5-.1v3.1h9.2v-3.1l-.5.1c-.5.1-.9.1-1.2 0-.2-.1-.4-.3-.5-.5-.1-.2-.2-.6 0-1.5v-.1c0-.1.1-.5.5-3 .3-1.9.7-4.3 1.3-7.4h10.5c.4 3 .8 5.5 1.1 7.4.3 1.9.5 2.9.5 3v.1c.1.9 0 1.3-.1 1.5-.2.3-.4.5-.6.5-.3.1-.7.1-1.2 0l-.5-.1v3.1H292v-3.1l-.5.1c-.5 0-.9 0-1.4-.1zm-11.3-15.6h-9.6l1.2-7.2c.5-2.8 1-5.5 1.4-8.2l1.4-8.1c.3-1.8.6-3.5 1-5.1.3 1.6.5 3.3.8 5.1.4 2.6.9 5.3 1.3 8.1s.9 5.5 1.3 8.3c.5 2.4.8 4.9 1.2 7.1z" fill="#202944" data-color="1"></path>
        <path d="m298.1 49 .5-.1c.4-.1.7-.1.9 0 .1.1.3.2.5.6.1.2.3.7.3 1.7v53c0 .7-.1 1.3-.3 1.6-.3.4-.4.5-.5.5h-.1c-.3.1-.5.1-.9 0l-.5-.2v3.2h11.4V106l-.5.2c-.3.1-.6.1-.8 0h-.1c-.1 0-.2-.1-.5-.5-.2-.3-.3-.8-.3-1.6v-53c0-1 .2-1.4.3-1.7.3-.4.5-.6.6-.6.2-.1.5-.1.9 0l.5.1v-3h-11.4V49z" fill="#202944" data-color="1"></path>
        <path d="M346.2 106.3c-.4-.1-.8-.3-1.1-.6-.3-.3-.5-.8-.6-1.5 0-.1-.1-.5-.4-2.6-.3-1.6-.6-3.8-1.1-6.6-.4-2.7-.9-5.8-1.4-9.2-.5-3.3-1.1-6.8-1.7-10.6-1.3-8.4-2.9-17.9-4.5-28.6l-.1-.3h-5.1l-5.3 29c-.6 3.6-1.3 7.2-1.9 10.6-.6 3.4-1.2 6.5-1.7 9.2-.5 2.7-.9 4.9-1.2 6.6-.3 2-.4 2.4-.4 2.6-.2.7-.4 1.2-.7 1.5-.3.3-.7.5-1.1.6-.5.1-.9.1-1.4 0l-.5-.1v3.1h9.2v-3.1l-.5.1c-.5.1-.9.1-1.2 0-.2-.1-.4-.3-.5-.5-.1-.2-.2-.6 0-1.5v-.1c0-.1.1-.5.5-3 .3-1.9.7-4.3 1.3-7.4h10.5c.4 3 .8 5.5 1.1 7.4.3 1.9.5 2.9.5 3v.1c.1.9 0 1.3-.1 1.5-.2.3-.4.5-.6.5-.3.1-.7.1-1.2 0l-.5-.1v3.1h13.6v-3.1l-.5.1c-.5 0-1 0-1.4-.1zm-11.4-15.6h-9.6l1.2-7.2c.5-2.8 1-5.5 1.4-8.2.5-2.8 1-5.5 1.4-8.1.3-1.8.6-3.5 1-5.1.3 1.6.5 3.3.8 5.1.4 2.6.9 5.3 1.3 8.1s.9 5.5 1.3 8.3c.5 2.4.9 4.9 1.2 7.1z" fill="#202944" data-color="1"></path>
        <path d="m374.5 49 .5-.1c.4-.1.7-.1.9 0 .1.1.3.2.6.6.1.2.3.7.3 1.7v25h-12.6v-25c0-1 .2-1.5.3-1.7.2-.4.4-.5.5-.6.3-.1.6-.1.9 0l.5.1v-3h-11.3v3l.5-.1c.5-.1.7-.1.8 0 .2.1.4.3.7.6.1.2.3.7.3 1.7v53c0 .7-.1 1.3-.3 1.6-.2.3-.4.5-.6.5h-.1l-.1.1c-.1.1-.4.1-.7-.1l-.5-.2v3.2h11.3V106l-.5.2c-.3.1-.6.1-.8 0h-.1s-.2-.1-.5-.5c-.1-.2-.3-.7-.3-1.6V79h12.6v25.1c0 .7-.1 1.3-.3 1.6-.3.4-.5.5-.5.5h-.1c-.2.1-.5.1-.8 0l-.5-.2v3.2H386V106l-.5.2c-.4.1-.7.1-.9 0h-.1s-.2-.1-.5-.5c-.1-.2-.3-.7-.3-1.6v-53c0-1 .2-1.5.3-1.7.2-.4.4-.5.5-.6.3-.1.6-.1 1 0l.5.1v-3h-11.4V49z" fill="#202944" data-color="1"></path>
        <path d="M438 45.9h-.4v.4c0 1-.3 1.6-.8 1.9-.2.1-.5.1-.9 0-.6-.3-1.3-.6-2.1-1s-2-.8-3.3-1.1h-.1s-.1 0-.6-.2l-1.6-.5.6.6h-.6c-2.3 0-4.6.7-6.9 2.1-1.4.9-2.6 2.1-3.6 3.6s-1.6 3.2-1.9 5.1c-.4 2.2-.6 5.1-.7 8.4-.1 3.3-.1 7.6-.1 12.6v9.9c0 2.8.1 5.3.2 7.3.1 2.1.4 3.9.8 5.3.4 1.5 1 2.8 1.8 3.9 1.2 1.8 2.8 3.2 4.7 4.1 1.9.9 3.8 1.4 5.6 1.4h.3c3.7 0 6.7-1.1 8.8-3.2 2.1-2.2 3.2-5.2 3.2-9.1v-4.8h-2.8v2.8c0 2.2-.2 4.1-.7 5.6-.4 1.5-1.1 2.7-1.9 3.6-.8.9-1.8 1.5-3 1.9-1.2.4-2.5.6-4 .6-1.8 0-3.2-.7-4.4-2.2-1.2-1.5-1.8-4-1.8-7.6V58.5c0-1.8.2-3.3.5-4.4.3-1.2.8-2.1 1.4-2.8.6-.7 1.2-1.2 1.9-1.5.7-.3 1.6-.6 2.5-.7 1.2-.2 2.3-.1 3.2.3.9.4 1.7.8 2.4 1.3.6.5 1.1 1.1 1.5 1.6.5.7.6 1 .7 1.2.4.9.8 1.8 1 2.8.2 1 .4 1.9.5 2.7.1 1 .2 1.9.3 2.9v.4h2.7V46h-2.1c0-.1-.1-.1-.3-.1z" fill="#202944" data-color="1"></path>
        <path d="M474.4 56.7c-.2-1.9-.8-3.6-1.8-5.1-1-1.5-2.2-2.7-3.6-3.6-1-.7-2.1-1.2-3.3-1.5-1.2-.4-2.4-.5-3.5-.5-2.3 0-4.6.7-6.9 2.1-1.4.9-2.6 2.1-3.5 3.6-1 1.5-1.6 3.2-1.8 5.1-.5 2.2-.7 5.1-.8 8.4-.1 3.3-.1 7.6-.1 12.6v9.9c0 2.8.1 5.3.2 7.3.1 2.1.4 3.9.8 5.3.4 1.5 1 2.8 1.8 3.9 1.2 1.8 2.8 3.2 4.7 4.1 1.9.9 3.8 1.4 5.6 1.4 1.9 0 3.8-.5 5.7-1.4 1.9-.9 3.4-2.3 4.6-4.1.8-1.1 1.4-2.5 1.8-3.9.4-1.4.6-3.2.8-5.3.1-2.1.2-4.5.2-7.3v-9.9c0-5 0-9.3-.1-12.6-.1-3.4-.4-6.3-.8-8.5zm-5.8 21c-.1 3.6-.1 7.2-.1 10.7v8.8c0 3.6-.5 6.1-1.5 7.6-1 1.4-2.5 2.1-4.6 2.1-2.1 0-3.6-.7-4.7-2.2-1.1-1.5-1.6-4-1.6-7.6V58.4c0-3.6.6-6.1 1.8-7.4 1.2-1.4 2.7-2 4.4-2 1.8 0 3.2.7 4.4 2 1.2 1.4 1.8 3.9 1.8 7.4v8.8c0 3.4 0 7 .1 10.5z" fill="#202944" data-color="1"></path>
        <path d="M487.1 101.5c-1.1-.1-2 .2-2.8.9-.8.6-1.3 1.5-1.5 2.6-.1 1.1.2 2.1.9 2.9.7.8 1.6 1.3 2.6 1.4h.5c.9 0 1.7-.3 2.4-.9.8-.7 1.3-1.6 1.5-2.7.1-1-.2-2-.9-2.8-.7-.8-1.6-1.3-2.7-1.4z" fill="#202944" data-color="1"></path>
        <path d="M489.7 53.8c-1.3-.5-1.9-.9-1.9-1.8 0-.6.5-1.4 1.8-1.4.8 0 1.5.3 1.8.4l.3-1c-.4-.2-1.1-.5-2.1-.5-1.8 0-3 1.1-3 2.5 0 1.3.9 2.1 2.5 2.7 1.3.5 1.8 1 1.8 1.9 0 .9-.7 1.6-2 1.6-.8 0-1.6-.3-2.2-.6l-.3 1c.5.3 1.5.6 2.4.6 2.2 0 3.3-1.2 3.3-2.7 0-1.3-.8-2.1-2.4-2.7z" fill="#202944" data-color="1"></path>
        <path d="M502.5 49.7H501l-1.7 4.5c-.4 1.2-.7 2.2-1 3.1-.2-1-.6-2-.9-3.1l-1.6-4.5h-1.5l-.7 9.4h1.2l.2-4c.1-1.4.2-3 .2-4.1.3 1.1.6 2.3 1.1 3.6l1.5 4.5h.9l1.7-4.5c.5-1.3.9-2.5 1.2-3.6 0 1.2.1 2.7.1 4l.2 4.1h1.2l-.6-9.4z" fill="#202944" data-color="1"></path>
        <path d="M58.6 60.5c-.8-.1-1.5-.2-2.2-.1l-6.8.3c-.4 0-.7.5-.5.9.1.3.3.5.5.8 2.6 3.4 8.7 2.9 8.7 2.9l-.1 6.8c0 .2.2.3.3.3h.1c.1 0 .1-.1.2-.1l5.4-8.8c-1.5-1.6-3.5-2.6-5.6-3z" fill="#202944" data-color="1"></path>
        <path d="M102.5 25.7c-.2 0-.1-.3 0-.3 8.6-.6 14.9 1.8 16.8 2.7.2.1.3-.1.2-.2-7.1-9.4-15.7-13.3-23.6-14.6-3.1-.5-6-.6-8.7-.5-7.7.3-13.5 2.5-14.3 2.9-.1 0-.1.1-.1.1v29.5h.2c.6-1.3 6.6-7.6 13.7-8.7.1 0 .2.1.1.2-.8.7-2.9 2.7-4.3 4.2-.2.2 0 .6.3.5 1.4-.3 3.2-.3 4.4-.1.2 0 .5.1.6.1 3.3 1 5.9 3.5 8.1 6.5 1.8 2.4 3.3 5 4.6 7.3 2.5 4.2 4.8 7.7 4.7 13.7 0 3-.8 5.9-2 8.6-.6 1.2-1.3 2.8-2.1 4.5l-.1.2c-1.5 3.4-3.4 7.4-5.1 11.2-1.9 4.1-3.6 7.9-4.7 10.1l-.1.2c-.3.6-.5 1-.6 1.3l-.2.4-1.4 4c0 .1.2 2.8-1.8 5.4-1.9 2.5-6 5-14.3 5h-.1v25.4c0 .1.1.2.2.2 5.4-1.9 10.1-4 14.2-6.2 3.3-1.7 6.1-3.5 8.7-5.4 16.6-11.8 20.1-24.8 20.7-27.9 0-.2.3-.2.3 0 .8 3.7.1 10.4-.1 12.3 0 .2.2.2.3.1 20.1-22.3 10.8-47.3 9.1-51.2-.1-.1.1-.3.2-.2 4.3 3.1 7.4 9 8.2 10.7.1.1.3.1.3-.1 4.2-39.7-26.6-50.3-32.3-51.9zm-6.6 98.9c-2.7 2.3-5.7 4.2-8.7 5.7-1.3.7-2.7 1.3-4.1 1.8-.2.1-.3-.2-.1-.3 1.5-.9 2.9-2 4.2-3 3.4-2.6 6.2-5.5 8.7-8.4 10-11.8 13.4-24.9 14.2-28.4 0-.2.3-.2.3 0 1.8 13.1-5.1 24.9-14.5 32.6zm25.9-17.6c-.1.2-.3.1-.3-.1 4.7-23.6-7.2-43.1-9.9-47.1-.1-.1.1-.3.2-.2 15.1 11 16.2 33 10 47.4zm11.1-37.9c-9.7-22.8-20.8-28.7-34.4-33.8-.2-.1-.1-.3.1-.3 20 .4 32.2 15.3 34.7 34.1-.1.1-.3.2-.4 0z" fill="#85754e" data-color="2"></path>
        <path d="m95.9 60.8-6.8-.3c-.7 0-1.3 0-1.9.1-2.2.3-4.3 1.3-5.8 2.9l5.4 8.8c.1.2.3.2.4.1.1-.1.1-.1.1-.2l-.1-6.2v-.7c.1 0 6.2.5 8.7-2.9.2-.2.4-.5.5-.8.2-.4 0-.8-.5-.8z" fill="#202945" data-color="3"></path>
        <path d="M101.2 82.1c0 .1-.1.2-.1.2l.1-.2z" fill="#202945" data-color="3"></path>
        <path d="M91.3 103.6c0 .1-.1.1-.1.2l.1-.2z" fill="#202945" data-color="3"></path>
        <path d="M90.6 105.2c-.1.3-.2.4-.2.4l.2-.4z" fill="#202945" data-color="3"></path>
        <path d="m87.2 104.5-12.5-4.4v-9.6s6.2-1.3 7.6-6.7c.1-.4-.3-.8-.7-.7l-3.2.8c-1.8.5-3.7.7-5.6.8h-.2c-1.9 0-3.8-.3-5.6-.8l-3.2-.8c-.4-.1-.8.3-.7.7 1.5 5.4 7.6 6.7 7.6 6.7v9.6l-8.8 3.1-3.4 1.2h-.1l-3.4 1.2s-2.6-5.6-5.6-12.1C47 87.7 44 81.2 42.3 77.6c-1.2-2.7-2-5.6-2-8.6-.1-6 2.2-9.5 4.7-13.7 1.3-2.3 2.8-4.9 4.6-7.3 2.2-2.9 4.8-5.5 8.1-6.5.2-.1.5-.2.8-.2h.1c1-.3 2.2-.5 3.3-.4.4 0 .6-.4.3-.7-1.3-1.3-2.9-2.8-3.5-3.4-.1-.1 0-.2.1-.2 7.2 1.2 13.1 7.5 13.7 8.7h.2V15.7c0-.1 0-.1-.1-.1-.8-.3-6.5-2.5-14.1-2.9h-.1c-2.8-.1-5.8 0-8.9.5-7.9 1.3-16.5 5.3-23.6 14.6-.1.1 0 .3.2.2 1.9-.8 8.1-3.3 16.8-2.7.2 0 .2.3 0 .3-5.7 1.6-36.4 12.2-32.5 52 0 .2.2.2.3.1.9-1.8 3.9-7.7 8.2-10.7.1-.1.3 0 .2.2-1.6 3.8-11 28.9 9.1 51.2.1.1.3 0 .3-.1-.2-1.9-.9-8.6-.1-12.3 0-.2.3-.2.3 0 .6 3.2 4.1 16.2 20.7 27.9 2.6 1.9 5.6 3.7 8.9 5.5h.1c4.1 2.2 8.7 4.2 13.9 6.1.1 0 .2 0 .2-.2v-25.4c-8.1 0-12.1-2.3-14.2-4.7 0 0 0-.1-.1-.1-2.2-2.7-2-5.6-2-5.6l2-.7h.1l3.4-1.3 9.3-3.4c.5-.2 1-.2 1.4-.2h.1c.5 0 .9.1 1.4.2l13 4.8 1.8.6 1.4-4-2.9-1zM13.3 69.1c-.1.2-.3.1-.3-.1 2.5-18.7 14.7-33.6 34.7-34 .2 0 .2.3.1.3C34.1 40.5 23 46.4 13.3 69.1zm21.3-9.4c-2.7 4-14.5 23.5-9.9 47.1 0 .2-.2.3-.3.1-6.3-14.4-5.1-36.4 9.9-47.4.3-.1.4.1.3.2zm24 68.8s0 .1 0 0c1.5 1.2 3 2.3 4.7 3.4.2.1 0 .4-.1.3-1.5-.6-3-1.2-4.4-2h-.1c-3.1-1.6-6.1-3.6-8.9-6.1-9-7.8-15.5-19.3-13.8-32 0-.2.3-.2.3 0 .7 3.4 4 16 13.5 27.6 2.3 3.1 5.3 6.1 8.8 8.8z" fill="#202945" data-color="3"></path>
    </g>
</svg>