<svg fill="#000" height="100%" viewbox="0 0 364 35" width="100%" xmlns="http://www.w3.org/2000/svg">
<path d="M8.21496 33.8028C7.11248 33.8028 4.32568 33.7044 3.21555 33.7044C2.49588 33.7044 1.19435 33.7044 0 33.8028C0.237338 29.8611 0.382803 23.7329 0.382803 19.4583V14.7071C0.382803 10.4401 0.29093 5.26519 0 1.32349C1.202 1.36888 3.21555 1.41427 4.27974 1.41427C5.57362 1.41427 7.54888 1.32349 8.79682 1.32349C13.1225 1.32349 17.3946 2.36755 17.3946 8.10987C17.3946 12.8081 14.7073 15.3729 10.4735 16.3262V16.4169C15.3274 16.7044 18.543 19.0271 18.543 24.255C18.543 31.8509 13.3062 33.8028 8.21496 33.8028ZM7.06655 2.94253C6.58422 2.94253 5.62721 2.98793 5.04535 3.13168C4.85395 6.17306 4.80801 9.20689 4.80801 12.1499V15.6604H6.72968C10.0907 15.6604 12.7397 14.1397 12.7397 8.96479C12.7397 3.78989 9.95288 2.93497 7.06655 2.93497V2.94253ZM6.53828 17.4232H4.80801V22.2198C4.80801 25.3066 4.80801 29.5358 4.99941 31.8584C5.71908 32.0476 6.53828 32.1459 7.30389 32.1459C11.3386 32.1459 13.6967 29.6795 13.6967 24.4063C13.6967 19.133 11.2927 17.4232 6.53828 17.4232Z"></path>
<path d="M28.3045 33.659C27.0565 33.659 25.0889 33.7498 23.3586 33.8028C23.596 30.0048 23.7414 23.7329 23.7414 19.4583V14.7071C23.7414 10.4325 23.6419 5.11387 23.3586 1.31592C24.1778 1.36131 25.1348 1.40671 26 1.40671C26.8651 1.40671 27.8221 1.36131 28.6413 1.31592C28.3504 5.11387 28.2585 10.4325 28.2585 14.7071V19.4583C28.2585 23.7329 28.3581 29.2407 28.4499 31.6617C31.6195 31.6617 35.3174 31.4726 38.0583 30.9505C38.0124 31.3288 38.0124 31.8962 38.0124 32.3729C38.0124 32.8949 38.0124 33.3715 38.0583 33.7952C34.9806 33.6969 31.2827 33.6515 28.3045 33.6515V33.659Z"></path>
<path d="M64.3493 33.8027C63.5301 33.7044 62.4736 33.7044 61.6084 33.7044C60.9347 33.7044 60.215 33.7044 59.2044 33.8027C58.6302 30.8597 57.6196 26.5397 56.4176 22.0306C55.0242 21.9322 53.2021 21.9322 51.6096 21.9322C50.0171 21.9322 48.2945 21.9322 47.0466 22.0306C45.6991 26.1614 44.4052 30.9126 43.7774 33.8027C43.3487 33.7573 42.7209 33.7044 42.2386 33.7044C41.6644 33.7044 41.0825 33.7497 40.6538 33.8027L40.5083 33.7044C42.2845 29.0061 47.1844 14.5708 51.556 1.0813H55.3993C58.9518 14.6616 62.7032 27.9545 64.5254 33.7044L64.334 33.8027H64.3493ZM52.1915 5.74174C50.7981 9.72883 48.8304 15.804 47.6744 19.9349C48.8304 19.9803 50.3617 19.9803 51.7091 19.9803C53.0566 19.9803 54.7333 19.9803 55.8893 19.9349C55.0242 16.2277 53.2939 9.63048 52.1915 5.74174Z"></path>
<path d="M73.5748 33.659C72.3269 33.659 70.3593 33.7498 68.629 33.8028C68.8664 30.0048 69.0118 23.7329 69.0118 19.4583V14.7071C69.0118 10.4325 68.9123 5.11387 68.629 1.31592C69.4482 1.36131 70.4052 1.40671 71.2704 1.40671C72.1355 1.40671 73.0925 1.36131 73.9117 1.31592C73.6208 5.11387 73.5289 10.4325 73.5289 14.7071V19.4583C73.5289 23.7329 73.6284 29.2407 73.7203 31.6617C76.8899 31.6617 80.5878 31.4726 83.3287 30.9505C83.2827 31.3288 83.2827 31.8962 83.2827 32.3729C83.2827 32.8949 83.2827 33.3715 83.3287 33.7952C80.2509 33.6969 76.5531 33.6515 73.5748 33.6515V33.659Z"></path>
<path d="M98.4723 34.5669C89.8745 34.5669 85.166 27.9167 85.166 17.5669C85.166 7.21709 89.8209 0.566895 98.4723 0.566895C107.124 0.566895 111.924 7.16413 111.924 17.5669C111.924 27.9697 107.261 34.5669 98.4723 34.5669ZM98.5182 2.32212C93.2355 2.32212 90.3032 7.35328 90.3032 17.5669C90.3032 27.7805 93.2814 32.8117 98.5182 32.8117C103.755 32.8117 106.733 27.7351 106.733 17.5669C106.733 7.39867 103.847 2.32212 98.5182 2.32212Z"></path>
<path d="M136.194 7.1642H135.229C134.601 4.31196 132.825 2.55673 129.946 2.55673C124.135 2.55673 120.82 7.87537 120.82 17.4686C120.82 26.2523 123.707 32.1914 129.9 32.1914C132.687 32.1914 135.137 30.9582 136.485 28.5825L137.059 28.6809L136.622 31.9568C135.13 33.2884 132.442 34.3778 129.081 34.3778C119.902 34.3778 115.63 27.4931 115.63 17.567C115.63 7.64084 120.483 0.756104 129.854 0.756104C132.641 0.756104 135.237 1.37649 137.204 2.08766C136.913 3.17711 136.385 5.55272 136.194 7.17177V7.1642Z"></path>
<path d="M162.868 33.7574C161.956 33.712 161.237 33.712 160.609 33.712C159.79 33.712 158.06 33.8104 157.194 33.8558C154.645 28.7716 149.799 20.7975 147.732 17.6653C147.54 17.3324 147.249 17.287 147.012 17.287V19.708C147.012 23.8842 147.111 29.967 147.349 33.8104C146.484 33.765 145.572 33.712 144.753 33.712C143.888 33.712 142.977 33.7574 142.112 33.8104C142.349 29.967 142.495 23.7405 142.495 19.4659V15.0476C142.495 10.773 142.349 5.16683 142.112 1.32349C142.977 1.36888 143.888 1.41427 144.707 1.41427C145.572 1.41427 146.438 1.36888 147.349 1.32349C147.111 5.16683 147.012 10.1072 147.012 14.0943V16.137C147.249 16.137 147.54 16.0387 147.777 15.8949C151.093 12.2407 156.138 5.40137 158.442 1.41427C159.499 1.41427 161.084 1.36888 162.14 1.32349L162.286 1.46723C159.208 5.07605 154.216 11.1513 151.284 14.9038C154.599 20.2679 159.69 28.4841 163.005 33.5607L162.86 33.7498L162.868 33.7574Z"></path>
<path d="M204.532 33.8028H200.834C198.813 25.4428 196.125 15.1384 194.204 8.20823H194.058C192.137 15.093 189.442 25.4428 187.329 33.8028H183.631C181.518 22.8326 178.585 8.97235 176.809 1.42184L176.955 1.33105C177.965 1.42184 179.022 1.42184 179.696 1.42184C180.415 1.42184 181.472 1.37645 182.054 1.33105C183.11 8.59407 185.369 20.4192 186.862 27.5914H186.961C188.737 20.805 191.861 8.45789 193.4 1.38401C194.12 1.48237 194.839 1.48237 195.421 1.48237C195.949 1.48237 196.86 1.43697 197.343 1.38401C198.69 7.74672 201.523 19.5264 203.736 27.6898H203.835C205.803 18.6186 208.253 6.08228 208.735 1.33862C209.118 1.38401 209.891 1.42941 210.274 1.42941C210.756 1.42941 211.568 1.38401 211.958 1.33862L212.058 1.42941C210.182 8.93453 207.112 22.3257 204.562 33.8104L204.532 33.8028Z"></path>
<path d="M219.966 33.712C219.101 33.712 218.19 33.7574 217.325 33.8104C217.562 29.967 217.708 23.7405 217.708 19.4659V15.0476C217.708 10.773 217.562 5.16683 217.325 1.32349C218.19 1.36888 219.101 1.41427 219.92 1.41427C220.786 1.41427 221.651 1.36888 222.562 1.32349C222.325 5.16683 222.225 10.773 222.225 15.0476V19.4659C222.225 23.6951 222.325 29.9594 222.562 33.8104C221.697 33.765 220.786 33.712 219.966 33.712Z"></path>
<path d="M236.549 33.659C235.302 33.659 233.334 33.7498 231.604 33.8028C231.841 30.0048 231.986 23.7329 231.986 19.4583V14.7071C231.986 10.4325 231.887 5.11387 231.604 1.31592C232.423 1.36131 233.38 1.40671 234.245 1.40671C235.11 1.40671 236.067 1.36131 236.886 1.31592C236.595 5.11387 236.504 10.4325 236.504 14.7071V19.4583C236.504 23.7329 236.603 29.2407 236.695 31.6617C239.865 31.6617 243.562 31.4726 246.303 30.9505C246.257 31.3288 246.257 31.8962 246.257 32.3729C246.257 32.8949 246.257 33.3715 246.303 33.7952C243.226 33.6969 239.528 33.6515 236.549 33.6515V33.659Z"></path>
<path d="M257.16 33.659C255.912 33.659 253.944 33.7498 252.214 33.8028C252.451 30.0048 252.597 23.7329 252.597 19.4583V14.7071C252.597 10.4325 252.497 5.11387 252.214 1.31592C253.033 1.36131 253.99 1.40671 254.855 1.40671C255.72 1.40671 256.677 1.36131 257.496 1.31592C257.205 5.11387 257.114 10.4325 257.114 14.7071V19.4583C257.114 23.7329 257.213 29.2407 257.305 31.6617C260.475 31.6617 264.173 31.4726 266.913 30.9505C266.867 31.3288 266.867 31.8962 266.867 32.3729C266.867 32.8949 266.867 33.3715 266.913 33.7952C263.836 33.6969 260.138 33.6515 257.16 33.6515V33.659Z"></path>
<path d="M275.473 33.712C274.608 33.712 273.697 33.7574 272.832 33.8104C273.069 29.967 273.214 23.7405 273.214 19.4659V15.0476C273.214 10.773 273.069 5.16683 272.832 1.32349C273.697 1.36888 274.608 1.41427 275.427 1.41427C276.292 1.41427 277.157 1.36888 278.068 1.32349C277.831 5.16683 277.731 10.773 277.731 15.0476V19.4659C277.731 23.6951 277.831 29.9594 278.068 33.8104C277.203 33.765 276.292 33.712 275.473 33.712Z"></path>
<path d="M306.518 33.8027C305.699 33.7044 304.643 33.7044 303.777 33.7044C303.104 33.7044 302.384 33.7044 301.373 33.8027C300.799 30.8597 299.789 26.5397 298.587 22.0306C297.193 21.9322 295.371 21.9322 293.779 21.9322C292.186 21.9322 290.463 21.9322 289.216 22.0306C287.868 26.1614 286.574 30.9126 285.946 33.8027C285.518 33.7573 284.89 33.7044 284.408 33.7044C283.833 33.7044 283.251 33.7497 282.823 33.8027L282.677 33.7044C284.453 29.0061 289.353 14.5708 293.725 1.0813H297.568C301.121 14.6616 304.872 27.9545 306.694 33.7044L306.503 33.8027H306.518ZM294.36 5.74174C292.967 9.72883 290.999 15.804 289.843 19.9349C290.999 19.9803 292.531 19.9803 293.878 19.9803C295.226 19.9803 296.902 19.9803 298.058 19.9349C297.193 16.2277 295.463 9.63048 294.36 5.74174Z"></path>
<path d="M339.776 33.712C338.957 33.712 338.145 33.7574 337.135 33.8103C337.135 28.9683 336.653 13.7236 336.369 8.26117H336.178C333.682 14.5785 329.402 25.8286 326.952 33.19H325.176C322.581 25.6395 318.592 15.335 315.951 8.35952H315.759C315.522 11.2118 314.894 25.3595 314.894 29.7779C314.894 31.3893 314.894 32.8193 314.993 33.8179C314.465 33.7725 313.792 33.7196 313.309 33.7196C312.781 33.7196 312.153 33.765 311.533 33.8179C312.781 24.8905 313.837 8.3217 314.082 1.29321H318.217C321.241 9.78943 325.23 20.6159 327.251 25.6016H327.442C329.555 20.283 333.399 10.0769 336.476 1.29321H340.557C340.749 9.93318 341.66 26.9786 342.287 33.8179C341.468 33.7725 340.603 33.7196 339.792 33.7196L339.776 33.712Z"></path>
<path d="M349.247 27.8185C350.112 31.3289 351.796 32.4713 354.721 32.4713C357.646 32.4713 359.866 30.4286 359.866 26.2524C359.866 22.7419 357.607 21.0321 354.055 18.7019C350.786 16.5683 348.244 14.4273 348.244 9.87276C348.244 4.31957 351.85 0.899902 357.806 0.899902C359.774 0.899902 361.841 1.27818 363.38 1.94396C362.997 3.13177 362.515 5.31824 362.323 6.78597H361.504C361.121 4.26661 359.919 2.56434 357.087 2.56434C354.254 2.56434 352.378 4.65246 352.378 7.88299C352.378 11.1135 354.062 13.0125 356.849 14.7223C361.849 17.7637 364.008 19.6627 364.008 24.3156C364.008 30.6783 359.636 34.3325 354.017 34.3325C351.903 34.3325 349.262 33.9088 347.769 33.243C347.961 31.9644 348.251 29.6342 348.343 27.9698L349.254 27.826L349.247 27.8185Z"></path>
</svg>