<svg width="246" height="34" viewBox="0 0 246 34" fill="none" xmlns="http://www.w3.org/2000/svg">
<path d="M1.15332 31.9541C1.15332 31.5029 1.37891 31.25 1.83008 31.1953C2.48633 31.1406 3.14941 31.0244 3.81934 30.8467C4.48926 30.6553 4.82422 30.334 4.82422 29.8828V7.69336C4.82422 7.10547 4.64648 6.68164 4.29102 6.42188C3.94922 6.16211 3.53906 5.99121 3.06055 5.90918C2.58203 5.81348 2.13086 5.74512 1.70703 5.7041C1.41992 5.67676 1.22168 5.62207 1.1123 5.54004C1.0166 5.44434 0.96875 5.24609 0.96875 4.94531C0.96875 4.79492 1.02344 4.58301 1.13281 4.30957C1.25586 4.03613 1.43359 3.89941 1.66602 3.89941L21.7637 3.87891L22.4814 10.5439C22.5088 10.7764 22.4268 10.9541 22.2354 11.0771C22.0439 11.1865 21.873 11.2412 21.7227 11.2412C21.5039 11.2412 21.2715 11.207 21.0254 11.1387C20.7793 11.0566 20.5742 10.8652 20.4102 10.5645C19.8633 9.53906 19.4121 8.68457 19.0566 8.00098C18.7148 7.30371 18.332 6.78418 17.9082 6.44238C17.498 6.08691 16.9238 5.90918 16.1855 5.90918L9.21289 5.92969V17.0449L14.0117 17.0244C14.3672 16.9697 14.6953 16.71 14.9961 16.2451C15.2969 15.7803 15.543 15.2812 15.7344 14.748C15.9395 14.2012 16.0557 13.791 16.083 13.5176C16.1104 13.2441 16.2197 13.0664 16.4111 12.9844C16.6025 12.9023 16.8076 12.8613 17.0264 12.8613C17.1768 12.8613 17.3545 12.9229 17.5596 13.0459C17.7646 13.1553 17.8672 13.3262 17.8672 13.5586V22.6436C17.8672 22.876 17.7646 23.0537 17.5596 23.1768C17.3545 23.2861 17.1768 23.3408 17.0264 23.3408C16.8076 23.3408 16.5889 23.293 16.3701 23.1973C16.165 23.1016 16.0488 22.9238 16.0215 22.6641C16.0078 22.3633 15.8984 21.9258 15.6934 21.3516C15.502 20.7637 15.249 20.2236 14.9346 19.7314C14.6201 19.2393 14.2715 18.9932 13.8887 18.9932L9.21289 19.0137V28.96C9.21289 29.7119 9.4043 30.2178 9.78711 30.4775C10.1699 30.7373 10.5869 30.8877 11.0381 30.9287L16.8828 30.9082C18.1133 30.9082 19.1865 30.498 20.1025 29.6777C21.0186 28.8438 21.7227 27.3945 22.2148 25.3301C22.2832 25.0703 22.4746 24.8926 22.7891 24.7969C23.1172 24.7012 23.3906 24.6533 23.6094 24.6533C23.8691 24.6533 24.0947 24.7148 24.2861 24.8379C24.4775 24.9473 24.5869 25.1182 24.6143 25.3506L23.5889 32.9795L1.85059 33C1.61816 33 1.44043 32.8633 1.31738 32.5898C1.20801 32.3164 1.15332 32.1045 1.15332 31.9541ZM27.752 33C27.5195 33 27.3418 32.8975 27.2188 32.6924C27.1094 32.4873 27.0547 32.3096 27.0547 32.1592C27.0547 31.708 27.2803 31.4551 27.7314 31.4004C28.2373 31.3457 28.7568 31.2295 29.29 31.0518C29.8369 30.8604 30.1104 30.5391 30.1104 30.0879V5.54004C30.1104 4.69238 29.9326 4.11133 29.5771 3.79688C29.2217 3.48242 28.8047 3.29102 28.3262 3.22266C27.8477 3.1543 27.4238 3.07227 27.0547 2.97656C26.918 2.9082 26.8018 2.81934 26.7061 2.70996C26.6104 2.60059 26.5625 2.41602 26.5625 2.15625C26.5625 1.99219 26.6035 1.80078 26.6855 1.58203C26.7676 1.36328 26.8906 1.24707 27.0547 1.2334C28.4219 1.15137 29.6592 1.10352 30.7666 1.08984C31.874 1.07617 32.7217 1.0625 33.3096 1.04883C33.4189 1.04883 33.542 1.10352 33.6787 1.21289C33.8154 1.32227 33.8975 1.54102 33.9248 1.86914V23.3818L41.3076 15.7324C41.5127 15.582 41.6152 15.4385 41.6152 15.3018C41.6152 15.0146 41.2939 14.8027 40.6514 14.666C40.0225 14.5293 39.4482 14.4473 38.9287 14.4199C38.6689 14.3926 38.498 14.2969 38.416 14.1328C38.334 13.9551 38.293 13.7568 38.293 13.5381C38.293 13.3877 38.3477 13.1963 38.457 12.9639C38.5801 12.7314 38.7578 12.6152 38.9902 12.6152H47.3369C47.5693 12.6152 47.7402 12.7314 47.8496 12.9639C47.9727 13.1963 48.0342 13.3877 48.0342 13.5381C48.0342 13.7842 47.9795 13.9961 47.8701 14.1738C47.7607 14.3379 47.5898 14.4199 47.3574 14.4199C46.6875 14.4199 46.0107 14.6182 45.3271 15.0146C44.6436 15.4111 44.042 15.8076 43.5225 16.2041L39.8516 20.1621C40.125 20.6406 40.4873 21.29 40.9385 22.1104C41.4033 22.917 41.9229 23.8057 42.4971 24.7764C43.0713 25.7471 43.6729 26.7041 44.3018 27.6475C44.9307 28.5908 45.5459 29.4385 46.1475 30.1904C46.4482 30.5596 46.7559 30.8535 47.0703 31.0723C47.3848 31.291 47.7129 31.4004 48.0547 31.4004C48.2871 31.4004 48.458 31.4551 48.5674 31.5645C48.6768 31.6602 48.7314 31.8584 48.7314 32.1592C48.7314 32.3096 48.6699 32.4873 48.5469 32.6924C48.4375 32.8975 48.2666 33 48.0342 33H42.6201C42.292 32.4395 41.9297 31.8174 41.5332 31.1338C41.1504 30.4502 40.7471 29.7393 40.3232 29.001C39.9131 28.2627 39.5029 27.5312 39.0928 26.8066C38.6826 26.0684 38.293 25.3711 37.9238 24.7148C37.5684 24.0449 37.2471 23.4434 36.96 22.9102L33.9248 25.9863V29.4111C33.9248 30.2861 34.1777 30.8262 34.6836 31.0312C35.2031 31.2227 35.7158 31.3457 36.2217 31.4004C36.5088 31.4277 36.7002 31.4824 36.7959 31.5645C36.9053 31.6465 36.96 31.8447 36.96 32.1592C36.96 32.3096 36.8984 32.4873 36.7754 32.6924C36.666 32.8975 36.4951 33 36.2627 33H27.752ZM50.5361 22.9102C50.5361 20.9414 50.9258 19.1504 51.7051 17.5371C52.498 15.9102 53.626 14.6182 55.0889 13.6611C56.5654 12.6904 58.3291 12.2051 60.3799 12.2051C62.4307 12.2051 64.1738 12.6904 65.6094 13.6611C67.0449 14.6182 68.1387 15.9102 68.8906 17.5371C69.6426 19.1504 70.0186 20.9414 70.0186 22.9102C70.0186 24.8789 69.6289 26.6699 68.8496 28.2832C68.084 29.8965 66.9697 31.1885 65.5068 32.1592C64.0439 33.1162 62.2871 33.5947 60.2363 33.5947C58.1855 33.5947 56.4355 33.1162 54.9863 32.1592C53.5508 31.1885 52.4502 29.8965 51.6846 28.2832C50.9189 26.6699 50.5361 24.8789 50.5361 22.9102ZM54.9453 22.9102C54.9453 25.6582 55.3213 27.8047 56.0732 29.3496C56.8252 30.8809 58.2334 31.6465 60.2979 31.6465C62.3623 31.6465 63.7568 30.8809 64.4814 29.3496C65.2061 27.8047 65.5684 25.6582 65.5684 22.9102C65.5684 20.1621 65.1924 18.0225 64.4404 16.4912C63.6885 14.9463 62.2803 14.1738 60.2158 14.1738C58.1514 14.1738 56.7568 14.9463 56.0322 16.4912C55.3076 18.0361 54.9453 20.1758 54.9453 22.9102ZM73.71 33C73.4775 33 73.2998 32.8975 73.1768 32.6924C73.0674 32.4873 73.0127 32.3096 73.0127 32.1592C73.0127 31.708 73.2383 31.4551 73.6895 31.4004C74.1953 31.332 74.7148 31.209 75.248 31.0312C75.7949 30.8535 76.0684 30.5391 76.0684 30.0879V17.0449C76.0684 16.1973 75.8838 15.6162 75.5146 15.3018C75.1455 14.9873 74.7217 14.7959 74.2432 14.7275C73.7646 14.6592 73.3545 14.5771 73.0127 14.4814C72.876 14.4131 72.7598 14.3242 72.6641 14.2148C72.5684 14.1055 72.5205 13.9209 72.5205 13.6611C72.5205 13.4971 72.5615 13.3057 72.6436 13.0869C72.7256 12.8682 72.8486 12.752 73.0127 12.7383C74.3389 12.6562 75.5352 12.6084 76.6016 12.5947C77.6816 12.5674 78.502 12.5537 79.0625 12.5537C79.1719 12.5537 79.2949 12.6084 79.4316 12.7178C79.5684 12.8271 79.6504 13.0459 79.6777 13.374V15.6709C79.9238 15.4248 80.4229 15.0283 81.1748 14.4814C81.9404 13.9209 82.877 13.4014 83.9844 12.9229C85.0918 12.4443 86.2881 12.2051 87.5732 12.2051C88.4619 12.2051 89.2754 12.335 90.0137 12.5947C90.7656 12.8408 91.3672 13.333 91.8184 14.0713C92.2695 14.7959 92.4951 15.8691 92.4951 17.291V29.4111C92.4951 30.0674 92.6592 30.5254 92.9873 30.7852C93.3154 31.0449 93.6982 31.2021 94.1357 31.2568C94.5732 31.2979 94.9629 31.3457 95.3047 31.4004C95.5371 31.4277 95.708 31.4893 95.8174 31.585C95.9268 31.667 95.9814 31.8584 95.9814 32.1592C95.9814 32.3096 95.9199 32.4873 95.7969 32.6924C95.6875 32.8975 95.5166 33 95.2842 33H86.5273C86.2949 33 86.1172 32.8975 85.9941 32.6924C85.8848 32.4873 85.8301 32.3096 85.8301 32.1592C85.8301 31.9404 85.8711 31.7627 85.9531 31.626C86.0352 31.4893 86.2061 31.4141 86.4658 31.4004C86.9033 31.373 87.375 31.2432 87.8809 31.0107C88.3867 30.7783 88.6396 30.4707 88.6396 30.0879V16.6963C88.6396 16.4639 88.585 16.1836 88.4756 15.8555C88.3799 15.5273 88.1406 15.2402 87.7578 14.9941C87.3887 14.748 86.8008 14.625 85.9941 14.625C85.1465 14.625 84.3262 14.7686 83.5332 15.0557C82.7402 15.3291 82.0293 15.6641 81.4004 16.0605C80.7715 16.457 80.2656 16.833 79.8828 17.1885V29.4111C79.8828 30.2861 80.1357 30.8262 80.6416 31.0312C81.1611 31.2227 81.6738 31.3457 82.1797 31.4004C82.4668 31.4277 82.6582 31.4824 82.7539 31.5645C82.8633 31.6465 82.918 31.8447 82.918 32.1592C82.918 32.3096 82.8564 32.4873 82.7334 32.6924C82.624 32.8975 82.4531 33 82.2207 33H73.71Z" fill="#102F40"/>
<path d="M98.4629 33C98.2305 33 98.0527 32.8633 97.9297 32.5898C97.8203 32.3164 97.7656 32.1045 97.7656 31.9541C97.7656 31.5029 97.9912 31.25 98.4424 31.1953C98.9893 31.1543 99.5361 31.0928 100.083 31.0107C100.63 30.915 101.088 30.7783 101.457 30.6006C101.84 30.4229 102.031 30.1836 102.031 29.8828L102.052 7.69336C102.052 7.10547 101.84 6.68164 101.416 6.42188C101.006 6.14844 100.514 5.9707 99.9395 5.88867C99.3652 5.79297 98.8252 5.73145 98.3193 5.7041C98.0322 5.67676 97.834 5.62207 97.7246 5.54004C97.6289 5.44434 97.5811 5.24609 97.5811 4.94531C97.5811 4.79492 97.6357 4.58301 97.7451 4.30957C97.8682 4.03613 98.0459 3.89941 98.2783 3.89941H110.706C112.36 3.89941 113.926 4.09082 115.402 4.47363C116.893 4.85645 118.103 5.51953 119.032 6.46289C119.976 7.40625 120.447 8.73242 120.447 10.4414C120.447 11.7949 120.133 12.9502 119.504 13.9072C118.889 14.8506 118.082 15.5957 117.084 16.1426C116.1 16.6895 115.054 17.0381 113.946 17.1885L114.028 17.0449C114.89 17.0996 115.792 17.2568 116.735 17.5166C117.679 17.7764 118.561 18.1865 119.381 18.7471C120.215 19.2939 120.892 20.0322 121.411 20.9619C121.931 21.8916 122.19 23.0605 122.19 24.4688C122.19 25.959 121.876 27.2441 121.247 28.3242C120.618 29.4043 119.784 30.293 118.745 30.9902C117.706 31.6738 116.564 32.1797 115.32 32.5078C114.09 32.8359 112.859 33 111.629 33H98.4629ZM106.215 16.3066H109.66C110.727 16.3066 111.738 16.1357 112.695 15.7939C113.666 15.4385 114.459 14.8574 115.074 14.0508C115.689 13.2441 115.997 12.1436 115.997 10.749C115.997 8.87598 115.423 7.55664 114.274 6.79102C113.126 6.02539 111.684 5.64258 109.947 5.64258H106.215V16.3066ZM110.07 30.9082C110.781 30.9082 111.567 30.833 112.429 30.6826C113.29 30.5322 114.117 30.2383 114.91 29.8008C115.703 29.3496 116.353 28.6934 116.858 27.832C117.378 26.957 117.638 25.8018 117.638 24.3662C117.638 22.8076 117.337 21.6113 116.735 20.7773C116.147 19.9297 115.396 19.335 114.479 18.9932C113.577 18.6377 112.641 18.4326 111.67 18.3779C110.699 18.3096 109.845 18.2754 109.106 18.2754H106.215V30.1494C106.215 30.1494 106.256 30.2178 106.338 30.3545C106.42 30.4775 106.728 30.6006 107.261 30.7236C107.794 30.8467 108.73 30.9082 110.07 30.9082ZM134.803 33.5947C131.672 33.5947 129.307 32.6445 127.707 30.7441C126.107 28.8301 125.308 26.1641 125.308 22.7461C125.308 20.4629 125.738 18.542 126.6 16.9834C127.461 15.4111 128.596 14.2217 130.004 13.415C131.412 12.6084 132.93 12.2051 134.557 12.2051C136.279 12.2051 137.681 12.5059 138.761 13.1074C139.854 13.6953 140.695 14.5225 141.283 15.5889C141.885 16.6416 142.309 17.8721 142.555 19.2803C142.65 19.7998 142.712 20.3467 142.739 20.9209C142.78 21.4951 142.801 22.083 142.801 22.6846H129.717C129.73 24.8447 130.018 26.5674 130.578 27.8525C131.139 29.1377 131.843 30.0605 132.69 30.6211C133.552 31.1816 134.434 31.4619 135.336 31.4619C136.375 31.4619 137.325 31.2295 138.187 30.7646C139.048 30.2861 139.697 29.6094 140.135 28.7344C140.176 28.6523 140.217 28.5703 140.258 28.4883C140.299 28.4062 140.388 28.3789 140.524 28.4062L141.55 28.8779C141.7 28.9326 141.775 29.0146 141.775 29.124C141.775 29.1787 141.762 29.2402 141.734 29.3086C141.707 29.3633 141.68 29.4111 141.652 29.4521C141.051 30.6553 140.196 31.6465 139.089 32.4258C137.981 33.2051 136.553 33.5947 134.803 33.5947ZM129.758 20.9209L138.248 20.7979C138.248 18.4189 137.893 16.7236 137.182 15.7119C136.471 14.6865 135.589 14.1738 134.536 14.1738C133.565 14.1738 132.738 14.3311 132.055 14.6455C131.371 14.96 130.838 15.6025 130.455 16.5732C130.072 17.5303 129.84 18.9795 129.758 20.9209ZM146.308 33C146.075 33 145.897 32.8975 145.774 32.6924C145.665 32.4873 145.61 32.3096 145.61 32.1592C145.61 31.708 145.836 31.4551 146.287 31.4004C146.793 31.332 147.312 31.209 147.846 31.0312C148.393 30.8535 148.666 30.5391 148.666 30.0879V17.0449C148.666 16.1973 148.481 15.6162 148.112 15.3018C147.743 14.9873 147.319 14.7959 146.841 14.7275C146.362 14.6592 145.952 14.5771 145.61 14.4814C145.474 14.4131 145.357 14.3242 145.262 14.2148C145.166 14.1055 145.118 13.9209 145.118 13.6611C145.118 13.4971 145.159 13.3057 145.241 13.0869C145.323 12.8682 145.446 12.752 145.61 12.7383C146.937 12.6562 148.133 12.6084 149.199 12.5947C150.279 12.5674 151.1 12.5537 151.66 12.5537C151.77 12.5537 151.893 12.6084 152.029 12.7178C152.166 12.8271 152.248 13.0459 152.275 13.374V15.6709C152.521 15.4248 153.021 15.0283 153.772 14.4814C154.538 13.9209 155.475 13.4014 156.582 12.9229C157.689 12.4443 158.886 12.2051 160.171 12.2051C161.06 12.2051 161.873 12.335 162.611 12.5947C163.363 12.8408 163.965 13.333 164.416 14.0713C164.867 14.7959 165.093 15.8691 165.093 17.291V29.4111C165.093 30.0674 165.257 30.5254 165.585 30.7852C165.913 31.0449 166.296 31.2021 166.733 31.2568C167.171 31.2979 167.561 31.3457 167.902 31.4004C168.135 31.4277 168.306 31.4893 168.415 31.585C168.524 31.667 168.579 31.8584 168.579 32.1592C168.579 32.3096 168.518 32.4873 168.395 32.6924C168.285 32.8975 168.114 33 167.882 33H159.125C158.893 33 158.715 32.8975 158.592 32.6924C158.482 32.4873 158.428 32.3096 158.428 32.1592C158.428 31.9404 158.469 31.7627 158.551 31.626C158.633 31.4893 158.804 31.4141 159.063 31.4004C159.501 31.373 159.973 31.2432 160.479 31.0107C160.984 30.7783 161.237 30.4707 161.237 30.0879V16.6963C161.237 16.4639 161.183 16.1836 161.073 15.8555C160.978 15.5273 160.738 15.2402 160.355 14.9941C159.986 14.748 159.398 14.625 158.592 14.625C157.744 14.625 156.924 14.7686 156.131 15.0557C155.338 15.3291 154.627 15.6641 153.998 16.0605C153.369 16.457 152.863 16.833 152.48 17.1885V29.4111C152.48 30.2861 152.733 30.8262 153.239 31.0312C153.759 31.2227 154.271 31.3457 154.777 31.4004C155.064 31.4277 155.256 31.4824 155.352 31.5645C155.461 31.6465 155.516 31.8447 155.516 32.1592C155.516 32.3096 155.454 32.4873 155.331 32.6924C155.222 32.8975 155.051 33 154.818 33H146.308ZM179.92 33.5947C176.789 33.5947 174.424 32.6445 172.824 30.7441C171.225 28.8301 170.425 26.1641 170.425 22.7461C170.425 20.4629 170.855 18.542 171.717 16.9834C172.578 15.4111 173.713 14.2217 175.121 13.415C176.529 12.6084 178.047 12.2051 179.674 12.2051C181.396 12.2051 182.798 12.5059 183.878 13.1074C184.972 13.6953 185.812 14.5225 186.4 15.5889C187.002 16.6416 187.426 17.8721 187.672 19.2803C187.768 19.7998 187.829 20.3467 187.856 20.9209C187.897 21.4951 187.918 22.083 187.918 22.6846H174.834C174.848 24.8447 175.135 26.5674 175.695 27.8525C176.256 29.1377 176.96 30.0605 177.808 30.6211C178.669 31.1816 179.551 31.4619 180.453 31.4619C181.492 31.4619 182.442 31.2295 183.304 30.7646C184.165 30.2861 184.814 29.6094 185.252 28.7344C185.293 28.6523 185.334 28.5703 185.375 28.4883C185.416 28.4062 185.505 28.3789 185.642 28.4062L186.667 28.8779C186.817 28.9326 186.893 29.0146 186.893 29.124C186.893 29.1787 186.879 29.2402 186.852 29.3086C186.824 29.3633 186.797 29.4111 186.77 29.4521C186.168 30.6553 185.313 31.6465 184.206 32.4258C183.099 33.2051 181.67 33.5947 179.92 33.5947ZM174.875 20.9209L183.365 20.7979C183.365 18.4189 183.01 16.7236 182.299 15.7119C181.588 14.6865 180.706 14.1738 179.653 14.1738C178.683 14.1738 177.855 14.3311 177.172 14.6455C176.488 14.96 175.955 15.6025 175.572 16.5732C175.189 17.5303 174.957 18.9795 174.875 20.9209ZM190.502 33C190.27 33 190.092 32.8975 189.969 32.6924C189.859 32.4873 189.805 32.3096 189.805 32.1592C189.805 31.708 190.03 31.4551 190.481 31.4004C190.987 31.3457 191.507 31.2295 192.04 31.0518C192.587 30.8604 192.86 30.5391 192.86 30.0879V14.3994H190.338C190.174 14.3857 190.051 14.3105 189.969 14.1738C189.887 14.0234 189.846 13.8662 189.846 13.7021C189.846 13.251 190.01 12.957 190.338 12.8203L192.84 12.6152L192.86 10.9541C192.888 8.73926 193.394 6.87305 194.378 5.35547C195.362 3.83789 196.716 2.68945 198.438 1.91016C200.175 1.13086 202.171 0.741211 204.427 0.741211C205.657 0.741211 206.737 0.898438 207.667 1.21289C208.61 1.52734 209.342 1.94434 209.861 2.46387C210.381 2.9834 210.641 3.56445 210.641 4.20703C210.641 5.24609 210.477 5.9707 210.148 6.38086C209.834 6.79102 209.451 7.03027 209 7.09863C208.562 7.16699 208.152 7.20117 207.77 7.20117L205.247 3.24316C205.001 3.0791 204.741 2.96289 204.468 2.89453C204.208 2.8125 203.907 2.77148 203.565 2.77148C202.731 2.77148 201.904 2.8877 201.084 3.12012C200.277 3.35254 199.539 3.75586 198.869 4.33008C198.199 4.89062 197.666 5.65625 197.27 6.62695C196.873 7.59766 196.675 8.82129 196.675 10.2979V12.6152H206.683C207.325 12.5879 207.899 12.5742 208.405 12.5742C208.925 12.5742 209.349 12.5674 209.677 12.5537C209.786 12.5537 209.909 12.6084 210.046 12.7178C210.183 12.8271 210.265 13.0459 210.292 13.374V29.4111C210.292 29.999 210.429 30.4297 210.702 30.7031C210.989 30.9629 211.324 31.1338 211.707 31.2158C212.104 31.2979 212.466 31.3594 212.794 31.4004C213.081 31.4277 213.272 31.4824 213.368 31.5645C213.478 31.6465 213.532 31.8447 213.532 32.1592C213.532 32.3096 213.471 32.4873 213.348 32.6924C213.238 32.8975 213.067 33 212.835 33H204.119C203.887 33 203.709 32.8975 203.586 32.6924C203.477 32.4873 203.422 32.3096 203.422 32.1592C203.422 31.708 203.647 31.4551 204.099 31.4004C204.604 31.3457 205.124 31.2295 205.657 31.0518C206.19 30.8604 206.457 30.5391 206.457 30.0879L206.478 17.0449C206.478 16.1973 206.3 15.5889 205.944 15.2197C205.589 14.8369 205.172 14.6045 204.693 14.5225C204.215 14.4268 203.791 14.3789 203.422 14.3789L196.675 14.3994V29.4111C196.675 29.999 196.859 30.4297 197.229 30.7031C197.598 30.9629 198.042 31.1338 198.562 31.2158C199.081 31.2979 199.56 31.3594 199.997 31.4004C200.284 31.4277 200.476 31.4824 200.571 31.5645C200.681 31.6465 200.735 31.8447 200.735 32.1592C200.735 32.3096 200.674 32.4873 200.551 32.6924C200.441 32.8975 200.271 33 200.038 33H190.502ZM222.494 33.6152C221.264 33.6152 220.266 33.4307 219.5 33.0615C218.734 32.7061 218.167 32.1455 217.798 31.3799C217.442 30.6143 217.265 29.6299 217.265 28.4268V14.3994H214.906C214.742 14.3857 214.619 14.3105 214.537 14.1738C214.455 14.0234 214.414 13.8662 214.414 13.7021C214.414 13.1143 214.605 12.8203 214.988 12.8203C215.863 12.7246 216.581 12.4922 217.142 12.123C217.702 11.7402 218.174 11.1387 218.557 10.3184C218.939 9.49805 219.288 8.39062 219.603 6.99609C219.644 6.79102 219.739 6.66113 219.89 6.60645C220.04 6.55176 220.238 6.52441 220.484 6.52441C220.758 6.52441 220.922 6.55859 220.977 6.62695C221.045 6.69531 221.079 6.8252 221.079 7.0166V12.6152H227.129C227.293 12.6289 227.416 12.7109 227.498 12.8613C227.58 12.998 227.621 13.1484 227.621 13.3125C227.621 13.5996 227.56 13.8525 227.437 14.0713C227.327 14.29 227.197 14.3994 227.047 14.3994H221.079V26.9297C221.079 28.0918 221.195 28.9805 221.428 29.5957C221.66 30.1973 221.954 30.6143 222.31 30.8467C222.665 31.0654 223.014 31.1748 223.355 31.1748C224.299 31.1748 225.044 31.0859 225.591 30.9082C226.151 30.7168 226.685 30.4502 227.19 30.1084C227.327 30.0127 227.464 30.0605 227.601 30.252C227.751 30.4434 227.867 30.6621 227.949 30.9082C228.031 31.1543 228.024 31.3184 227.929 31.4004C227.642 31.6465 227.211 31.9473 226.637 32.3027C226.062 32.6445 225.413 32.9453 224.688 33.2051C223.964 33.4785 223.232 33.6152 222.494 33.6152ZM237.321 33.5742C236.2 33.5742 235.339 33.4717 234.737 33.2666C234.136 33.0615 233.644 32.9043 233.261 32.7949C232.687 32.6172 232.276 32.5283 232.03 32.5283C231.853 32.5283 231.709 32.5488 231.6 32.5898C231.49 32.6309 231.381 32.6787 231.271 32.7334C231.162 32.7744 231.012 32.7949 230.82 32.7949C230.588 32.7949 230.39 32.7334 230.226 32.6104C230.075 32.4873 230 32.3164 230 32.0977C230 31.6602 229.986 31.1816 229.959 30.6621C229.932 30.1289 229.897 29.6025 229.856 29.083C229.815 28.5635 229.781 28.0781 229.754 27.627C229.727 27.1758 229.713 26.8066 229.713 26.5195C229.713 26.2051 229.781 25.9795 229.918 25.8428C230.068 25.7061 230.232 25.6377 230.41 25.6377C230.779 25.6377 231.005 25.7881 231.087 26.0889C231.169 26.3896 231.278 26.7656 231.415 27.2168C231.552 27.6543 231.88 28.3652 232.399 29.3496C232.755 29.9922 233.199 30.498 233.732 30.8672C234.266 31.2227 234.826 31.4756 235.414 31.626C236.002 31.7627 236.549 31.8311 237.055 31.8311C238.244 31.8311 239.249 31.5781 240.069 31.0723C240.89 30.5664 241.3 29.835 241.3 28.8779C241.3 28.0439 241.02 27.374 240.459 26.8682C239.912 26.3486 239.222 25.8975 238.388 25.5146C237.554 25.1182 236.713 24.708 235.865 24.2842C234.949 23.8193 234.088 23.3135 233.281 22.7666C232.488 22.2061 231.839 21.5225 231.333 20.7158C230.841 19.8955 230.595 18.8701 230.595 17.6396C230.595 16.4229 230.95 15.4111 231.661 14.6045C232.386 13.7979 233.268 13.1963 234.307 12.7998C235.359 12.4033 236.371 12.2051 237.342 12.2051C238.641 12.2051 239.591 12.3418 240.192 12.6152C240.808 12.875 241.286 13.0049 241.628 13.0049C241.929 13.0049 242.1 12.9297 242.141 12.7793C242.195 12.6152 242.264 12.4648 242.346 12.3281C242.428 12.1777 242.523 12.0684 242.633 12C242.756 11.9316 242.879 11.8975 243.002 11.8975C243.18 11.8975 243.337 11.959 243.474 12.082C243.61 12.2051 243.679 12.3828 243.679 12.6152C243.679 12.7383 243.665 13.0596 243.638 13.5791C243.624 14.085 243.617 14.6455 243.617 15.2607C243.617 15.9033 243.638 16.4365 243.679 16.8604C243.72 17.2705 243.74 17.5713 243.74 17.7627C243.74 18.0498 243.679 18.248 243.556 18.3574C243.446 18.4668 243.316 18.5215 243.166 18.5215C242.824 18.5215 242.619 18.4121 242.551 18.1934C242.318 17.6465 242.018 17.0449 241.648 16.3887C241.293 15.7324 240.787 15.165 240.131 14.6865C239.475 14.208 238.572 13.9688 237.424 13.9688C236.672 13.9688 236.036 14.085 235.517 14.3174C235.011 14.5361 234.628 14.8506 234.368 15.2607C234.108 15.6572 233.979 16.1357 233.979 16.6963C233.979 17.626 234.464 18.4053 235.435 19.0342C236.419 19.6631 237.561 20.2988 238.859 20.9414C239.926 21.4473 240.924 21.9805 241.854 22.541C242.797 23.0879 243.556 23.7305 244.13 24.4688C244.718 25.207 245.012 26.1162 245.012 27.1963C245.012 29.0967 244.335 30.6348 242.981 31.8105C241.642 32.9863 239.755 33.5742 237.321 33.5742Z" fill="#7A1A11"/>
</svg>
