<svg width="636" height="28" viewBox="0 0 636 28" fill="none" xmlns="http://www.w3.org/2000/svg">
<path d="M0.764 27C0.708 27 0.68 26.916 0.68 26.748C0.68 26.58 0.708 26.496 0.764 26.496C1.828 26.496 2.612 26.426 3.116 26.286C3.62 26.146 3.956 25.88 4.124 25.488C4.32 25.068 4.418 24.438 4.418 23.598V4.152C4.418 3.312 4.32 2.696 4.124 2.304C3.956 1.912 3.62 1.646 3.116 1.506C2.64 1.338 1.87 1.254 0.806 1.254C0.75 1.254 0.722 1.17 0.722 1.002C0.722 0.834 0.75 0.75 0.806 0.75H17.69C17.942 0.75 18.068 0.875999 18.068 1.128L18.152 6.294C18.152 6.378 18.068 6.434 17.9 6.462C17.76 6.462 17.69 6.42 17.69 6.336C17.606 4.852 17.158 3.704 16.346 2.892C15.534 2.052 14.456 1.632 13.112 1.632H10.55C9.598 1.632 8.884 1.702 8.408 1.842C7.932 1.982 7.596 2.234 7.4 2.598C7.204 2.962 7.106 3.494 7.106 4.194V23.43C7.106 24.326 7.218 24.984 7.442 25.404C7.694 25.796 8.17 26.076 8.87 26.244C9.598 26.412 10.718 26.496 12.23 26.496C12.314 26.496 12.356 26.58 12.356 26.748C12.356 26.916 12.314 27 12.23 27C11.082 27 10.186 26.986 9.542 26.958L5.762 26.916L2.906 26.958C2.402 26.986 1.688 27 0.764 27ZM15.548 17.718C15.548 16.486 15.212 15.604 14.54 15.072C13.896 14.54 12.804 14.274 11.264 14.274H5.846V13.392H11.39C12.874 13.392 13.924 13.168 14.54 12.72C15.184 12.244 15.506 11.488 15.506 10.452C15.506 10.396 15.59 10.368 15.758 10.368C15.926 10.368 16.01 10.396 16.01 10.452L15.968 13.854C15.968 14.666 15.982 15.282 16.01 15.702L16.052 17.718C16.052 17.774 15.968 17.802 15.8 17.802C15.632 17.802 15.548 17.774 15.548 17.718ZM27.8451 23.598C27.8451 24.466 27.9151 25.096 28.0551 25.488C28.2231 25.88 28.5171 26.146 28.9371 26.286C29.3571 26.426 30.0431 26.496 30.9951 26.496C31.0511 26.496 31.0791 26.58 31.0791 26.748C31.0791 26.916 31.0511 27 30.9951 27C30.2111 27 29.5951 26.986 29.1471 26.958L26.5011 26.916L24.0231 26.958C23.5471 26.986 22.9031 27 22.0911 27C22.0351 27 22.0071 26.916 22.0071 26.748C22.0071 26.58 22.0351 26.496 22.0911 26.496C23.0431 26.496 23.7291 26.426 24.1491 26.286C24.5691 26.146 24.8491 25.88 24.9891 25.488C25.1571 25.096 25.2411 24.466 25.2411 23.598V10.746C25.2411 9.906 25.1571 9.29 24.9891 8.898C24.8491 8.506 24.5551 8.24 24.1071 8.1C23.6871 7.932 23.0151 7.848 22.0911 7.848C22.0351 7.848 22.0071 7.764 22.0071 7.596C22.0071 7.428 22.0351 7.344 22.0911 7.344L24.0231 7.386C25.0311 7.442 25.8571 7.47 26.5011 7.47C27.2291 7.47 28.1251 7.442 29.1891 7.386L30.9951 7.344C31.0511 7.344 31.0791 7.428 31.0791 7.596C31.0791 7.764 31.0511 7.848 30.9951 7.848C30.0991 7.848 29.4271 7.932 28.9791 8.1C28.5311 8.268 28.2231 8.562 28.0551 8.982C27.9151 9.374 27.8451 9.99 27.8451 10.83V23.598ZM36.7898 8.268L37.6298 8.394V22.422C37.6298 23.906 37.8398 24.956 38.2598 25.572C38.6798 26.188 39.4078 26.496 40.4438 26.496C40.4998 26.496 40.5278 26.58 40.5278 26.748C40.5278 26.916 40.4998 27 40.4438 27C39.8278 27 39.3518 26.986 39.0158 26.958L37.2518 26.916L35.4458 26.958C35.0818 26.986 34.5778 27 33.9338 27C33.8778 27 33.8498 26.916 33.8498 26.748C33.8498 26.58 33.8778 26.496 33.9338 26.496C34.9698 26.496 35.6978 26.188 36.1178 25.572C36.5658 24.956 36.7898 23.906 36.7898 22.422V8.268ZM52.4558 27.462C52.4558 27.518 52.3858 27.56 52.2458 27.588C52.1058 27.616 52.0078 27.602 51.9518 27.546L38.1758 10.788C37.2798 9.724 36.4958 8.968 35.8238 8.52C35.1798 8.072 34.5498 7.848 33.9338 7.848C33.8778 7.848 33.8498 7.764 33.8498 7.596C33.8498 7.428 33.8778 7.344 33.9338 7.344L36.2858 7.386L38.5118 7.344C38.7078 7.344 38.8618 7.4 38.9738 7.512C39.1138 7.624 39.3098 7.862 39.5618 8.226C39.7858 8.59 40.0938 9.024 40.4858 9.528L52.0358 23.766L52.4558 27.462ZM52.4558 27.462L51.6158 26.16V11.922C51.6158 10.438 51.4058 9.388 50.9858 8.772C50.5938 8.156 49.8798 7.848 48.8438 7.848C48.7598 7.848 48.7178 7.764 48.7178 7.596C48.7178 7.428 48.7598 7.344 48.8438 7.344L50.2718 7.386C50.9998 7.442 51.5878 7.47 52.0358 7.47C52.4838 7.47 53.0998 7.442 53.8838 7.386L55.3538 7.344C55.4378 7.344 55.4798 7.428 55.4798 7.596C55.4798 7.764 55.4378 7.848 55.3538 7.848C54.3178 7.848 53.5758 8.156 53.1278 8.772C52.6798 9.388 52.4558 10.438 52.4558 11.922V27.462ZM64.565 16.584H72.209L72.503 17.34H63.893L64.565 16.584ZM79.979 26.496C80.091 26.496 80.147 26.58 80.147 26.748C80.147 26.916 80.091 27 79.979 27C79.475 27 78.663 26.972 77.543 26.916C76.423 26.86 75.611 26.832 75.107 26.832C74.659 26.832 74.071 26.86 73.343 26.916C72.615 26.972 72.055 27 71.663 27C71.551 27 71.495 26.916 71.495 26.748C71.495 26.58 71.551 26.496 71.663 26.496C72.419 26.496 72.965 26.412 73.301 26.244C73.665 26.048 73.847 25.726 73.847 25.278C73.847 24.886 73.665 24.284 73.301 23.472L66.917 9.696L68.009 8.772L62.759 21.834C62.311 22.898 62.087 23.78 62.087 24.48C62.087 25.208 62.339 25.726 62.843 26.034C63.347 26.342 64.117 26.496 65.153 26.496C65.293 26.496 65.363 26.58 65.363 26.748C65.363 26.916 65.293 27 65.153 27C64.733 27 64.159 26.972 63.431 26.916C62.647 26.86 61.919 26.832 61.247 26.832C60.547 26.832 59.721 26.86 58.769 26.916C57.929 26.972 57.257 27 56.753 27C56.613 27 56.543 26.916 56.543 26.748C56.543 26.58 56.613 26.496 56.753 26.496C57.621 26.496 58.307 26.384 58.811 26.16C59.315 25.908 59.777 25.432 60.197 24.732C60.645 24.032 61.177 22.94 61.793 21.456L67.841 6.714C67.897 6.602 67.981 6.546 68.093 6.546C68.205 6.546 68.275 6.602 68.303 6.714L75.065 21.246C75.793 22.814 76.367 23.948 76.787 24.648C77.235 25.348 77.683 25.838 78.131 26.118C78.607 26.37 79.223 26.496 79.979 26.496ZM84.2039 8.268L85.0439 8.394V22.422C85.0439 23.906 85.2539 24.956 85.6739 25.572C86.0939 26.188 86.8219 26.496 87.8579 26.496C87.9139 26.496 87.9419 26.58 87.9419 26.748C87.9419 26.916 87.9139 27 87.8579 27C87.2419 27 86.7659 26.986 86.4299 26.958L84.6659 26.916L82.8599 26.958C82.4959 26.986 81.9919 27 81.3479 27C81.2919 27 81.2639 26.916 81.2639 26.748C81.2639 26.58 81.2919 26.496 81.3479 26.496C82.3839 26.496 83.1119 26.188 83.5319 25.572C83.9799 24.956 84.2039 23.906 84.2039 22.422V8.268ZM99.8699 27.462C99.8699 27.518 99.7999 27.56 99.6599 27.588C99.5199 27.616 99.4219 27.602 99.3659 27.546L85.5899 10.788C84.6939 9.724 83.9099 8.968 83.2379 8.52C82.5939 8.072 81.9639 7.848 81.3479 7.848C81.2919 7.848 81.2639 7.764 81.2639 7.596C81.2639 7.428 81.2919 7.344 81.3479 7.344L83.6999 7.386L85.9259 7.344C86.1219 7.344 86.2759 7.4 86.3879 7.512C86.5279 7.624 86.7239 7.862 86.9759 8.226C87.1999 8.59 87.5079 9.024 87.8999 9.528L99.4499 23.766L99.8699 27.462ZM99.8699 27.462L99.0299 26.16V11.922C99.0299 10.438 98.8199 9.388 98.3999 8.772C98.0079 8.156 97.2939 7.848 96.2579 7.848C96.1739 7.848 96.1319 7.764 96.1319 7.596C96.1319 7.428 96.1739 7.344 96.2579 7.344L97.6859 7.386C98.4139 7.442 99.0019 7.47 99.4499 7.47C99.8979 7.47 100.514 7.442 101.298 7.386L102.768 7.344C102.852 7.344 102.894 7.428 102.894 7.596C102.894 7.764 102.852 7.848 102.768 7.848C101.732 7.848 100.99 8.156 100.542 8.772C100.094 9.388 99.8699 10.438 99.8699 11.922V27.462ZM117.103 6.84C118.167 6.84 119.301 6.952 120.505 7.176C121.737 7.372 122.731 7.666 123.487 8.058C123.683 8.142 123.809 8.226 123.865 8.31C123.921 8.394 123.963 8.548 123.991 8.772L124.411 13.098C124.411 13.182 124.327 13.238 124.159 13.266C124.019 13.294 123.935 13.252 123.907 13.14C123.403 11.208 122.479 9.78 121.135 8.856C119.819 7.932 118.181 7.47 116.221 7.47C114.765 7.47 113.449 7.862 112.273 8.646C111.097 9.43 110.173 10.508 109.501 11.88C108.857 13.224 108.535 14.75 108.535 16.458C108.535 18.194 108.871 19.874 109.543 21.498C110.215 23.094 111.209 24.396 112.525 25.404C113.869 26.412 115.479 26.916 117.355 26.916C119.063 26.916 120.505 26.44 121.681 25.488C122.885 24.536 123.753 23.08 124.285 21.12C124.285 21.036 124.355 20.994 124.495 20.994C124.551 20.994 124.607 21.022 124.663 21.078C124.747 21.106 124.789 21.134 124.789 21.162L124.243 25.614C124.215 25.838 124.173 25.992 124.117 26.076C124.061 26.16 123.907 26.258 123.655 26.37C121.499 27.126 119.259 27.504 116.935 27.504C114.275 27.504 112.091 26.972 110.383 25.908C108.675 24.844 107.443 23.514 106.687 21.918C105.931 20.322 105.553 18.712 105.553 17.088C105.553 15.184 106.057 13.448 107.065 11.88C108.073 10.312 109.459 9.08 111.223 8.184C112.987 7.288 114.947 6.84 117.103 6.84ZM134.117 23.598C134.117 24.466 134.187 25.096 134.327 25.488C134.495 25.88 134.789 26.146 135.209 26.286C135.629 26.426 136.315 26.496 137.267 26.496C137.323 26.496 137.351 26.58 137.351 26.748C137.351 26.916 137.323 27 137.267 27C136.483 27 135.867 26.986 135.419 26.958L132.773 26.916L130.295 26.958C129.819 26.986 129.175 27 128.363 27C128.307 27 128.279 26.916 128.279 26.748C128.279 26.58 128.307 26.496 128.363 26.496C129.315 26.496 130.001 26.426 130.421 26.286C130.841 26.146 131.121 25.88 131.261 25.488C131.429 25.096 131.513 24.466 131.513 23.598V10.746C131.513 9.906 131.429 9.29 131.261 8.898C131.121 8.506 130.827 8.24 130.379 8.1C129.959 7.932 129.287 7.848 128.363 7.848C128.307 7.848 128.279 7.764 128.279 7.596C128.279 7.428 128.307 7.344 128.363 7.344L130.295 7.386C131.303 7.442 132.129 7.47 132.773 7.47C133.501 7.47 134.397 7.442 135.461 7.386L137.267 7.344C137.323 7.344 137.351 7.428 137.351 7.596C137.351 7.764 137.323 7.848 137.267 7.848C136.371 7.848 135.699 7.932 135.251 8.1C134.803 8.268 134.495 8.562 134.327 8.982C134.187 9.374 134.117 9.99 134.117 10.83V23.598ZM146.883 16.584H154.527L154.821 17.34H146.211L146.883 16.584ZM162.297 26.496C162.409 26.496 162.465 26.58 162.465 26.748C162.465 26.916 162.409 27 162.297 27C161.793 27 160.981 26.972 159.861 26.916C158.741 26.86 157.929 26.832 157.425 26.832C156.977 26.832 156.389 26.86 155.661 26.916C154.933 26.972 154.373 27 153.981 27C153.869 27 153.813 26.916 153.813 26.748C153.813 26.58 153.869 26.496 153.981 26.496C154.737 26.496 155.283 26.412 155.619 26.244C155.983 26.048 156.165 25.726 156.165 25.278C156.165 24.886 155.983 24.284 155.619 23.472L149.235 9.696L150.327 8.772L145.077 21.834C144.629 22.898 144.405 23.78 144.405 24.48C144.405 25.208 144.657 25.726 145.161 26.034C145.665 26.342 146.435 26.496 147.471 26.496C147.611 26.496 147.681 26.58 147.681 26.748C147.681 26.916 147.611 27 147.471 27C147.051 27 146.477 26.972 145.749 26.916C144.965 26.86 144.237 26.832 143.565 26.832C142.865 26.832 142.039 26.86 141.087 26.916C140.247 26.972 139.575 27 139.071 27C138.931 27 138.861 26.916 138.861 26.748C138.861 26.58 138.931 26.496 139.071 26.496C139.939 26.496 140.625 26.384 141.129 26.16C141.633 25.908 142.095 25.432 142.515 24.732C142.963 24.032 143.495 22.94 144.111 21.456L150.159 6.714C150.215 6.602 150.299 6.546 150.411 6.546C150.523 6.546 150.593 6.602 150.621 6.714L157.383 21.246C158.111 22.814 158.685 23.948 159.105 24.648C159.553 25.348 160.001 25.838 160.449 26.118C160.925 26.37 161.541 26.496 162.297 26.496ZM169.546 23.43C169.546 24.242 169.616 24.844 169.756 25.236C169.924 25.628 170.218 25.908 170.638 26.076C171.086 26.244 171.744 26.328 172.612 26.328H175.426C176.882 26.328 178.044 25.866 178.912 24.942C179.808 24.018 180.41 22.744 180.718 21.12C180.718 21.064 180.774 21.036 180.886 21.036C180.97 21.036 181.04 21.05 181.096 21.078C181.18 21.106 181.222 21.148 181.222 21.204C181.026 22.492 180.928 24.214 180.928 26.37C180.928 26.594 180.872 26.762 180.76 26.874C180.676 26.958 180.522 27 180.298 27H163.876C163.82 27 163.792 26.916 163.792 26.748C163.792 26.58 163.82 26.496 163.876 26.496C164.8 26.496 165.472 26.426 165.892 26.286C166.312 26.146 166.592 25.88 166.732 25.488C166.872 25.068 166.942 24.438 166.942 23.598V10.746C166.942 9.906 166.858 9.29 166.69 8.898C166.55 8.506 166.27 8.24 165.85 8.1C165.43 7.932 164.772 7.848 163.876 7.848C163.82 7.848 163.792 7.764 163.792 7.596C163.792 7.428 163.82 7.344 163.876 7.344L165.766 7.386C166.83 7.442 167.656 7.47 168.244 7.47C168.944 7.47 169.826 7.442 170.89 7.386L172.654 7.344C172.738 7.344 172.78 7.428 172.78 7.596C172.78 7.764 172.738 7.848 172.654 7.848C171.73 7.848 171.058 7.932 170.638 8.1C170.218 8.24 169.924 8.52 169.756 8.94C169.616 9.332 169.546 9.948 169.546 10.788V23.43ZM400.614 5.37C400.614 2.626 399.396 1.254 396.96 1.254C396.876 1.254 396.834 1.17 396.834 1.002C396.834 0.834 396.876 0.75 396.96 0.75L398.766 0.791999C399.774 0.847999 400.572 0.875998 401.16 0.875998C401.636 0.875998 402.322 0.847999 403.218 0.791999L404.982 0.75C405.038 0.75 405.066 0.834 405.066 1.002C405.066 1.17 405.038 1.254 404.982 1.254C402.742 1.254 401.622 2.626 401.622 5.37V17.298C401.622 20.518 400.726 23.038 398.934 24.858C397.142 26.65 394.734 27.546 391.71 27.546C389.638 27.546 387.818 27.14 386.25 26.328C384.71 25.516 383.506 24.368 382.638 22.884C381.798 21.372 381.378 19.608 381.378 17.592V4.152C381.378 3.312 381.294 2.696 381.126 2.304C380.958 1.912 380.622 1.646 380.118 1.506C379.642 1.338 378.872 1.254 377.808 1.254C377.752 1.254 377.724 1.17 377.724 1.002C377.724 0.834 377.752 0.75 377.808 0.75L379.866 0.791999C381.042 0.847999 381.994 0.875998 382.722 0.875998C383.478 0.875998 384.472 0.847999 385.704 0.791999L387.636 0.75C387.72 0.75 387.762 0.834 387.762 1.002C387.762 1.17 387.72 1.254 387.636 1.254C386.6 1.254 385.83 1.338 385.326 1.506C384.85 1.674 384.528 1.968 384.36 2.388C384.192 2.78 384.108 3.396 384.108 4.236V16.122C384.108 19.426 384.85 21.946 386.334 23.682C387.818 25.418 389.918 26.286 392.634 26.286C395.154 26.286 397.114 25.502 398.514 23.934C399.914 22.338 400.614 20.14 400.614 17.34V5.37ZM410.032 8.268L410.872 8.394V22.422C410.872 23.906 411.082 24.956 411.502 25.572C411.922 26.188 412.65 26.496 413.686 26.496C413.742 26.496 413.77 26.58 413.77 26.748C413.77 26.916 413.742 27 413.686 27C413.07 27 412.594 26.986 412.258 26.958L410.494 26.916L408.688 26.958C408.324 26.986 407.82 27 407.176 27C407.12 27 407.092 26.916 407.092 26.748C407.092 26.58 407.12 26.496 407.176 26.496C408.212 26.496 408.94 26.188 409.36 25.572C409.808 24.956 410.032 23.906 410.032 22.422V8.268ZM425.698 27.462C425.698 27.518 425.628 27.56 425.488 27.588C425.348 27.616 425.25 27.602 425.194 27.546L411.418 10.788C410.522 9.724 409.738 8.968 409.066 8.52C408.422 8.072 407.792 7.848 407.176 7.848C407.12 7.848 407.092 7.764 407.092 7.596C407.092 7.428 407.12 7.344 407.176 7.344L409.528 7.386L411.754 7.344C411.95 7.344 412.104 7.4 412.216 7.512C412.356 7.624 412.552 7.862 412.804 8.226C413.028 8.59 413.336 9.024 413.728 9.528L425.278 23.766L425.698 27.462ZM425.698 27.462L424.858 26.16V11.922C424.858 10.438 424.648 9.388 424.228 8.772C423.836 8.156 423.122 7.848 422.086 7.848C422.002 7.848 421.96 7.764 421.96 7.596C421.96 7.428 422.002 7.344 422.086 7.344L423.514 7.386C424.242 7.442 424.83 7.47 425.278 7.47C425.726 7.47 426.342 7.442 427.126 7.386L428.596 7.344C428.68 7.344 428.722 7.428 428.722 7.596C428.722 7.764 428.68 7.848 428.596 7.848C427.56 7.848 426.818 8.156 426.37 8.772C425.922 9.388 425.698 10.438 425.698 11.922V27.462ZM437.009 23.43C437.009 24.242 437.079 24.844 437.219 25.236C437.387 25.628 437.681 25.908 438.101 26.076C438.549 26.244 439.207 26.328 440.075 26.328H442.889C444.345 26.328 445.507 25.866 446.375 24.942C447.271 24.018 447.873 22.744 448.181 21.12C448.181 21.064 448.237 21.036 448.349 21.036C448.433 21.036 448.503 21.05 448.559 21.078C448.643 21.106 448.685 21.148 448.685 21.204C448.489 22.492 448.391 24.214 448.391 26.37C448.391 26.594 448.335 26.762 448.223 26.874C448.139 26.958 447.985 27 447.761 27H431.339C431.283 27 431.255 26.916 431.255 26.748C431.255 26.58 431.283 26.496 431.339 26.496C432.263 26.496 432.935 26.426 433.355 26.286C433.775 26.146 434.055 25.88 434.195 25.488C434.335 25.068 434.405 24.438 434.405 23.598V10.746C434.405 9.906 434.321 9.29 434.153 8.898C434.013 8.506 433.733 8.24 433.313 8.1C432.893 7.932 432.235 7.848 431.339 7.848C431.283 7.848 431.255 7.764 431.255 7.596C431.255 7.428 431.283 7.344 431.339 7.344L433.229 7.386C434.293 7.442 435.119 7.47 435.707 7.47C436.407 7.47 437.289 7.442 438.353 7.386L440.117 7.344C440.201 7.344 440.243 7.428 440.243 7.596C440.243 7.764 440.201 7.848 440.117 7.848C439.193 7.848 438.521 7.932 438.101 8.1C437.681 8.24 437.387 8.52 437.219 8.94C437.079 9.332 437.009 9.948 437.009 10.788V23.43ZM456.787 23.598C456.787 24.466 456.857 25.096 456.997 25.488C457.165 25.88 457.459 26.146 457.879 26.286C458.299 26.426 458.985 26.496 459.937 26.496C459.993 26.496 460.021 26.58 460.021 26.748C460.021 26.916 459.993 27 459.937 27C459.153 27 458.537 26.986 458.089 26.958L455.443 26.916L452.965 26.958C452.489 26.986 451.845 27 451.033 27C450.977 27 450.949 26.916 450.949 26.748C450.949 26.58 450.977 26.496 451.033 26.496C451.985 26.496 452.671 26.426 453.091 26.286C453.511 26.146 453.791 25.88 453.931 25.488C454.099 25.096 454.183 24.466 454.183 23.598V10.746C454.183 9.906 454.099 9.29 453.931 8.898C453.791 8.506 453.497 8.24 453.049 8.1C452.629 7.932 451.957 7.848 451.033 7.848C450.977 7.848 450.949 7.764 450.949 7.596C450.949 7.428 450.977 7.344 451.033 7.344L452.965 7.386C453.973 7.442 454.799 7.47 455.443 7.47C456.171 7.47 457.067 7.442 458.131 7.386L459.937 7.344C459.993 7.344 460.021 7.428 460.021 7.596C460.021 7.764 459.993 7.848 459.937 7.848C459.041 7.848 458.369 7.932 457.921 8.1C457.473 8.268 457.165 8.562 456.997 8.982C456.857 9.374 456.787 9.99 456.787 10.83V23.598ZM466.403 8.268L467.243 8.394L466.781 22.422C466.753 23.906 466.949 24.956 467.369 25.572C467.789 26.188 468.503 26.496 469.511 26.496C469.595 26.496 469.637 26.58 469.637 26.748C469.637 26.916 469.595 27 469.511 27C468.923 27 468.475 26.986 468.167 26.958L466.319 26.916L464.555 26.958C464.191 26.986 463.687 27 463.043 27C462.987 27 462.959 26.916 462.959 26.748C462.959 26.58 462.987 26.496 463.043 26.496C464.079 26.496 464.807 26.188 465.227 25.572C465.647 24.956 465.885 23.906 465.941 22.422L466.403 8.268ZM489.293 26.496C489.349 26.496 489.377 26.58 489.377 26.748C489.377 26.916 489.349 27 489.293 27C488.509 27 487.893 26.986 487.445 26.958L484.967 26.916L482.111 26.958C481.635 26.986 480.977 27 480.137 27C480.081 27 480.053 26.916 480.053 26.748C480.053 26.58 480.081 26.496 480.137 26.496C481.173 26.496 481.943 26.426 482.447 26.286C482.951 26.146 483.287 25.88 483.455 25.488C483.623 25.068 483.693 24.438 483.665 23.598L483.077 8.184L483.791 7.848L475.895 26.706C475.839 26.818 475.741 26.874 475.601 26.874C475.433 26.874 475.321 26.818 475.265 26.706L467.243 10.83C466.263 8.842 464.975 7.848 463.379 7.848C463.295 7.848 463.253 7.764 463.253 7.596C463.253 7.428 463.295 7.344 463.379 7.344L465.689 7.386L467.705 7.344C468.069 7.344 468.363 7.47 468.587 7.722C468.811 7.974 469.161 8.576 469.637 9.528L476.735 23.64L475.559 25.53L482.741 8.394C482.853 8.086 483.021 7.834 483.245 7.638C483.497 7.442 483.749 7.344 484.001 7.344L486.227 7.386L489.041 7.344C489.097 7.344 489.125 7.428 489.125 7.596C489.125 7.764 489.097 7.848 489.041 7.848C487.781 7.848 486.899 8.044 486.395 8.436C485.891 8.8 485.667 9.542 485.723 10.662L486.227 23.598C486.283 24.466 486.381 25.096 486.521 25.488C486.661 25.88 486.927 26.146 487.319 26.286C487.739 26.426 488.397 26.496 489.293 26.496ZM498.007 23.598C498.007 24.466 498.077 25.096 498.217 25.488C498.385 25.88 498.679 26.146 499.099 26.286C499.519 26.426 500.205 26.496 501.157 26.496C501.213 26.496 501.241 26.58 501.241 26.748C501.241 26.916 501.213 27 501.157 27C500.373 27 499.757 26.986 499.309 26.958L496.663 26.916L494.185 26.958C493.709 26.986 493.065 27 492.253 27C492.197 27 492.169 26.916 492.169 26.748C492.169 26.58 492.197 26.496 492.253 26.496C493.205 26.496 493.891 26.426 494.311 26.286C494.731 26.146 495.011 25.88 495.151 25.488C495.319 25.096 495.403 24.466 495.403 23.598V10.746C495.403 9.906 495.319 9.29 495.151 8.898C495.011 8.506 494.717 8.24 494.269 8.1C493.849 7.932 493.177 7.848 492.253 7.848C492.197 7.848 492.169 7.764 492.169 7.596C492.169 7.428 492.197 7.344 492.253 7.344L494.185 7.386C495.193 7.442 496.019 7.47 496.663 7.47C497.391 7.47 498.287 7.442 499.351 7.386L501.157 7.344C501.213 7.344 501.241 7.428 501.241 7.596C501.241 7.764 501.213 7.848 501.157 7.848C500.261 7.848 499.589 7.932 499.141 8.1C498.693 8.268 498.385 8.562 498.217 8.982C498.077 9.374 498.007 9.99 498.007 10.83V23.598ZM509.136 7.89C508.072 7.89 507.232 8.044 506.616 8.352C506 8.632 505.51 9.122 505.146 9.822C504.81 10.522 504.544 11.516 504.348 12.804C504.348 12.86 504.264 12.888 504.096 12.888C503.956 12.888 503.886 12.86 503.886 12.804C503.97 12.16 504.068 11.124 504.18 9.696C504.292 8.268 504.348 7.176 504.348 6.42C504.348 6.28 504.432 6.21 504.6 6.21C504.768 6.21 504.852 6.28 504.852 6.42C504.852 6.784 505.062 7.022 505.482 7.134C505.902 7.218 506.42 7.26 507.036 7.26C509.5 7.316 511.614 7.344 513.378 7.344L517.032 7.302C517.536 7.274 518.194 7.26 519.006 7.26C520.014 7.26 520.756 7.204 521.232 7.092C521.708 6.952 522.016 6.672 522.156 6.252C522.212 6.168 522.31 6.126 522.45 6.126C522.59 6.126 522.66 6.168 522.66 6.252C522.492 9.276 522.408 11.46 522.408 12.804C522.408 12.86 522.324 12.888 522.156 12.888C522.016 12.888 521.946 12.86 521.946 12.804C521.918 11.544 521.764 10.564 521.484 9.864C521.232 9.164 520.798 8.66 520.182 8.352C519.566 8.044 518.712 7.89 517.62 7.89C516.416 7.89 515.604 8.086 515.184 8.478C514.792 8.842 514.596 9.598 514.596 10.746V23.598C514.596 24.466 514.68 25.096 514.848 25.488C515.016 25.88 515.338 26.146 515.814 26.286C516.318 26.426 517.116 26.496 518.208 26.496C518.292 26.496 518.334 26.58 518.334 26.748C518.334 26.916 518.292 27 518.208 27C517.34 27 516.668 26.986 516.192 26.958L513.252 26.916L510.438 26.958C509.934 26.986 509.234 27 508.338 27C508.282 27 508.254 26.916 508.254 26.748C508.254 26.58 508.282 26.496 508.338 26.496C509.402 26.496 510.186 26.426 510.69 26.286C511.194 26.146 511.53 25.88 511.698 25.488C511.894 25.068 511.992 24.438 511.992 23.598V10.662C511.992 9.85 511.922 9.262 511.782 8.898C511.67 8.506 511.418 8.24 511.026 8.1C510.634 7.96 510.004 7.89 509.136 7.89ZM525.142 27C525.086 27 525.058 26.916 525.058 26.748C525.058 26.58 525.086 26.496 525.142 26.496C526.066 26.496 526.738 26.426 527.158 26.286C527.578 26.146 527.858 25.88 527.998 25.488C528.166 25.068 528.25 24.438 528.25 23.598V10.746C528.25 9.906 528.166 9.29 527.998 8.898C527.858 8.506 527.578 8.24 527.158 8.1C526.738 7.932 526.066 7.848 525.142 7.848C525.086 7.848 525.058 7.764 525.058 7.596C525.058 7.428 525.086 7.344 525.142 7.344H539.758C540.038 7.344 540.178 7.456 540.178 7.68L540.22 10.284C540.248 10.816 540.262 11.488 540.262 12.3C540.262 12.384 540.178 12.426 540.01 12.426C539.842 12.426 539.758 12.384 539.758 12.3C539.646 11.012 539.17 9.962 538.33 9.15C537.518 8.31 536.51 7.89 535.306 7.89H534.13C533.15 7.89 532.436 7.974 531.988 8.142C531.54 8.282 531.232 8.548 531.064 8.94C530.896 9.332 530.812 9.948 530.812 10.788V23.43C530.812 24.242 530.896 24.858 531.064 25.278C531.232 25.67 531.54 25.95 531.988 26.118C532.464 26.258 533.178 26.328 534.13 26.328H536.146C537.294 26.328 538.302 25.88 539.17 24.984C540.066 24.06 540.668 22.87 540.976 21.414C540.976 21.33 541.046 21.288 541.186 21.288C541.354 21.288 541.438 21.33 541.438 21.414C541.242 23.43 541.144 25.082 541.144 26.37C541.144 26.594 541.102 26.762 541.018 26.874C540.934 26.958 540.766 27 540.514 27H525.142ZM538.078 17.97C537.966 17.97 537.35 17.886 536.23 17.718C535.138 17.522 532.982 17.424 529.762 17.424V16.542C532.954 16.542 535.096 16.472 536.188 16.332C537.308 16.192 537.938 16.122 538.078 16.122C538.218 16.122 538.288 16.416 538.288 17.004C538.288 17.648 538.218 17.97 538.078 17.97ZM554.662 27.168C553.878 27.168 552.996 27.126 552.016 27.042C551.68 27.014 551.26 26.986 550.756 26.958C550.252 26.93 549.678 26.916 549.034 26.916L546.556 26.958C546.08 26.986 545.436 27 544.624 27C544.568 27 544.54 26.916 544.54 26.748C544.54 26.58 544.568 26.496 544.624 26.496C545.576 26.496 546.262 26.426 546.682 26.286C547.13 26.146 547.424 25.88 547.564 25.488C547.732 25.068 547.816 24.438 547.816 23.598V10.746C547.816 9.906 547.732 9.29 547.564 8.898C547.424 8.506 547.13 8.24 546.682 8.1C546.262 7.932 545.59 7.848 544.666 7.848C544.61 7.848 544.582 7.764 544.582 7.596C544.582 7.428 544.61 7.344 544.666 7.344L546.556 7.386C547.62 7.442 548.446 7.47 549.034 7.47C549.902 7.47 550.77 7.428 551.638 7.344C552.758 7.288 553.598 7.26 554.158 7.26C556.51 7.26 558.54 7.68 560.248 8.52C561.956 9.36 563.258 10.522 564.154 12.006C565.05 13.49 565.498 15.17 565.498 17.046C565.498 18.978 565.036 20.714 564.112 22.254C563.188 23.794 561.9 24.998 560.248 25.866C558.624 26.734 556.762 27.168 554.662 27.168ZM554.158 26.58C556.79 26.58 558.834 25.796 560.29 24.228C561.746 22.66 562.474 20.42 562.474 17.508C562.474 14.708 561.746 12.398 560.29 10.578C558.862 8.758 556.706 7.848 553.822 7.848C552.534 7.848 551.624 8.058 551.092 8.478C550.588 8.898 550.336 9.682 550.336 10.83V23.136C550.336 24.396 550.588 25.292 551.092 25.824C551.624 26.328 552.646 26.58 554.158 26.58Z" fill="#072031"/>
<path d="M209.121 0.287998C210.465 0.287998 211.823 0.413998 213.195 0.665999C214.567 0.917999 215.659 1.282 216.471 1.758C216.723 1.87 216.877 1.996 216.933 2.136C217.017 2.248 217.073 2.458 217.101 2.766L217.563 7.47C217.563 7.554 217.493 7.61 217.353 7.638C217.213 7.638 217.129 7.596 217.101 7.512C216.485 5.356 215.337 3.774 213.657 2.766C212.005 1.73 209.947 1.212 207.483 1.212C205.355 1.212 203.493 1.688 201.897 2.64C200.301 3.564 199.069 4.88 198.201 6.588C197.333 8.296 196.899 10.27 196.899 12.51C196.899 15.114 197.431 17.522 198.495 19.734C199.587 21.946 201.043 23.696 202.863 24.984C204.711 26.272 206.699 26.916 208.827 26.916C210.843 26.916 212.593 26.37 214.077 25.278C215.561 24.158 216.695 22.45 217.479 20.154C217.479 20.07 217.535 20.028 217.647 20.028C217.731 20.028 217.801 20.042 217.857 20.07C217.941 20.098 217.983 20.14 217.983 20.196L217.395 24.942C217.339 25.278 217.269 25.502 217.185 25.614C217.129 25.698 216.975 25.796 216.723 25.908C214.203 26.972 211.543 27.504 208.743 27.504C205.383 27.504 202.569 26.832 200.301 25.488C198.061 24.116 196.409 22.38 195.345 20.28C194.281 18.18 193.749 15.968 193.749 13.644C193.749 11.068 194.463 8.758 195.891 6.714C197.319 4.67 199.209 3.088 201.561 1.968C203.913 0.847999 206.433 0.287998 209.121 0.287998ZM231.337 27.504C229.377 27.504 227.627 27.042 226.087 26.118C224.575 25.194 223.399 23.948 222.559 22.38C221.719 20.812 221.299 19.118 221.299 17.298C221.299 15.114 221.859 13.238 222.979 11.67C224.127 10.074 225.569 8.87 227.305 8.058C229.069 7.246 230.861 6.84 232.681 6.84C234.641 6.84 236.363 7.33 237.847 8.31C239.359 9.262 240.507 10.508 241.291 12.048C242.103 13.588 242.509 15.198 242.509 16.878C242.509 18.754 242.005 20.518 240.997 22.17C239.989 23.794 238.631 25.096 236.923 26.076C235.215 27.028 233.353 27.504 231.337 27.504ZM232.429 26.622C234.613 26.622 236.349 25.852 237.637 24.312C238.953 22.772 239.611 20.644 239.611 17.928C239.611 16.052 239.275 14.344 238.603 12.804C237.959 11.264 237.007 10.032 235.747 9.108C234.487 8.184 232.989 7.722 231.253 7.722C229.013 7.722 227.277 8.478 226.045 9.99C224.813 11.474 224.197 13.56 224.197 16.248C224.197 18.18 224.519 19.93 225.163 21.498C225.835 23.066 226.787 24.312 228.019 25.236C229.279 26.16 230.749 26.622 232.429 26.622ZM248.143 8.268L248.983 8.394V22.422C248.983 23.906 249.193 24.956 249.613 25.572C250.033 26.188 250.761 26.496 251.797 26.496C251.853 26.496 251.881 26.58 251.881 26.748C251.881 26.916 251.853 27 251.797 27C251.181 27 250.705 26.986 250.369 26.958L248.605 26.916L246.799 26.958C246.435 26.986 245.931 27 245.287 27C245.231 27 245.203 26.916 245.203 26.748C245.203 26.58 245.231 26.496 245.287 26.496C246.323 26.496 247.051 26.188 247.471 25.572C247.919 24.956 248.143 23.906 248.143 22.422V8.268ZM263.809 27.462C263.809 27.518 263.739 27.56 263.599 27.588C263.459 27.616 263.361 27.602 263.305 27.546L249.529 10.788C248.633 9.724 247.849 8.968 247.177 8.52C246.533 8.072 245.903 7.848 245.287 7.848C245.231 7.848 245.203 7.764 245.203 7.596C245.203 7.428 245.231 7.344 245.287 7.344L247.639 7.386L249.865 7.344C250.061 7.344 250.215 7.4 250.327 7.512C250.467 7.624 250.663 7.862 250.915 8.226C251.139 8.59 251.447 9.024 251.839 9.528L263.389 23.766L263.809 27.462ZM263.809 27.462L262.969 26.16V11.922C262.969 10.438 262.759 9.388 262.339 8.772C261.947 8.156 261.233 7.848 260.197 7.848C260.113 7.848 260.071 7.764 260.071 7.596C260.071 7.428 260.113 7.344 260.197 7.344L261.625 7.386C262.353 7.442 262.941 7.47 263.389 7.47C263.837 7.47 264.453 7.442 265.237 7.386L266.707 7.344C266.791 7.344 266.833 7.428 266.833 7.596C266.833 7.764 266.791 7.848 266.707 7.848C265.671 7.848 264.929 8.156 264.481 8.772C264.033 9.388 263.809 10.438 263.809 11.922V27.462ZM281.042 6.84C282.106 6.84 283.24 6.952 284.444 7.176C285.676 7.372 286.67 7.666 287.426 8.058C287.622 8.142 287.748 8.226 287.804 8.31C287.86 8.394 287.902 8.548 287.93 8.772L288.35 13.098C288.35 13.182 288.266 13.238 288.098 13.266C287.958 13.294 287.874 13.252 287.846 13.14C287.342 11.208 286.418 9.78 285.074 8.856C283.758 7.932 282.12 7.47 280.16 7.47C278.704 7.47 277.388 7.862 276.212 8.646C275.036 9.43 274.112 10.508 273.44 11.88C272.796 13.224 272.474 14.75 272.474 16.458C272.474 18.194 272.81 19.874 273.482 21.498C274.154 23.094 275.148 24.396 276.464 25.404C277.808 26.412 279.418 26.916 281.294 26.916C283.002 26.916 284.444 26.44 285.62 25.488C286.824 24.536 287.692 23.08 288.224 21.12C288.224 21.036 288.294 20.994 288.434 20.994C288.49 20.994 288.546 21.022 288.602 21.078C288.686 21.106 288.728 21.134 288.728 21.162L288.182 25.614C288.154 25.838 288.112 25.992 288.056 26.076C288 26.16 287.846 26.258 287.594 26.37C285.438 27.126 283.198 27.504 280.874 27.504C278.214 27.504 276.03 26.972 274.322 25.908C272.614 24.844 271.382 23.514 270.626 21.918C269.87 20.322 269.492 18.712 269.492 17.088C269.492 15.184 269.996 13.448 271.004 11.88C272.012 10.312 273.398 9.08 275.162 8.184C276.926 7.288 278.886 6.84 281.042 6.84ZM292.05 27C291.994 27 291.966 26.916 291.966 26.748C291.966 26.58 291.994 26.496 292.05 26.496C292.974 26.496 293.646 26.426 294.066 26.286C294.486 26.146 294.766 25.88 294.906 25.488C295.074 25.068 295.158 24.438 295.158 23.598V10.746C295.158 9.906 295.074 9.29 294.906 8.898C294.766 8.506 294.486 8.24 294.066 8.1C293.646 7.932 292.974 7.848 292.05 7.848C291.994 7.848 291.966 7.764 291.966 7.596C291.966 7.428 291.994 7.344 292.05 7.344H306.666C306.946 7.344 307.086 7.456 307.086 7.68L307.128 10.284C307.156 10.816 307.17 11.488 307.17 12.3C307.17 12.384 307.086 12.426 306.918 12.426C306.75 12.426 306.666 12.384 306.666 12.3C306.554 11.012 306.078 9.962 305.238 9.15C304.426 8.31 303.418 7.89 302.214 7.89H301.038C300.058 7.89 299.344 7.974 298.896 8.142C298.448 8.282 298.14 8.548 297.972 8.94C297.804 9.332 297.72 9.948 297.72 10.788V23.43C297.72 24.242 297.804 24.858 297.972 25.278C298.14 25.67 298.448 25.95 298.896 26.118C299.372 26.258 300.086 26.328 301.038 26.328H303.054C304.202 26.328 305.21 25.88 306.078 24.984C306.974 24.06 307.576 22.87 307.884 21.414C307.884 21.33 307.954 21.288 308.094 21.288C308.262 21.288 308.346 21.33 308.346 21.414C308.15 23.43 308.052 25.082 308.052 26.37C308.052 26.594 308.01 26.762 307.926 26.874C307.842 26.958 307.674 27 307.422 27H292.05ZM304.986 17.97C304.874 17.97 304.258 17.886 303.138 17.718C302.046 17.522 299.89 17.424 296.67 17.424V16.542C299.862 16.542 302.004 16.472 303.096 16.332C304.216 16.192 304.846 16.122 304.986 16.122C305.126 16.122 305.196 16.416 305.196 17.004C305.196 17.648 305.126 17.97 304.986 17.97ZM317.203 23.43C317.203 24.326 317.301 24.984 317.497 25.404C317.693 25.796 318.071 26.076 318.631 26.244C319.219 26.412 320.129 26.496 321.361 26.496C321.445 26.496 321.487 26.58 321.487 26.748C321.487 26.916 321.445 27 321.361 27C320.353 27 319.583 26.986 319.051 26.958L315.943 26.916L313.465 26.958C312.989 26.986 312.345 27 311.533 27C311.476 27 311.448 26.916 311.448 26.748C311.448 26.58 311.476 26.496 311.533 26.496C312.457 26.496 313.129 26.426 313.549 26.286C313.969 26.146 314.249 25.88 314.389 25.488C314.557 25.068 314.641 24.438 314.641 23.598V10.746C314.641 9.906 314.557 9.29 314.389 8.898C314.249 8.506 313.955 8.24 313.507 8.1C313.087 7.932 312.429 7.848 311.533 7.848C311.476 7.848 311.448 7.764 311.448 7.596C311.448 7.428 311.476 7.344 311.533 7.344L313.423 7.386C314.487 7.442 315.313 7.47 315.901 7.47C316.377 7.47 316.825 7.456 317.245 7.428C317.693 7.4 318.071 7.372 318.379 7.344C319.275 7.26 320.087 7.218 320.815 7.218C325.435 7.218 327.745 8.926 327.745 12.342C327.745 13.686 327.395 14.82 326.695 15.744C326.023 16.64 325.155 17.312 324.091 17.76C323.055 18.208 321.977 18.432 320.856 18.432C320.101 18.432 319.485 18.376 319.009 18.264C318.925 18.264 318.883 18.194 318.883 18.054C318.883 17.83 318.967 17.718 319.135 17.718C319.555 17.802 319.989 17.844 320.437 17.844C321.669 17.844 322.705 17.452 323.545 16.668C324.413 15.856 324.847 14.694 324.847 13.182C324.847 11.418 324.385 10.088 323.461 9.192C322.565 8.268 321.347 7.806 319.807 7.806C319.079 7.806 318.547 7.862 318.211 7.974C317.875 8.086 317.623 8.352 317.455 8.772C317.287 9.192 317.203 9.878 317.203 10.83V23.43ZM335.763 7.89C334.699 7.89 333.859 8.044 333.243 8.352C332.627 8.632 332.137 9.122 331.773 9.822C331.437 10.522 331.171 11.516 330.975 12.804C330.975 12.86 330.891 12.888 330.723 12.888C330.583 12.888 330.513 12.86 330.513 12.804C330.597 12.16 330.695 11.124 330.807 9.696C330.919 8.268 330.975 7.176 330.975 6.42C330.975 6.28 331.059 6.21 331.227 6.21C331.395 6.21 331.479 6.28 331.479 6.42C331.479 6.784 331.689 7.022 332.109 7.134C332.529 7.218 333.047 7.26 333.663 7.26C336.127 7.316 338.241 7.344 340.005 7.344L343.659 7.302C344.163 7.274 344.821 7.26 345.633 7.26C346.641 7.26 347.383 7.204 347.859 7.092C348.335 6.952 348.643 6.672 348.783 6.252C348.839 6.168 348.937 6.126 349.077 6.126C349.217 6.126 349.287 6.168 349.287 6.252C349.119 9.276 349.035 11.46 349.035 12.804C349.035 12.86 348.951 12.888 348.783 12.888C348.643 12.888 348.573 12.86 348.573 12.804C348.545 11.544 348.391 10.564 348.111 9.864C347.859 9.164 347.425 8.66 346.809 8.352C346.193 8.044 345.339 7.89 344.247 7.89C343.043 7.89 342.231 8.086 341.811 8.478C341.419 8.842 341.223 9.598 341.223 10.746V23.598C341.223 24.466 341.307 25.096 341.475 25.488C341.643 25.88 341.965 26.146 342.441 26.286C342.945 26.426 343.743 26.496 344.835 26.496C344.919 26.496 344.961 26.58 344.961 26.748C344.961 26.916 344.919 27 344.835 27C343.967 27 343.295 26.986 342.819 26.958L339.879 26.916L337.065 26.958C336.561 26.986 335.861 27 334.965 27C334.909 27 334.881 26.916 334.881 26.748C334.881 26.58 334.909 26.496 334.965 26.496C336.029 26.496 336.813 26.426 337.317 26.286C337.821 26.146 338.157 25.88 338.325 25.488C338.521 25.068 338.619 24.438 338.619 23.598V10.662C338.619 9.85 338.549 9.262 338.409 8.898C338.297 8.506 338.045 8.24 337.653 8.1C337.261 7.96 336.631 7.89 335.763 7.89ZM355.213 10.746C355.213 11.95 355.619 12.93 356.431 13.686C357.243 14.414 358.461 15.184 360.085 15.996C361.233 16.584 362.143 17.116 362.815 17.592C363.515 18.068 364.103 18.656 364.579 19.356C365.055 20.056 365.293 20.896 365.293 21.876C365.293 22.912 364.999 23.864 364.411 24.732C363.851 25.572 363.039 26.244 361.975 26.748C360.911 27.252 359.665 27.504 358.237 27.504C356.249 27.504 354.569 27.014 353.197 26.034C353.057 25.978 352.959 25.894 352.903 25.782C352.875 25.67 352.847 25.488 352.819 25.236L352.399 21.078C352.371 20.966 352.427 20.896 352.567 20.868C352.735 20.84 352.847 20.882 352.903 20.994C353.295 22.618 354.065 24.004 355.213 25.152C356.389 26.272 357.691 26.832 359.119 26.832C360.099 26.832 360.939 26.552 361.639 25.992C362.367 25.404 362.731 24.508 362.731 23.304C362.731 22.016 362.311 20.966 361.471 20.154C360.631 19.342 359.413 18.516 357.817 17.676C356.697 17.06 355.801 16.528 355.129 16.08C354.485 15.604 353.939 15.03 353.491 14.358C353.043 13.686 352.819 12.874 352.819 11.922C352.819 10.326 353.435 9.08 354.667 8.184C355.899 7.288 357.397 6.84 359.161 6.84C360.589 6.84 361.989 7.162 363.361 7.806C363.613 7.946 363.767 8.058 363.823 8.142C363.907 8.226 363.963 8.352 363.991 8.52L364.243 12.174C364.243 12.286 364.159 12.356 363.991 12.384C363.851 12.412 363.767 12.37 363.739 12.258C363.599 11.558 363.277 10.844 362.773 10.116C362.297 9.36 361.681 8.73 360.925 8.226C360.169 7.722 359.329 7.47 358.405 7.47C357.397 7.47 356.613 7.778 356.053 8.394C355.493 9.01 355.213 9.794 355.213 10.746ZM585.227 23.598C585.227 24.466 585.311 25.096 585.479 25.488C585.647 25.88 585.969 26.146 586.445 26.286C586.949 26.426 587.733 26.496 588.797 26.496C588.881 26.496 588.923 26.58 588.923 26.748C588.923 26.916 588.881 27 588.797 27C587.957 27 587.285 26.986 586.781 26.958L583.799 26.916L580.901 26.958C580.397 26.986 579.711 27 578.843 27C578.759 27 578.717 26.916 578.717 26.748C578.717 26.58 578.759 26.496 578.843 26.496C579.907 26.496 580.677 26.426 581.153 26.286C581.657 26.146 581.993 25.88 582.161 25.488C582.357 25.068 582.455 24.438 582.455 23.598V4.152C582.455 3.312 582.357 2.696 582.161 2.304C581.993 1.912 581.657 1.646 581.153 1.506C580.677 1.338 579.907 1.254 578.843 1.254C578.759 1.254 578.717 1.17 578.717 1.002C578.717 0.834 578.759 0.75 578.843 0.75L580.901 0.791999C582.077 0.847999 583.043 0.875998 583.799 0.875998C584.639 0.875998 585.647 0.847999 586.823 0.791999L588.797 0.75C588.881 0.75 588.923 0.834 588.923 1.002C588.923 1.17 588.881 1.254 588.797 1.254C587.761 1.254 586.991 1.338 586.487 1.506C585.983 1.674 585.647 1.968 585.479 2.388C585.311 2.78 585.227 3.396 585.227 4.236V23.598ZM594.93 8.268L595.77 8.394V22.422C595.77 23.906 595.98 24.956 596.4 25.572C596.82 26.188 597.548 26.496 598.584 26.496C598.64 26.496 598.668 26.58 598.668 26.748C598.668 26.916 598.64 27 598.584 27C597.968 27 597.492 26.986 597.156 26.958L595.392 26.916L593.586 26.958C593.222 26.986 592.718 27 592.074 27C592.018 27 591.99 26.916 591.99 26.748C591.99 26.58 592.018 26.496 592.074 26.496C593.11 26.496 593.838 26.188 594.258 25.572C594.706 24.956 594.93 23.906 594.93 22.422V8.268ZM610.596 27.462C610.596 27.518 610.526 27.56 610.386 27.588C610.246 27.616 610.148 27.602 610.092 27.546L596.316 10.788C595.42 9.724 594.636 8.968 593.964 8.52C593.32 8.072 592.69 7.848 592.074 7.848C592.018 7.848 591.99 7.764 591.99 7.596C591.99 7.428 592.018 7.344 592.074 7.344L594.426 7.386L596.652 7.344C596.848 7.344 597.002 7.4 597.114 7.512C597.254 7.624 597.45 7.862 597.702 8.226C597.926 8.59 598.234 9.024 598.626 9.528L610.176 23.766L610.596 27.462ZM610.596 27.462L609.756 26.16V11.922C609.756 10.438 609.546 9.388 609.126 8.772C608.734 8.156 608.02 7.848 606.984 7.848C606.9 7.848 606.858 7.764 606.858 7.596C606.858 7.428 606.9 7.344 606.984 7.344L608.412 7.386C609.14 7.442 609.728 7.47 610.176 7.47C610.624 7.47 611.24 7.442 612.024 7.386L613.494 7.344C613.578 7.344 613.62 7.428 613.62 7.596C613.62 7.764 613.578 7.848 613.494 7.848C612.458 7.848 611.716 8.156 611.268 8.772C610.82 9.388 610.596 10.438 610.596 11.922V27.462ZM627.83 6.84C628.894 6.84 630.028 6.952 631.232 7.176C632.464 7.372 633.458 7.666 634.214 8.058C634.41 8.142 634.536 8.226 634.592 8.31C634.648 8.394 634.69 8.548 634.718 8.772L635.138 13.098C635.138 13.182 635.054 13.238 634.886 13.266C634.746 13.294 634.662 13.252 634.634 13.14C634.13 11.208 633.206 9.78 631.862 8.856C630.546 7.932 628.908 7.47 626.948 7.47C625.492 7.47 624.176 7.862 623 8.646C621.824 9.43 620.9 10.508 620.228 11.88C619.584 13.224 619.262 14.75 619.262 16.458C619.262 18.194 619.598 19.874 620.27 21.498C620.942 23.094 621.936 24.396 623.252 25.404C624.596 26.412 626.206 26.916 628.082 26.916C629.79 26.916 631.232 26.44 632.408 25.488C633.612 24.536 634.48 23.08 635.012 21.12C635.012 21.036 635.082 20.994 635.222 20.994C635.278 20.994 635.334 21.022 635.39 21.078C635.474 21.106 635.516 21.134 635.516 21.162L634.97 25.614C634.942 25.838 634.9 25.992 634.844 26.076C634.788 26.16 634.634 26.258 634.382 26.37C632.226 27.126 629.986 27.504 627.662 27.504C625.002 27.504 622.818 26.972 621.11 25.908C619.402 24.844 618.17 23.514 617.414 21.918C616.658 20.322 616.28 18.712 616.28 17.088C616.28 15.184 616.784 13.448 617.792 11.88C618.8 10.312 620.186 9.08 621.95 8.184C623.714 7.288 625.674 6.84 627.83 6.84Z" fill="#596B9D"/>
</svg>
