<svg enable-background="new 0 30.3 100.3 39.5" id="Layer_1" version="1.1" viewbox="0 30.3 100.3 39.5" x="0px" xml:space="preserve" xmlns="//www.w3.org/2000/svg" xmlns:xlink="//www.w3.org/1999/xlink" y="0px">
<g>
<g>
<path d="M95.7,34c-0.3,0-0.5,0.5-0.5,1.3v28.4c0,0.7,0.3,1.3,0.5,1.3c0.3,0,0.5-0.5,0.5-1.3V35.4
			C96.2,34.6,96.1,34,95.7,34z M98.1,33.2c-0.3,0-0.5,0.7-0.5,1.3v30.1c0,0.8,0.3,1.3,0.5,1.3c0.3,0,0.5-0.7,0.5-1.3V34.6
			C98.7,33.8,98.4,33.2,98.1,33.2z M4.2,34c-0.3,0-0.5,0.5-0.5,1.3v28.4c0,0.7,0.3,1.3,0.5,1.3c0.3,0,0.5-0.5,0.5-1.3V35.4
			C4.7,34.6,4.4,34,4.2,34z M1.8,33.2c-0.3,0-0.5,0.7-0.5,1.3v30.1c0,0.8,0.3,1.3,0.5,1.3s0.5-0.7,0.5-1.3V34.6
			C2.3,33.8,2.2,33.2,1.8,33.2z" fill="#7BB9F0"></path>
</g>
</g>
<g>
<path d="M100,32.1v-1.9H87.1L74.7,58L61.9,30.3H48.7v1.9c5.5,0,6.3,1.1,6.3,7.5v19.7c0,5.9-0.7,7.3-5.1,7.4
		c-1.9-0.1-6.1-1.6-8.2-3.8L23.2,44.7l9.4-7.3c4.3-3.4,6.6-5.3,12.3-5.3v-1.9h-16v1.9c5.5,0,1.3,3.9-0.3,5.3L14.7,48.2v-8.6
		c0-6.3,0.8-7.5,6.3-7.5v-1.8H0v1.9c5.5,0,6.3,1.1,6.3,7.5v19.7c0,6.3-0.8,7.5-6.3,7.5v1.9h21v-1.9c-5.5,0-6.3-1.1-6.3-7.5v-7.7
		l2.8-2.3l13.1,13.7c2.6,2.6,0.9,3.8-2.4,3.8v1.9h36.3v-1.9c-5.5,0-6.3-1.1-6.3-7.5V40.9l13.3,28.8h1.5l12.9-29v18.5
		c0,6.3-0.8,7.5-6.3,7.5v1.9h20.8v-1.9c-5.5,0-6.3-1.1-6.3-7.5V39.6C93.7,33.2,94.5,32.1,100,32.1z" fill="#FFFFFF"></path>
</g>
</svg>