<svg data-name="Layer 1" id="Layer_1" viewbox="0 0 289.2 63" xmlns="http://www.w3.org/2000/svg"><path d="M32.2,40.5c-3.7,0-4.4-.4-4.4-4V0h-8.6v44c0,3.6.6,4,4.4,4h19.4v-7.5h-10.8ZM17.1,55.5c-3.7,0-4.4-.4-4.4-4h0V0H0v3.6s4.2.2,4.2,9.4v50h38.8v-7.5h-25.9ZM43,0v32.8h-5.6c-2.2-.1-2.8-.7-3-2.7V0h8.6Z" style="fill:#fff;stroke-width:0"></path><path d="M283.6,45.9c0,1.4,1.2,2.4,2.8,2.4,1.7,0,2.8-.9,2.8-2.4s-1.2-2.4-2.8-2.4c-1.7-.1-2.8.9-2.8,2.4M266.4,37c0-5.4,1.3-9.9,5.4-9.9s5.4,4.5,5.4,9.9-1.3,9.9-5.4,9.9-5.4-4.4-5.4-9.9M260.7,37c0,6.3,4.2,11.3,11.1,11.3s11.1-5,11.1-11.3-4.2-11.3-11.1-11.3-11.1,5-11.1,11.3M238.7,32.2c0-8.6,3.4-14.7,8.6-14.7s7.9,3.1,8.8,7.8h1.2v-8.6h-1.2l-.7,2.3c-1.1-1-4.2-2.7-8.2-2.7-6.1,0-14.7,4.7-14.7,15.9s8.7,15.9,14.7,15.9c4,0,7.1-1.7,8.2-2.7l.7,2.4h1.2v-8.7h-1.2c-.9,4.8-3.5,8-8.8,8-5.1,0-8.6-6.1-8.6-14.9M211.9,22.4c0,2.9-1.2,4.8-2.7,6.2l-.1-.1c-1.4-2.2-2.7-4.1-2.7-6.4,0-3.1,1.2-4.6,2.8-4.6,1.7,0,2.7,1.8,2.7,4.9M208.5,36.7c2.3,3.4,4.1,6.1,5.8,8.1-1.4,1-3.1,1.7-4.9,1.7-3.9,0-6.3-3-6.3-6.8,0-3,.5-4.8,2.7-7l2.7,4ZM223,44.8c-1.4,0-2.9-1-4.6-3,1.3-2,2.1-4.2,2.4-6.1.3-1.7-.1-2.7-1.3-2.7-1,0-1.5.9-1.5,1.7,0,1.3,1,1.8,1.3,3.1-.4,1-.9,2.1-1.6,3.1-1.1-1.3-2.2-3-3.5-4.9l-4.4-6.6c2.7-1.7,5.7-4,5.7-7.5s-3.1-5.5-6.4-5.5c-4.7,0-7.5,2.8-7.6,6.6,0,2.7,1,5.1,2.4,6.9l1.1,1.7c-4.5,2-8,5-8,8.8,0,5.1,4,7.8,10.4,7.8,3,0,5.6-1,7.6-2.6,1.6,1.7,3,2.6,4.7,2.6,2.2,0,4.1-1.7,5.2-4.1l-.3-.3c-.4.7-1,1-1.6,1M167.8,46.8l-2.9.4.1.8,5.7-.1,5.1.1v-.8l-2.5-.5v-7.3l1.6-1.7,6.2,8.4v.6l-2.4.5v.7h10.8v-.7l-2.1-.6-9-12.6,6.1-6.3,3.1-.4v-1.1l-4.5.1-5-.1-.1,1.2,2.9.2.1.7-8,9.5V15l-7.6.5-.1,1.7,2.3.4v29.2h.2ZM150.5,45.7c-1.6,0-2.6-1.3-2.6-3.6,0-2.1,1.1-4,4.1-4.8l2.7-.8v5.6c-.8,2.7-2.6,3.6-4.2,3.6M145.8,33.5c1.8,0,2.5-1,2.5-2.5,0-1.1-.3-2.1-.8-2.8,1-1,2.6-1.3,3.7-1.3,2.5,0,3.5,2.1,3.5,5.4v3l-3,.7c-5.8,1.2-9.3,3.6-9.3,7,0,2.8,1.9,5.1,5.4,5.1,3.1,0,5.7-1.7,6.9-4.4v.9c0,1.9,1,3.3,3.3,3.4,2.7.2,4.4-1.3,5.2-3l-.6-.4c-.4.9-1,1.1-1.5,1.1-.8,0-1-.9-1-2.1v-11c0-5.3-3.1-6.9-7.8-6.9-3.2,0-8.1,1.9-8.5,5.3-.2,1.2.4,2.5,2,2.5M131.7,47.9l7.3-20.4,2.9-.6v-.8l-4.4.1-4.5-.1v.7l3.4.6.2.3-4.5,14.9-6-14.8v-.5l2.5-.5v-.8h-5.4l-5.4-.1v.7l2.5.7,8.4,20.4h3v.2ZM102.2,27.8h2.8v14.4c0,4.5,3.3,5.8,5.2,5.8,2.6,0,4.7-1.1,6.6-3.6l-.5-.7c-1,1.3-2.2,1.8-3.7,1.7-1.6-.1-2.2-1.6-2.2-3.7v-13.9h5.3v-1.7h-5.3v-5.9l-5.4.8v5.4l-2.8.5v.9ZM92.8,19.3c0,1.4,1.1,2.7,3.1,2.7,2.1,0,3.2-1.2,3.2-2.7s-1.1-2.5-3.2-2.5c-2-.1-3.1,1-3.1,2.5M93.3,46.8l-2.9.4.1.8,5.7-.1,5.5.1v-.8l-3-.5v-20.8l-7.6.5-.1,1.7,2.3.4v18.3ZM73.7,18l2.9-.4v-.9l-6.2.1-5.5-.1v.9l3,.4v28.7l-3,.5v.7l5.6-.1h17.3l.5-8.6h-1.7l-.4,1.4c-1.3,4.1-3,6.1-7.1,6h-5.4v-28.6h0Z" style="fill:#fff;stroke-width:0"></path></svg>