<svg width="191" height="31" viewBox="0 0 191 31" fill="none" xmlns="http://www.w3.org/2000/svg">
<circle cx="13.0606" cy="17.0606" r="13.0605" transform="rotate(-180 13.0606 17.0606)" fill="url(#paint0_radial_787_286)"/>
<path d="M45.336 17.448C45.336 16.248 45.496 15.256 45.816 14.472C46.136 13.68 46.56 13.096 47.088 12.72C47.616 12.336 48.192 12.144 48.816 12.144C49.648 12.144 50.284 12.396 50.724 12.9C51.172 13.404 51.396 14.16 51.396 15.168C51.396 16.2 51.188 16.964 50.772 17.46C50.356 17.948 49.812 18.192 49.14 18.192C48.468 18.192 47.964 18.02 47.628 17.676C47.3 17.332 47.136 16.852 47.136 16.236L47.124 15.732C47.116 15.532 47.072 15.38 46.992 15.276C46.912 15.164 46.784 15.108 46.608 15.108C46.448 15.108 46.304 15.18 46.176 15.324C46.056 15.46 45.96 15.688 45.888 16.008C45.816 16.32 45.78 16.748 45.78 17.292L45.336 17.448ZM45.48 13.164L45.78 15.768V21.612C45.78 21.876 45.82 22.064 45.9 22.176C45.98 22.288 46.156 22.372 46.428 22.428L47.364 22.62C47.588 22.66 47.752 22.736 47.856 22.848C47.96 22.96 48.012 23.116 48.012 23.316C48.012 23.532 47.936 23.7 47.784 23.82C47.64 23.94 47.428 24 47.148 24H40.524C40.22 24 40 23.94 39.864 23.82C39.736 23.7 39.672 23.536 39.672 23.328C39.672 23.176 39.708 23.044 39.78 22.932C39.86 22.82 39.984 22.728 40.152 22.656L40.428 22.536C40.548 22.488 40.632 22.4 40.68 22.272C40.728 22.144 40.752 21.928 40.752 21.624V15.792C40.752 15.544 40.72 15.372 40.656 15.276C40.592 15.172 40.496 15.1 40.368 15.06L40.08 14.988C39.92 14.932 39.804 14.856 39.732 14.76C39.66 14.664 39.624 14.54 39.624 14.388C39.624 14.212 39.676 14.072 39.78 13.968C39.884 13.856 40.064 13.752 40.32 13.656L43.056 12.636C43.584 12.436 43.964 12.308 44.196 12.252C44.428 12.188 44.612 12.156 44.748 12.156C44.956 12.156 45.116 12.232 45.228 12.384C45.34 12.536 45.424 12.796 45.48 13.164ZM59.6597 13.152V21.624C59.6597 21.928 59.6837 22.144 59.7317 22.272C59.7797 22.4 59.8637 22.488 59.9837 22.536L60.2597 22.656C60.4357 22.728 60.5597 22.82 60.6317 22.932C60.7117 23.044 60.7517 23.176 60.7517 23.328C60.7517 23.536 60.6837 23.7 60.5477 23.82C60.4117 23.94 60.1957 24 59.8997 24H54.3917C54.0957 24 53.8797 23.94 53.7437 23.82C53.6077 23.7 53.5397 23.536 53.5397 23.328C53.5397 23.176 53.5757 23.044 53.6477 22.932C53.7277 22.82 53.8557 22.728 54.0317 22.656L54.3077 22.536C54.4277 22.488 54.5117 22.4 54.5597 22.272C54.6077 22.144 54.6317 21.928 54.6317 21.624V15.744C54.6317 15.504 54.5997 15.336 54.5357 15.24C54.4717 15.136 54.3717 15.064 54.2357 15.024L53.9597 14.952C53.7997 14.896 53.6837 14.82 53.6117 14.724C53.5397 14.628 53.5037 14.504 53.5037 14.352C53.5037 14.176 53.5517 14.036 53.6477 13.932C53.7517 13.828 53.9357 13.724 54.1997 13.62L57.0197 12.564C57.4197 12.412 57.7357 12.304 57.9677 12.24C58.1997 12.176 58.4077 12.144 58.5917 12.144C58.9437 12.144 59.2077 12.24 59.3837 12.432C59.5677 12.616 59.6597 12.856 59.6597 13.152ZM56.8997 11.112C56.0197 11.112 55.3197 10.904 54.7997 10.488C54.2877 10.064 54.0317 9.496 54.0317 8.784C54.0317 8.072 54.2877 7.512 54.7997 7.104C55.3197 6.688 56.0197 6.48 56.8997 6.48C57.7797 6.48 58.4757 6.688 58.9877 7.104C59.5077 7.512 59.7677 8.072 59.7677 8.784C59.7677 9.496 59.5077 10.064 58.9877 10.488C58.4757 10.904 57.7797 11.112 56.8997 11.112ZM68.7126 22.896C69.1686 22.896 69.5046 22.796 69.7206 22.596C69.9446 22.396 70.0566 22.152 70.0566 21.864C70.0566 21.688 70.0206 21.524 69.9486 21.372C69.8846 21.22 69.7326 21.08 69.4926 20.952C69.2526 20.824 68.8806 20.716 68.3766 20.628C66.9206 20.364 65.8086 20.028 65.0406 19.62C64.2806 19.204 63.7606 18.716 63.4806 18.156C63.2006 17.596 63.0606 16.968 63.0606 16.272C63.0606 14.976 63.5086 13.964 64.4046 13.236C65.3086 12.508 66.6286 12.144 68.3646 12.144C68.9646 12.144 69.4446 12.192 69.8046 12.288C70.1646 12.384 70.4526 12.48 70.6686 12.576C70.8846 12.672 71.0766 12.72 71.2446 12.72C71.4366 12.72 71.5926 12.672 71.7126 12.576C71.8326 12.48 71.9566 12.384 72.0846 12.288C72.2126 12.192 72.3806 12.144 72.5886 12.144C72.7406 12.144 72.8806 12.196 73.0086 12.3C73.1366 12.404 73.2446 12.6 73.3326 12.888L73.9446 15.144C74.0646 15.536 74.1006 15.848 74.0526 16.08C74.0046 16.312 73.8606 16.472 73.6206 16.56C73.3806 16.648 73.1726 16.652 72.9966 16.572C72.8206 16.492 72.6486 16.328 72.4806 16.08C72.1046 15.504 71.7126 15.032 71.3046 14.664C70.8966 14.296 70.4726 14.024 70.0326 13.848C69.6006 13.664 69.1486 13.572 68.6766 13.572C68.1486 13.572 67.7486 13.676 67.4766 13.884C67.2126 14.084 67.0806 14.352 67.0806 14.688C67.0806 14.904 67.1366 15.092 67.2486 15.252C67.3606 15.412 67.5846 15.556 67.9206 15.684C68.2646 15.812 68.7686 15.94 69.4326 16.068C70.5846 16.284 71.4926 16.588 72.1566 16.98C72.8286 17.364 73.3086 17.84 73.5966 18.408C73.8926 18.968 74.0406 19.624 74.0406 20.376C74.0406 21.168 73.8246 21.864 73.3926 22.464C72.9686 23.056 72.3846 23.516 71.6406 23.844C70.9046 24.164 70.0686 24.324 69.1326 24.324C68.5486 24.324 68.0846 24.272 67.7406 24.168C67.4046 24.072 67.1286 23.976 66.9126 23.88C66.7046 23.776 66.5006 23.724 66.3006 23.724C66.1086 23.724 65.9326 23.776 65.7726 23.88C65.6126 23.976 65.4526 24.072 65.2926 24.168C65.1406 24.272 64.9726 24.324 64.7886 24.324C64.6286 24.324 64.4886 24.26 64.3686 24.132C64.2566 24.012 64.1726 23.804 64.1166 23.508L63.7446 21.372C63.6806 20.988 63.6766 20.7 63.7326 20.508C63.7966 20.316 63.9326 20.176 64.1406 20.088C64.3646 19.992 64.5646 19.996 64.7406 20.1C64.9246 20.196 65.1086 20.376 65.2926 20.64C65.8686 21.464 66.4446 22.048 67.0206 22.392C67.5966 22.728 68.1606 22.896 68.7126 22.896ZM88.9294 16.812C88.9294 17.332 88.7854 17.736 88.4974 18.024C88.2174 18.312 87.8094 18.456 87.2734 18.456H80.1214V17.28H83.3374C83.7534 17.28 83.9614 17.084 83.9614 16.692C83.9614 15.636 83.8414 14.884 83.6014 14.436C83.3694 13.98 83.0654 13.752 82.6894 13.752C82.4174 13.752 82.1694 13.856 81.9454 14.064C81.7214 14.272 81.5454 14.596 81.4174 15.036C81.2894 15.476 81.2254 16.036 81.2254 16.716C81.2254 18.188 81.5534 19.264 82.2094 19.944C82.8654 20.624 83.7614 20.964 84.8974 20.964C85.4494 20.964 85.9454 20.892 86.3854 20.748C86.8334 20.604 87.2454 20.332 87.6214 19.932C87.8374 19.74 88.0014 19.612 88.1134 19.548C88.2254 19.476 88.3334 19.44 88.4374 19.44C88.5894 19.44 88.7014 19.516 88.7734 19.668C88.8454 19.812 88.8814 19.992 88.8814 20.208C88.8814 20.936 88.6374 21.616 88.1494 22.248C87.6694 22.872 87.0014 23.376 86.1454 23.76C85.2974 24.136 84.3054 24.324 83.1694 24.324C81.9534 24.324 80.8614 24.084 79.8934 23.604C78.9334 23.124 78.1734 22.452 77.6134 21.588C77.0534 20.724 76.7734 19.716 76.7734 18.564C76.7734 17.268 77.0294 16.14 77.5414 15.18C78.0614 14.22 78.8134 13.476 79.7974 12.948C80.7814 12.412 81.9694 12.144 83.3614 12.144C84.5854 12.144 85.6094 12.348 86.4334 12.756C87.2654 13.156 87.8894 13.708 88.3054 14.412C88.7214 15.108 88.9294 15.908 88.9294 16.812ZM112.531 24.576C111.547 24.576 110.663 24.46 109.879 24.228C109.095 23.996 108.395 23.64 107.779 23.16C107.163 22.672 106.607 22.052 106.111 21.3C105.543 20.444 105.067 19.62 104.683 18.828C104.307 18.028 104.023 17.236 103.831 16.452C103.639 15.66 103.543 14.848 103.543 14.016C103.543 13 103.759 12.088 104.191 11.28C104.623 10.464 105.239 9.82 106.039 9.348C106.847 8.868 107.819 8.628 108.955 8.628C109.835 8.628 110.607 8.788 111.271 9.108C111.943 9.42 112.467 9.852 112.843 10.404C113.219 10.956 113.407 11.592 113.407 12.312C113.407 13.088 113.179 13.764 112.723 14.34C112.275 14.916 111.639 15.36 110.815 15.672C109.991 15.984 109.015 16.14 107.887 16.14L107.707 15.432C108.027 15.432 108.315 15.288 108.571 15C108.827 14.712 109.031 14.304 109.183 13.776C109.335 13.248 109.411 12.628 109.411 11.916C109.411 11.284 109.351 10.768 109.231 10.368C109.119 9.96 108.947 9.756 108.715 9.756C108.435 9.756 108.199 9.964 108.007 10.38C107.823 10.796 107.731 11.332 107.731 11.988C107.731 12.684 107.815 13.36 107.983 14.016C108.159 14.672 108.427 15.356 108.787 16.068C109.147 16.78 109.615 17.56 110.191 18.408C110.879 19.432 111.471 20.24 111.967 20.832C112.463 21.416 112.931 21.832 113.371 22.08C113.819 22.32 114.303 22.44 114.823 22.44C115.535 22.44 116.179 22.256 116.755 21.888C117.331 21.512 117.787 20.94 118.123 20.172C118.467 19.404 118.639 18.432 118.639 17.256C118.639 15.92 118.367 14.576 117.823 13.224C117.279 11.872 116.467 10.664 115.387 9.6C114.403 8.632 113.207 7.864 111.799 7.296C110.391 6.72 108.891 6.432 107.299 6.432C105.907 6.432 104.787 6.576 103.939 6.864C103.091 7.152 102.475 7.544 102.091 8.04C101.707 8.528 101.515 9.08 101.515 9.696C101.515 10.024 101.551 10.316 101.623 10.572C101.703 10.828 101.795 11.08 101.899 11.328C102.003 11.568 102.091 11.828 102.163 12.108C102.243 12.38 102.283 12.704 102.283 13.08C102.283 13.704 102.079 14.212 101.671 14.604C101.263 14.988 100.739 15.18 100.099 15.18C99.3551 15.18 98.7751 14.904 98.3591 14.352C97.9431 13.792 97.7351 13.072 97.7351 12.192C97.7351 10.792 98.0991 9.572 98.8271 8.532C99.5631 7.484 100.647 6.668 102.079 6.084C103.519 5.5 105.287 5.208 107.383 5.208C109.135 5.208 110.795 5.512 112.363 6.12C113.939 6.728 115.283 7.568 116.395 8.64C117.587 9.8 118.499 11.124 119.131 12.612C119.763 14.092 120.079 15.644 120.079 17.268C120.079 18.804 119.783 20.116 119.191 21.204C118.599 22.292 117.739 23.128 116.611 23.712C115.483 24.288 114.123 24.576 112.531 24.576ZM111.523 21C111.923 20.776 112.251 20.528 112.507 20.256C112.771 19.984 112.967 19.7 113.095 19.404C113.223 19.108 113.287 18.824 113.287 18.552C113.287 18.208 113.255 17.92 113.191 17.688C113.127 17.448 113.063 17.224 112.999 17.016C112.935 16.808 112.903 16.572 112.903 16.308C112.903 15.724 113.091 15.22 113.467 14.796C113.843 14.372 114.327 14.16 114.919 14.16C115.519 14.16 115.983 14.376 116.311 14.808C116.639 15.24 116.803 15.84 116.803 16.608C116.803 17.656 116.407 18.64 115.615 19.56C114.831 20.472 113.583 21.2 111.871 21.744L111.523 21ZM104.347 16.572C104.051 16.572 103.791 16.688 103.567 16.92C103.343 17.152 103.167 17.476 103.039 17.892C102.919 18.308 102.859 18.792 102.859 19.344C102.859 20.224 103.063 20.944 103.471 21.504C103.879 22.056 104.423 22.332 105.103 22.332C105.447 22.332 105.747 22.276 106.003 22.164C106.267 22.044 106.523 21.856 106.771 21.6L107.383 22.548C107.103 22.908 106.743 23.224 106.303 23.496C105.871 23.76 105.343 23.964 104.719 24.108C104.095 24.26 103.363 24.336 102.523 24.336C100.907 24.336 99.6631 23.98 98.7911 23.268C97.9191 22.556 97.4831 21.532 97.4831 20.196C97.4831 19.284 97.7551 18.488 98.2991 17.808C98.8431 17.128 99.6271 16.6 100.651 16.224C101.683 15.848 102.915 15.66 104.347 15.66V16.572ZM134.455 17.448C134.455 16.248 134.615 15.256 134.935 14.472C135.255 13.68 135.679 13.096 136.207 12.72C136.735 12.336 137.311 12.144 137.935 12.144C138.767 12.144 139.403 12.396 139.843 12.9C140.291 13.404 140.515 14.16 140.515 15.168C140.515 16.2 140.307 16.964 139.891 17.46C139.475 17.948 138.931 18.192 138.259 18.192C137.587 18.192 137.083 18.02 136.747 17.676C136.419 17.332 136.255 16.852 136.255 16.236L136.243 15.732C136.235 15.532 136.191 15.38 136.111 15.276C136.031 15.164 135.903 15.108 135.727 15.108C135.567 15.108 135.423 15.18 135.295 15.324C135.175 15.46 135.079 15.688 135.007 16.008C134.935 16.32 134.899 16.748 134.899 17.292L134.455 17.448ZM134.599 13.164L134.899 15.768V21.612C134.899 21.876 134.939 22.064 135.019 22.176C135.099 22.288 135.275 22.372 135.547 22.428L136.483 22.62C136.707 22.66 136.871 22.736 136.975 22.848C137.079 22.96 137.131 23.116 137.131 23.316C137.131 23.532 137.055 23.7 136.903 23.82C136.759 23.94 136.547 24 136.267 24H129.643C129.339 24 129.119 23.94 128.983 23.82C128.855 23.7 128.791 23.536 128.791 23.328C128.791 23.176 128.827 23.044 128.899 22.932C128.979 22.82 129.103 22.728 129.271 22.656L129.547 22.536C129.667 22.488 129.751 22.4 129.799 22.272C129.847 22.144 129.871 21.928 129.871 21.624V15.792C129.871 15.544 129.839 15.372 129.775 15.276C129.711 15.172 129.615 15.1 129.487 15.06L129.199 14.988C129.039 14.932 128.923 14.856 128.851 14.76C128.779 14.664 128.743 14.54 128.743 14.388C128.743 14.212 128.795 14.072 128.899 13.968C129.003 13.856 129.183 13.752 129.439 13.656L132.175 12.636C132.703 12.436 133.083 12.308 133.315 12.252C133.547 12.188 133.731 12.156 133.867 12.156C134.075 12.156 134.235 12.232 134.347 12.384C134.459 12.536 134.543 12.796 134.599 13.164ZM149.87 22.392V22.128L149.498 22.14V14.304C149.498 14 149.418 13.756 149.258 13.572C149.098 13.388 148.878 13.296 148.598 13.296C148.39 13.296 148.206 13.352 148.046 13.464C147.894 13.568 147.818 13.708 147.818 13.884V15.192C147.818 15.848 147.59 16.364 147.134 16.74C146.678 17.108 146.03 17.292 145.19 17.292C144.486 17.292 143.958 17.14 143.606 16.836C143.254 16.532 143.078 16.108 143.078 15.564C143.078 15.044 143.314 14.524 143.786 14.004C144.258 13.476 144.966 13.04 145.91 12.696C146.862 12.344 148.058 12.168 149.498 12.168C151.178 12.168 152.426 12.476 153.242 13.092C154.066 13.708 154.478 14.556 154.478 15.636V21.384C154.478 21.544 154.514 21.676 154.586 21.78C154.666 21.876 154.786 21.924 154.946 21.924C155.082 21.924 155.19 21.888 155.27 21.816C155.358 21.736 155.438 21.652 155.51 21.564C155.558 21.516 155.61 21.472 155.666 21.432C155.73 21.392 155.798 21.372 155.87 21.372C155.998 21.372 156.09 21.42 156.146 21.516C156.202 21.604 156.23 21.72 156.23 21.864C156.23 22.208 156.102 22.572 155.846 22.956C155.598 23.332 155.222 23.656 154.718 23.928C154.222 24.192 153.598 24.324 152.846 24.324C151.958 24.324 151.238 24.144 150.686 23.784C150.142 23.416 149.87 22.952 149.87 22.392ZM142.622 21.456C142.622 20.368 143.11 19.512 144.086 18.888C145.07 18.256 146.462 17.94 148.262 17.94C148.726 17.94 149.126 17.972 149.462 18.036C149.806 18.1 150.086 18.192 150.302 18.312L149.918 19.284C149.75 19.188 149.59 19.12 149.438 19.08C149.286 19.04 149.122 19.02 148.946 19.02C148.554 19.02 148.246 19.156 148.022 19.428C147.798 19.692 147.686 20.08 147.686 20.592C147.686 21.12 147.798 21.52 148.022 21.792C148.246 22.064 148.538 22.2 148.898 22.2C149.13 22.2 149.346 22.148 149.546 22.044C149.754 21.932 149.91 21.8 150.014 21.648L150.29 22.536C149.914 23.104 149.362 23.544 148.634 23.856C147.914 24.168 147.142 24.324 146.318 24.324C145.214 24.324 144.322 24.052 143.642 23.508C142.962 22.956 142.622 22.272 142.622 21.456ZM164.228 13.152V21.624C164.228 21.928 164.252 22.144 164.3 22.272C164.348 22.392 164.432 22.48 164.552 22.536L164.804 22.668C165.06 22.812 165.188 23.016 165.188 23.28C165.188 23.76 164.9 24 164.324 24H158.96C158.664 24 158.448 23.94 158.312 23.82C158.176 23.7 158.108 23.536 158.108 23.328C158.108 23.176 158.144 23.044 158.216 22.932C158.296 22.82 158.424 22.728 158.6 22.656L158.876 22.536C158.996 22.488 159.08 22.4 159.128 22.272C159.176 22.144 159.2 21.928 159.2 21.624V15.744C159.2 15.504 159.168 15.336 159.104 15.24C159.04 15.136 158.94 15.064 158.804 15.024L158.528 14.952C158.368 14.896 158.252 14.82 158.18 14.724C158.108 14.628 158.072 14.504 158.072 14.352C158.072 14.176 158.12 14.036 158.216 13.932C158.32 13.828 158.504 13.724 158.768 13.62L161.588 12.564C161.964 12.42 162.268 12.316 162.5 12.252C162.74 12.18 162.972 12.144 163.196 12.144C163.532 12.144 163.788 12.24 163.964 12.432C164.14 12.616 164.228 12.856 164.228 13.152ZM163.808 16.056L163.124 15.336L163.496 15C164.6 13.976 165.548 13.244 166.34 12.804C167.132 12.364 167.86 12.144 168.524 12.144C169.54 12.144 170.332 12.488 170.9 13.176C171.476 13.864 171.816 14.768 171.92 15.888L172.484 21.624C172.508 21.928 172.536 22.144 172.568 22.272C172.608 22.4 172.684 22.488 172.796 22.536L173.084 22.656C173.252 22.728 173.372 22.82 173.444 22.932C173.524 23.044 173.564 23.176 173.564 23.328C173.564 23.536 173.496 23.7 173.36 23.82C173.232 23.94 173.016 24 172.712 24H167.288C166.72 24 166.436 23.76 166.436 23.28C166.436 23.016 166.56 22.812 166.808 22.668L167.06 22.536C167.18 22.48 167.272 22.392 167.336 22.272C167.4 22.144 167.416 21.928 167.384 21.624L166.916 16.584C166.868 16.08 166.748 15.704 166.556 15.456C166.372 15.208 166.08 15.084 165.68 15.084C165.432 15.084 165.18 15.14 164.924 15.252C164.676 15.356 164.444 15.5 164.228 15.684L163.808 16.056ZM176.403 24C176.107 24 175.891 23.94 175.755 23.82C175.619 23.7 175.551 23.536 175.551 23.328C175.551 23.176 175.587 23.044 175.659 22.932C175.739 22.82 175.867 22.728 176.043 22.656L176.319 22.536C176.439 22.488 176.523 22.4 176.571 22.272C176.619 22.144 176.643 21.928 176.643 21.624V9.492C176.643 9.244 176.611 9.072 176.547 8.976C176.483 8.872 176.383 8.8 176.247 8.76L175.971 8.688C175.811 8.632 175.695 8.556 175.623 8.46C175.551 8.364 175.515 8.24 175.515 8.088C175.515 7.912 175.563 7.772 175.659 7.668C175.763 7.564 175.947 7.46 176.211 7.356L179.031 6.3C179.407 6.156 179.711 6.052 179.943 5.988C180.183 5.916 180.415 5.88 180.639 5.88C180.975 5.88 181.231 5.976 181.407 6.168C181.583 6.36 181.671 6.6 181.671 6.888V21.624C181.671 21.928 181.695 22.144 181.743 22.272C181.791 22.392 181.875 22.48 181.995 22.536L182.247 22.668C182.503 22.812 182.631 23.016 182.631 23.28C182.631 23.76 182.343 24 181.767 24H176.403ZM180.267 18.864L184.767 15.18C185.055 14.948 185.179 14.712 185.139 14.472C185.107 14.224 184.931 14.036 184.611 13.908L184.299 13.776C184.147 13.704 184.043 13.624 183.987 13.536C183.931 13.44 183.903 13.316 183.903 13.164C183.903 12.956 183.975 12.792 184.119 12.672C184.271 12.552 184.467 12.492 184.707 12.492H189.435C189.691 12.492 189.891 12.552 190.035 12.672C190.179 12.784 190.251 12.94 190.251 13.14C190.251 13.332 190.191 13.492 190.071 13.62C189.959 13.748 189.711 13.864 189.327 13.968C188.879 14.096 188.455 14.272 188.055 14.496C187.663 14.712 187.195 15.036 186.651 15.468L180.855 20.064L180.267 18.864ZM185.199 15.312L189.531 21.864C189.659 22.048 189.775 22.192 189.879 22.296C189.983 22.392 190.107 22.492 190.251 22.596C190.419 22.716 190.555 22.84 190.659 22.968C190.763 23.096 190.815 23.236 190.815 23.388C190.815 23.572 190.739 23.72 190.587 23.832C190.443 23.944 190.251 24 190.011 24H184.299C184.083 24 183.907 23.94 183.771 23.82C183.643 23.7 183.579 23.54 183.579 23.34C183.579 23.212 183.603 23.108 183.651 23.028C183.707 22.94 183.795 22.856 183.915 22.776L184.167 22.644C184.295 22.58 184.367 22.484 184.383 22.356C184.399 22.228 184.319 22.032 184.143 21.768L181.923 18.324L185.199 15.312Z" fill="white"/>
<defs>
<radialGradient id="paint0_radial_787_286" cx="0" cy="0" r="1" gradientUnits="userSpaceOnUse" gradientTransform="translate(13.0606 17.0606) rotate(90) scale(13.0605)">
<stop offset="0.525" stop-color="#FFD600"/>
<stop offset="1" stop-color="#FFD600" stop-opacity="0"/>
</radialGradient>
</defs>
</svg>
