<svg width="200" height="30" viewBox="0 0 200 30" fill="none" xmlns="http://www.w3.org/2000/svg">
<path d="M50.1173 20.6144C50.1173 19.3781 50.2822 18.3561 50.6119 17.5484C50.9416 16.7324 51.3784 16.1307 51.9224 15.7433C52.4664 15.3477 53.0598 15.1499 53.7027 15.1499C54.5599 15.1499 55.2151 15.4095 55.6684 15.9288C56.13 16.448 56.3608 17.2269 56.3608 18.2654C56.3608 19.3287 56.1465 20.1158 55.7179 20.6268C55.2893 21.1296 54.7288 21.381 54.0365 21.381C53.3442 21.381 52.8249 21.2038 52.4787 20.8493C52.1408 20.4949 51.9718 20.0004 51.9718 19.3658L51.9595 18.8465C51.9512 18.6404 51.9059 18.4838 51.8235 18.3767C51.741 18.2613 51.6092 18.2036 51.4278 18.2036C51.263 18.2036 51.1146 18.2778 50.9828 18.4261C50.8591 18.5663 50.7602 18.8012 50.686 19.1309C50.6119 19.4523 50.5748 19.8933 50.5748 20.4537L50.1173 20.6144ZM50.2657 16.2008L50.5748 18.8836V24.9045C50.5748 25.1765 50.616 25.3702 50.6984 25.4856C50.7808 25.601 50.9622 25.6875 51.2424 25.7452L52.2067 25.943C52.4375 25.9842 52.6065 26.0625 52.7136 26.1779C52.8208 26.2933 52.8743 26.454 52.8743 26.6601C52.8743 26.8826 52.796 27.0557 52.6394 27.1793C52.4911 27.303 52.2727 27.3648 51.9842 27.3648H45.1597C44.8465 27.3648 44.6198 27.303 44.4797 27.1793C44.3478 27.0557 44.2819 26.8867 44.2819 26.6724C44.2819 26.5158 44.319 26.3798 44.3931 26.2645C44.4756 26.1491 44.6033 26.0543 44.7764 25.9801L45.0608 25.8565C45.1844 25.807 45.2709 25.7164 45.3204 25.5845C45.3698 25.4526 45.3946 25.2301 45.3946 24.9169V18.9083C45.3946 18.6528 45.3616 18.4756 45.2957 18.3767C45.2297 18.2695 45.1308 18.1954 44.9989 18.1542L44.7022 18.08C44.5374 18.0223 44.4179 17.944 44.3437 17.8451C44.2695 17.7462 44.2324 17.6184 44.2324 17.4618C44.2324 17.2805 44.286 17.1362 44.3931 17.0291C44.5003 16.9137 44.6857 16.8066 44.9495 16.7076L47.7683 15.6568C48.3123 15.4507 48.7038 15.3188 48.9428 15.2611C49.1819 15.1952 49.3714 15.1622 49.5115 15.1622C49.7258 15.1622 49.8907 15.2405 50.0061 15.3971C50.1215 15.5537 50.208 15.8216 50.2657 16.2008Z" fill="white"/>
<path d="M64.8746 16.1884V24.9169C64.8746 25.2301 64.8994 25.4526 64.9488 25.5845C64.9983 25.7164 65.0848 25.807 65.2084 25.8565L65.4928 25.9801C65.6741 26.0543 65.8019 26.1491 65.8761 26.2645C65.9585 26.3798 65.9997 26.5158 65.9997 26.6724C65.9997 26.8867 65.9296 27.0557 65.7895 27.1793C65.6494 27.303 65.4269 27.3648 65.1219 27.3648H59.4472C59.1422 27.3648 58.9197 27.303 58.7795 27.1793C58.6394 27.0557 58.5694 26.8867 58.5694 26.6724C58.5694 26.5158 58.6065 26.3798 58.6806 26.2645C58.7631 26.1491 58.8949 26.0543 59.0763 25.9801L59.3606 25.8565C59.4843 25.807 59.5708 25.7164 59.6202 25.5845C59.6697 25.4526 59.6944 25.2301 59.6944 24.9169V18.8589C59.6944 18.6116 59.6615 18.4385 59.5955 18.3396C59.5296 18.2325 59.4266 18.1583 59.2864 18.1171L59.0021 18.0429C58.8372 17.9852 58.7177 17.9069 58.6435 17.808C58.5694 17.7091 58.5323 17.5813 58.5323 17.4247C58.5323 17.2434 58.5817 17.0992 58.6806 16.992C58.7878 16.8849 58.9774 16.7777 59.2493 16.6706L62.1547 15.5826C62.5668 15.426 62.8924 15.3147 63.1314 15.2488C63.3704 15.1828 63.5847 15.1499 63.7743 15.1499C64.137 15.1499 64.409 15.2488 64.5903 15.4466C64.7799 15.6362 64.8746 15.8834 64.8746 16.1884ZM62.0311 14.0866C61.1244 14.0866 60.4033 13.8723 59.8675 13.4437C59.34 13.0069 59.0763 12.4217 59.0763 11.6882C59.0763 10.9546 59.34 10.3777 59.8675 9.9573C60.4033 9.52871 61.1244 9.31441 62.0311 9.31441C62.9377 9.31441 63.6548 9.52871 64.1823 9.9573C64.718 10.3777 64.9859 10.9546 64.9859 11.6882C64.9859 12.4217 64.718 13.0069 64.1823 13.4437C63.6548 13.8723 62.9377 14.0866 62.0311 14.0866Z" fill="white"/>
<path d="M74.2016 26.2274C74.6714 26.2274 75.0175 26.1243 75.2401 25.9183C75.4709 25.7122 75.5862 25.4608 75.5862 25.1641C75.5862 24.9828 75.5492 24.8138 75.475 24.6572C75.409 24.5006 75.2524 24.3564 75.0052 24.2245C74.7579 24.0926 74.3746 23.9814 73.8554 23.8907C72.3553 23.6187 71.2097 23.2725 70.4184 22.8522C69.6354 22.4236 69.0997 21.9208 68.8112 21.3439C68.5227 20.7669 68.3785 20.1199 68.3785 19.4028C68.3785 18.0676 68.84 17.025 69.7631 16.2749C70.6945 15.5249 72.0545 15.1499 73.843 15.1499C74.4612 15.1499 74.9557 15.1993 75.3266 15.2982C75.6975 15.3971 75.9942 15.496 76.2168 15.595C76.4393 15.6939 76.6371 15.7433 76.8102 15.7433C77.008 15.7433 77.1687 15.6939 77.2924 15.595C77.416 15.496 77.5438 15.3971 77.6756 15.2982C77.8075 15.1993 77.9806 15.1499 78.1949 15.1499C78.3515 15.1499 78.4957 15.2035 78.6276 15.3106C78.7595 15.4177 78.8708 15.6197 78.9614 15.9164L79.592 18.2407C79.7156 18.6446 79.7527 18.966 79.7032 19.205C79.6538 19.4441 79.5054 19.6089 79.2581 19.6996C79.0109 19.7902 78.7966 19.7943 78.6153 19.7119C78.4339 19.6295 78.2567 19.4605 78.0836 19.205C77.6962 18.6116 77.2924 18.1253 76.872 17.7462C76.4517 17.367 76.0148 17.0868 75.5615 16.9055C75.1164 16.7159 74.6508 16.6211 74.1645 16.6211C73.6205 16.6211 73.2084 16.7283 72.9281 16.9426C72.6562 17.1486 72.5202 17.4247 72.5202 17.7709C72.5202 17.9934 72.5779 18.1871 72.6932 18.352C72.8086 18.5168 73.0394 18.6652 73.3856 18.797C73.74 18.9289 74.2593 19.0608 74.9434 19.1927C76.1302 19.4152 77.0657 19.7284 77.7498 20.1323C78.4422 20.5279 78.9367 21.0183 79.2334 21.6035C79.5384 22.1805 79.6909 22.8563 79.6909 23.6311C79.6909 24.4471 79.4683 25.1641 79.0232 25.7823C78.5864 26.3922 77.9847 26.8661 77.2182 27.2041C76.4599 27.5338 75.5986 27.6986 74.6343 27.6986C74.0326 27.6986 73.5546 27.645 73.2001 27.5379C72.854 27.439 72.5696 27.3401 72.3471 27.2412C72.1328 27.134 71.9226 27.0804 71.7165 27.0804C71.5187 27.0804 71.3374 27.134 71.1726 27.2412C71.0077 27.3401 70.8429 27.439 70.678 27.5379C70.5214 27.645 70.3483 27.6986 70.1588 27.6986C69.9939 27.6986 69.8497 27.6327 69.7261 27.5008C69.6107 27.3772 69.5241 27.1629 69.4664 26.8579L69.0832 24.6572C69.0172 24.2616 69.0131 23.9649 69.0708 23.7671C69.1367 23.5693 69.2769 23.425 69.4912 23.3344C69.7219 23.2355 69.928 23.2396 70.1093 23.3467C70.2989 23.4456 70.4885 23.6311 70.678 23.9031C71.2715 24.752 71.8649 25.3537 72.4583 25.7081C73.0518 26.0543 73.6329 26.2274 74.2016 26.2274Z" fill="white"/>
<path d="M95.0304 19.9592C95.0304 20.4949 94.882 20.9112 94.5853 21.2079C94.2968 21.5046 93.8765 21.653 93.3243 21.653H85.9557V20.4414H89.2691C89.6977 20.4414 89.912 20.2394 89.912 19.8356C89.912 18.7476 89.7884 17.9728 89.5411 17.5113C89.3021 17.0415 88.9889 16.8066 88.6015 16.8066C88.3213 16.8066 88.0657 16.9137 87.835 17.128C87.6042 17.3423 87.4229 17.6761 87.291 18.1294C87.1591 18.5827 87.0932 19.1597 87.0932 19.8603C87.0932 21.3768 87.4311 22.4854 88.107 23.186C88.7828 23.8866 89.7059 24.2369 90.8763 24.2369C91.445 24.2369 91.9561 24.1627 92.4094 24.0143C92.8709 23.866 93.2954 23.5857 93.6828 23.1736C93.9053 22.9758 94.0743 22.844 94.1897 22.778C94.3051 22.7038 94.4163 22.6667 94.5235 22.6667C94.6801 22.6667 94.7955 22.745 94.8697 22.9016C94.9438 23.05 94.9809 23.2355 94.9809 23.458C94.9809 24.208 94.7295 24.9086 94.2268 25.5598C93.7322 26.2026 93.044 26.7219 92.1621 27.1175C91.2884 27.5049 90.2664 27.6986 89.096 27.6986C87.8432 27.6986 86.7181 27.4513 85.7208 26.9568C84.7318 26.4623 83.9488 25.7699 83.3718 24.8798C82.7949 23.9896 82.5064 22.9511 82.5064 21.7642C82.5064 20.429 82.7701 19.2668 83.2976 18.2778C83.8334 17.2887 84.6082 16.5222 85.6219 15.9782C86.6357 15.426 87.8597 15.1499 89.2938 15.1499C90.5549 15.1499 91.6099 15.3601 92.4588 15.7804C93.316 16.1925 93.9589 16.7612 94.3875 17.4865C94.8161 18.2036 95.0304 19.0278 95.0304 19.9592Z" fill="white"/>
<path d="M119.347 27.9582C118.333 27.9582 117.422 27.8387 116.614 27.5997C115.807 27.3607 115.085 26.9939 114.451 26.4994C113.816 25.9966 113.243 25.3578 112.732 24.5831C112.147 23.7011 111.657 22.8522 111.261 22.0362C110.874 21.212 110.581 20.396 110.383 19.5883C110.185 18.7723 110.087 17.9357 110.087 17.0785C110.087 16.0318 110.309 15.0922 110.754 14.2597C111.199 13.419 111.834 12.7555 112.658 12.2692C113.491 11.7747 114.492 11.5274 115.662 11.5274C116.569 11.5274 117.364 11.6923 118.048 12.022C118.741 12.3434 119.281 12.7885 119.668 13.3572C120.055 13.9259 120.249 14.5812 120.249 15.323C120.249 16.1225 120.014 16.8189 119.544 17.4124C119.083 18.0058 118.428 18.4632 117.579 18.7847C116.73 19.1061 115.724 19.2668 114.562 19.2668L114.377 18.5374C114.706 18.5374 115.003 18.3891 115.267 18.0923C115.53 17.7956 115.741 17.3753 115.897 16.8313C116.054 16.2873 116.132 15.6485 116.132 14.915C116.132 14.2638 116.07 13.7322 115.947 13.3201C115.831 12.8998 115.654 12.6896 115.415 12.6896C115.127 12.6896 114.883 12.9039 114.686 13.3325C114.496 13.7611 114.401 14.3133 114.401 14.9892C114.401 15.7062 114.488 16.4027 114.661 17.0785C114.842 17.7544 115.118 18.4591 115.489 19.1927C115.86 19.9262 116.342 20.7298 116.936 21.6035C117.645 22.6585 118.255 23.491 118.766 24.1009C119.277 24.7026 119.759 25.1312 120.212 25.3867C120.674 25.6339 121.172 25.7576 121.708 25.7576C122.442 25.7576 123.105 25.568 123.698 25.1889C124.292 24.8015 124.762 24.2122 125.108 23.4209C125.462 22.6297 125.64 21.6282 125.64 20.4166C125.64 19.0402 125.359 17.6555 124.799 16.2626C124.238 14.8696 123.402 13.6251 122.289 12.5289C121.275 11.5316 120.043 10.7403 118.592 10.1551C117.142 9.56168 115.596 9.26496 113.956 9.26496C112.522 9.26496 111.368 9.41332 110.495 9.71004C109.621 10.0068 108.986 10.4106 108.591 10.9216C108.195 11.4244 107.997 11.9931 107.997 12.6278C107.997 12.9657 108.034 13.2665 108.108 13.5303C108.191 13.794 108.286 14.0537 108.393 14.3092C108.5 14.5564 108.591 14.8243 108.665 15.1128C108.747 15.393 108.788 15.7268 108.788 16.1142C108.788 16.7571 108.578 17.2805 108.158 17.6843C107.738 18.08 107.198 18.2778 106.538 18.2778C105.772 18.2778 105.174 17.9934 104.746 17.4247C104.317 16.8478 104.103 16.106 104.103 15.1993C104.103 13.7569 104.478 12.5 105.228 11.4285C105.986 10.3488 107.103 9.5081 108.578 8.90643C110.062 8.30475 111.883 8.00391 114.043 8.00391C115.848 8.00391 117.558 8.31711 119.174 8.94351C120.797 9.56992 122.182 10.4353 123.328 11.5398C124.556 12.7349 125.495 14.099 126.146 15.632C126.798 17.1568 127.123 18.7558 127.123 20.429C127.123 22.0115 126.818 23.3632 126.208 24.4841C125.598 25.6051 124.712 26.4664 123.55 27.0681C122.388 27.6615 120.987 27.9582 119.347 27.9582ZM118.308 24.274C118.72 24.0432 119.058 23.7877 119.322 23.5074C119.594 23.2272 119.796 22.9346 119.928 22.6297C120.06 22.3247 120.126 22.0321 120.126 21.7519C120.126 21.3974 120.093 21.1007 120.027 20.8617C119.961 20.6144 119.895 20.3837 119.829 20.1694C119.763 19.9551 119.73 19.7119 119.73 19.4399C119.73 18.8383 119.924 18.319 120.311 17.8822C120.698 17.4453 121.197 17.2269 121.807 17.2269C122.425 17.2269 122.903 17.4494 123.241 17.8945C123.579 18.3396 123.748 18.9578 123.748 19.749C123.748 20.8287 123.34 21.8425 122.524 22.7904C121.716 23.73 120.43 24.48 118.667 25.0405L118.308 24.274ZM110.915 19.7119C110.61 19.7119 110.342 19.8314 110.111 20.0705C109.88 20.3095 109.699 20.6433 109.567 21.0719C109.444 21.5005 109.382 21.9991 109.382 22.5678C109.382 23.4745 109.592 24.2163 110.012 24.7932C110.433 25.3619 110.993 25.6463 111.694 25.6463C112.048 25.6463 112.357 25.5886 112.621 25.4732C112.893 25.3496 113.157 25.1559 113.412 24.8921L114.043 25.8688C113.754 26.2397 113.383 26.5653 112.93 26.8455C112.485 27.1175 111.941 27.3277 111.298 27.4761C110.655 27.6327 109.901 27.711 109.036 27.711C107.371 27.711 106.089 27.3442 105.191 26.6106C104.292 25.8771 103.843 24.8221 103.843 23.4456C103.843 22.506 104.123 21.6859 104.684 20.9853C105.244 20.2848 106.052 19.7408 107.107 19.3534C108.17 18.966 109.44 18.7723 110.915 18.7723V19.7119Z" fill="white"/>
<path d="M141.934 20.6144C141.934 19.3781 142.099 18.3561 142.428 17.5484C142.758 16.7324 143.195 16.1307 143.739 15.7433C144.283 15.3477 144.876 15.1499 145.519 15.1499C146.376 15.1499 147.032 15.4095 147.485 15.9288C147.947 16.448 148.177 17.2269 148.177 18.2654C148.177 19.3287 147.963 20.1158 147.534 20.6268C147.106 21.1296 146.545 21.381 145.853 21.381C145.161 21.381 144.641 21.2038 144.295 20.8493C143.957 20.4949 143.788 20.0004 143.788 19.3658L143.776 18.8465C143.768 18.6404 143.722 18.4838 143.64 18.3767C143.558 18.2613 143.426 18.2036 143.244 18.2036C143.08 18.2036 142.931 18.2778 142.799 18.4261C142.676 18.5663 142.577 18.8012 142.503 19.1309C142.428 19.4523 142.391 19.8933 142.391 20.4537L141.934 20.6144ZM142.082 16.2008L142.391 18.8836V24.9045C142.391 25.1765 142.433 25.3702 142.515 25.4856C142.597 25.601 142.779 25.6875 143.059 25.7452L144.023 25.943C144.254 25.9842 144.423 26.0625 144.53 26.1779C144.637 26.2933 144.691 26.454 144.691 26.6601C144.691 26.8826 144.613 27.0557 144.456 27.1793C144.308 27.303 144.089 27.3648 143.801 27.3648H136.976C136.663 27.3648 136.436 27.303 136.296 27.1793C136.164 27.0557 136.098 26.8867 136.098 26.6724C136.098 26.5158 136.136 26.3798 136.21 26.2645C136.292 26.1491 136.42 26.0543 136.593 25.9801L136.877 25.8565C137.001 25.807 137.088 25.7164 137.137 25.5845C137.186 25.4526 137.211 25.2301 137.211 24.9169V18.9083C137.211 18.6528 137.178 18.4756 137.112 18.3767C137.046 18.2695 136.947 18.1954 136.816 18.1542L136.519 18.08C136.354 18.0223 136.234 17.944 136.16 17.8451C136.086 17.7462 136.049 17.6184 136.049 17.4618C136.049 17.2805 136.103 17.1362 136.21 17.0291C136.317 16.9137 136.502 16.8066 136.766 16.7076L139.585 15.6568C140.129 15.4507 140.52 15.3188 140.759 15.2611C140.998 15.1952 141.188 15.1622 141.328 15.1622C141.542 15.1622 141.707 15.2405 141.823 15.3971C141.938 15.5537 142.025 15.8216 142.082 16.2008Z" fill="white"/>
<path d="M157.816 25.7081V25.4361L157.433 25.4485V17.3753C157.433 17.0621 157.351 16.8107 157.186 16.6211C157.021 16.4315 156.794 16.3368 156.506 16.3368C156.291 16.3368 156.102 16.3944 155.937 16.5098C155.78 16.617 155.702 16.7612 155.702 16.9426V18.2901C155.702 18.966 155.467 19.4976 154.997 19.885C154.528 20.2642 153.86 20.4537 152.995 20.4537C152.269 20.4537 151.725 20.2971 151.363 19.9839C151 19.6707 150.819 19.2339 150.819 18.6734C150.819 18.1377 151.062 17.6019 151.548 17.0662C152.034 16.5222 152.764 16.073 153.736 15.7186C154.717 15.3559 155.949 15.1746 157.433 15.1746C159.164 15.1746 160.45 15.4919 161.29 16.1266C162.139 16.7612 162.564 17.6349 162.564 18.7476V24.6696C162.564 24.8344 162.601 24.9704 162.675 25.0776C162.757 25.1765 162.881 25.2259 163.046 25.2259C163.186 25.2259 163.297 25.1889 163.38 25.1147C163.47 25.0323 163.553 24.9457 163.627 24.855C163.676 24.8056 163.73 24.7603 163.788 24.719C163.854 24.6778 163.924 24.6572 163.998 24.6572C164.13 24.6572 164.225 24.7067 164.282 24.8056C164.34 24.8963 164.369 25.0158 164.369 25.1641C164.369 25.5185 164.237 25.8936 163.973 26.2892C163.718 26.6766 163.33 27.0104 162.811 27.2906C162.3 27.5626 161.657 27.6986 160.882 27.6986C159.967 27.6986 159.226 27.5131 158.657 27.1423C158.097 26.7631 157.816 26.2851 157.816 25.7081ZM150.349 24.7438C150.349 23.6228 150.852 22.7409 151.857 22.098C152.871 21.4469 154.305 21.1213 156.16 21.1213C156.638 21.1213 157.05 21.1543 157.396 21.2202C157.75 21.2862 158.039 21.381 158.261 21.5046L157.866 22.506C157.693 22.4071 157.528 22.3371 157.371 22.2958C157.215 22.2546 157.046 22.234 156.864 22.234C156.46 22.234 156.143 22.3741 155.912 22.6544C155.682 22.9264 155.566 23.3261 155.566 23.8536C155.566 24.3976 155.682 24.8097 155.912 25.0899C156.143 25.3702 156.444 25.5103 156.815 25.5103C157.054 25.5103 157.276 25.4567 157.482 25.3496C157.697 25.2342 157.857 25.0982 157.965 24.9416L158.249 25.8565C157.862 26.4417 157.293 26.895 156.543 27.2164C155.801 27.5379 155.006 27.6986 154.157 27.6986C153.019 27.6986 152.1 27.4184 151.4 26.8579C150.699 26.2892 150.349 25.5845 150.349 24.7438Z" fill="white"/>
<path d="M172.609 16.1884V24.9169C172.609 25.2301 172.634 25.4526 172.683 25.5845C172.733 25.7081 172.819 25.7988 172.943 25.8565L173.202 25.9925C173.466 26.1408 173.598 26.351 173.598 26.623C173.598 27.1175 173.301 27.3648 172.708 27.3648H167.181C166.876 27.3648 166.654 27.303 166.514 27.1793C166.374 27.0557 166.304 26.8867 166.304 26.6724C166.304 26.5158 166.341 26.3798 166.415 26.2645C166.497 26.1491 166.629 26.0543 166.811 25.9801L167.095 25.8565C167.219 25.807 167.305 25.7164 167.355 25.5845C167.404 25.4526 167.429 25.2301 167.429 24.9169V18.8589C167.429 18.6116 167.396 18.4385 167.33 18.3396C167.264 18.2325 167.161 18.1583 167.021 18.1171L166.736 18.0429C166.572 17.9852 166.452 17.9069 166.378 17.808C166.304 17.7091 166.267 17.5813 166.267 17.4247C166.267 17.2434 166.316 17.0992 166.415 16.992C166.522 16.8849 166.712 16.7777 166.984 16.6706L169.889 15.5826C170.276 15.4342 170.59 15.3271 170.829 15.2611C171.076 15.187 171.315 15.1499 171.546 15.1499C171.892 15.1499 172.156 15.2488 172.337 15.4466C172.518 15.6362 172.609 15.8834 172.609 16.1884ZM172.176 19.1803L171.472 18.4385L171.855 18.0923C172.992 17.0373 173.969 16.2832 174.785 15.8299C175.601 15.3765 176.351 15.1499 177.035 15.1499C178.082 15.1499 178.898 15.5043 179.483 16.2131C180.076 16.9219 180.427 17.8533 180.534 19.0072L181.115 24.9169C181.14 25.2301 181.168 25.4526 181.201 25.5845C181.243 25.7164 181.321 25.807 181.436 25.8565L181.733 25.9801C181.906 26.0543 182.03 26.1491 182.104 26.2645C182.186 26.3798 182.228 26.5158 182.228 26.6724C182.228 26.8867 182.157 27.0557 182.017 27.1793C181.885 27.303 181.663 27.3648 181.35 27.3648H175.762C175.176 27.3648 174.884 27.1175 174.884 26.623C174.884 26.351 175.012 26.1408 175.267 25.9925L175.527 25.8565C175.65 25.7988 175.745 25.7081 175.811 25.5845C175.877 25.4526 175.893 25.2301 175.86 24.9169L175.378 19.7243C175.329 19.205 175.205 18.8176 175.007 18.5621C174.818 18.3066 174.517 18.1789 174.105 18.1789C173.849 18.1789 173.59 18.2366 173.326 18.352C173.07 18.4591 172.831 18.6075 172.609 18.797L172.176 19.1803Z" fill="white"/>
<path d="M185.152 27.3648C184.847 27.3648 184.624 27.303 184.484 27.1793C184.344 27.0557 184.274 26.8867 184.274 26.6724C184.274 26.5158 184.311 26.3798 184.385 26.2645C184.468 26.1491 184.599 26.0543 184.781 25.9801L185.065 25.8565C185.189 25.807 185.275 25.7164 185.325 25.5845C185.374 25.4526 185.399 25.2301 185.399 24.9169V12.4176C185.399 12.1621 185.366 11.9849 185.3 11.886C185.234 11.7788 185.131 11.7046 184.991 11.6634L184.707 11.5893C184.542 11.5316 184.422 11.4533 184.348 11.3544C184.274 11.2554 184.237 11.1277 184.237 10.9711C184.237 10.7898 184.286 10.6455 184.385 10.5384C184.492 10.4312 184.682 10.3241 184.954 10.2169L187.859 9.12896C188.247 8.98061 188.56 8.87346 188.799 8.80752C189.046 8.73334 189.285 8.69625 189.516 8.69625C189.862 8.69625 190.126 8.79516 190.307 8.99297C190.488 9.19078 190.579 9.43805 190.579 9.73476V24.9169C190.579 25.2301 190.604 25.4526 190.653 25.5845C190.703 25.7081 190.789 25.7988 190.913 25.8565L191.173 25.9925C191.436 26.1408 191.568 26.351 191.568 26.623C191.568 27.1175 191.271 27.3648 190.678 27.3648H185.152ZM189.133 22.0733L193.769 18.2778C194.066 18.0388 194.193 17.7956 194.152 17.5484C194.119 17.2928 193.938 17.0992 193.608 16.9673L193.287 16.8313C193.13 16.7571 193.023 16.6747 192.965 16.584C192.908 16.4851 192.879 16.3574 192.879 16.2008C192.879 15.9865 192.953 15.8175 193.101 15.6939C193.258 15.5702 193.46 15.5084 193.707 15.5084H198.578C198.842 15.5084 199.048 15.5702 199.196 15.6939C199.345 15.8093 199.419 15.97 199.419 16.176C199.419 16.3738 199.357 16.5387 199.233 16.6706C199.118 16.8024 198.863 16.9219 198.467 17.0291C198.005 17.161 197.568 17.3423 197.156 17.5731C196.753 17.7956 196.27 18.1294 195.71 18.5745L189.738 23.3096L189.133 22.0733ZM194.214 18.4138L198.677 25.1641C198.809 25.3537 198.928 25.5021 199.036 25.6092C199.143 25.7081 199.271 25.8111 199.419 25.9183C199.592 26.0419 199.732 26.1697 199.839 26.3015C199.946 26.4334 200 26.5777 200 26.7343C200 26.9238 199.922 27.0763 199.765 27.1917C199.617 27.3071 199.419 27.3648 199.172 27.3648H193.287C193.064 27.3648 192.883 27.303 192.743 27.1793C192.611 27.0557 192.545 26.8909 192.545 26.6848C192.545 26.5529 192.57 26.4458 192.619 26.3634C192.677 26.2727 192.767 26.1862 192.891 26.1037L193.151 25.9677C193.283 25.9018 193.357 25.8029 193.373 25.671C193.39 25.5391 193.307 25.3372 193.126 25.0652L190.839 21.517L194.214 18.4138Z" fill="white"/>
<path d="M13.4804 0.842523C13.4804 0.37721 13.8576 0 14.3229 0H15.1654C15.6307 0 16.0079 0.377211 16.0079 0.842523V4.15418C16.0079 5.0761 17.276 5.32834 17.6289 4.4766L18.8963 1.41677C19.0743 0.986877 19.5672 0.782732 19.9971 0.9608L20.7755 1.28322C21.2054 1.46129 21.4095 1.95414 21.2314 2.38403L19.9636 5.44493C19.6108 6.29668 20.6858 7.015 21.3377 6.36311L23.6803 4.02056C24.0093 3.69153 24.5427 3.69153 24.8718 4.02056L25.4675 4.61631C25.7966 4.94534 25.7966 5.4788 25.4675 5.80782L23.126 8.14931C22.4741 8.8012 23.1925 9.87625 24.0442 9.52345L27.1036 8.25622C27.5335 8.07816 28.0263 8.2823 28.2044 8.7122L28.5268 9.49059C28.7049 9.92048 28.5007 10.4133 28.0708 10.5914L25.0095 11.8595C24.1577 12.2123 24.41 13.4804 25.3319 13.4804H28.6458C29.1111 13.4804 29.4883 13.8576 29.4883 14.3229V15.1654C29.4883 15.6307 29.1111 16.0079 28.6458 16.0079L0.842523 16.0079C0.37721 16.0079 0 15.6307 0 15.1654V14.3229C0 13.8576 0.37721 13.4804 0.842523 13.4804H4.15559C5.07751 13.4804 5.32975 12.2123 4.47801 11.8595L1.41687 10.5915C0.986981 10.4134 0.782836 9.92058 0.960903 9.49068L1.28332 8.71229C1.46139 8.2824 1.95424 8.07825 2.38413 8.25632L5.44394 9.52373C6.29568 9.87654 7.01401 8.80149 6.36211 8.14959L4.02056 5.80804C3.69153 5.47902 3.69154 4.94556 4.02056 4.61653L4.61631 4.02078C4.94534 3.69176 5.4788 3.69176 5.80782 4.02078L8.14987 6.36283C8.80176 7.01472 9.87681 6.29639 9.52401 5.44465L8.25633 2.3842C8.07826 1.95431 8.28241 1.46146 8.7123 1.28339L9.49069 0.960971C9.92058 0.782903 10.4134 0.987049 10.5915 1.41694L11.8595 4.47806C12.2123 5.32981 13.4804 5.07756 13.4804 4.15564V0.842523Z" fill="#FFD701"/>
<path d="M1.44916 18.1142C0.906349 18.1142 0.50448 18.6207 0.666077 19.1389C0.771031 19.4755 0.88772 19.8069 1.01567 20.1326C1.1381 20.4443 1.44328 20.6418 1.77816 20.6418H27.7101C28.045 20.6418 28.3502 20.4443 28.4726 20.1326C28.6006 19.8069 28.7173 19.4755 28.8222 19.1389C28.9838 18.6207 28.582 18.1142 28.0391 18.1142H1.44916Z" fill="#FFD701"/>
<path d="M3.90895 22.7481C3.2411 22.7481 2.84868 23.4826 3.26833 24.0021C3.55708 24.3596 3.86218 24.7033 4.18251 25.0321C4.33637 25.19 4.54889 25.2757 4.76938 25.2757H24.7189C24.9394 25.2757 25.1519 25.19 25.3058 25.0321C25.6261 24.7033 25.9312 24.3596 26.22 24.0021C26.6396 23.4826 26.2472 22.7481 25.5794 22.7481H3.90895Z" fill="#FFD701"/>
<path d="M14.7442 29.4883C16.4472 29.4883 18.0828 29.1996 19.6046 28.6684C20.4106 28.3871 20.1658 27.382 19.3121 27.382H10.1762C9.3225 27.382 9.07767 28.3871 9.88366 28.6684C11.4055 29.1996 13.0411 29.4883 14.7442 29.4883Z" fill="#FFD701"/>
</svg>
