<svg height="100%" style="height:50px;transition:fill 2s ease-out;" viewbox="0 0 63 60" xmlns="http://www.w3.org/2000/svg"><g id="mosaic_logomark"><path class="mosaic-logo-tile-1" d="M37.32 42.24L43.43 60h7.08c5 0 8.34-1 10.13-3 1.79-2 2.61-5.73 2.61-11.17V24.36L37.32 42.24z" fill="currentColor" id="tile-1"></path><path class="mosaic-logo-tile-2" d="M2.53 56.91c.08.08.08.15.15.15 1.72 2 5.07 3 10.06 3h25.4l-14-43.35-21.61 40.2z" fill="currentColor" id="tile-2"></path><path class="mosaic-logo-tile-4" d="M12.74 0C7.75 0 4.4 1 2.68 3 .89 5.07 0 8.79 0 14.23v25.1L23.91 0H12.74z" fill="currentColor" id="tile-4"></path><path class="mosaic-logo-tile-3" d="M27 0l10.47 32.33L63 9.83C62.65 6.7 61.83 4.4 60.64 3c-1.79-2-5.14-3-10.13-3H27z" fill="currentColor" id="tile-3" style="color:#fff;"></path></g></svg>