<svg version="1.1" id="Layer_1" xmlns="http://www.w3.org/2000/svg" xmlns:xlink="http://www.w3.org/1999/xlink" x="0px" y="0px"
	 viewBox="0 0 259.5 144" style="enable-background:new 0 0 259.5 144;" xml:space="preserve">
<style type="text/css">
	.st0{fill:#003E7E;}
	.st1{fill:#5E9732;}
	.st2{fill:#8E8E8E;}
	.st3{font-family:'ArialMT';}
	.st4{font-size:16.3069px;}
	.st5{font-size:16.9461px;}
	.st6{font-size:16.4186px;}
</style>
<g>
	<path class="st0" d="M25.5,107.6l-4.7-5c-1.7,1-2.6,2.2-2.6,3.7c0,1.8,1.4,3.1,3.5,3.1C23,109.3,24.4,108.8,25.5,107.6L25.5,107.6z
		 M29.9,112.1l-2.4-2.5c-1.7,1.7-3.8,2.6-6.2,2.6c-4.2,0-6.8-2-6.8-5.6c0-2.9,1.8-4.8,4.4-6.2C17.6,99,17,97.9,17,96
		c0-2.9,2.2-5.1,5.8-5.1c2.1,0,3.9,0.5,5.3,1.3l-0.6,3.4c-1.6-1-3.1-1.6-4.5-1.6c-1.5,0-2.3,0.9-2.3,2c0,1,0.5,1.8,1.6,3l4.9,5.3
		c0.5-1.3,0.9-2.8,1.2-4.7l3.1,0.7c-0.4,2.5-1.1,4.6-2.1,6.4l4.3,4.6L29.9,112.1L29.9,112.1z"/>
	<path class="st0" d="M47.5,103.5h5.6l-2.8-8L47.5,103.5L47.5,103.5z M48.4,91.2h4.2l7.6,20.2l-3.9,0.7l-2-5.4h-7.8l-1.9,5.2h-3.9
		L48.4,91.2L48.4,91.2z"/>
	<path class="st0" d="M67.5,112.2c-2.1,0-4.2-0.7-5.6-1.4l0.5-3c1.6,1,3.5,1.7,5.3,1.7c1.6,0,2.4-0.6,2.4-1.5c0-1-0.6-1.4-2.9-2
		c-3.5-0.9-5-1.9-5-4.5c0-2.5,2-4.2,5.3-4.2c1.9,0,3.6,0.4,5.1,1l-0.5,3c-1.4-0.8-3.1-1.3-4.6-1.3c-1.3,0-2,0.5-2,1.3
		c0,0.8,0.5,1.2,2.7,1.8c3.7,1,5.2,2,5.2,4.7C73.4,110.6,71.3,112.2,67.5,112.2L67.5,112.2z"/>
	<path class="st0" d="M80.9,112.2c-2.1,0-4.2-0.7-5.6-1.4l0.5-3c1.6,1,3.5,1.7,5.3,1.7c1.6,0,2.4-0.6,2.4-1.5c0-1-0.6-1.4-2.9-2
		c-3.5-0.9-5-1.9-5-4.5c0-2.5,2-4.2,5.3-4.2c1.9,0,3.6,0.4,5.1,1l-0.5,3c-1.4-0.8-3.1-1.3-4.6-1.3c-1.3,0-2,0.5-2,1.3
		c0,0.8,0.5,1.2,2.7,1.8c3.7,1,5.2,2,5.2,4.7C86.8,110.6,84.7,112.2,80.9,112.2L80.9,112.2z"/>
	<path class="st0" d="M95.6,100.2c-2.1,0-3.3,1.9-3.3,4.6c0,2.6,1.2,4.6,3.3,4.6c2.2,0,3.3-1.9,3.3-4.6
		C99,102.1,97.8,100.2,95.6,100.2L95.6,100.2z M95.6,112.3c-3.9,0-6.8-2.8-6.8-7.5c0-4.7,2.9-7.5,6.8-7.5c3.9,0,6.8,2.8,6.8,7.5
		C102.5,109.4,99.6,112.3,95.6,112.3L95.6,112.3z"/>
	<path class="st0" d="M111.5,112.2c-4,0-6.9-2.7-6.9-7.4c0-5,3.1-7.6,7-7.6c1.9,0,3.4,0.5,4.5,1.2l-0.5,3.2
		c-1.2-0.9-2.4-1.3-3.8-1.3c-2.1,0-3.6,1.5-3.6,4.4c0,3,1.6,4.4,3.8,4.4c1.3,0,2.4-0.3,3.8-1.4l0.4,3.1
		C114.8,111.8,113.4,112.2,111.5,112.2L111.5,112.2z"/>
	<path class="st0" d="M119.3,112V97.5h3.6V112H119.3L119.3,112z M121.2,95.1c-1.2,0-2.2-0.8-2.2-2c0-1.2,1-2.1,2.2-2.1
		c1.2,0,2.1,0.9,2.1,2.1C123.3,94.3,122.3,95.1,121.2,95.1L121.2,95.1z"/>
	<path class="st0" d="M134.6,104.8c-4.2,0.5-5.1,1.7-5.1,3.1c0,1,0.7,1.7,1.8,1.7c1.2,0,2.4-0.6,3.4-1.6V104.8L134.6,104.8z
		 M135.1,112l-0.3-1.9c-1.2,1.2-2.7,2.2-4.8,2.2c-2.5,0-4.1-1.5-4.1-4c0-3.5,2.9-5,8.7-5.6v-0.4c0-1.6-0.9-2.2-2.5-2.2
		c-1.7,0-3.3,0.5-4.8,1.2l-0.4-2.9c1.7-0.7,3.4-1.2,5.7-1.2c3.7,0,5.6,1.4,5.6,4.8v9.9H135.1L135.1,112z"/>
	<path class="st0" d="M147.3,112.2c-2.8,0-4.8-1-4.8-4.3v-7.4h-2v-2.9h2v-4.6l3.5-0.5v5.1h3l0.4,2.9H146v6.8c0,1.2,0.5,1.8,1.9,1.8
		c0.4,0,0.8,0,1.1-0.1l0.4,3C149,112.1,148.3,112.2,147.3,112.2L147.3,112.2z"/>
	<path class="st0" d="M154.9,103.2h5.8c-0.2-2.2-1.1-3.5-2.9-3.5C156.4,99.7,155.2,100.9,154.9,103.2L154.9,103.2z M158.4,112.3
		c-4,0-7.1-2.3-7.1-7.5c0-4.7,2.8-7.5,6.6-7.5c4.3,0,6.3,3.3,6.3,7.4c0,0.3,0,0.7,0,0.9h-9.3c0.2,2.8,1.7,4,3.9,4
		c1.9,0,3.4-0.7,5-1.8l0.4,2.8C162.6,111.6,160.7,112.3,158.4,112.3L158.4,112.3z"/>
	<path class="st0" d="M172,112.2c-2.1,0-4.2-0.7-5.6-1.4l0.5-3c1.6,1,3.5,1.7,5.3,1.7c1.6,0,2.4-0.6,2.4-1.5c0-1-0.6-1.4-2.9-2
		c-3.5-0.9-5-1.9-5-4.5c0-2.5,2-4.2,5.3-4.2c1.9,0,3.6,0.4,5.1,1l-0.5,3c-1.4-0.8-3.1-1.3-4.6-1.3c-1.3,0-2,0.5-2,1.3
		c0,0.8,0.5,1.2,2.7,1.8c3.7,1,5.2,2,5.2,4.7C177.8,110.6,175.8,112.2,172,112.2L172,112.2z"/>
	<path class="st0" d="M199.9,112.4c-6.4,0-10.2-4.1-10.2-10.6c0-6.4,4.1-10.7,10-10.7c2.3,0,4.2,0.4,5.6,1.2l-0.8,5.3
		c-1.1-0.9-2.6-1.5-4.2-1.5c-2.6,0-4.5,2-4.5,5.6c0,3.8,2.2,5.6,4.9,5.6c1.4,0,2.7-0.4,4.2-1.2l0.8,4.8
		C203.9,111.9,202.2,112.4,199.9,112.4L199.9,112.4z"/>
	<path class="st0" d="M217.1,95.9h-0.7v5.5h0.7c2,0,3.1-0.9,3.1-2.8C220.2,96.8,219.1,95.9,217.1,95.9L217.1,95.9z M217.4,105.9h-1
		v6.2h-6.1V91.5h7.1c5.3,0,8.6,2.3,8.6,7C226,103.4,222.6,105.9,217.4,105.9L217.4,105.9z"/>
	<path class="st0" d="M235.1,104h3.8l-1.9-6.5L235.1,104L235.1,104z M234,91.4h6.8l6.8,20l-6.2,1l-1.2-3.7h-6.5l-1,3.5h-5.9
		L234,91.4L234,91.4z"/>
	<path class="st1" d="M27.3,82.1l-3.9-12.5c-0.4-1.4-1.2-4-1.3-5.1h-0.1c0,1.1,0,3.7-0.1,5.4l-0.6,12.2H16l2.1-24.2h7l3.6,12.6
		c0.6,2.3,1,3.9,1.2,5.2H30c0.3-1.6,0.8-3.5,1.3-5.4L35,57.9h6.9l1.9,24.2h-5.5L37.7,70c-0.1-1.7-0.1-4.4-0.1-5.6h-0.1
		c-0.1,1.1-0.9,3.8-1.3,5.1l-3.9,12.5H27.3L27.3,82.1z"/>
	<path class="st1" d="M48.5,57.9H54v15.3c0,3.6,1.3,4.8,4,4.8c2.7,0,4-1.1,4-4.8V57.9h5.3v15.3c0,6.7-3.3,9.4-9.6,9.4
		c-6.1,0-9.3-2.6-9.3-9.1V57.9L48.5,57.9z"/>
	<polygon class="st1" points="72.3,57.9 88.2,57.9 88.2,62.4 77.8,62.4 77.8,67.7 86.8,67.7 86.8,72 77.8,72 77.8,77.7 88.3,77.7 
		88.3,82.1 72.3,82.1 72.3,57.9 	"/>
	<polygon class="st1" points="92.3,57.9 97.8,57.9 97.8,77.5 107.2,77.5 107.2,82.1 92.3,82.1 92.3,57.9 	"/>
	<polygon class="st1" points="110.7,57.9 116.1,57.9 116.1,77.5 125.6,77.5 125.6,82.1 110.7,82.1 110.7,57.9 	"/>
	<polygon class="st1" points="129,57.9 144.9,57.9 144.9,62.4 134.5,62.4 134.5,67.7 143.5,67.7 143.5,72 134.5,72 134.5,77.7 
		145,77.7 145,82.1 129,82.1 129,57.9 	"/>
	<path class="st1" d="M158.3,68.6c2.6,0,3.8-0.9,3.8-3.1c0-2.2-1.2-3.1-3.8-3.1h-3.9v6.2H158.3L158.3,68.6z M157.5,72.5h-3.1v9.6
		H149V57.9h9.9c5.4,0,8.6,2.5,8.6,7.3c0,3.4-1.6,5.6-4.5,6.7l5.6,10.3h-6L157.5,72.5L157.5,72.5z"/>
	<path class="st1" d="M193.6,69.2h3.3c2.8,0,4.1-1.1,4.1-3.4c0-2.4-1.3-3.4-4.1-3.4h-3.3V69.2L193.6,69.2z M188.1,57.9h9.1
		c5.7,0,9.1,2.6,9.1,7.8c0,5.2-3.6,7.8-9.5,7.8h-3.3v8.6h-5.4V57.9L188.1,57.9z"/>
	<polygon class="st1" points="215.4,72.3 207.5,57.9 213.2,57.9 218.2,67.2 223.2,57.9 228.7,57.9 220.8,72.3 220.8,82.1 
		215.4,82.1 215.4,72.3 	"/>
	<polygon class="st1" points="231.8,57.9 247.7,57.9 247.7,62.4 237.3,62.4 237.3,67.7 246.3,67.7 246.3,72 237.3,72 237.3,77.7 
		247.8,77.7 247.8,82.1 231.8,82.1 231.8,57.9 	"/>
	<path class="st0" d="M180.6,69.7c0,2-1.6,3.6-3.6,3.6c-2,0-3.6-1.6-3.6-3.6c0-2,1.6-3.6,3.6-3.6C179,66.1,180.6,67.7,180.6,69.7
		L180.6,69.7z"/>
	<polygon class="st0" points="97.6,4.5 83.7,18.8 71.1,4.3 67.9,0.9 64.6,4.3 17.8,52.3 31.2,52.3 67.7,14.8 77,25.6 51,52.3 
		64.3,52.3 97.2,18.5 126.2,52.3 138.2,52.3 133.1,45.8 97.6,4.5 	"/>
	<text transform="matrix(0.8894 0 0 1 16.5469 143.8438)" class="st2 st3 st4">MODERN</text>
	<text transform="matrix(0.7306 0 0 1 98.7812 143.7266)" class="st2 st3 st5">BUSINESS</text>
	<text transform="matrix(0.8382 0 0 1 179.3281 143.3906)" class="st2 st3 st6">ADVISORS</text>
	<path class="st2" d="M172.7,138.1c0,1.4-1.1,2.5-2.5,2.5c-1.4,0-2.5-1.1-2.5-2.5c0-1.4,1.1-2.5,2.5-2.5
		C171.6,135.6,172.7,136.7,172.7,138.1L172.7,138.1z"/>
	<path class="st2" d="M92.1,138.1c0,1.4-1.1,2.5-2.5,2.5c-1.4,0-2.5-1.1-2.5-2.5c0-1.4,1.1-2.5,2.5-2.5
		C91,135.6,92.1,136.7,92.1,138.1L92.1,138.1z"/>
</g>
</svg>