<svg class="jss21" id="Group_401" data-name="Group 401" xmlns="http://www.w3.org/2000/svg" width="91.56" height="24.969" viewBox="0 0 91.56 24.969"><path id="Path_2546" data-name="Path 2546" d="M68.468,57.46H64.626V43.745l-.033-.008c-.038.05-.078.1-.114.15L56.461,55.275c-.045.064-.091.127-.136.19-.061.086-.125.083-.189,0-.037-.045-.07-.094-.1-.141l-7.864-10.9a.3.3,0,0,0-.134-.111V57.46H44.3V32.674a.142.142,0,0,1,.025-.005.049.049,0,0,1,.018,0,.05.05,0,0,1,.016.009c.009.009.018.019.026.029l.023.031L56.228,49.474a.074.074,0,0,0,.014.014l.033.022,6.059-8.442q3.026-4.217,6.053-8.433l.054.021a.582.582,0,0,1,.038.118,1.9,1.9,0,0,1,0,.2q0,12.09,0,24.18C68.481,57.25,68.473,57.351,68.468,57.46Z" transform="translate(-44.303 -32.507)"></path><path id="Path_2547" data-name="Path 2547" d="M363.556,53.541v8.3H359.71c-.046-.131-.062-23.669-.012-23.946.063-.005.132-.016.2-.016,2.23,0,4.461-.014,6.691,0a10.815,10.815,0,0,1,4.348.847,7.255,7.255,0,0,1,3.2,2.615,6.89,6.89,0,0,1,1.042,2.748,9.142,9.142,0,0,1,.105,2,8.511,8.511,0,0,1-1.475,4.514,6.26,6.26,0,0,1-2.07,1.836l-.309.174,5.817,9.24h-.259c-1.333,0-2.666,0-4,0a.372.372,0,0,1-.361-.193q-2.533-3.924-5.077-7.842c-.228-.351-.112-.281-.52-.282-1.073,0-2.146,0-3.219,0Zm0-3.727H367.1a5.728,5.728,0,0,0,1.35-.161,3.346,3.346,0,0,0,2.094-1.449,4.384,4.384,0,0,0,.535-3.874A3.733,3.733,0,0,0,369.09,42a3.978,3.978,0,0,0-1.775-.381c-1.183-.005-2.367,0-3.55,0a2,2,0,0,0-.2.021Z" transform="translate(-308.375 -36.891)"></path><path id="Path_2548" data-name="Path 2548" d="M222.865,61.843H219.01c-.005-.1-.014-.189-.014-.278q0-3.64,0-7.28a.777.777,0,0,0-.1-.389q-3.824-6.988-7.643-13.979-.491-.9-.981-1.8c-.036-.066-.067-.135-.115-.233.106-.006.18-.014.255-.014,1.411,0,2.822,0,4.234-.005a.349.349,0,0,1,.36.219q1.022,1.974,2.057,3.941l3.889,7.427c.027.051.059.1.1.175.043-.069.08-.118.108-.173q.92-1.8,1.839-3.592L226.527,39c.166-.324.335-.646.495-.973a.235.235,0,0,1,.243-.149q2.2,0,4.409,0a1.358,1.358,0,0,1,.157.022c-.047.091-.082.165-.121.237l-3.273,5.9q-2.739,4.937-5.479,9.873a.768.768,0,0,0-.094.39q0,3.63,0,7.26Z" transform="translate(-183.185 -36.891)"></path><path id="Path_2549" data-name="Path 2549" d="M509.868,49.454c-.094.006-.163.015-.231.015H505.93c-.215,0-.215,0-.3-.2l-3.246-8.211c-.029-.072-.059-.143-.1-.242-.033.061-.059.1-.076.143q-1.639,4.141-3.277,8.282c-.092.232-.092.232-.333.232h-3.915c.035-.1.055-.163.082-.225q1.244-2.934,2.49-5.867l4.776-11.25c.02-.048.045-.094.061-.143a.175.175,0,0,1,.188-.132.182.182,0,0,1,.184.139q.433,1.023.869,2.045l6.094,14.354c.122.287.244.574.365.861C509.822,49.309,509.839,49.369,509.868,49.454Z" transform="translate(-421.435 -31.852)"></path><path id="Path_2550" data-name="Path 2550" d="M475.538,166.138c.024-.072.039-.127.061-.179.474-1.119.951-2.236,1.422-3.356.053-.127.121-.193.26-.174a.9.9,0,0,0,.117,0q8.848,0,17.7-.006a.388.388,0,0,1,.425.286c.433,1.051.885,2.095,1.329,3.141.037.088.069.177.111.287Z" transform="translate(-405.4 -141.187)"></path></svg>