<svg class="next-level-private-logo" data-name="Layer 1" id="Layer_1" viewbox="0 0 280.09 68.04" xmlns="http://www.w3.org/2000/svg"><defs><style>.cls-1{fill:#002f87;}.cls-2{fill:#65b2e8;}.cls-3{fill:none;stroke:#002f87;stroke-width:0.5px;}</style></defs><path class="cls-1" d="M335.64,381.33v9.79h-1.08V379.78h1.1l7.91,9.66v-9.66h1.08v11.34h-1.06Z" transform="translate(-165.09 -361.98)"></path><path class="cls-1" d="M348.75,379.78h8v.89h-6.93v4.2h6.8v.88h-6.8v4.49h6.93v.88h-8Z" transform="translate(-165.09 -361.98)"></path><path class="cls-1" d="M364.91,386l-4.4,5.11h-1.36l5.09-5.81-4.81-5.53h1.39l4.09,4.81,4.11-4.81h1.36l-4.79,5.51,5.07,5.83h-1.34Z" transform="translate(-165.09 -361.98)"></path><path class="cls-1" d="M376.76,380.67h-4.12v-.89H382v.89h-4.13v10.45h-1.1Z" transform="translate(-165.09 -361.98)"></path><path class="cls-1" d="M391,379.78h1.08v10.46h6.11v.88H391Z" transform="translate(-165.09 -361.98)"></path><path class="cls-1" d="M401.52,379.78h8v.89H402.6v4.2h6.8v.88h-6.8v4.49h6.93v.88h-8Z" transform="translate(-165.09 -361.98)"></path><path class="cls-1" d="M411.87,379.78h1.25L417.7,390l4.6-10.25h1.25l-5.17,11.34H417Z" transform="translate(-165.09 -361.98)"></path><path class="cls-1" d="M426.36,379.78h8v.89h-6.93v4.2h6.79v.88h-6.79v4.49h6.93v.88h-8Z" transform="translate(-165.09 -361.98)"></path><path class="cls-1" d="M438,379.78h1.08v10.46h6.11v.88H438Z" transform="translate(-165.09 -361.98)"></path><path class="cls-1" d="M334.56,401.84h4.73c2.43,0,3.81,1.53,3.81,3.31s-1.4,3.32-3.81,3.32h-3.65v4.7h-1.08Zm4.62.88h-3.54v4.86h3.54a2.45,2.45,0,1,0,0-4.86Z" transform="translate(-165.09 -361.98)"></path><path class="cls-1" d="M350.19,408.48H347.4v4.69h-1.08V401.84H351c2.18,0,3.84,1.24,3.84,3.31a3.3,3.3,0,0,1-3.5,3.26l3.66,4.76h-1.31Zm.76-5.76H347.4v4.88H351a2.46,2.46,0,1,0,0-4.88Z" transform="translate(-165.09 -361.98)"></path><path class="cls-1" d="M358.52,401.84h1.08v11.33h-1.08Z" transform="translate(-165.09 -361.98)"></path><path class="cls-1" d="M362.41,401.84h1.25l4.58,10.25,4.6-10.25h1.25l-5.17,11.33h-1.34Z" transform="translate(-165.09 -361.98)"></path><path class="cls-1" d="M383.74,410.39H377l-1.27,2.78h-1.21l5.17-11.33h1.35l5.17,11.33H385Zm-6.39-.89h6l-3-6.71Z" transform="translate(-165.09 -361.98)"></path><path class="cls-1" d="M390.93,402.72h-4.12v-.88h9.35v.88H392v10.45h-1.1Z" transform="translate(-165.09 -361.98)"></path><path class="cls-1" d="M399.34,401.84h8v.88h-6.94v4.2h6.8v.88h-6.8v4.49h6.94v.88h-8Z" transform="translate(-165.09 -361.98)"></path><path class="cls-1" d="M195,411.67l-20.49-18.4v19.65h-9.4V385.17c0-4.44,2.7-6.24,5.65-6.24a5.7,5.7,0,0,1,4.15,1.8l20.49,18.39V379.48h9.45v27.69c0,4.45-2.7,6.3-5.7,6.3A5.56,5.56,0,0,1,195,411.67Z" transform="translate(-165.09 -361.98)"></path><polygon class="cls-2" points="91.33 17.5 77.93 17.5 67.76 27.58 57.59 17.5 44.19 17.5 61.06 34.22 44.19 50.94 57.59 50.94 67.76 40.86 77.93 50.94 91.33 50.94 74.46 34.22 91.33 17.5"></polygon><path class="cls-1" d="M300.91,379.48l-8.41,8.69H282v24.75h-9.36V388.17H254.91l8.3-8.69Z" transform="translate(-165.09 -361.98)"></path><line class="cls-3" x1="150.62" x2="150.62" y2="68.04"></line></svg>