<svg width="94" height="94" viewBox="0 0 94 94" fill="none" xmlns="http://www.w3.org/2000/svg">
<circle cx="47" cy="47" r="47" fill="#1EA361"/>
<path d="M64.516 22.2836C64.3129 22.102 64.0374 22 63.7501 22C63.4629 22 63.1873 22.102 62.9842 22.2836L55.5622 28.9205L48.163 31.51L39.4194 28.9031L32.0158 22.2836C31.8127 22.102 31.5371 22 31.2499 22C30.9626 22 30.6871 22.102 30.484 22.2836L15.3172 35.8461C15.1141 36.0278 15 36.2741 15 36.531C15 36.7879 15.1141 37.0343 15.3172 37.2159L22.6687 43.7898L24.6578 52.681L23.7987 53.4502C23.2186 53.9688 22.8236 54.6296 22.6635 55.349C22.5035 56.0684 22.5856 56.8141 22.8995 57.4918C23.2134 58.1694 23.745 58.7486 24.4271 59.1561C25.1091 59.5636 25.911 59.781 26.7313 59.781C26.8006 59.781 26.8678 59.7664 26.9371 59.7626C26.9371 59.8255 26.9165 59.8846 26.9165 59.9476C26.918 60.9309 27.3555 61.8735 28.1331 62.5687C28.9108 63.2639 29.965 63.6549 31.0646 63.656C31.134 63.656 31.2011 63.6414 31.2705 63.6375C31.2705 63.7005 31.2499 63.7596 31.2499 63.8226C31.2513 64.8059 31.6888 65.7485 32.4665 66.4437C33.2441 67.1389 34.2984 67.5299 35.398 67.5309C35.4673 67.5309 35.5345 67.5164 35.6038 67.5125C35.6038 67.5755 35.5832 67.6346 35.5832 67.6976C35.5832 68.4311 35.8263 69.1481 36.282 69.758C36.7377 70.3679 37.3854 70.8433 38.1432 71.124C38.901 71.4047 39.7349 71.4782 40.5394 71.335C41.3439 71.1919 42.0829 70.8387 42.6629 70.32L43.7072 69.3851L45.836 71.2887C46.4159 71.8078 47.155 72.1613 47.9597 72.3046C48.7643 72.4479 49.5985 72.3746 50.3565 72.0938C51.1146 71.8131 51.7624 71.3375 52.2182 70.7274C52.6739 70.1173 52.917 69.4 52.9167 68.6663C52.9167 68.6033 52.9005 68.5443 52.8961 68.4813C52.9655 68.4813 53.0326 68.4997 53.102 68.4997C54.2016 68.4987 55.2558 68.1077 56.0335 67.4125C56.8111 66.7173 57.2486 65.7746 57.2501 64.7913C57.2501 64.7284 57.2338 64.6693 57.2295 64.6063C57.2988 64.6063 57.366 64.6247 57.4353 64.6247C58.5349 64.6237 59.5892 64.2327 60.3668 63.5375C61.1445 62.8423 61.582 61.8996 61.5834 60.9163C61.5834 60.8534 61.5672 60.7943 61.5628 60.7313C61.6322 60.7313 61.6994 60.7497 61.7687 60.7497C62.589 60.7498 63.3908 60.5323 64.0729 60.1249C64.7549 59.7174 65.2865 59.1382 65.6004 58.4605C65.9144 57.7829 65.9965 57.0372 65.8364 56.3178C65.6764 55.5984 65.2813 54.9376 64.7013 54.4189L64.087 53.8687L72.159 43.9439L79.6828 37.2159C79.8859 37.0343 80 36.7879 80 36.531C80 36.2741 79.8859 36.0278 79.6828 35.8461L64.516 22.2836ZM31.2499 24.3384L37.3014 29.7498L23.6665 41.9424L17.615 36.531L31.2499 24.3384ZM26.7313 57.8435C26.3395 57.8436 25.9564 57.7398 25.6306 57.5453C25.3048 57.3507 25.0508 57.0741 24.9008 56.7504C24.7509 56.4267 24.7117 56.0705 24.7881 55.7269C24.8646 55.3833 25.0534 55.0677 25.3305 54.82L26.7844 53.518C27.0615 53.2703 27.4145 53.1017 27.7987 53.0333C28.183 52.965 28.5813 53.0001 28.9433 53.1342C29.3053 53.2682 29.6147 53.4952 29.8324 53.7865C30.0501 54.0778 30.1664 54.4202 30.1665 54.7706C30.1652 55.2402 29.9565 55.6904 29.5859 56.0232L28.132 57.3252C27.9484 57.49 27.73 57.6206 27.4896 57.7096C27.2492 57.7985 26.9915 57.844 26.7313 57.8435ZM31.0646 61.7185C30.6728 61.7186 30.2898 61.6148 29.9639 61.4203C29.6381 61.2257 29.3842 60.9491 29.2342 60.6254C29.0842 60.3017 29.045 59.9455 29.1215 59.6019C29.198 59.2583 29.3867 58.9427 29.6639 58.695L31.1177 57.393C31.3948 57.1453 31.7478 56.9767 32.1321 56.9083C32.5164 56.84 32.9147 56.8751 33.2766 57.0092C33.6386 57.1432 33.948 57.3702 34.1658 57.6615C34.3835 57.9528 34.4998 58.2952 34.4999 58.6456C34.4986 59.1152 34.2899 59.5654 33.9192 59.8982L32.4654 61.2002C32.2817 61.365 32.0634 61.4956 31.823 61.5846C31.5826 61.6735 31.3248 61.719 31.0646 61.7185ZM35.398 65.5934C35.0062 65.5936 34.6231 65.4898 34.2973 65.2953C33.9715 65.1007 33.7175 64.824 33.5676 64.5004C33.4176 64.1767 33.3784 63.8205 33.4549 63.4769C33.5313 63.1333 33.7201 62.8177 33.9972 62.57L35.4511 61.268C35.7282 61.0203 36.0812 60.8517 36.4655 60.7833C36.8497 60.715 37.248 60.7501 37.61 60.8842C37.972 61.0182 38.2814 61.2452 38.4991 61.5365C38.7169 61.8278 38.8331 62.1702 38.8333 62.5206C38.8319 62.9902 38.6232 63.4404 38.2526 63.7732L36.7988 65.0752C36.6151 65.24 36.3968 65.3706 36.1563 65.4596C35.9159 65.5485 35.6582 65.594 35.398 65.5934ZM42.586 67.6482L41.1321 68.9502C40.855 69.1978 40.502 69.3665 40.1177 69.4348C39.7335 69.5031 39.3352 69.4681 38.9732 69.334C38.6112 69.1999 38.3018 68.9729 38.0841 68.6816C37.8663 68.3904 37.7501 68.0479 37.7499 67.6976C37.7513 67.2279 37.96 66.7777 38.3306 66.445L39.7844 65.143C40.0615 64.8953 40.4145 64.7266 40.7988 64.6583C41.1831 64.59 41.5814 64.6251 41.9434 64.7592C42.3054 64.8932 42.6148 65.1202 42.8325 65.4115C43.0502 65.7028 43.1665 66.0452 43.1666 66.3956C43.1653 66.8652 42.9566 67.3154 42.586 67.6482ZM61.7687 58.8122C61.5085 58.8128 61.2508 58.7673 61.0103 58.6783C60.7699 58.5894 60.5516 58.4587 60.3679 58.2939L55.8493 54.2523L54.3175 55.6221L58.8372 59.6637C59.1138 59.9116 59.3021 60.2273 59.3783 60.5709C59.4544 60.9144 59.415 61.2704 59.265 61.594C59.115 61.9175 58.8611 62.194 58.5355 62.3886C58.2098 62.5832 57.827 62.6871 57.4353 62.6872C57.1751 62.6878 56.9174 62.6423 56.677 62.5533C56.4366 62.4644 56.2182 62.3337 56.0346 62.1689L51.5159 58.1273L49.9841 59.4971L54.5038 63.5387C54.7805 63.7866 54.9688 64.1023 55.0449 64.4459C55.1211 64.7894 55.0817 65.1454 54.9317 65.469C54.7816 65.7925 54.5278 66.069 54.2021 66.2636C53.8765 66.4582 53.4936 66.5621 53.102 66.5622C52.8418 66.5628 52.584 66.5173 52.3436 66.4283C52.1032 66.3394 51.8849 66.2087 51.7012 66.0439L47.1826 62.0023L45.6507 63.3721L50.1704 67.4137C50.4471 67.6616 50.6354 67.9773 50.7116 68.3208C50.7877 68.6644 50.7483 69.0204 50.5983 69.344C50.4483 69.6675 50.1944 69.944 49.8688 70.1386C49.5431 70.3332 49.1603 70.4371 48.7686 70.4372C48.5084 70.4378 48.2507 70.3923 48.0102 70.3033C47.7698 70.2144 47.5515 70.0837 47.3678 69.9189L45.0191 67.8216C45.2804 67.2576 45.3822 66.6447 45.3154 66.0371C45.2486 65.4296 45.0153 64.8461 44.6362 64.3384C44.2571 63.8307 43.7438 63.4144 43.1419 63.1264C42.54 62.8384 41.8679 62.6875 41.1852 62.6872C41.1159 62.6872 41.0487 62.7017 40.9794 62.7056C40.9794 62.6426 41 62.5835 41 62.5206C40.9985 61.5373 40.561 60.5946 39.7833 59.8994C39.0057 59.2042 37.9514 58.8132 36.8518 58.8122C36.7825 58.8122 36.7153 58.8267 36.646 58.8306C36.646 58.7677 36.6666 58.7086 36.6666 58.6456C36.6652 57.6623 36.2276 56.7197 35.45 56.0245C34.6723 55.3292 33.6181 54.9382 32.5185 54.9372C32.4491 54.9372 32.382 54.9518 32.3126 54.9556C32.3126 54.8927 32.3332 54.8336 32.3332 54.7706C32.334 54.158 32.165 53.5548 31.8414 53.015C31.5177 52.4751 31.0495 52.0153 30.4786 51.6768C29.9077 51.3382 29.2519 51.1314 28.5698 51.0749C27.8877 51.0184 27.2006 51.1139 26.5699 51.3529L24.8419 43.6281L39.1258 30.858L45.0083 32.6124L43.3107 33.2063C43.1714 33.2554 43.045 33.3296 42.9391 33.4242L32.4621 42.794C31.6844 43.4895 31.2474 44.4328 31.2474 45.4164C31.2474 46.4 31.6844 47.3433 32.4621 48.0388C33.2399 48.7343 34.2948 49.125 35.3947 49.125C36.4947 49.125 37.5496 48.7343 38.3274 48.0388L43.21 43.6717C44.7436 44.7444 46.6363 45.3245 48.5833 45.3185C49.4341 45.319 50.2804 45.2087 51.0956 44.9911L63.1705 55.7888C63.4472 56.0367 63.6355 56.3523 63.7117 56.6959C63.7878 57.0394 63.7484 57.3955 63.5984 57.719C63.4484 58.0425 63.1945 58.319 62.8688 58.5136C62.5432 58.7082 62.1604 58.8121 61.7687 58.8122ZM62.5368 52.4824L53.2005 44.1337C53.7674 43.8194 54.2925 43.4485 54.766 43.0284L55.8493 42.0597L54.3175 40.6898L53.2341 41.6586C52.0005 42.7614 50.3277 43.3809 48.5833 43.3809C46.839 43.3809 45.1661 42.7614 43.9326 41.6586C43.7294 41.477 43.4539 41.375 43.1666 41.375C42.8794 41.375 42.6039 41.477 42.4007 41.6586L36.7988 46.669C36.5217 46.9166 36.1687 47.0853 35.7844 47.1536C35.4001 47.2219 35.0018 47.1868 34.6398 47.0528C34.2778 46.9187 33.9684 46.6917 33.7507 46.4004C33.533 46.1092 33.4167 45.7667 33.4166 45.4164C33.4179 44.9467 33.6266 44.4965 33.9972 44.1638L44.3139 34.9374L48.2237 33.5696H48.241V33.557L55.897 30.8784L69.9122 43.4091L62.5368 52.4824ZM71.3335 41.9424L57.6986 29.7498L63.7501 24.3384L77.385 36.531L71.3335 41.9424Z" fill="white"/>
</svg>
