<svg class="logo-svg" data-name="Component 2 – 3" height="54.848" id="Component_2_3" viewbox="0 0 243.608 54.848" width="243.608" xmlns="http://www.w3.org/2000/svg" xmlns:xlink="http://www.w3.org/1999/xlink">
<defs>
<clippath id="clip-path">
<rect data-name="Rectangle 797" fill="none" height="54.848" id="Rectangle_797" width="243.608"></rect>
</clippath>
</defs>
<g data-name="Group 269" id="Group_269" transform="translate(0 0)">
<g clip-path="url(#clip-path)" data-name="Mask Group 269" id="Mask_Group_269" transform="translate(0 0)">
<path d="M41.788,18.283a7.831,7.831,0,0,1-7.835,7.835H13.059a7.832,7.832,0,0,0-7.835,7.836V52.236a2.612,2.612,0,1,1-5.223,0V33.954a13.066,13.066,0,0,1,10.447-12.8,12.9,12.9,0,0,1,2.612-.261H33.953a2.612,2.612,0,1,0,0-5.223H2.612a2.612,2.612,0,0,1,0-5.223H33.953a7.831,7.831,0,0,1,7.835,7.835M52.05,15.671a18.043,18.043,0,0,0-1.573-5.223,18.341,18.341,0,0,0-3.465-4.968c-.087-.081-.174-.168-.255-.255a18.329,18.329,0,0,0-4.968-3.465A18.043,18.043,0,0,0,36.565.186,18.433,18.433,0,0,0,33.953,0H2.612a2.612,2.612,0,0,0,0,5.224H33.953A13.043,13.043,0,0,1,47.012,18.283,13.046,13.046,0,0,1,33.953,31.342H15.67a5.224,5.224,0,0,0-5.223,5.223v15.67a2.612,2.612,0,1,0,5.223,0V39.177a2.608,2.608,0,0,1,2.612-2.612H33.953a18.432,18.432,0,0,0,2.612-.186,18.042,18.042,0,0,0,5.223-1.573,18.327,18.327,0,0,0,4.968-3.465c.081-.087.168-.174.255-.256a18.332,18.332,0,0,0,3.465-4.968,18.042,18.042,0,0,0,1.573-5.223,18.428,18.428,0,0,0,0-5.223" data-name="Path 3341" fill="#00c072" id="Path_3341" transform="translate(0 0)"></path>
<path d="M131,15.11a1.708,1.708,0,0,1,1.709-1.709h6.946c5.112,0,8.341,2.916,8.341,7.337V20.8c0,4.924-3.952,7.495-8.78,7.495H135.77a.916.916,0,0,0-.916.916v4.431a1.708,1.708,0,0,1-1.708,1.708h-.44A1.708,1.708,0,0,1,131,33.643Zm8.341,9.705c2.916,0,4.735-1.631,4.735-3.92v-.062c0-2.572-1.85-3.92-4.735-3.92H135.48a.627.627,0,0,0-.627.626v6.649a.627.627,0,0,0,.627.626Zm18.875-9.705a1.708,1.708,0,0,1,1.708-1.709H168a8.845,8.845,0,0,1,6.334,2.195,6.634,6.634,0,0,1,1.819,4.735v.063a6.408,6.408,0,0,1-4.1,6.245.939.939,0,0,0-.385,1.458l3.248,4.555a1.708,1.708,0,0,1-1.391,2.7h-.344a1.709,1.709,0,0,1-1.4-.724L166.9,27.7h-4.055a.775.775,0,0,0-.774.774v5.169a1.708,1.708,0,0,1-1.709,1.708h-.44a1.708,1.708,0,0,1-1.708-1.708Zm9.5,9.173c2.759,0,4.516-1.442,4.516-3.669V20.55c0-2.352-1.694-3.637-4.547-3.637H162.7a.626.626,0,0,0-.626.626v6.116a.627.627,0,0,0,.626.627Zm19.094,1.756V15.11a1.708,1.708,0,0,1,1.709-1.709h.441a1.708,1.708,0,0,1,1.708,1.709V25.882c0,4.076,2.1,6.271,5.55,6.271,3.418,0,5.519-2.07,5.519-6.115V15.11a1.708,1.708,0,0,1,1.709-1.709h.44a1.708,1.708,0,0,1,1.708,1.709V25.85c0,6.553-3.7,9.847-9.439,9.847-5.708,0-9.345-3.293-9.345-9.658M217.16,15.11a1.709,1.709,0,0,1,1.709-1.709h6.476c6.9,0,11.665,4.735,11.665,10.912v.063c0,6.178-4.767,10.975-11.665,10.975h-6.476a1.709,1.709,0,0,1-1.709-1.708Zm8.185,16.73c4.61,0,7.621-3.106,7.621-7.4v-.063a7.2,7.2,0,0,0-7.621-7.463h-3.7a.626.626,0,0,0-.626.626V31.213a.627.627,0,0,0,.626.627ZM249.66,13.4h12.858a1.708,1.708,0,0,1,1.708,1.709v.033a1.708,1.708,0,0,1-1.708,1.708H252.435a.627.627,0,0,0-.627.626v4.454a.627.627,0,0,0,.627.626h8.672a1.708,1.708,0,0,1,1.708,1.709V24.3a1.708,1.708,0,0,1-1.708,1.708h-8.672a.627.627,0,0,0-.627.626v4.643a.627.627,0,0,0,.627.626h10.239a1.708,1.708,0,0,1,1.709,1.709v.033a1.708,1.708,0,0,1-1.709,1.708H249.66a1.709,1.709,0,0,1-1.709-1.708V15.11A1.709,1.709,0,0,1,249.66,13.4m24.6,11.038v-.063a11.479,11.479,0,0,1,22.955-.063v.063a11.479,11.479,0,0,1-22.955.063m18.909,0v-.063a7.521,7.521,0,0,0-7.463-7.808,7.417,7.417,0,0,0-7.4,7.746v.063a7.521,7.521,0,0,0,7.464,7.808,7.416,7.416,0,0,0,7.4-7.745" data-name="Path 3342" fill="#fff" id="Path_3342" transform="translate(-56.702 -6.055)"></path>
<g data-name="Group 270" id="Group_270" transform="translate(0 -6.313)">
<path d="M131,76.86a.856.856,0,0,1,.856-.856H135.3c2.54,0,4.145,1.45,4.145,3.646v.031c0,2.446-1.963,3.724-4.363,3.724h-2.148a.018.018,0,0,0-.017.017v2.631a.857.857,0,0,1-.857.857h-.2a.856.856,0,0,1-.856-.857Zm4.145,4.815c1.449,0,2.352-.811,2.352-1.948V79.7c0-1.278-.919-1.947-2.352-1.947h-2.211a.018.018,0,0,0-.017.018v3.89a.018.018,0,0,0,.017.018Z" data-name="Path 3343" fill="#00c072" id="Path_3343" transform="translate(-56.702 -32.875)"></path>
<path d="M155.063,75.886h.655a.857.857,0,0,1,.785.514l4.05,9.271a.857.857,0,0,1-.785,1.2h-.147a.856.856,0,0,1-.79-.525l-.886-2.108h-5.157l-.9,2.113a.858.858,0,0,1-.789.521h-.088a.857.857,0,0,1-.785-1.2l4.05-9.271a.857.857,0,0,1,.785-.514m2.182,6.653-1.885-4.363-1.869,4.363Z" data-name="Path 3344" fill="#00c072" id="Path_3344" transform="translate(-63.132 -32.836)"></path>
<path d="M175.272,76.86a.857.857,0,0,1,.856-.857h4a4.392,4.392,0,0,1,3.147,1.091,3.3,3.3,0,0,1,.9,2.353v.031a3.258,3.258,0,0,1-2.523,3.279.058.058,0,0,0-.032.09l1.932,2.709a.856.856,0,0,1-.7,1.354h-.152a.856.856,0,0,1-.7-.363l-2.424-3.439h-2.4v2.945a.856.856,0,0,1-.856.856h-.2a.856.856,0,0,1-.856-.856Zm4.721,4.549c1.371,0,2.243-.716,2.243-1.822v-.031c0-1.169-.841-1.808-2.259-1.808h-2.79v3.661Z" data-name="Path 3345" fill="#00c072" id="Path_3345" transform="translate(-71.563 -32.875)"></path>
<path d="M200.264,77.779h-2.558a.857.857,0,0,1-.857-.857V76.86a.857.857,0,0,1,.857-.857h7.136a.857.857,0,0,1,.856.857v.062a.856.856,0,0,1-.856.857h-2.575a.027.027,0,0,0-.027.027v8.246a.856.856,0,0,1-.856.856h-.219a.857.857,0,0,1-.857-.856V77.823a.043.043,0,0,0-.043-.043" data-name="Path 3346" fill="#00c072" id="Path_3346" transform="translate(-78.806 -32.875)"></path>
<path d="M219.937,76h.5a.857.857,0,0,1,.677.332l5.586,7.209V76.86a.857.857,0,0,1,.857-.857h.172a.856.856,0,0,1,.856.857v9.192a.856.856,0,0,1-.856.857H227.4a.853.853,0,0,1-.677-.332l-5.757-7.427v6.9a.857.857,0,0,1-.856.857h-.173a.856.856,0,0,1-.856-.857V76.86a.856.856,0,0,1,.856-.857" data-name="Path 3347" fill="#00c072" id="Path_3347" transform="translate(-86.268 -32.875)"></path>
<path d="M244.326,76H250.7a.856.856,0,0,1,.856.857h0a.856.856,0,0,1-.856.856h-5.314v2.836H250a.857.857,0,1,1,0,1.713h-4.612V85.2h5.392a.856.856,0,0,1,.856.856h0a.856.856,0,0,1-.856.857h-6.451a.857.857,0,0,1-.857-.857V76.86a.857.857,0,0,1,.857-.857" data-name="Path 3348" fill="#00c072" id="Path_3348" transform="translate(-94.454 -32.875)"></path>
<path d="M265.046,76.86A.857.857,0,0,1,265.9,76h4a4.391,4.391,0,0,1,3.147,1.091,3.3,3.3,0,0,1,.9,2.353v.031a3.273,3.273,0,0,1-2.6,3.3l1.978,2.775a.856.856,0,0,1-.7,1.354h-.152a.856.856,0,0,1-.7-.363l-2.424-3.439h-2.4v2.945a.856.856,0,0,1-.856.856h-.2a.856.856,0,0,1-.856-.856Zm4.721,4.549c1.371,0,2.243-.716,2.243-1.822v-.031c0-1.169-.841-1.808-2.259-1.808h-2.79v3.661Z" data-name="Path 3349" fill="#00c072" id="Path_3349" transform="translate(-101.696 -32.875)"></path>
<path d="M287.523,84.56l.048-.056a.862.862,0,0,1,1.161-.138,4.688,4.688,0,0,0,2.814.923c1.184,0,1.932-.545,1.932-1.371v-.031c0-.779-.436-1.2-2.461-1.667-2.322-.56-3.631-1.246-3.631-3.256v-.031c0-1.869,1.559-3.163,3.724-3.163a6.068,6.068,0,0,1,3.225.858.849.849,0,0,1,.234,1.216l-.051.072a.857.857,0,0,1-1.136.236,4.513,4.513,0,0,0-2.3-.683c-1.122,0-1.776.576-1.776,1.293v.031c0,.842.5,1.215,2.587,1.714,2.305.561,3.505,1.386,3.505,3.194v.031c0,2.041-1.6,3.256-3.9,3.256a6.68,6.68,0,0,1-3.812-1.168.859.859,0,0,1-.163-1.259" data-name="Path 3350" fill="#00c072" id="Path_3350" transform="translate(-109.173 -32.796)"></path>
</g>
</g>
</g>
</svg>