<svg width="54" height="48" viewBox="0 0 54 48" fill="none" xmlns="http://www.w3.org/2000/svg">
<path d="M54 0.460085L52.6083 10.1166C49.7629 9.86903 47.5051 10.3642 45.835 11.6023C44.1649 12.7784 43.0206 14.4807 42.402 16.7091C41.8453 18.8756 41.7527 21.3517 42.1238 24.1372H54V48H31.0825V23.2087C31.0825 15.0997 32.9999 8.97146 36.835 4.8241C40.6701 0.614834 46.3917 -0.839836 54 0.460085ZM22.9175 0.460085L21.5258 10.1166C18.6804 9.86903 16.4227 10.3642 14.7525 11.6023C13.0824 12.7784 11.9381 14.4807 11.3195 16.7091C10.7628 18.8756 10.67 21.3517 11.0411 24.1372H22.9175V48H0V23.2087C0 15.0997 1.91744 8.97146 5.7525 4.8241C9.58757 0.614834 15.3092 -0.839836 22.9175 0.460085Z" fill="#FFD600"/>
</svg>
