<svg fill="none" height="52" viewbox="0 0 284 52" width="284" xmlns="http://www.w3.org/2000/svg">
<path d="M8.83585 37.8903C5.52899 37.8903 2.27676 36.7497 0 35.0083V28.2681C1.84367 34.1397 5.0959 36.2058 9.70406 36.2058C13.3894 36.2058 17.6717 33.8677 17.6717 29.5183C17.6717 23.9735 13.3347 21.6902 8.94514 19.4617C4.55352 17.2332 0.163929 14.8951 0.163929 9.35031C0.163929 3.58832 4.5009 0 10.463 0C13.2821 0 16.589 1.14267 18.1068 2.44566V7.93565C17.6737 6.74022 15.8847 1.57496 9.7587 1.57496C5.42172 1.57496 2.22414 4.61933 2.22414 8.31521C2.22414 12.7194 5.9641 14.7835 10.0299 16.9044C14.8546 19.4049 20.0031 22.0149 20.0031 28.266C20.0031 33.5409 16.5323 37.8903 8.83585 37.8903Z" fill="white"></path>
<path d="M41.7183 31.9112L41.014 37.0217H23.6135C23.992 36.9669 25.781 36.5874 25.781 32.6723V14.2437C25.781 10.493 24.0466 10.0039 23.6135 9.89429H40.2005V13.8073C40.1458 13.5902 39.4962 11.3617 36.9483 11.3617H28.2743V22.289H35.2139C37.0575 22.289 37.6525 20.8764 37.8165 20.3872V25.8245C37.8165 25.8245 37.436 23.868 35.2685 23.868H28.2763V35.5016H37.1122C40.417 35.4975 41.5564 32.3456 41.7183 31.9112Z" fill="white"></path>
<path d="M66.6959 33.8677C64.4738 36.3681 60.7338 37.8903 57.4796 37.8903C48.3725 37.8903 44.0902 31.0953 44.0902 24.0283C44.0902 16.5797 48.9149 8.96875 58.5097 8.96875C61.2742 8.96875 64.0933 9.72985 66.0442 10.6533V15.5466C64.0387 11.5788 61.3288 10.4909 57.8054 10.4909C50.542 10.4909 46.8547 16.8516 46.8547 23.1576C46.8547 29.6259 50.5947 35.9866 58.2385 35.9866C60.9484 35.9866 64.2006 34.3548 66.6959 32.0715V33.8677Z" fill="white"></path>
<path d="M89.3765 14.5134C89.3765 10.5456 87.1544 10.0016 86.7193 9.89205H93.8208C93.4423 9.94685 91.1109 10.436 91.1109 14.5134V27.1252C91.1109 33.6483 88.4537 37.9977 81.245 37.9977C74.0888 37.9977 71.4336 33.8107 71.4336 27.2876V14.2394C71.4336 10.4887 69.5373 9.99961 69.1022 9.89001H76.311C75.8779 9.94481 73.9269 10.3243 73.9269 14.2394V27.178C73.9269 32.8324 76.0418 36.2563 81.7327 36.2563C87.966 36.2563 89.3765 32.0693 89.3765 27.2856V14.5134Z" fill="white"></path>
<path d="M99.9346 14.2416C99.9346 10.7081 98.1456 10.1094 97.6032 9.89221H107.143C114.136 9.89221 116.196 14.0244 116.196 17.2312C116.196 21.0914 113.431 24.2982 108.499 24.8969C109.691 25.4957 110.667 26.4739 111.426 27.6146L115.817 34.4096C116.902 36.0942 117.714 36.5305 119.233 37.0196H115.753C114.882 37.0196 114.073 36.5732 113.605 35.8364L108.609 27.9413C106.874 25.2785 106.061 25.1689 103.296 25.1689H102.483V32.6702C102.483 36.149 104 36.91 104.597 37.0196H97.7671C98.4168 36.91 99.9346 36.2038 99.9346 32.6702V14.2416ZM106.603 11.3616H102.483V23.7015H106.71C111.209 23.7015 113.541 21.1463 113.541 17.5032C113.543 13.9169 111.211 11.3616 106.603 11.3616Z" fill="white"></path>
<path d="M124.665 14.2416C124.665 10.4909 122.769 10.0018 122.334 9.89221H129.543C129.11 9.94701 127.211 10.3265 127.211 14.2416V32.6702C127.211 36.4209 129.162 36.9648 129.543 37.0196H122.334C122.714 36.9648 124.665 36.5853 124.665 32.6702V14.2416Z" fill="white"></path>
<path d="M136.379 11.3617C133.831 11.3617 132.963 13.9169 132.856 14.3512L133.127 9.89429H155.135L155.407 14.3512C155.135 13.6998 154.215 11.3617 151.883 11.3617H145.541V32.6723C145.541 36.3134 147.33 36.9121 147.817 37.0217H140.714C141.256 36.9121 142.991 36.3154 142.991 32.6723V11.3617H136.379Z" fill="white"></path>
<path d="M177.126 9.89429H183.468C182.981 10.0039 181.082 10.6006 178.536 14.95L171.923 26.1493V32.5099C171.923 36.3154 173.602 36.9141 174.199 37.0217H167.043C167.586 36.9669 169.32 36.423 169.32 32.5099V26.1493L162.599 14.7876C160.16 10.765 158.317 10.0039 157.774 9.89429H164.983C164.767 10.0039 163.953 10.221 163.953 11.3617C163.953 12.068 164.441 13.1558 165.526 14.95L171.216 24.4627L176.583 15.3295C177.775 13.3182 178.318 12.2303 178.318 11.4692C178.318 10.2738 177.452 10.0019 177.126 9.89429Z" fill="white"></path>
<path d="M185.462 0.813721C185.895 0.923318 187.793 1.46522 187.793 5.48786V33.8675C187.793 33.9223 187.793 33.9751 187.793 34.0279C187.767 36.1123 186.47 37.9673 184.523 38.6979C181.479 39.8365 179.413 42.0995 179.413 44.9491C179.413 48.7444 182.871 50.9891 185.17 51.2245C186.166 51.326 186.783 50.7273 187.265 50.7131C187.902 50.6948 187.949 51.9999 189.204 51.9999C190.459 51.9999 190.505 50.6968 191.143 50.7131C191.624 50.7273 192.241 51.326 193.237 51.2245C195.536 50.9891 198.995 48.7444 198.995 44.9491C198.995 42.0874 196.91 39.8163 193.844 38.6817C191.889 37.9572 190.574 36.0981 190.558 34.0076C190.558 33.9792 190.558 33.9507 190.558 33.9223V19.1876H199.284C203.079 19.1876 203.295 21.5805 203.295 21.5805V15.2745C203.186 15.654 202.698 17.6126 199.284 17.6126H190.558V2.39071H200.26C204.923 2.39071 205.734 4.5116 206.169 5.76183V0.813721H185.462ZM196.564 44.9836C196.564 47.1796 194.808 48.6064 192.865 48.9494C191.723 49.1503 191.62 49.881 191.003 49.881C190.394 49.881 190.054 48.992 189.202 48.992C188.35 48.992 188.01 49.881 187.401 49.881C186.783 49.881 186.68 49.1503 185.539 48.9494C183.596 48.6064 181.839 47.1796 181.839 44.9836C181.839 42.7876 183.677 40.9995 185.933 40.9995H192.466C194.727 41.0015 196.564 42.7876 196.564 44.9836Z" fill="white"></path>
<path d="M209.553 14.2416C209.553 10.4909 207.657 10.0018 207.222 9.89221H214.43C213.997 9.94701 212.099 10.3265 212.099 14.2416V32.6702C212.099 36.4209 214.05 36.9648 214.43 37.0196H207.222C207.602 36.9648 209.553 36.5853 209.553 32.6702V14.2416Z" fill="white"></path>
<path d="M220.925 14.2416C220.925 10.7081 219.136 10.1094 218.593 9.89221H228.133C235.126 9.89221 237.186 14.0244 237.186 17.2312C237.186 21.0914 234.421 24.2982 229.489 24.8969C230.681 25.4957 231.657 26.4739 232.416 27.6146L236.807 34.4096C237.892 36.0942 238.704 36.5305 240.223 37.0196H236.743C235.872 37.0196 235.063 36.5732 234.595 35.8364L229.599 27.9413C227.864 25.2785 227.051 25.1689 224.286 25.1689H223.473V32.6702C223.473 36.149 224.99 36.91 225.587 37.0196H218.757C219.407 36.91 220.925 36.2038 220.925 32.6702V14.2416ZM227.591 11.3616H223.471V23.7015H227.698C232.197 23.7015 234.529 21.1463 234.529 17.5032C234.531 13.9169 232.199 11.3616 227.591 11.3616Z" fill="white"></path>
<path d="M245.176 15.6563C245.176 22.1246 258.944 22.5062 258.944 30.0623C258.944 34.7365 255.908 37.8904 250.217 37.8904C247.507 37.8904 244.688 37.0198 243.115 35.8243V29.626C244.146 32.9971 245.176 36.3114 250.488 36.3114C253.524 36.3114 256.721 35.116 256.721 31.3653C256.721 24.6779 243.17 24.4607 243.17 16.525C243.17 12.068 246.639 9.13123 251.356 9.13123C254.121 9.13123 256.56 10.2191 257.644 10.9802V15.8735C256.831 13.7526 255.367 10.6006 251.085 10.6006C247.019 10.6006 245.176 13.1011 245.176 15.6563Z" fill="white"></path>
<path d="M264.972 11.3617C262.424 11.3617 261.556 13.9169 261.449 14.3512L261.72 9.89429H283.729L284 14.3512C283.729 13.6998 282.808 11.3617 280.476 11.3617H274.134V32.6723C274.134 36.3134 275.923 36.9121 276.411 37.0217H269.309C269.852 36.9121 271.586 36.3154 271.586 32.6723V11.3617H264.972Z" fill="white"></path>
<path d="M147.759 51.2024L147.079 49.7025H144.055L143.367 51.2024H142.477L145.559 44.5981L148.651 51.2024H147.759ZM145.7 46.6785C145.642 46.5526 145.575 46.3761 145.557 46.3172C145.541 46.3761 145.482 46.5526 145.423 46.6785L144.373 48.9699H146.743L145.7 46.6785Z" fill="white"></path>
<path d="M151.112 49.879C151.389 50.1814 151.936 50.5954 152.749 50.5954C153.464 50.5954 153.951 50.1915 153.951 49.5583C153.951 47.89 151.053 48.2939 151.053 46.3495C151.053 45.2637 151.952 44.6893 152.936 44.6893C153.802 44.6893 154.431 45.1703 154.607 45.355L154.186 45.9456C153.893 45.6595 153.456 45.4159 152.944 45.4159C152.397 45.4159 151.893 45.694 151.893 46.2927C151.893 47.6668 154.816 47.2953 154.816 49.5522C154.816 50.4533 154.034 51.3301 152.683 51.3301C151.792 51.3301 150.96 50.8248 150.675 50.4716L151.112 49.879Z" fill="white"></path>
<path d="M157.724 49.879C158.001 50.1814 158.548 50.5954 159.361 50.5954C160.076 50.5954 160.563 50.1915 160.563 49.5583C160.563 47.89 157.665 48.2939 157.665 46.3495C157.665 45.2637 158.564 44.6893 159.547 44.6893C160.413 44.6893 161.043 45.1703 161.219 45.355L160.798 45.9456C160.505 45.6595 160.067 45.4159 159.555 45.4159C159.009 45.4159 158.505 45.694 158.505 46.2927C158.505 47.6668 161.427 47.2953 161.427 49.5522C161.427 50.4533 160.646 51.3301 159.294 51.3301C158.404 51.3301 157.572 50.8248 157.287 50.4716L157.724 49.879Z" fill="white"></path>
<path d="M164.437 51.1922V44.8314H167.906V45.5479H165.242V47.4354H167.383V48.16H165.242V50.4859L168.175 50.4777V51.1942H164.437V51.1922Z" fill="white"></path>
<path d="M172.342 51.2025V45.5501H170.486V44.8336H175.005V45.5501H173.149V51.2025H172.342Z" fill="white"></path>
<path d="M210.187 51.2023L209.784 47.411C209.776 47.3359 209.776 47.1574 209.776 47.0904C209.759 47.1411 209.683 47.2751 209.632 47.3766L207.414 51.4459L205.188 47.3847C205.129 47.2751 205.078 47.1655 205.044 47.0823C205.06 47.1675 205.06 47.2933 205.052 47.411L204.666 51.2023H203.81L204.566 44.6488L207.313 49.5848C207.337 49.6193 207.414 49.7877 207.422 49.8547C207.438 49.7877 207.515 49.6193 207.531 49.5848L210.27 44.6569L211.035 51.2023H210.187Z" fill="white"></path>
<path d="M218.571 51.2024L217.891 49.7025H214.867L214.179 51.2024H213.289L216.371 44.5981L219.463 51.2024H218.571ZM216.513 46.6785C216.454 46.5526 216.387 46.3761 216.369 46.3172C216.353 46.3761 216.294 46.5526 216.236 46.6785L215.185 48.9699H217.555L216.513 46.6785Z" fill="white"></path>
<path d="M222.813 46.6196L222.821 51.2024H222.016L222.024 44.657L226.828 49.5097L226.82 44.8254H227.625L227.617 51.4297L222.813 46.6196Z" fill="white"></path>
<path d="M235.466 51.2024L234.786 49.7025H231.762L231.074 51.2024H230.183L233.266 44.5981L236.358 51.2024H235.466ZM233.407 46.6785C233.349 46.5526 233.282 46.3761 233.264 46.3172C233.247 46.3761 233.189 46.5526 233.13 46.6785L232.08 48.9699H234.45L233.407 46.6785Z" fill="white"></path>
<path d="M242.229 48.7588V48.0261H244.775C244.759 50.3338 243.279 51.3283 241.743 51.3283C239.869 51.3283 238.358 49.8548 238.358 48.0343C238.358 46.1731 239.803 44.6976 241.751 44.6976C243.255 44.6976 244.103 45.5237 244.146 45.5744L243.725 46.1731C243.682 46.1224 242.919 45.4323 241.733 45.4323C240.171 45.4323 239.214 46.577 239.214 48.0525C239.214 49.3677 240.272 50.6058 241.8 50.6058C242.893 50.6058 243.824 49.9157 243.925 48.7609H242.229V48.7588Z" fill="white"></path>
<path d="M247.681 51.1922V44.8314H251.15V45.5479H248.486V47.4354H250.628V48.16H248.486V50.4859L251.419 50.4777V51.1942H247.681V51.1922Z" fill="white"></path>
<path d="M260.443 51.2023L260.04 47.411C260.032 47.3359 260.032 47.1574 260.032 47.0904C260.016 47.1411 259.939 47.2751 259.889 47.3766L257.671 51.4459L255.444 47.3847C255.386 47.2751 255.335 47.1655 255.301 47.0823C255.317 47.1675 255.317 47.2933 255.309 47.411L254.922 51.2023H254.066L254.823 44.6488L257.569 49.5848C257.594 49.6193 257.671 49.7877 257.679 49.8547C257.695 49.7877 257.772 49.6193 257.788 49.5848L260.526 44.6569L261.291 51.2023H260.443Z" fill="white"></path>
<path d="M264.408 51.1922V44.8314H267.876V45.5479H265.213V47.4354H267.354V48.16H265.213V50.4859L268.146 50.4777V51.1942H264.408V51.1922Z" fill="white"></path>
<path d="M271.886 46.6196L271.894 51.2024H271.088L271.096 44.657L275.901 49.5097L275.893 44.8254H276.698L276.69 51.4297L271.886 46.6196Z" fill="white"></path>
<path d="M281.337 51.2025V45.5501H279.481V44.8336H284V45.5501H282.144V51.2025H281.337Z" fill="white"></path>
<path d="M139.362 48.3042H0V47.4944H139.362" fill="white"></path>
</svg>