<svg width="94" height="94" viewBox="0 0 94 94" fill="none" xmlns="http://www.w3.org/2000/svg">
<circle cx="47" cy="47" r="47" fill="#1EA361"/>
<path fill-rule="evenodd" clip-rule="evenodd" d="M57.7233 31.29C55.0224 31.29 52.8329 33.4571 52.8329 36.1304C52.8329 38.8036 55.0224 40.9707 57.7233 40.9707C60.4243 40.9707 62.6138 38.8036 62.6138 36.1304C62.6138 33.4571 60.4243 31.29 57.7233 31.29ZM55.0293 36.1304C55.0293 34.6578 56.2355 33.4639 57.7233 33.4639C59.2112 33.4639 60.4174 34.6578 60.4174 36.1304C60.4174 37.603 59.2112 38.7968 57.7233 38.7968C56.2355 38.7968 55.0293 37.603 55.0293 36.1304Z" fill="white"/>
<path fill-rule="evenodd" clip-rule="evenodd" d="M55.37 22C54.7939 22 54.3157 22.4407 54.2746 23.0095L54.0676 25.8779C53.537 26.0633 53.0251 26.2878 52.5356 26.5479L50.4497 24.7127C50.0151 24.3304 49.3547 24.3496 48.9435 24.7566L46.2316 27.4407C45.8204 27.8477 45.801 28.5013 46.1873 28.9314L48.0415 30.996C47.7788 31.4804 47.552 31.987 47.3648 32.5121L44.4666 32.717C43.8919 32.7576 43.4467 33.2309 43.4467 33.8012V38.4596C43.4467 39.0298 43.8919 39.5031 44.4666 39.5438L47.3648 39.7486C47.5299 40.2118 47.7259 40.6606 47.9501 41.0924L46.1875 43.055C45.8012 43.4852 45.8206 44.1388 46.2318 44.5457L48.9437 47.2299C49.3549 47.6368 50.0153 47.6561 50.4499 47.2737L52.3431 45.6081C52.8904 45.913 53.467 46.173 54.0676 46.3828L54.2746 49.2512C54.3157 49.8201 54.7939 50.2608 55.37 50.2608H60.0766C60.6528 50.2608 61.131 49.8201 61.1721 49.2512L61.3791 46.3828C61.9174 46.1948 62.4365 45.9664 62.9324 45.7015L64.7197 47.274C65.1543 47.6563 65.8147 47.6371 66.2259 47.2302L68.9378 44.546C69.349 44.139 69.3684 43.4854 68.9821 43.0553L67.3934 41.2863C67.6611 40.7954 67.8919 40.2816 68.0819 39.7486L70.98 39.5438C71.5547 39.5031 72 39.0298 72 38.4596V33.8012C72 33.2309 71.5547 32.7576 70.98 32.717L68.0819 32.5121C67.8699 31.9176 67.6073 31.347 67.2992 30.8053L68.9823 28.9312C69.3686 28.501 69.3492 27.8474 68.938 27.4405L66.2261 24.7563C65.8149 24.3493 65.1545 24.3301 64.7199 24.7125L62.7368 26.4572C62.3004 26.2353 61.8471 26.0414 61.3791 25.8779L61.1721 23.0095C61.131 22.4407 60.6528 22 60.0766 22H55.37ZM56.2052 26.7709L56.3926 24.1739H59.0541L59.2415 26.7709C59.2747 27.231 59.5977 27.6202 60.0472 27.7419C60.8524 27.9599 61.6118 28.2886 62.3077 28.7108C62.7202 28.9611 63.2496 28.9146 63.6112 28.5965L65.4052 27.0182L66.6527 28.2529L65.1158 29.9643C64.7832 30.3346 64.7457 30.8806 65.0246 31.2921C65.5458 32.0608 65.9459 32.9157 66.1986 33.8303C66.3216 34.2752 66.7149 34.5949 67.1797 34.6278L69.8036 34.8133V37.4475L67.1797 37.633C66.7149 37.6658 66.3216 37.9855 66.1986 38.4304C65.9612 39.2899 65.5936 40.0966 65.1177 40.8286C64.851 41.2387 64.893 41.7744 65.2204 42.1389L66.6525 43.7335L65.405 44.9683L63.7938 43.5508C63.4256 43.2268 62.8843 43.1852 62.47 43.4491C61.7304 43.92 60.9155 44.2838 60.0472 44.5188C59.5977 44.6405 59.2747 45.0298 59.2415 45.4899L59.0541 48.0869H56.3926L56.2052 45.4899C56.172 45.0298 55.849 44.6405 55.3995 44.5188C54.4754 44.2687 53.6116 43.8727 52.8349 43.3569C52.4192 43.0808 51.8675 43.1179 51.4934 43.447L49.7646 44.968L48.5171 43.7333L50.1115 41.958C50.4329 41.6 50.4798 41.076 50.2269 40.6678C49.8004 39.979 49.4683 39.2274 49.248 38.4304C49.1251 37.9855 48.7318 37.6658 48.267 37.633L45.6431 37.4475V34.8133L48.267 34.6278C48.7318 34.5949 49.1251 34.2752 49.248 33.8303C49.4836 32.9779 49.8471 32.1773 50.3174 31.4501C50.5825 31.0401 50.5399 30.5058 50.2132 30.142L48.5169 28.2532L49.7644 27.0184L51.6728 28.6974C52.0403 29.0207 52.5802 29.0628 52.9944 28.8005C53.7292 28.3349 54.5381 27.9751 55.3995 27.7419C55.849 27.6202 56.172 27.231 56.2052 26.7709Z" fill="white"/>
<path d="M33.1059 26.3432C35.7418 24.0882 38.7642 22.9304 41.148 22.4928L41.1462 22.4944C41.2131 22.4818 41.2823 22.4752 41.353 22.4752C41.9595 22.4752 42.4512 22.9618 42.4512 23.5621C42.4512 24.1221 42.0234 24.5832 41.4736 24.6426L41.474 24.644C39.4441 25.029 36.8243 26.0355 34.5423 27.9879C31.9113 30.2388 29.6842 33.7825 29.3497 39.2255C29.3119 39.8399 29.1454 40.4677 28.8209 41.0358L24.2442 49.0494C24.146 49.2213 24.205 49.4394 24.3769 49.5397L29.2541 52.3863L30.3058 62.2068C30.4834 63.8653 31.8969 65.1239 33.582 65.1239H39.6578V70.913C39.6578 71.5134 39.1661 72 38.5596 72C37.953 72 37.4614 71.5134 37.4614 70.913V67.2978H33.582C30.7735 67.2978 28.4176 65.2002 28.1216 62.4359L27.1864 53.7032L23.2613 51.4123C22.058 50.71 21.6447 49.1832 22.3321 47.9796L26.9088 39.9661C27.0512 39.7167 27.1375 39.4163 27.1573 39.0935C27.5281 33.0607 30.0316 28.9734 33.1059 26.3432Z" fill="white"/>
<path d="M58.1399 68.2906C58.1399 63.8587 58.5764 59.4322 59.5968 55.1199L59.611 55.1224C59.6566 54.5636 60.1293 54.1242 60.7056 54.1242C61.3122 54.1242 61.8038 54.6108 61.8038 55.2111C61.8038 55.3226 61.7869 55.4301 61.7554 55.5313C60.7651 59.6824 60.3363 63.9682 60.3363 68.2906V70.913C60.3363 71.5134 59.8446 72 59.2381 72C58.6316 72 58.1399 71.5134 58.1399 70.913V68.2906Z" fill="white"/>
</svg>
