<svg version="1.1" id="Layer_1" xmlns="//www.w3.org/2000/svg" xmlns:xlink="//www.w3.org/1999/xlink" x="0px" y="0px"
	 viewBox="0 30.3 100.3 39.5" enable-background="new 0 30.3 100.3 39.5" xml:space="preserve">
<g>
	<g>
		<path fill="#7BB9F0" d="M95.7,34c-0.3,0-0.5,0.5-0.5,1.3v28.4c0,0.7,0.3,1.3,0.5,1.3c0.3,0,0.5-0.5,0.5-1.3V35.4
			C96.2,34.6,96.1,34,95.7,34z M98.1,33.2c-0.3,0-0.5,0.7-0.5,1.3v30.1c0,0.8,0.3,1.3,0.5,1.3c0.3,0,0.5-0.7,0.5-1.3V34.6
			C98.7,33.8,98.4,33.2,98.1,33.2z M4.2,34c-0.3,0-0.5,0.5-0.5,1.3v28.4c0,0.7,0.3,1.3,0.5,1.3c0.3,0,0.5-0.5,0.5-1.3V35.4
			C4.7,34.6,4.4,34,4.2,34z M1.8,33.2c-0.3,0-0.5,0.7-0.5,1.3v30.1c0,0.8,0.3,1.3,0.5,1.3s0.5-0.7,0.5-1.3V34.6
			C2.3,33.8,2.2,33.2,1.8,33.2z"/>
	</g>
</g>
<g>
	<path fill="#FFFFFF" d="M100,32.1v-1.9H87.1L74.7,58L61.9,30.3H48.7v1.9c5.5,0,6.3,1.1,6.3,7.5v19.7c0,5.9-0.7,7.3-5.1,7.4
		c-1.9-0.1-6.1-1.6-8.2-3.8L23.2,44.7l9.4-7.3c4.3-3.4,6.6-5.3,12.3-5.3v-1.9h-16v1.9c5.5,0,1.3,3.9-0.3,5.3L14.7,48.2v-8.6
		c0-6.3,0.8-7.5,6.3-7.5v-1.8H0v1.9c5.5,0,6.3,1.1,6.3,7.5v19.7c0,6.3-0.8,7.5-6.3,7.5v1.9h21v-1.9c-5.5,0-6.3-1.1-6.3-7.5v-7.7
		l2.8-2.3l13.1,13.7c2.6,2.6,0.9,3.8-2.4,3.8v1.9h36.3v-1.9c-5.5,0-6.3-1.1-6.3-7.5V40.9l13.3,28.8h1.5l12.9-29v18.5
		c0,6.3-0.8,7.5-6.3,7.5v1.9h20.8v-1.9c-5.5,0-6.3-1.1-6.3-7.5V39.6C93.7,33.2,94.5,32.1,100,32.1z"/>
</g>
</svg>
<svg version="1.1" id="Layer_1" xmlns="//www.w3.org/2000/svg" xmlns:xlink="//www.w3.org/1999/xlink" x="0px" y="0px"
	 viewBox="0 0 181 32" enable-background="new 0 0 181 32" xml:space="preserve">
<g>
	<g>
		<path fill="#FFFFFF" d="M5.3,15.3c-0.6,0-1.1-0.2-1.3-0.5c-0.2-0.4-0.3-1-0.3-1.8V8.4l7.2,7.3h3.5v-0.4c-0.6,0-1.1-0.2-1.4-0.3
			c-0.3-0.2-0.8-0.6-1.4-1.2L5.5,7.4l4.6-4.6c0.5-0.5,1-0.9,1.6-1.2c0.6-0.3,1.1-0.5,1.5-0.5H14V0.8H8.4v0.4C9,1.3,9.3,1.6,9.3,2
			c0,0.3-0.3,0.7-0.8,1.2L3.7,8.1V3.6c0-0.9,0.1-1.5,0.4-1.8c0.2-0.4,0.7-0.5,1.3-0.5V0.8H0v0.4c0.7,0,1.1,0.2,1.3,0.5
			c0.2,0.3,0.3,1,0.3,1.9v9.3c0,0.9-0.1,1.5-0.4,1.8c-0.2,0.4-0.7,0.5-1.3,0.5v0.4h5.3V15.3z M27.3,12.9h-0.4
			c-0.3,0.6-0.5,1.1-0.8,1.3c-0.2,0.3-0.5,0.5-0.9,0.6c-0.4,0.1-1,0.2-1.9,0.2h-2.6c-0.4,0-0.7-0.1-0.8-0.2
			c-0.2-0.2-0.2-0.4-0.2-0.8V8.6h3.7c0.8,0,1.3,0.1,1.5,0.2c0.2,0.2,0.4,0.6,0.6,1.2h0.4V6.4h-0.4c-0.1,0.6-0.2,1-0.5,1.2
			c-0.2,0.2-0.6,0.3-1.2,0.3h-4.2V1.5h4.3c0.9,0,1.6,0.1,1.8,0.3c0.3,0.2,0.5,0.7,0.7,1.4h0.3V0.8H15.9v0.4c0.7,0,1.1,0.2,1.3,0.5
			c0.2,0.3,0.4,1,0.4,1.9v9.3c0,0.9-0.1,1.5-0.3,1.8c-0.2,0.3-0.7,0.5-1.3,0.5v0.4h10.7L27.3,12.9z M39.6,14.5
			c-0.4,0.3-1,0.5-1.9,0.5h-3c-0.7,0-1.1-0.1-1.3-0.3c-0.2-0.2-0.3-0.6-0.3-1.1v-10c0-0.8,0.1-1.4,0.4-1.8c0.3-0.4,0.7-0.5,1.3-0.5
			V0.8h-5.3v0.4c0.6,0,1.1,0.2,1.3,0.5C30.9,2,31,2.6,31,3.4v9.4c0,0.9-0.1,1.5-0.4,1.9c-0.3,0.4-0.7,0.6-1.3,0.6v0.4h10.8l0.9-3.3
			h-0.4C40.3,13.5,39.9,14.2,39.6,14.5z M52.5,14.5c-0.4,0.3-1,0.5-1.9,0.5h-3c-0.7,0-1.1-0.1-1.3-0.3c-0.2-0.2-0.3-0.6-0.3-1.1v-10
			c0-0.8,0.1-1.4,0.4-1.8c0.3-0.4,0.7-0.5,1.3-0.5V0.8h-5.3v0.4c0.6,0,1.1,0.2,1.3,0.5C43.9,2,44,2.6,44,3.4v9.4
			c0,0.9-0.1,1.5-0.4,1.9c-0.3,0.4-0.7,0.6-1.3,0.6v0.4h10.8l0.9-3.3h-0.4C53.3,13.5,52.9,14.2,52.5,14.5z M65.3,14.2
			c-0.2,0.3-0.5,0.5-0.9,0.6c-0.4,0.1-1,0.2-1.9,0.2h-2.6c-0.4,0-0.7-0.1-0.8-0.2c-0.2-0.2-0.2-0.4-0.2-0.8V8.6h3.7
			c0.8,0,1.3,0.1,1.5,0.2c0.2,0.2,0.4,0.6,0.6,1.2H65V6.4h-0.4c-0.1,0.6-0.2,1-0.4,1.2c-0.2,0.2-0.6,0.3-1.2,0.3h-4.2V1.5H63
			c0.9,0,1.6,0.1,1.8,0.3c0.3,0.2,0.5,0.7,0.7,1.4h0.3V0.8H55.1v0.4c0.7,0,1.1,0.2,1.3,0.5c0.2,0.3,0.4,1,0.4,1.9v9.3
			c0,0.9-0.1,1.5-0.3,1.8c-0.2,0.3-0.7,0.5-1.3,0.5v0.4h10.7l0.7-2.8H66C65.8,13.5,65.5,14,65.3,14.2z M76,14.7
			c-0.2-0.3-0.3-1-0.3-1.9V8.2L79,2.9c0.4-0.7,0.8-1.1,1.1-1.3c0.3-0.2,0.7-0.3,1.3-0.4V0.8h-4.1v0.4c0.7,0,1,0.3,1,0.8
			c0,0.4-0.2,0.9-0.5,1.4l-2.4,3.7l-2.9-4.5c-0.2-0.3-0.3-0.6-0.3-0.8c0-0.5,0.5-0.7,1.5-0.7V0.8h-5.8v0.4c0.6,0,1,0.2,1.4,0.4
			c0.3,0.3,0.8,0.8,1.3,1.6l3.2,4.9v4.7c0,0.9-0.1,1.5-0.4,1.8c-0.2,0.4-0.7,0.5-1.5,0.5v0.4h5.4v-0.4C76.7,15.3,76.3,15.1,76,14.7z
			 M98.8,14.6l-0.4-0.3c-0.4,0.4-0.8,0.6-1.1,0.6c-0.3,0-0.7-0.2-1.1-0.6c-0.4-0.4-1.2-1.2-2.2-2.6c0.4-0.7,0.9-1.5,1.3-2.7
			c0.3-0.8,0.6-1.3,0.8-1.7c0.2-0.3,0.4-0.6,0.7-0.8c0.3-0.2,0.8-0.3,1.5-0.3V5.8h-4.7v0.5c0.5,0,0.8,0.1,0.9,0.3
			c0.2,0.2,0.3,0.6,0.3,1.1c0,0.9-0.4,2.1-1.2,3.4c-1.7-2-3.1-3.5-4.2-4.5c2-1,3-2.3,3-3.6c0-0.8-0.3-1.5-1-2.1
			C90.6,0.3,89.8,0,88.9,0c-1.1,0-2.1,0.4-2.8,1.1C85.4,1.8,85,2.7,85,3.8c0,1.3,0.6,2.5,1.8,3.6c-1.1,0.6-2,1.4-2.7,2.2
			c-0.6,0.8-0.9,1.6-0.9,2.5c0,1.1,0.4,2.1,1.3,2.9c0.9,0.8,2,1.2,3.3,1.2c1.8,0,3.4-0.8,4.8-2.5c0.1,0.1,0.3,0.3,0.6,0.6
			c0.6,0.7,1.2,1.2,1.6,1.5c0.4,0.2,0.9,0.4,1.3,0.4C97.2,16.1,98.1,15.6,98.8,14.6z M86.4,2.8c0-0.6,0.2-1.1,0.6-1.5
			c0.4-0.4,0.9-0.6,1.5-0.6c0.6,0,1.2,0.2,1.6,0.7c0.4,0.4,0.6,1,0.6,1.7c0,1.3-0.6,2.4-1.9,3.1c-0.7-0.6-1.3-1.2-1.7-1.8
			C86.6,3.9,86.4,3.3,86.4,2.8z M90.7,14.4c-0.5,0.3-1,0.4-1.6,0.4c-1,0-1.8-0.4-2.6-1.2c-0.8-0.8-1.2-1.7-1.2-2.6
			c0-0.6,0.2-1.2,0.6-1.8c0.4-0.6,0.9-1,1.5-1.4c1.5,1.3,3.2,3,5,5.3C91.7,13.7,91.2,14.2,90.7,14.4z M106.1,15.3
			c-1.3-0.2-1.9-1-1.9-2.3c0-0.1,0-0.3,0-0.4l0.8-9.2l5,12.3h0.4l5.1-12.3l0.8,9.6c0,0.1,0,0.3,0,0.4c0,0.6-0.1,1-0.3,1.3
			c-0.2,0.3-0.6,0.5-1.2,0.6v0.4h5.4v-0.4c-0.7-0.1-1.1-0.3-1.4-0.6c-0.2-0.3-0.4-1-0.5-2l-0.7-9.2c0-0.1,0-0.2,0-0.3
			c0-1.3,0.6-2,1.7-2V0.8h-3.5l-4.8,11.7l-4.8-11.7h-3.8v0.4c0.8,0.1,1.4,0.5,1.9,1l-0.9,10.3c-0.1,1-0.3,1.7-0.6,2.1
			c-0.3,0.4-0.7,0.6-1.3,0.7v0.4h4.6V15.3z M123.2,1.7c0.2,0.3,0.3,1,0.3,1.9v7.3c0,1.5,0.4,2.8,1.4,3.7c0.9,0.9,2.1,1.4,3.7,1.4
			c1.9,0,3.6-0.8,5-2.5v2.1h3.7v-0.4c-0.6,0-1.1-0.2-1.3-0.5c-0.2-0.4-0.4-1-0.4-1.8V3.6c0-0.9,0.1-1.5,0.4-1.9
			c0.2-0.3,0.7-0.5,1.3-0.5V0.8H132v0.4c0.6,0,1,0.2,1.2,0.6c0.2,0.3,0.3,1,0.3,1.8v9c-1.1,1.7-2.5,2.5-4.3,2.5
			c-1.2,0-2.1-0.3-2.8-1c-0.7-0.7-1-1.7-1-2.9V3.6c0-0.9,0.1-1.5,0.4-1.8c0.2-0.3,0.7-0.5,1.4-0.5V0.8h-5.4v0.4
			C122.5,1.2,122.9,1.4,123.2,1.7z M149.6,14.5c-0.4,0.3-1,0.5-1.9,0.5h-3c-0.7,0-1.1-0.1-1.3-0.3c-0.2-0.2-0.3-0.6-0.3-1.1v-10
			c0-0.8,0.1-1.4,0.4-1.8c0.3-0.4,0.7-0.5,1.3-0.5V0.8h-5.3v0.4c0.6,0,1.1,0.2,1.3,0.5c0.2,0.3,0.4,0.9,0.4,1.7v9.4
			c0,0.9-0.1,1.5-0.4,1.9c-0.3,0.4-0.7,0.6-1.3,0.6v0.4h10.8l0.9-3.3h-0.4C150.3,13.5,149.9,14.2,149.6,14.5z M164,12.4h-0.4
			c-0.3,1.1-0.7,1.7-1,2.1c-0.4,0.3-1,0.5-1.9,0.5h-3c-0.7,0-1.1-0.1-1.3-0.3c-0.2-0.2-0.3-0.6-0.3-1.1v-10c0-0.8,0.1-1.4,0.4-1.8
			c0.3-0.4,0.7-0.5,1.3-0.5V0.8h-5.3v0.4c0.6,0,1.1,0.2,1.3,0.5c0.2,0.3,0.4,0.9,0.4,1.7v9.4c0,0.9-0.1,1.5-0.4,1.9
			c-0.3,0.4-0.7,0.6-1.3,0.6v0.4h10.8L164,12.4z M164.9,1.2c0.7,0,1.1,0.2,1.3,0.5c0.2,0.3,0.3,1,0.3,1.9v9.3c0,0.9-0.1,1.5-0.4,1.9
			c-0.2,0.3-0.7,0.5-1.3,0.5v0.4h5.4v-0.4c-0.6,0-1.1-0.2-1.3-0.5c-0.2-0.3-0.4-1-0.4-1.9V3.6c0-0.9,0.1-1.5,0.4-1.9
			c0.2-0.3,0.7-0.5,1.3-0.5V0.8h-5.4V1.2z M181,11.8c0-0.9-0.3-1.7-0.8-2.4c-0.5-0.7-1.6-1.5-3.2-2.5c-1.4-0.8-2.2-1.5-2.6-2
			c-0.4-0.5-0.6-1.1-0.6-1.7c0-0.7,0.2-1.2,0.7-1.6c0.5-0.4,1.1-0.6,1.9-0.6c0.9,0,1.7,0.3,2.3,0.8c0.6,0.5,0.9,1.3,1,2.3h0.4V0.5
			h-0.4c0,0.2-0.1,0.3-0.1,0.3c0,0-0.1,0.1-0.2,0.1c-0.1,0-0.4-0.1-0.8-0.2c-0.8-0.3-1.5-0.4-2.2-0.4c-1.2,0-2.2,0.4-2.9,1.1
			c-0.7,0.7-1.1,1.6-1.1,2.8c0,0.6,0.1,1.1,0.3,1.6c0.2,0.5,0.5,1,0.9,1.4c0.4,0.4,1.2,1,2.3,1.7c1.4,0.9,2.4,1.6,2.8,2.1
			c0.4,0.6,0.7,1.1,0.7,1.7c0,0.8-0.3,1.5-0.8,1.9c-0.5,0.5-1.3,0.7-2.2,0.7c-1,0-1.8-0.3-2.5-1c-0.7-0.7-1.1-1.6-1.1-2.7h-0.4v4
			h0.4c0.1-0.4,0.3-0.6,0.6-0.6c0.1,0,0.4,0.1,0.8,0.2c1,0.4,1.9,0.6,2.6,0.6c1.2,0,2.2-0.4,3-1.2C180.6,14,181,13,181,11.8z
			 M8,27.2l-1.9-5.1H5.4l-1.9,5.1l-1.9-5.1H0.4L3,28.9h0.7L5.7,24l1.9,4.9h0.8l2.6-6.7H9.9L8,27.2z M16,21.9c-1.6,0-3.2,1.3-3.2,3.5
			c0,2.1,1.4,3.6,3.4,3.6c1,0,2-0.3,2.6-0.8v-1c-0.5,0.5-1.4,0.9-2.2,0.9c-2.1,0-2.7-1.6-2.6-2.8h4.8c0-0.2,0.1-0.5,0.1-0.8
			C18.8,23,17.6,21.9,16,21.9z M17.7,24.5H14c0.2-1.1,1.1-1.6,2-1.6C17.1,22.9,17.8,23.6,17.7,24.5z M27,23.3
			c-0.6-0.9-1.5-1.4-2.6-1.4c-1.8,0-3.2,1.6-3.2,3.5c0,2,1.3,3.5,3.2,3.5c1.1,0,2.1-0.5,2.6-1.4l0,1.2h1v-6.7h-1L27,23.3z
			 M24.7,28.1c-1.3,0-2.3-1-2.3-2.6c0-1.6,1-2.6,2.3-2.6c1.3,0,2.3,1,2.3,2.6C27,27.1,26,28.1,24.7,28.1z M31.2,28.8h1.2v-9.3h-1.2
			V28.8z M37.4,20.3h-1.2v1.8h-1.5v0.8h1.5v5.9h1.2v-5.9H39v-0.8h-1.5V20.3z M45,21.9c-1.1,0-2,0.6-2.5,1.3v-3.8h-1.2v9.3h1.2v-4
			c0-1.1,1.2-1.9,2.2-1.9c1,0,1.6,0.5,1.6,2v3.9h1.2v-4C47.5,23.2,46.8,21.9,45,21.9z M62.9,21.9c-0.9,0-1.8,0.5-2.6,1.5
			c-0.3-0.9-0.9-1.5-2.1-1.5c-1.1,0-1.9,0.6-2.5,1.5l-0.1-1.3h-1v6.7h1.2v-4c0-1.1,1.1-1.9,2.1-1.9c1,0,1.4,0.5,1.4,2v3.9h1.2v-4
			c0-1.1,1.1-1.9,2.1-1.9c1,0,1.4,0.5,1.4,2v3.9h1.2v-4C65.2,23.2,64.7,21.9,62.9,21.9z M73.7,23.3c-0.6-0.9-1.5-1.4-2.6-1.4
			c-1.8,0-3.2,1.6-3.2,3.5c0,2,1.3,3.5,3.2,3.5c1.1,0,2.1-0.5,2.6-1.4l0,1.2h1v-6.7h-1L73.7,23.3z M71.4,28.1c-1.3,0-2.3-1-2.3-2.6
			c0-1.6,1-2.6,2.3-2.6c1.3,0,2.3,1,2.3,2.6C73.7,27.1,72.6,28.1,71.4,28.1z M81.6,21.9c-1.1,0-2.1,0.7-2.6,1.5l-0.1-1.3h-1v6.7H79
			v-4c0-1.1,1.2-1.9,2.2-1.9c1,0,1.6,0.5,1.6,2v3.9H84v-4C84,23.2,83.4,21.9,81.6,21.9z M92.5,23.3c-0.6-0.9-1.5-1.4-2.6-1.4
			c-1.8,0-3.2,1.6-3.2,3.5c0,2,1.3,3.5,3.2,3.5c1.1,0,2.1-0.5,2.6-1.4l0,1.2h1v-6.7h-1L92.5,23.3z M90.2,28.1c-1.3,0-2.3-1-2.3-2.6
			c0-1.6,1-2.6,2.3-2.6c1.3,0,2.3,1,2.3,2.6C92.5,27.1,91.4,28.1,90.2,28.1z M102.1,23.3c-0.6-0.9-1.5-1.4-2.6-1.4
			c-1.8,0-3.2,1.6-3.2,3.5c0,2,1.3,3.5,3.2,3.5c1,0,2-0.5,2.5-1.2v0.6c0,2-1.1,2.7-2.2,2.7c-1.2,0-1.9-0.2-2.9-0.9v1.1
			c0.7,0.4,1.8,0.8,2.8,0.8c1.6,0,3.6-0.7,3.6-3.8v-6.1h-1L102.1,23.3z M99.8,28.1c-1.3,0-2.3-1-2.3-2.6c0-1.6,1-2.6,2.3-2.6
			c1.3,0,2.3,1,2.3,2.6C102.1,27.1,101,28.1,99.8,28.1z M109.1,21.9c-1.6,0-3.2,1.3-3.2,3.5c0,2.1,1.4,3.6,3.4,3.6
			c1,0,2-0.3,2.6-0.8v-1c-0.5,0.5-1.4,0.9-2.2,0.9c-2.1,0-2.7-1.6-2.6-2.8h4.8c0-0.2,0.1-0.5,0.1-0.8C112,23,110.8,21.9,109.1,21.9z
			 M110.8,24.5h-3.7c0.2-1.1,1.1-1.6,2-1.6C110.3,22.9,111,23.6,110.8,24.5z M123,21.9c-0.9,0-1.8,0.5-2.6,1.5
			c-0.3-0.9-0.9-1.5-2.1-1.5c-1.1,0-1.9,0.6-2.5,1.5l-0.1-1.3h-1v6.7h1.2v-4c0-1.1,1.1-1.9,2.1-1.9c1,0,1.4,0.5,1.4,2v3.9h1.2v-4
			c0-1.1,1.1-1.9,2.1-1.9c1,0,1.4,0.5,1.4,2v3.9h1.2v-4C125.3,23.2,124.8,21.9,123,21.9z M131.2,21.9c-1.6,0-3.2,1.3-3.2,3.5
			c0,2.1,1.4,3.6,3.4,3.6c1,0,2-0.3,2.6-0.8v-1c-0.5,0.5-1.4,0.9-2.2,0.9c-2.1,0-2.7-1.6-2.6-2.8h4.8c0-0.2,0.1-0.5,0.1-0.8
			C134.1,23,132.9,21.9,131.2,21.9z M132.9,24.5h-3.7c0.2-1.1,1.1-1.6,2-1.6C132.4,22.9,133.1,23.6,132.9,24.5z M140.6,21.9
			c-1.1,0-2.1,0.7-2.6,1.5l-0.1-1.3h-1v6.7h1.2v-4c0-1.1,1.2-1.9,2.2-1.9c1,0,1.6,0.5,1.6,2v3.9h1.2v-4
			C143,23.2,142.3,21.9,140.6,21.9z M148,20.3h-1.2v1.8h-1.5v0.8h1.5v5.9h1.2v-5.9h1.5v-0.8H148V20.3z M152,28.8h0.7
			c0,0.6-0.2,1.3-0.8,1.6l0.2,0.4c0.8-0.2,1.3-1.1,1.3-2.1v-1.3H152V28.8z M157.4,20.8h1.2v-1.3h-1.2V20.8z M157.4,28.8h1.2v-6.7
			h-1.2V28.8z M165.4,21.9c-1.1,0-2.1,0.7-2.6,1.5l-0.1-1.3h-1v6.7h1.2v-4c0-1.1,1.2-1.9,2.2-1.9c1,0,1.6,0.5,1.6,2v3.9h1.2v-4
			C167.8,23.2,167.2,21.9,165.4,21.9z M170.5,25.5c0,2.1,1.5,3.5,3.5,3.5c0.9,0,1.6-0.2,2.3-0.7v-1.1c-0.6,0.6-1.5,0.8-2.2,0.8
			c-1.4,0-2.4-1.1-2.4-2.6c0-1.5,1-2.6,2.4-2.6c0.8,0,1.6,0.2,2.2,0.8v-1.1c-0.8-0.5-1.5-0.7-2.3-0.7
			C171.9,21.9,170.5,23.4,170.5,25.5z M178.6,28.8h1.4v-1.4h-1.4V28.8z"/>
	</g>
</g>
</svg>