<svg width="173" height="40" viewBox="0 0 173 40" fill="none" xmlns="http://www.w3.org/2000/svg">
<path d="M12.159 0.408021V2.19311H7.10976V15.3926H5.04926V2.19311H0V0.408021H12.159Z" fill="#7E869A"/>
<path d="M13.7809 0.357018H15.617V5.9469C16.0522 5.39608 16.4432 5.00846 16.7901 4.78404C17.3817 4.39642 18.1195 4.20261 19.0036 4.20261C20.5881 4.20261 21.6625 4.75684 22.2269 5.8653C22.5329 6.47053 22.686 7.31037 22.686 8.38483V15.3926H20.7989V8.50723C20.7989 7.70479 20.6969 7.11656 20.4928 6.74254C20.1596 6.14411 19.534 5.8449 18.6159 5.8449C17.8543 5.8449 17.1641 6.10671 16.5452 6.63034C15.9264 7.15397 15.617 8.14342 15.617 9.59869V15.3926H13.7809V0.357018Z" fill="#7E869A"/>
<path d="M29.9589 4.22302C30.7342 4.22302 31.4856 4.40662 32.2132 4.77384C32.9409 5.13426 33.4951 5.60349 33.8759 6.18152C34.2431 6.73234 34.488 7.37498 34.6104 8.10941C34.7192 8.61264 34.7736 9.41508 34.7736 10.5167H26.7662C26.8002 11.6252 27.062 12.516 27.5516 13.1893C28.0412 13.8557 28.7995 14.1889 29.8263 14.1889C30.7852 14.1889 31.5502 13.8727 32.1214 13.2403C32.4479 12.8731 32.6791 12.448 32.8151 11.9652H34.6206C34.573 12.3664 34.4132 12.8153 34.1411 13.3117C33.8759 13.8013 33.5767 14.2025 33.2435 14.5153C32.6859 15.0594 31.9956 15.4266 31.1728 15.617C30.7308 15.7258 30.2309 15.7802 29.6733 15.7802C28.3132 15.7802 27.1606 15.2872 26.2153 14.3011C25.2701 13.3083 24.7975 11.921 24.7975 10.1393C24.7975 8.38483 25.2735 6.96016 26.2255 5.8653C27.1776 4.77044 28.4221 4.22302 29.9589 4.22302ZM32.8865 9.05806C32.8117 8.26242 32.6383 7.62659 32.3663 7.15057C31.863 6.26652 31.0232 5.8245 29.8467 5.8245C29.0035 5.8245 28.2962 6.13051 27.725 6.74254C27.1538 7.34777 26.8512 8.11961 26.8172 9.05806H32.8865Z" fill="#7E869A"/>
<path d="M49.4113 0C51.3086 0 52.7809 0.499826 53.8281 1.49948C54.8754 2.49913 55.4568 3.63479 55.5724 4.90645H53.5935C53.3691 3.9408 52.9203 3.17576 52.2471 2.61133C51.5806 2.0469 50.6422 1.76469 49.4317 1.76469C47.9561 1.76469 46.7626 2.28492 45.8513 3.32537C44.9469 4.35902 44.4947 5.9469 44.4947 8.08901C44.4947 9.8435 44.9027 11.2682 45.7187 12.363C46.5416 13.4511 47.7656 13.9951 49.3909 13.9951C50.887 13.9951 52.0261 13.4205 52.8081 12.2712C53.2229 11.666 53.5323 10.8704 53.7363 9.88431H55.7152C55.5384 11.462 54.9536 12.7847 53.9608 13.8523C52.7707 15.1376 51.1658 15.7802 49.1461 15.7802C47.4052 15.7802 45.9431 15.2532 44.7599 14.1991C43.2026 12.8051 42.424 10.6527 42.424 7.7422C42.424 5.53208 43.0088 3.71979 44.1785 2.30532C45.4433 0.768439 47.1876 0 49.4113 0Z" fill="#7E869A"/>
<path d="M62.4986 4.22302C63.2738 4.22302 64.0253 4.40662 64.7529 4.77384C65.4805 5.13426 66.0348 5.60349 66.4156 6.18152C66.7828 6.73234 67.0276 7.37498 67.15 8.10941C67.2588 8.61264 67.3132 9.41508 67.3132 10.5167H59.3058C59.3398 11.6252 59.6016 12.516 60.0913 13.1893C60.5809 13.8557 61.3391 14.1889 62.366 14.1889C63.3248 14.1889 64.0899 13.8727 64.6611 13.2403C64.9875 12.8731 65.2187 12.448 65.3547 11.9652H67.1602C67.1126 12.3664 66.9528 12.8153 66.6808 13.3117C66.4156 13.8013 66.1164 14.2025 65.7832 14.5153C65.2255 15.0594 64.5353 15.4266 63.7125 15.617C63.2704 15.7258 62.7706 15.7802 62.213 15.7802C60.8529 15.7802 59.7002 15.2872 58.755 14.3011C57.8098 13.3083 57.3371 11.921 57.3371 10.1393C57.3371 8.38483 57.8132 6.96016 58.7652 5.8653C59.7173 4.77044 60.9617 4.22302 62.4986 4.22302ZM65.4261 9.05806C65.3513 8.26242 65.1779 7.62659 64.9059 7.15057C64.4027 6.26652 63.5628 5.8245 62.3864 5.8245C61.5431 5.8245 60.8359 6.13051 60.2647 6.74254C59.6934 7.34777 59.3908 8.11961 59.3568 9.05806H65.4261Z" fill="#7E869A"/>
<path d="M69.5778 4.46783H71.322V6.01831C71.8389 5.37907 72.3863 4.92005 72.9643 4.64124C73.5424 4.36242 74.185 4.22302 74.8922 4.22302C76.4427 4.22302 77.49 4.76364 78.034 5.8449C78.3332 6.43653 78.4828 7.28317 78.4828 8.38483V15.3926H76.6161V8.50723C76.6161 7.8408 76.5175 7.30357 76.3203 6.89555C75.9939 6.21552 75.4022 5.8755 74.5454 5.8755C74.1102 5.8755 73.7532 5.9197 73.4743 6.00811C72.9711 6.15771 72.5291 6.45693 72.1483 6.90575C71.8423 7.26617 71.6417 7.64019 71.5465 8.02781C71.4581 8.40863 71.4138 8.95606 71.4138 9.67009V15.3926H69.5778V4.46783Z" fill="#7E869A"/>
<path d="M81.5736 1.41787H83.4301V4.46783H85.1743V5.9673H83.4301V13.0975C83.4301 13.4783 83.5593 13.7333 83.8177 13.8625C83.9605 13.9373 84.1985 13.9747 84.5317 13.9747C84.6201 13.9747 84.7153 13.9747 84.8173 13.9747C84.9193 13.9679 85.0383 13.9577 85.1743 13.9441V15.3926C84.9635 15.4538 84.7425 15.498 84.5113 15.5252C84.2869 15.5524 84.0421 15.566 83.7769 15.566C82.92 15.566 82.3386 15.3484 82.0326 14.9132C81.7266 14.4711 81.5736 13.8999 81.5736 13.1995V5.9673H80.0945V4.46783H81.5736V1.41787Z" fill="#7E869A"/>
<path d="M91.5701 4.22302C92.3453 4.22302 93.0967 4.40662 93.8244 4.77384C94.552 5.13426 95.1063 5.60349 95.4871 6.18152C95.8543 6.73234 96.0991 7.37498 96.2215 8.10941C96.3303 8.61264 96.3847 9.41508 96.3847 10.5167H88.3773C88.4113 11.6252 88.6731 12.516 89.1628 13.1893C89.6524 13.8557 90.4106 14.1889 91.4375 14.1889C92.3963 14.1889 93.1614 13.8727 93.7326 13.2403C94.059 12.8731 94.2902 12.448 94.4262 11.9652H96.2317C96.1841 12.3664 96.0243 12.8153 95.7523 13.3117C95.4871 13.8013 95.1879 14.2025 94.8546 14.5153C94.297 15.0594 93.6068 15.4266 92.7839 15.617C92.3419 15.7258 91.8421 15.7802 91.2845 15.7802C89.9244 15.7802 88.7717 15.2872 87.8265 14.3011C86.8812 13.3083 86.4086 11.921 86.4086 10.1393C86.4086 8.38483 86.8846 6.96016 87.8367 5.8653C88.7887 4.77044 90.0332 4.22302 91.5701 4.22302ZM94.4976 9.05806C94.4228 8.26242 94.2494 7.62659 93.9774 7.15057C93.4742 6.26652 92.6343 5.8245 91.4579 5.8245C90.6146 5.8245 89.9074 6.13051 89.3362 6.74254C88.7649 7.34777 88.4623 8.11961 88.4283 9.05806H94.4976Z" fill="#7E869A"/>
<path d="M98.7002 4.46783H100.445V6.35492C100.587 5.98771 100.938 5.54228 101.495 5.01866C102.053 4.48823 102.695 4.22302 103.423 4.22302C103.457 4.22302 103.515 4.22642 103.596 4.23322C103.678 4.24002 103.817 4.25362 104.015 4.27402V6.21212C103.906 6.19172 103.804 6.17812 103.709 6.17132C103.62 6.16452 103.522 6.16111 103.413 6.16111C102.488 6.16111 101.777 6.46033 101.281 7.05876C100.785 7.65039 100.536 8.33383 100.536 9.10907V15.3926H98.7002V4.46783Z" fill="#7E869A"/>
<path d="M111.879 2.80514C111.907 2.0435 112.039 1.48588 112.277 1.13226C112.706 0.506626 113.532 0.19381 114.756 0.19381C114.871 0.19381 114.99 0.19721 115.113 0.20401C115.235 0.210811 115.375 0.221011 115.531 0.234612V1.9075C115.341 1.8939 115.201 1.8871 115.113 1.8871C115.031 1.8803 114.953 1.8769 114.878 1.8769C114.321 1.8769 113.987 2.0231 113.879 2.31552C113.77 2.60113 113.715 3.33557 113.715 4.51883H115.531V5.9673H113.695V15.3926H111.879V5.9673H110.359V4.51883H111.879V2.80514Z" fill="#7E869A"/>
<path d="M121.57 14.2093C122.787 14.2093 123.62 13.7503 124.069 12.8323C124.525 11.9074 124.752 10.8806 124.752 9.7517C124.752 8.73165 124.589 7.902 124.263 7.26277C123.746 6.25632 122.855 5.75309 121.59 5.75309C120.468 5.75309 119.652 6.18152 119.142 7.03836C118.632 7.8952 118.377 8.92886 118.377 10.1393C118.377 11.3022 118.632 12.2712 119.142 13.0465C119.652 13.8217 120.461 14.2093 121.57 14.2093ZM121.641 4.15161C123.049 4.15161 124.239 4.62084 125.211 5.55928C126.184 6.49773 126.67 7.8782 126.67 9.7007C126.67 11.462 126.242 12.9173 125.385 14.0665C124.528 15.2158 123.198 15.7904 121.396 15.7904C119.894 15.7904 118.7 15.2838 117.816 14.2705C116.932 13.2505 116.49 11.8836 116.49 10.1699C116.49 8.33383 116.956 6.87175 117.887 5.7837C118.819 4.69564 120.07 4.15161 121.641 4.15161Z" fill="#7E869A"/>
<path d="M128.914 4.46783H130.658V6.35492C130.801 5.98771 131.151 5.54228 131.709 5.01866C132.267 4.48823 132.909 4.22302 133.637 4.22302C133.671 4.22302 133.729 4.22642 133.81 4.23322C133.892 4.24002 134.031 4.25362 134.229 4.27402V6.21212C134.12 6.19172 134.018 6.17812 133.923 6.17132C133.834 6.16452 133.736 6.16111 133.627 6.16111C132.702 6.16111 131.991 6.46033 131.495 7.05876C130.998 7.65039 130.75 8.33383 130.75 9.10907V15.3926H128.914V4.46783Z" fill="#7E869A"/>
<path d="M1.20366 24.5972H4.11081L8.41543 37.2663L12.6894 24.5972H15.566V39.5818H13.6381V30.7379C13.6381 30.4319 13.6449 29.9253 13.6585 29.2181C13.6721 28.5108 13.6789 27.7526 13.6789 26.9433L9.40488 39.5818H7.39538L3.09076 26.9433V27.4024C3.09076 27.7696 3.09756 28.3306 3.11116 29.0854C3.13156 29.8335 3.14176 30.3843 3.14176 30.7379V39.5818H1.20366V24.5972Z" fill="#7E869A"/>
<path d="M22.9614 28.4122C23.7366 28.4122 24.4881 28.5958 25.2157 28.963C25.9433 29.3235 26.4976 29.7927 26.8784 30.3707C27.2456 30.9215 27.4904 31.5642 27.6128 32.2986C27.7216 32.8018 27.776 33.6043 27.776 34.7059H19.7686C19.8026 35.8144 20.0644 36.7052 20.554 37.3785C21.0437 38.0449 21.8019 38.3781 22.8288 38.3781C23.7876 38.3781 24.5527 38.0619 25.1239 37.4295C25.4503 37.0623 25.6815 36.6372 25.8175 36.1544H27.623C27.5754 36.5556 27.4156 37.0044 27.1436 37.5009C26.8784 37.9905 26.5792 38.3917 26.2459 38.7045C25.6883 39.2486 24.9981 39.6158 24.1752 39.8062C23.7332 39.915 23.2334 39.9694 22.6758 39.9694C21.3157 39.9694 20.163 39.4764 19.2178 38.4903C18.2725 37.4975 17.7999 36.1102 17.7999 34.3285C17.7999 32.574 18.2759 31.1493 19.228 30.0545C20.18 28.9596 21.4245 28.4122 22.9614 28.4122ZM25.8889 33.2473C25.8141 32.4516 25.6407 31.8158 25.3687 31.3398C24.8655 30.4557 24.0256 30.0137 22.8492 30.0137C22.0059 30.0137 21.2987 30.3197 20.7275 30.9317C20.1562 31.537 19.8536 32.3088 19.8196 33.2473H25.8889Z" fill="#7E869A"/>
<path d="M31.2034 34.2469C31.2034 35.4166 31.4516 36.3958 31.948 37.1847C32.4445 37.9735 33.2401 38.3679 34.335 38.3679C35.185 38.3679 35.882 38.0041 36.4261 37.2765C36.9769 36.542 37.2523 35.4914 37.2523 34.1245C37.2523 32.744 36.9701 31.724 36.4057 31.0643C35.8412 30.3979 35.1442 30.0647 34.3146 30.0647C33.3897 30.0647 32.6383 30.4183 32.0602 31.1255C31.489 31.8328 31.2034 32.8732 31.2034 34.2469ZM33.9677 28.4632C34.8042 28.4632 35.5046 28.64 36.069 28.9936C36.3955 29.1976 36.7661 29.5547 37.1809 30.0647V24.5462H38.9456V39.5818H37.2931V38.0619C36.8647 38.7351 36.3581 39.2214 35.7732 39.5206C35.1884 39.8198 34.5186 39.9694 33.7637 39.9694C32.5465 39.9694 31.4924 39.4594 30.6016 38.4393C29.7107 37.4125 29.2653 36.049 29.2653 34.3489C29.2653 32.7576 29.6699 31.3806 30.4792 30.2177C31.2952 29.048 32.4581 28.4632 33.9677 28.4632Z" fill="#7E869A"/>
<path d="M41.6691 28.708H43.5358V39.5818H41.6691V28.708ZM41.6691 24.5972H43.5358V26.6781H41.6691V24.5972Z" fill="#7E869A"/>
<path d="M50.5334 28.3408C51.7642 28.3408 52.7639 28.64 53.5323 29.2385C54.3076 29.8369 54.7734 30.8671 54.9298 32.3292H53.1447C53.0359 31.656 52.7877 31.0983 52.4001 30.6563C52.0125 30.2075 51.3902 29.9831 50.5334 29.9831C49.3637 29.9831 48.5273 30.5543 48.0241 31.6968C47.6976 32.438 47.5344 33.3527 47.5344 34.4407C47.5344 35.5356 47.7656 36.457 48.2281 37.2051C48.6905 37.9531 49.4181 38.3271 50.411 38.3271C51.1726 38.3271 51.7744 38.0959 52.2165 37.6335C52.6653 37.1643 52.9747 36.525 53.1447 35.7158H54.9298C54.7258 37.1643 54.2158 38.2251 53.3997 38.8983C52.5837 39.5648 51.5398 39.898 50.2682 39.898C48.8401 39.898 47.701 39.3778 46.851 38.3373C46.0009 37.2901 45.5759 35.9844 45.5759 34.4203C45.5759 32.5026 46.0417 31.0099 46.9734 29.9423C47.905 28.8746 49.0917 28.3408 50.5334 28.3408Z" fill="#7E869A"/>
<path d="M58.1736 36.6746C58.1736 37.2051 58.3674 37.6233 58.755 37.9293C59.1426 38.2353 59.6016 38.3883 60.1321 38.3883C60.7781 38.3883 61.4037 38.2387 62.009 37.9395C63.029 37.4431 63.539 36.6304 63.539 35.5016V34.0225C63.3146 34.1653 63.0256 34.2843 62.672 34.3795C62.3184 34.4747 61.9716 34.5427 61.6315 34.5835L60.5197 34.7263C59.8533 34.8147 59.3534 34.9541 59.0202 35.1446C58.4558 35.4642 58.1736 35.9742 58.1736 36.6746ZM62.621 32.9616C63.0426 32.9072 63.3248 32.7304 63.4676 32.4312C63.5492 32.268 63.59 32.0334 63.59 31.7274C63.59 31.1017 63.3656 30.6495 62.9168 30.3707C62.4748 30.0851 61.839 29.9423 61.0093 29.9423C60.0505 29.9423 59.3704 30.2007 58.9692 30.7175C58.7448 31.0031 58.5986 31.4282 58.5306 31.9926H56.8169C56.8509 30.6461 57.2861 29.7111 58.1226 29.1874C58.9658 28.657 59.9417 28.3918 61.0501 28.3918C62.3354 28.3918 63.3792 28.6366 64.1817 29.1262C64.9773 29.6159 65.3751 30.3775 65.3751 31.4112V37.7049C65.3751 37.8953 65.4125 38.0483 65.4873 38.1639C65.5689 38.2795 65.7356 38.3373 65.9872 38.3373C66.0688 38.3373 66.1606 38.3339 66.2626 38.3271C66.3646 38.3135 66.4734 38.2965 66.589 38.2761V39.6328C66.3034 39.7144 66.0858 39.7654 65.9362 39.7858C65.7866 39.8062 65.5826 39.8164 65.3241 39.8164C64.6917 39.8164 64.2327 39.592 63.9471 39.1432C63.7975 38.9051 63.6921 38.5685 63.6308 38.1333C63.2568 38.6229 62.7196 39.048 62.0192 39.4084C61.3187 39.7688 60.5469 39.949 59.7036 39.949C58.6904 39.949 57.8608 39.643 57.2147 39.0309C56.5755 38.4121 56.2559 37.6403 56.2559 36.7154C56.2559 35.7022 56.5721 34.9167 57.2045 34.3591C57.837 33.8015 58.6666 33.4581 59.6934 33.3289L62.621 32.9616Z" fill="#7E869A"/>
<path d="M68.4455 24.5972H70.2816V39.5818H68.4455V24.5972Z" fill="#7E869A"/>
<path d="M85.6538 33.4411L83.3791 26.8209L80.9615 33.4411H85.6538ZM82.3182 24.5972H84.6133L90.0502 39.5818H87.8265L86.3066 35.0935H80.3801L78.7582 39.5818H76.6773L82.3182 24.5972Z" fill="#7E869A"/>
<path d="M96.2011 28.4122C96.9763 28.4122 97.7278 28.5958 98.4554 28.963C99.1831 29.3235 99.7373 29.7927 100.118 30.3707C100.485 30.9215 100.73 31.5642 100.853 32.2986C100.961 32.8018 101.016 33.6043 101.016 34.7059H93.0083C93.0424 35.8144 93.3042 36.7052 93.7938 37.3785C94.2834 38.0449 95.0416 38.3781 96.0685 38.3781C97.0274 38.3781 97.7924 38.0619 98.3636 37.4295C98.69 37.0623 98.9212 36.6372 99.0573 36.1544H100.863C100.815 36.5556 100.655 37.0044 100.383 37.5009C100.118 37.9905 99.8189 38.3917 99.4857 38.7045C98.9281 39.2486 98.2378 39.6158 97.415 39.8062C96.9729 39.915 96.4731 39.9694 95.9155 39.9694C94.5554 39.9694 93.4028 39.4764 92.4575 38.4903C91.5123 37.4975 91.0396 36.1102 91.0396 34.3285C91.0396 32.574 91.5157 31.1493 92.4677 30.0545C93.4198 28.9596 94.6642 28.4122 96.2011 28.4122ZM99.1287 33.2473C99.0539 32.4516 98.8804 31.8158 98.6084 31.3398C98.1052 30.4557 97.2654 30.0137 96.0889 30.0137C95.2457 30.0137 94.5384 30.3197 93.9672 30.9317C93.396 31.537 93.0934 32.3088 93.0593 33.2473H99.1287Z" fill="#7E869A"/>
<path d="M104.372 36.1544C104.426 36.7664 104.579 37.2357 104.831 37.5621C105.293 38.1537 106.096 38.4495 107.238 38.4495C107.918 38.4495 108.517 38.3033 109.033 38.0109C109.55 37.7117 109.809 37.2527 109.809 36.6338C109.809 36.1646 109.601 35.8076 109.186 35.5628C108.921 35.4132 108.398 35.2398 107.615 35.0425L106.157 34.6753C105.225 34.4441 104.538 34.1857 104.096 33.9001C103.307 33.4037 102.913 32.7168 102.913 31.8396C102.913 30.8059 103.284 29.9695 104.025 29.3303C104.773 28.691 105.776 28.3714 107.034 28.3714C108.68 28.3714 109.866 28.8542 110.594 29.8199C111.05 30.4319 111.271 31.0915 111.257 31.7988H109.523C109.489 31.384 109.343 31.0065 109.084 30.6665C108.663 30.1837 107.932 29.9423 106.891 29.9423C106.198 29.9423 105.671 30.0749 105.31 30.3401C104.957 30.6053 104.78 30.9555 104.78 31.3908C104.78 31.8668 105.014 32.2476 105.484 32.5332C105.756 32.7032 106.157 32.8528 106.687 32.982L107.901 33.2779C109.22 33.5975 110.104 33.9069 110.553 34.2061C111.267 34.6753 111.624 35.4132 111.624 36.4196C111.624 37.3921 111.254 38.2319 110.512 38.9391C109.778 39.6464 108.656 40 107.146 40C105.521 40 104.368 39.6328 103.688 38.8983C103.015 38.1571 102.655 37.2425 102.607 36.1544H104.372Z" fill="#7E869A"/>
<path d="M114.093 25.6071H115.949V28.657H117.694V30.1565H115.949V37.2867C115.949 37.6675 116.079 37.9225 116.337 38.0517C116.48 38.1265 116.718 38.1639 117.051 38.1639C117.139 38.1639 117.235 38.1639 117.337 38.1639C117.439 38.1571 117.558 38.1469 117.694 38.1333V39.5818C117.483 39.643 117.262 39.6872 117.031 39.7144C116.806 39.7416 116.561 39.7552 116.296 39.7552C115.439 39.7552 114.858 39.5376 114.552 39.1024C114.246 38.6603 114.093 38.0891 114.093 37.3887V30.1565H112.614V28.657H114.093V25.6071Z" fill="#7E869A"/>
<path d="M119.54 24.5462H121.376V30.1361C121.811 29.5853 122.202 29.1976 122.549 28.9732C123.141 28.5856 123.879 28.3918 124.763 28.3918C126.347 28.3918 127.422 28.946 127.986 30.0545C128.292 30.6597 128.445 31.4996 128.445 32.574V39.5818H126.558V32.6964C126.558 31.894 126.456 31.3058 126.252 30.9317C125.919 30.3333 125.293 30.0341 124.375 30.0341C123.613 30.0341 122.923 30.2959 122.304 30.8195C121.685 31.3432 121.376 32.3326 121.376 33.7879V39.5818H119.54V24.5462Z" fill="#7E869A"/>
<path d="M135.718 28.4122C136.493 28.4122 137.245 28.5958 137.972 28.963C138.7 29.3235 139.254 29.7927 139.635 30.3707C140.002 30.9215 140.247 31.5642 140.369 32.2986C140.478 32.8018 140.533 33.6043 140.533 34.7059H132.525C132.559 35.8144 132.821 36.7052 133.311 37.3785C133.8 38.0449 134.558 38.3781 135.585 38.3781C136.544 38.3781 137.309 38.0619 137.88 37.4295C138.207 37.0623 138.438 36.6372 138.574 36.1544H140.38C140.332 36.5556 140.172 37.0044 139.9 37.5009C139.635 37.9905 139.336 38.3917 139.003 38.7045C138.445 39.2486 137.755 39.6158 136.932 39.8062C136.49 39.915 135.99 39.9694 135.432 39.9694C134.072 39.9694 132.92 39.4764 131.974 38.4903C131.029 37.4975 130.556 36.1102 130.556 34.3285C130.556 32.574 131.033 31.1493 131.985 30.0545C132.937 28.9596 134.181 28.4122 135.718 28.4122ZM138.645 33.2473C138.571 32.4516 138.397 31.8158 138.125 31.3398C137.622 30.4557 136.782 30.0137 135.606 30.0137C134.762 30.0137 134.055 30.3197 133.484 30.9317C132.913 31.537 132.61 32.3088 132.576 33.2473H138.645Z" fill="#7E869A"/>
<path d="M143.164 25.6071H145.021V28.657H146.765V30.1565H145.021V37.2867C145.021 37.6675 145.15 37.9225 145.408 38.0517C145.551 38.1265 145.789 38.1639 146.122 38.1639C146.211 38.1639 146.306 38.1639 146.408 38.1639C146.51 38.1571 146.629 38.1469 146.765 38.1333V39.5818C146.554 39.643 146.333 39.6872 146.102 39.7144C145.878 39.7416 145.633 39.7552 145.368 39.7552C144.511 39.7552 143.929 39.5376 143.623 39.1024C143.317 38.6603 143.164 38.0891 143.164 37.3887V30.1565H141.685V28.657H143.164V25.6071Z" fill="#7E869A"/>
<path d="M148.611 28.708H150.478V39.5818H148.611V28.708ZM148.611 24.5972H150.478V26.6781H148.611V24.5972Z" fill="#7E869A"/>
<path d="M157.476 28.3408C158.706 28.3408 159.706 28.64 160.475 29.2385C161.25 29.8369 161.716 30.8671 161.872 32.3292H160.087C159.978 31.656 159.73 31.0983 159.342 30.6563C158.955 30.2075 158.332 29.9831 157.476 29.9831C156.306 29.9831 155.47 30.5543 154.966 31.6968C154.64 32.438 154.477 33.3527 154.477 34.4407C154.477 35.5356 154.708 36.457 155.17 37.2051C155.633 37.9531 156.36 38.3271 157.353 38.3271C158.115 38.3271 158.717 38.0959 159.159 37.6335C159.608 37.1643 159.917 36.525 160.087 35.7158H161.872C161.668 37.1643 161.158 38.2251 160.342 38.8983C159.526 39.5648 158.482 39.898 157.21 39.898C155.782 39.898 154.643 39.3778 153.793 38.3373C152.943 37.2901 152.518 35.9844 152.518 34.4203C152.518 32.5026 152.984 31.0099 153.916 29.9423C154.847 28.8746 156.034 28.3408 157.476 28.3408Z" fill="#7E869A"/>
<path d="M164.8 36.1544C164.854 36.7664 165.007 37.2357 165.259 37.5621C165.721 38.1537 166.523 38.4495 167.666 38.4495C168.346 38.4495 168.944 38.3033 169.461 38.0109C169.978 37.7117 170.236 37.2527 170.236 36.6338C170.236 36.1646 170.029 35.8076 169.614 35.5628C169.349 35.4132 168.825 35.2398 168.043 35.0425L166.585 34.6753C165.653 34.4441 164.966 34.1857 164.524 33.9001C163.735 33.4037 163.341 32.7168 163.341 31.8396C163.341 30.8059 163.712 29.9695 164.453 29.3303C165.201 28.691 166.204 28.3714 167.462 28.3714C169.108 28.3714 170.294 28.8542 171.022 29.8199C171.478 30.4319 171.699 31.0915 171.685 31.7988H169.951C169.917 31.384 169.771 31.0065 169.512 30.6665C169.091 30.1837 168.36 29.9423 167.319 29.9423C166.626 29.9423 166.098 30.0749 165.738 30.3401C165.384 30.6053 165.208 30.9555 165.208 31.3908C165.208 31.8668 165.442 32.2476 165.911 32.5332C166.183 32.7032 166.585 32.8528 167.115 32.982L168.329 33.2779C169.648 33.5975 170.532 33.9069 170.981 34.2061C171.695 34.6753 172.052 35.4132 172.052 36.4196C172.052 37.3921 171.682 38.2319 170.94 38.9391C170.206 39.6464 169.084 40 167.574 40C165.949 40 164.796 39.6328 164.116 38.8983C163.443 38.1571 163.083 37.2425 163.035 36.1544H164.8Z" fill="#7E869A"/>
</svg>
