<svg width="100" height="57" viewBox="0 0 100 57" fill="none" xmlns="http://www.w3.org/2000/svg">
<path fill-rule="evenodd" clip-rule="evenodd" d="M39.4575 3.33224C39.53 7.02789 43.8416 12.9699 46.7764 11.8467C48.0445 11.3395 48.0445 10.796 46.6677 6.84673C43.3706 -2.53733 39.3851 0.361222 39.4575 3.33224ZM63.3706 11.7018C62.3561 14.5641 65.8706 15.0714 68.2981 12.4264C70.7619 9.70905 73.4068 5.65108 74.8199 2.89745C76.3778 0.252525 73.3344 -1.08805 70.7981 1.08586C67.7909 3.62209 64.059 9.70905 63.3706 11.7018ZM13.4431 9.49166C11.1967 10.3975 18.7329 19.7453 21.7764 19.8177C25.3271 19.8902 25.617 19.0931 23.1532 15.796C19.2764 10.5786 16.0155 8.44093 13.4431 9.49166ZM47.501 22.9337C46.1605 24.2743 44.5662 26.1221 43.9503 26.9917C38.6604 34.8902 38.588 34.9627 36.1604 33.1148C30.5445 28.9119 21.3054 26.0496 23.117 33.3685C24.2402 37.7888 27.5735 45.8685 28.4431 48.5496C30.6894 55.6148 31.8851 56.7743 35.8706 55.8322C45.7619 53.4409 59.8923 53.3685 70.001 55.6511C72.501 56.2308 72.646 55.9409 72.8996 50.9047C73.4068 40.7235 79.2764 30.796 79.2764 27.6076C79.2764 24.0206 72.501 26.7018 63.2981 33.9119L62.3561 34.6366L61.0155 33.7308C58.2619 31.883 56.8851 33.3322 58.4431 36.4119C59.7112 38.9119 60.7619 39.7453 63.5518 38.4047C65.146 37.6438 67.3561 36.1946 70.472 33.9844C71.7039 33.1148 72.7184 32.4989 72.7184 32.6076C72.7184 33.1148 70.5083 42.6076 70.5083 42.6438L65.001 42.1728C60.617 41.9917 60.1097 44.3105 64.6387 44.9989C65.1097 45.0714 69.7474 45.6511 69.7474 45.6511C69.7474 45.6511 69.5662 47.6801 69.059 48.8395C68.5155 49.9989 67.6097 50.2888 66.1242 49.7815C54.4938 45.9409 35.5445 50.6148 35.5083 50.6148C34.8199 50.7235 28.5155 34.0931 29.0228 33.5859C29.0952 33.5134 29.8561 33.9844 30.7257 34.6366C40.5445 41.7743 41.559 41.5569 48.0445 31.1583L51.088 26.267L52.2836 28.0424C55.7619 33.2235 60.6894 30.9409 57.9358 27.1366C56.9938 25.8685 55.4358 23.9844 52.9358 21.0496C51.8126 19.709 50.146 20.2888 47.501 22.9337ZM94.6387 22.3902C93.3344 23.1511 86.5228 29.6728 85.7257 30.9047C84.0228 33.6221 87.5735 34.238 90.7981 31.7743C94.5662 28.9119 99.8923 23.9844 99.8923 23.3322C99.9286 22.0279 96.4141 21.3757 94.6387 22.3902ZM4.89233 39.7453C10.1822 41.0496 13.2257 41.3757 14.4213 40.7235C16.3778 39.6728 15.472 38.9119 10.8344 37.7525C10.3996 37.6438 6.12421 36.4482 3.18943 36.4482C1.08798 36.4482 -3.58594 37.6076 4.89233 39.7453Z" fill="black"/>
</svg>
