<svg width="99" height="90" viewBox="0 0 99 90" fill="none" xmlns="http://www.w3.org/2000/svg">
<path fill-rule="evenodd" clip-rule="evenodd" d="M98.4751 23.6523C97.1454 14.7282 95.9338 5.68597 95.9043 4.00162C95.7861 -0.401301 91.7968 0.662499 83.7297 2.40595C79.0313 3.41062 71.6734 4.41532 70.2845 4.26757C68.0979 4.00162 67.4478 5.71553 69.3981 6.54292C71.1119 7.25213 75.1898 12.2461 75.2194 12.2756C75.1898 12.3052 52.2 42.9484 46.0537 53.7636C44.783 56.0094 44.783 56.0091 44.3398 53.852C43.6601 50.5719 41.2962 42.2392 39.9073 37.9249C38.1343 32.4582 36.2136 33.7288 32.2834 38.0135C29.5944 40.9685 8.49582 63.0423 1.58115 72.6755C0.310496 74.4485 0.280946 76.842 1.4925 78.6446C2.17215 79.6788 2.94045 80.8608 3.7974 82.3383C8.55492 90.6418 10.2983 91.0555 14.4944 84.9387C23.6549 71.5822 22.3251 73.7098 28.2351 65.9972C30.2445 63.3673 30.8355 62.7763 30.9832 63.19C31.1014 63.4855 31.9288 66.1154 32.8744 69.0409C36.9228 81.7769 38.2821 84.7318 40.2028 85.0569C42.3599 85.4115 43.3351 84.4659 48.4177 76.8716C52.2887 71.0798 51.5496 73.1779 61.2125 58.2552C63.6651 54.4728 81.3362 31.5421 86.3892 22.6476C87.4826 20.7564 87.4235 20.786 87.8076 21.3474C88.2804 21.9975 89.4624 22.2044 92.3878 24.4499C97.3818 28.2618 99.1252 28.0257 98.4751 23.6523ZM11.5985 68.9522C11.5394 69.6023 10.4461 81.3336 9.70735 82.7225C9.5596 82.9884 9.17545 82.5747 8.52537 81.3927C7.99347 80.4471 7.04787 78.9105 6.39777 77.9945C4.92027 75.8373 4.86117 76.1621 7.75707 72.3206C11.9236 66.8834 11.8349 66.9724 11.5985 68.9522ZM18.5428 65.9086L18.1586 71.6413C18.1586 71.6413 15.44 75.4532 14.524 76.7829C12.485 79.7675 12.5441 79.8561 12.8987 74.8917C13.076 72.646 13.5784 65.0809 13.5784 65.0809L16.1492 61.8898C19.2224 58.0779 19.0746 57.871 18.5428 65.9086ZM26.9349 52.1088C26.4621 55.3593 26.1962 59.7031 26.0189 62.0967C25.0142 63.19 23.9504 64.3424 22.2956 66.4996C20.5817 68.7454 20.6112 68.7454 20.9363 65.7904C21.2613 62.9241 20.9363 58.462 20.8476 56.3344L23.8913 52.8476C27.5555 48.7106 27.4373 48.7401 26.9349 52.1088ZM32.5789 55.3294C32.4016 56.8956 32.3422 57.0141 31.4557 57.1914C30.2146 57.4278 28.5897 58.9644 28.2351 59.2303C28.4715 56.2753 29.1807 47.1149 29.1807 47.0853C33.6132 42.4165 34.8838 41.1163 34.9429 41.1163C35.0907 41.1163 33.229 49.7445 32.5789 55.3294ZM37.9275 68.5385C37.8093 68.6567 35.1495 60.5601 34.7653 59.3781C34.7653 59.3485 36.8046 44.1008 36.8046 44.0712C37.0705 43.3325 39.5819 53.3201 40.1729 55.6249C40.0547 56.1568 38.0161 68.4203 37.9275 68.5385ZM47.0584 68.6567C46.7924 71.4344 46.4671 70.873 42.8915 76.251C41.3254 78.5855 41.3552 78.5854 40.4096 75.8373C39.5231 73.2665 40.2323 74.153 41.0893 65.3471C41.4734 61.3579 41.4734 61.3576 41.9758 62.2737C42.9805 64.1353 44.6648 65.288 46.3492 63.1014C46.6151 62.7763 47.8559 59.6736 48.0037 59.8213C48.0628 59.8804 47.3539 65.6426 47.0584 68.6567ZM55.9529 56.9254C55.8642 57.4278 54.4458 59.7918 52.8501 62.2444C49.4519 67.3565 49.688 67.5338 50.2199 60.0282L50.5452 55.4479L55.9233 47.4987C55.9529 48.6512 56.1597 55.8025 55.9529 56.9254ZM58.8783 52.8476C58.7601 52.7294 58.4055 46.908 58.2282 44.2781L63.9018 35.9155C64.0495 38.7523 64.1086 39.0773 64.6405 45.3419C64.0791 46.1102 58.9965 52.9953 58.8783 52.8476ZM66.2953 40.4662C66.0589 37.9249 65.7336 35.3836 65.4972 33.6697C68.6886 28.7349 68.8957 28.4394 69.1616 28.4098C69.4867 28.4098 69.1616 31.7194 69.989 38.0135C66.6204 42.9483 66.5613 43.3916 66.2953 40.4662ZM72.4414 34.0834C72.4118 33.7879 71.3779 24.8931 71.3779 24.8931L73.712 21.7903C76.5193 18.0375 76.3423 18.0671 76.5787 21.2289C76.8151 24.2137 77.2583 25.8981 77.5834 27.2278C73.0031 33.8765 72.5005 34.6448 72.4414 34.0834ZM79.8587 24.2728C79.7405 24.2728 79.2677 19.2789 78.6472 17.1513C78.2039 15.6443 78.4696 14.4623 79.9175 13.9008C81.0699 13.4576 80.7747 11.596 79.4154 10.9163C78.0561 10.2367 75.3964 7.4294 74.9531 6.98618C74.9827 6.98618 80.5974 5.89282 80.5974 6.36562C80.5974 7.07482 81.5726 15.0828 81.9567 17.5059L82.4591 20.6382C81.1589 22.5294 79.9473 24.2728 79.8587 24.2728ZM85.0887 17.9787C84.5864 18.0969 84.4685 17.9492 84.3207 16.7081C84.1139 14.9942 82.8137 6.89752 82.6364 6.27697C82.5477 5.95192 82.8728 5.77462 83.7002 5.65642C85.9755 5.30182 86.5074 5.36092 86.5074 5.89282C86.5074 6.48382 86.9208 13.1325 87.4527 18.3629C87.1868 18.2742 85.857 17.7719 85.0887 17.9787ZM90.1716 19.5744C90.0238 16.5012 89.8465 11.8915 89.3442 8.46365C88.7532 4.47442 88.7532 4.53352 89.6988 4.38577C90.9694 4.20847 91.0581 4.26757 91.4718 5.80417C92.0332 7.93175 93.0379 17.8014 93.7176 21.968L90.1716 19.5744Z" fill="black"/>
</svg>
