<svg width="1625" height="779" viewBox="0 0 1625 779" fill="none" xmlns="http://www.w3.org/2000/svg">
<path d="M752.2 13.4983C770.379 -2.40858 834.007 -13.0132 870.366 33.9501C886.273 55.1597 907.482 89.2461 940.054 143.784C978.685 208.169 1015.04 265.738 1020.35 271.797C1030.19 283.16 1156.69 206.654 1241.53 137.724C1402.11 7.43867 1386.21 190.748 1386.21 191.505V473.286C1647.54 466.468 1661.17 455.864 1583.15 581.605L1513.45 694.469C1464.22 774.003 1305.91 801.273 1398.33 651.292C1467.26 538.429 1458.92 549.034 1471.04 527.824C1458.17 530.096 1402.11 539.944 1357.42 549.034C1259.71 569.485 1259.71 518.734 1258.19 477.831C1256.68 437.684 1257.44 376.329 1257.44 236.196C981.714 410.416 978.685 438.442 849.914 214.229C805.223 136.967 804.466 135.452 793.861 152.874C628.731 425.565 627.216 426.322 439.362 333.153C380.279 303.611 330.286 280.887 329.529 281.645C328.771 283.16 335.588 331.638 345.435 389.964C374.22 560.395 375.735 556.608 258.326 550.548C214.393 548.276 172.731 543.731 165.157 541.458C156.824 538.429 178.033 577.817 217.422 640.688C299.987 842.176 170.459 784.608 120.466 705.831C-17.395 487.678 -80.2655 442.229 172.731 480.861C215.15 486.92 235.602 487.678 234.844 482.376C234.844 477.831 222.724 417.99 208.333 349.817C184.851 237.711 127.283 90.0034 440.12 249.831C506.778 283.917 567.376 308.156 567.376 308.156C567.376 308.156 724.173 38.4951 752.2 13.4983Z" fill="#FFD701"/>
<path d="M693.861 524.037C721.13 467.984 741.581 414.203 801.422 427.837C834.751 435.412 868.088 467.991 905.204 528.589C958.985 615.699 950.652 611.904 1024.13 580.09C1149.11 526.309 1194.56 541.459 1186.98 637.658C1173.35 820.21 1025.63 805.06 1047.6 700.529C1060.48 636.143 1066.55 640.688 999.888 664.17C901.416 698.256 868.088 689.924 824.911 617.964C793.855 566.456 798.4 566.456 762.041 625.538C714.32 704.316 687.808 692.953 602.971 670.229L606.001 699.771C613.576 779.306 533.284 754.309 477.988 659.625C427.994 573.273 475.715 547.518 602.971 592.21C630.24 602.057 652.965 608.117 654.48 606.602C655.237 603.572 672.659 567.213 693.868 524.037H693.861Z" fill="#FFD701"/>
</svg>
