<svg width="426" height="426" viewBox="0 0 426 426" fill="none" xmlns="http://www.w3.org/2000/svg">
<rect width="426" height="426" fill="#010AD1"/>
<path d="M231.859 325.282C245.56 325.282 248.677 339.826 235.171 342.13C227.964 343.359 220.557 344 213 344C205.443 344 198.037 343.359 190.831 342.13C177.324 339.826 180.441 325.282 194.142 325.282H231.859Z" fill="#FFCC12"/>
<path d="M299.238 284.115C309.49 284.115 315.386 295.345 308.354 302.806C306.033 305.269 302.767 306.57 299.383 306.57H126.61C123.226 306.57 119.96 305.269 117.64 302.806C110.611 295.345 116.508 284.115 126.758 284.115H299.238Z" fill="#FFCC12"/>
<path d="M324.96 242.942C332.932 242.942 338.822 250.443 336.085 257.93C334.397 262.549 329.914 265.397 324.996 265.397H101.004C96.0858 265.397 91.6027 262.55 89.9145 257.93C87.1781 250.443 93.0684 242.942 101.04 242.942H324.96Z" fill="#FFCC12"/>
<path d="M224.224 94.37C224.224 107.904 242.841 111.608 248.021 99.1037L248.458 98.0484C250.83 92.3208 257.397 89.6006 263.124 91.9724C268.854 94.3447 271.575 100.913 269.201 106.641L268.763 107.699C263.583 120.204 279.367 130.752 288.939 121.181L289.751 120.369C294.136 115.985 301.244 115.985 305.629 120.37C310.014 124.755 310.014 131.865 305.629 136.249L304.825 137.053C295.257 146.619 305.798 162.397 318.298 157.22L319.348 156.786C325.079 154.412 331.649 157.135 334.021 162.866C336.393 168.596 333.672 175.163 327.943 177.536L326.89 177.972C314.385 183.152 318.089 201.769 331.624 201.769H332.772C338.973 201.769 344 206.796 344 212.997C344 219.197 338.973 224.224 332.772 224.224H93.2275C87.0267 224.224 82 219.197 82 212.997C82 206.796 87.0267 201.769 93.2275 201.769H94.367C107.899 201.769 111.602 183.156 99.0999 177.977L98.0394 177.537C92.3099 175.164 89.5897 168.595 91.9637 162.866C94.3374 157.138 100.905 154.418 106.633 156.791L107.691 157.229C120.195 162.408 130.74 146.626 121.17 137.056L120.364 136.249C115.979 131.864 115.979 124.755 120.364 120.37C124.749 115.986 131.858 115.986 136.243 120.37L137.049 121.177C146.619 130.746 162.4 120.202 157.222 107.698L156.784 106.641C154.412 100.912 157.133 94.3448 162.862 91.9726C168.59 89.6007 175.157 92.3209 177.529 98.0487L177.968 99.1067C183.149 111.613 201.769 107.909 201.769 94.3717V93.2275C201.769 87.0267 206.796 82 212.997 82C219.197 82 224.224 87.0267 224.224 93.2275V94.37Z" fill="#FFCC12"/>
</svg>
