<svg width="92" height="98" viewBox="0 0 92 98" fill="none" xmlns="http://www.w3.org/2000/svg">
<path fill-rule="evenodd" clip-rule="evenodd" d="M25.1857 0.947707C9.01141 4.00176 0.698355 16.1047 0.698355 36.8596C0.641455 58.1242 22.0758 71.188 44.1316 63.3272L48.2035 61.8566C51.5401 65.3629 52.1056 65.3629 48.5429 67.512C45.715 69.2087 45.9975 70.9619 47.8076 71.6408C50.2392 72.5453 65.0003 86.7403 66.9796 90.1902C74.2752 102.915 92.4853 98.4474 91.2413 88.4935C90.6757 83.9693 87.2258 78.7098 83.1539 74.9774C78.6297 70.7922 76.0848 67.3991 72.7477 61.0649C69.5244 54.9004 66.6401 53.5431 62.4554 56.0884C60.6453 57.1627 60.4756 57.2191 59.5142 56.3146C57.5349 54.5614 57.6482 53.3738 60.0797 49.6978C69.3547 35.4459 69.8634 23.004 61.6632 13.107C50.2392 -0.692143 40.4555 4.28481 47.1292 8.58286C63.3599 18.9885 62.5118 40.1398 45.2063 56.0884C35.5919 64.9671 16.2502 60.2168 11.2737 47.7749C3.41246 27.981 16.3635 1.85276 37.345 6.03798C44.5838 7.90396 47.4682 -3.23702 25.1857 0.947707ZM22.9239 15.0299C20.4918 17.0656 22.0753 18.8188 26.5994 15.7083C29.7668 13.5598 31.2938 13.1634 34.1782 13.8423C37.967 14.691 40.2858 13.7295 39.0982 11.8066C38.7023 11.1277 30.3893 8.75258 22.9239 15.0299ZM45.6017 14.2946C42.5481 14.1249 41.7564 15.8216 43.8485 18.0276C46.4503 20.7986 51.6534 21.2509 51.3703 18.706C51.2011 16.9528 47.9204 14.4079 45.6017 14.2946ZM65.2828 61.6869C65.7356 63.5534 70.2028 70.1137 72.5785 72.5453C75.4628 75.4296 76.7068 77.3525 80.4393 81.4244C88.0175 89.738 78.9687 97.9946 71.8432 87.589C62.8507 74.4682 54.4808 70.3399 54.5941 68.8129C54.7638 66.89 64.8869 60.1035 65.2828 61.6869Z" fill="black"/>
</svg>
