<svg width="113" height="40" viewBox="0 0 113 40" fill="none" xmlns="http://www.w3.org/2000/svg">
<path d="M77.9601 39.9954C77.8476 39.9954 77.7969 39.9335 77.8082 39.8097L79.5131 29.1242C79.5356 29.0004 79.5975 28.9385 79.6988 28.9385H82.1297C83.2551 28.9385 84.0766 29.1636 84.5943 29.6137C85.112 30.0526 85.3708 30.7278 85.3708 31.6394C85.3708 32.4609 85.1795 33.1924 84.7968 33.8339C84.4142 34.4754 83.8797 34.9199 83.1932 35.1675V35.1844L84.5605 39.7929C84.583 39.8379 84.5774 39.8829 84.5436 39.9279C84.5099 39.9729 84.4592 39.9954 84.3917 39.9954H82.8555C82.743 39.9954 82.6755 39.9392 82.653 39.8266L81.4544 35.5051H80.2559L79.5807 39.8097C79.5694 39.9335 79.5019 39.9954 79.3781 39.9954H77.9601ZM80.4922 33.9858H81.4882C82.1747 33.9858 82.6867 33.7945 83.0244 33.4119C83.3732 33.018 83.5477 32.4778 83.5477 31.7913C83.5477 31.3412 83.4239 31.0261 83.1763 30.846C82.94 30.6547 82.5629 30.559 82.0453 30.559H81.0493L80.4922 33.9858Z" fill="#7E869A"/>
<path d="M74.3504 39.9954C74.2153 39.9954 74.1591 39.9335 74.1816 39.8097L75.8865 29.1242C75.9091 29.0004 75.9653 28.9385 76.0554 28.9385H77.4902C77.6253 28.9385 77.6815 29.0004 77.659 29.1242L75.9541 39.8097C75.9428 39.9335 75.8753 39.9954 75.7515 39.9954H74.3504Z" fill="#7E869A"/>
<path d="M65.6075 39.9954C65.4724 39.9954 65.4274 39.9335 65.4724 39.8097L69.8952 29.1242C69.9402 29.0004 70.0134 28.9385 70.1147 28.9385H72.0222C72.146 28.9385 72.2135 29.0004 72.2248 29.1242L73.2714 39.8097C73.2939 39.9335 73.232 39.9954 73.0857 39.9954H71.5664C71.4426 39.9954 71.3751 39.9335 71.3639 39.8097L70.9587 33.0574C70.9362 32.6635 70.9137 32.2696 70.8912 31.8757C70.8687 31.4706 70.8518 31.0711 70.8406 30.6772H70.8068C70.6717 31.0711 70.5311 31.465 70.3848 31.8589C70.2497 32.2527 70.1034 32.6523 69.9459 33.0574L67.38 39.8097C67.3462 39.9335 67.2731 39.9954 67.1605 39.9954H65.6075ZM67.937 37.5983L68.4772 36.0622H71.3976L71.4989 37.5983H67.937Z" fill="#7E869A"/>
<path d="M59.7439 39.9954C59.6089 39.9954 59.5526 39.9335 59.5751 39.8097L61.2801 29.1242C61.3026 29.0004 61.3645 28.9385 61.4658 28.9385H63.6603C64.7632 28.9385 65.5678 29.1692 66.0743 29.6306C66.5919 30.092 66.8508 30.7897 66.8508 31.7238C66.8508 32.6241 66.6876 33.4006 66.3612 34.0534C66.0461 34.6948 65.5903 35.19 64.9939 35.5389C64.4087 35.8765 63.6997 36.0453 62.8669 36.0453H61.9385L61.3476 39.8097C61.3364 39.9335 61.2688 39.9954 61.1451 39.9954H59.7439ZM62.1917 34.4247H62.9682C63.4183 34.4247 63.7953 34.3291 64.0992 34.1378C64.4031 33.9352 64.6338 33.6482 64.7913 33.2769C64.9489 32.9055 65.0276 32.4497 65.0276 31.9095C65.0276 31.4256 64.9039 31.0823 64.6563 30.8798C64.4199 30.6659 64.0598 30.559 63.5759 30.559H62.8163L62.1917 34.4247Z" fill="#7E869A"/>
<path d="M52.6063 39.9954C52.4826 39.9954 52.4319 39.9335 52.4544 39.8097L54.1594 29.1242C54.1819 29.0004 54.2438 28.9385 54.3451 28.9385H59.4431C59.5781 28.9385 59.6344 29.0004 59.6119 29.1242L59.4093 30.3733C59.3868 30.5084 59.3193 30.5759 59.2067 30.5759H55.6955L55.206 33.5976H58.3796C58.5146 33.5976 58.5709 33.6651 58.5484 33.8002L58.3627 34.9818C58.3515 35.1056 58.2839 35.1675 58.1601 35.1675H54.9697L54.4632 38.358H57.9407C58.0757 38.358 58.132 38.4199 58.1095 38.5437L57.9069 39.8097C57.8844 39.9335 57.8169 39.9954 57.7044 39.9954H52.6063Z" fill="#7E869A"/>
<path d="M44.5612 39.9954C44.4486 39.9954 44.398 39.9335 44.4092 39.8097L46.1142 29.1242C46.1367 29.0004 46.1986 28.9385 46.2999 28.9385H48.7307C49.8561 28.9385 50.6777 29.1636 51.1953 29.6137C51.713 30.0526 51.9719 30.7278 51.9719 31.6394C51.9719 32.4609 51.7805 33.1924 51.3979 33.8339C51.0153 34.4754 50.4807 34.9199 49.7942 35.1675V35.1844L51.1616 39.7929C51.1841 39.8379 51.1785 39.8829 51.1447 39.9279C51.1109 39.9729 51.0603 39.9954 50.9928 39.9954H49.4566C49.3441 39.9954 49.2766 39.9392 49.254 39.8266L48.0555 35.5051H46.857L46.1817 39.8097C46.1705 39.9335 46.103 39.9954 45.9792 39.9954H44.5612ZM47.0933 33.9858H48.0893C48.7758 33.9858 49.2878 33.7945 49.6254 33.4119C49.9743 33.018 50.1487 32.4778 50.1487 31.7913C50.1487 31.3412 50.0249 31.0261 49.7774 30.846C49.541 30.6547 49.164 30.559 48.6463 30.559H47.6504L47.0933 33.9858Z" fill="#7E869A"/>
<path d="M74.3537 25.7963C73.1945 25.7963 72.3448 25.4587 71.8046 24.7834C71.2757 24.1082 71.1125 23.146 71.3151 21.8968L71.9228 18.0649C72.1254 16.8494 72.5418 15.9491 73.172 15.3639C73.8022 14.7675 74.6913 14.4692 75.8392 14.4692C77.0208 14.4692 77.8761 14.8069 78.4051 15.4821C78.9452 16.1573 79.114 17.1195 78.9115 18.3687L78.3038 22.2007C78.1012 23.4161 77.6792 24.322 77.0377 24.9185C76.4075 25.5037 75.5128 25.7963 74.3537 25.7963ZM74.5393 24.1588C75.1245 24.1588 75.5747 24.0013 75.8898 23.6862C76.2162 23.3711 76.43 22.8534 76.5313 22.1331L77.139 18.3856C77.2628 17.6091 77.1953 17.0351 76.9364 16.6637C76.6888 16.2924 76.2668 16.1067 75.6704 16.1067C75.0964 16.1067 74.6463 16.2699 74.3199 16.5962C74.0048 16.9113 73.791 17.429 73.6784 18.1493L73.0876 21.8799C72.9525 22.6564 73.0088 23.2304 73.2564 23.6018C73.5152 23.9732 73.9429 24.1588 74.5393 24.1588Z" fill="#7E869A"/>
<path d="M65.9267 25.6612C65.7917 25.6612 65.7354 25.5937 65.7579 25.4586L67.2266 16.2417H65.0658C64.942 16.2417 64.8914 16.1742 64.9139 16.0391L65.0996 14.7899C65.1221 14.6661 65.1896 14.6042 65.3021 14.6042H71.413C71.5481 14.6042 71.5987 14.6661 71.5649 14.7899L71.3792 16.0391C71.3567 16.1742 71.2892 16.2417 71.1767 16.2417H69.0159L67.5304 25.4755C67.5192 25.5993 67.4516 25.6612 67.3278 25.6612H65.9267Z" fill="#7E869A"/>
<path d="M58.891 25.7962C57.7431 25.7962 56.9103 25.4643 56.3926 24.8003C55.8749 24.1363 55.7174 23.1516 55.9199 21.8461L57.0678 14.7899C57.0903 14.6661 57.1522 14.6042 57.2535 14.6042H58.6715C58.7953 14.6042 58.8516 14.6718 58.8403 14.8068L57.6924 21.863C57.5686 22.6283 57.6136 23.2022 57.8275 23.5849C58.0525 23.9675 58.4577 24.1588 59.0429 24.1588C59.6056 24.1588 60.0389 23.9787 60.3427 23.6186C60.6466 23.2472 60.866 22.662 61.0011 21.863L62.1321 14.7899C62.1546 14.6661 62.2165 14.6042 62.3178 14.6042H63.7358C63.8596 14.6042 63.9102 14.6718 63.8877 14.8068L62.7567 21.9305C62.5541 23.2585 62.1433 24.2376 61.5244 24.8678C60.9054 25.4868 60.0276 25.7962 58.891 25.7962Z" fill="#7E869A"/>
<path d="M46.9713 25.6612C46.8362 25.6612 46.7912 25.5993 46.8362 25.4755L51.259 14.7899C51.304 14.6661 51.3772 14.6042 51.4784 14.6042H53.386C53.5098 14.6042 53.5773 14.6661 53.5886 14.7899L54.6352 25.4755C54.6577 25.5993 54.5958 25.6612 54.4495 25.6612H52.9302C52.8064 25.6612 52.7389 25.5993 52.7276 25.4755L52.3225 18.7232C52.3 18.3293 52.2775 17.9354 52.255 17.5415C52.2325 17.1364 52.2156 16.7369 52.2043 16.343H52.1706C52.0355 16.7369 51.8948 17.1307 51.7485 17.5246C51.6135 17.9185 51.4672 18.318 51.3096 18.7232L48.7438 25.4755C48.71 25.5993 48.6368 25.6612 48.5243 25.6612H46.9713ZM49.3008 23.2641L49.841 21.728H52.7614L52.8627 23.2641H49.3008Z" fill="#7E869A"/>
<path d="M104.217 11.192C104.105 11.192 104.06 11.1357 104.082 11.0231L104.099 10.9387C104.099 10.86 104.127 10.7812 104.184 10.7024L108.708 3.51118C108.888 3.21858 109.073 2.92597 109.265 2.63337C109.456 2.32952 109.642 2.04254 109.822 1.77245V1.75557C109.563 1.75557 109.304 1.7612 109.045 1.77245C108.786 1.77245 108.533 1.77245 108.286 1.77245H106.125C105.99 1.77245 105.934 1.70493 105.956 1.56988L106.159 0.320699C106.181 0.196906 106.249 0.13501 106.361 0.13501H112.455C112.568 0.13501 112.618 0.191279 112.607 0.303818L112.59 0.405103C112.579 0.438864 112.562 0.478253 112.54 0.523269C112.528 0.557031 112.511 0.590792 112.489 0.624554L107.88 7.91708C107.712 8.19842 107.532 8.47977 107.34 8.76112C107.149 9.03121 106.969 9.29568 106.8 9.55452V9.5714C107.059 9.56014 107.318 9.55452 107.577 9.55452C107.835 9.55452 108.089 9.55452 108.336 9.55452H110.632C110.767 9.55452 110.823 9.62204 110.801 9.75709L110.598 11.0063C110.587 11.1301 110.52 11.192 110.396 11.192H104.217Z" fill="#7E869A"/>
<path d="M97.8388 11.192C97.715 11.192 97.6643 11.1301 97.6868 11.0063L99.3918 0.320699C99.4143 0.196906 99.4762 0.13501 99.5775 0.13501H104.676C104.811 0.13501 104.867 0.196906 104.844 0.320699L104.642 1.56988C104.619 1.70493 104.552 1.77245 104.439 1.77245H100.928L100.438 4.79412H103.612C103.747 4.79412 103.803 4.86164 103.781 4.99669L103.595 6.17835C103.584 6.30214 103.516 6.36404 103.393 6.36404H100.202L99.6957 9.55452H103.173C103.308 9.55452 103.364 9.61641 103.342 9.7402L103.139 11.0063C103.117 11.1301 103.049 11.192 102.937 11.192H97.8388Z" fill="#7E869A"/>
<path d="M91.393 11.192C91.2692 11.192 91.2185 11.1301 91.241 11.0063L92.946 0.320699C92.9685 0.196906 93.0304 0.13501 93.1317 0.13501H94.5497C94.6847 0.13501 94.741 0.196906 94.7185 0.320699L93.2499 9.55452H96.5416C96.6879 9.55452 96.7442 9.61641 96.7104 9.7402L96.5079 11.0063C96.4966 11.1301 96.4347 11.192 96.3222 11.192H91.393Z" fill="#7E869A"/>
<path d="M82.6661 11.192C82.531 11.192 82.486 11.1301 82.531 11.0063L86.9538 0.320699C86.9988 0.196906 87.072 0.13501 87.1733 0.13501H89.0808C89.2046 0.13501 89.2721 0.196906 89.2834 0.320699L90.33 11.0063C90.3525 11.1301 90.2906 11.192 90.1443 11.192H88.625C88.5012 11.192 88.4337 11.1301 88.4225 11.0063L88.0173 4.25393C87.9948 3.86005 87.9723 3.46616 87.9498 3.07227C87.9273 2.66714 87.9104 2.26762 87.8991 1.87374H87.8654C87.7303 2.26762 87.5897 2.66151 87.4434 3.05539C87.3083 3.44928 87.162 3.84879 87.0045 4.25393L84.4386 11.0063C84.4048 11.1301 84.3317 11.192 84.2191 11.192H82.6661ZM84.9956 8.79488L85.5358 7.25872H88.4562L88.5575 8.79488H84.9956Z" fill="#7E869A"/>
<path d="M75.5826 11.192C75.47 11.192 75.425 11.1357 75.4475 11.0231L75.4644 10.9387C75.4644 10.86 75.4925 10.7812 75.5488 10.7024L80.0729 3.51118C80.2529 3.21858 80.4386 2.92597 80.6299 2.63337C80.8213 2.32952 81.0069 2.04254 81.187 1.77245V1.75557C80.9282 1.75557 80.6693 1.7612 80.4105 1.77245C80.1516 1.77245 79.8984 1.77245 79.6509 1.77245H77.4901C77.3551 1.77245 77.2988 1.70493 77.3213 1.56988L77.5239 0.320699C77.5464 0.196906 77.6139 0.13501 77.7264 0.13501H83.8204C83.933 0.13501 83.9836 0.191279 83.9723 0.303818L83.9555 0.405103C83.9442 0.438864 83.9273 0.478253 83.9048 0.523269C83.8936 0.557031 83.8767 0.590792 83.8542 0.624554L79.2457 7.91708C79.0769 8.19842 78.8968 8.47977 78.7055 8.76112C78.5142 9.03121 78.3341 9.29568 78.1653 9.55452V9.5714C78.4242 9.56014 78.683 9.55452 78.9419 9.55452C79.2007 9.55452 79.4539 9.55452 79.7015 9.55452H81.9973C82.1323 9.55452 82.1886 9.62204 82.1661 9.75709L81.9635 11.0063C81.9523 11.1301 81.8847 11.192 81.761 11.192H75.5826Z" fill="#7E869A"/>
<path d="M67.5389 11.192C67.4038 11.192 67.3475 11.1301 67.3701 11.0063L69.075 0.320699C69.0975 0.196906 69.1538 0.13501 69.2438 0.13501H71.1682C71.2808 0.13501 71.3483 0.196906 71.3708 0.320699L72.5187 6.00954C72.6087 6.4597 72.6931 6.92673 72.7719 7.41065C72.862 7.88331 72.9464 8.35035 73.0251 8.81176H73.0589C73.1039 8.32784 73.1602 7.79891 73.2277 7.22496C73.2952 6.63976 73.3628 6.11083 73.4303 5.63816L74.2743 0.320699C74.3081 0.196906 74.3756 0.13501 74.4769 0.13501H75.8274C75.9737 0.13501 76.0299 0.196906 75.9962 0.320699L74.3081 11.0063C74.2856 11.1301 74.2181 11.192 74.1055 11.192H72.2149C72.1023 11.192 72.0348 11.1301 72.0123 11.0063L70.9488 5.9589C70.8363 5.35119 70.7293 4.7491 70.6281 4.15265C70.5268 3.55619 70.4367 3.02726 70.358 2.56585H70.3242C70.2679 3.08353 70.2004 3.64622 70.1216 4.25393C70.0541 4.85039 69.9753 5.41871 69.8853 5.9589L69.0919 11.0063C69.0806 11.1301 69.0188 11.192 68.9062 11.192H67.5389Z" fill="#7E869A"/>
<path d="M62.2746 11.327C61.1154 11.327 60.2657 10.9894 59.7255 10.3142C59.1966 9.63896 59.0334 8.67675 59.236 7.42757L59.8437 3.59562C60.0463 2.3802 60.4627 1.47989 61.0929 0.894685C61.7231 0.298228 62.6122 0 63.7601 0C64.9417 0 65.797 0.337617 66.326 1.01285C66.8661 1.68808 67.0349 2.65029 66.8324 3.89947L66.2247 7.73142C66.0221 8.94684 65.6001 9.85278 64.9586 10.4492C64.3284 11.0344 63.4337 11.327 62.2746 11.327ZM62.4602 9.6896C63.0454 9.6896 63.4956 9.53205 63.8107 9.21694C64.1371 8.90183 64.3509 8.38415 64.4522 7.6639L65.0599 3.91635C65.1837 3.13984 65.1162 2.56589 64.8573 2.19451C64.6097 1.82313 64.1877 1.63744 63.5913 1.63744C63.0173 1.63744 62.5672 1.80062 62.2408 2.12699C61.9257 2.44209 61.7119 2.95977 61.5993 3.68002L61.0085 7.41069C60.8734 8.18721 60.9297 8.76116 61.1773 9.13253C61.4361 9.50391 61.8638 9.6896 62.4602 9.6896Z" fill="#7E869A"/>
<path d="M53.1135 11.327C52.1682 11.327 51.4592 10.9951 50.9865 10.3311C50.5139 9.65584 50.3788 8.69926 50.5814 7.46133L51.1891 3.6125C51.3804 2.37457 51.7912 1.46301 52.4214 0.877804C53.0516 0.292601 53.9294 0 55.0548 0C55.8313 0 56.4728 0.151928 56.9792 0.455783C57.4857 0.759638 57.8345 1.18166 58.0258 1.72185C58.2284 2.26203 58.2453 2.89225 58.0765 3.6125C58.0652 3.73629 58.0033 3.79819 57.8908 3.79819H56.4728C56.3378 3.79819 56.2871 3.73067 56.3209 3.59562C56.4447 2.98791 56.3828 2.50962 56.1352 2.16075C55.8989 1.81188 55.4881 1.63744 54.9029 1.63744C54.3289 1.63744 53.8844 1.795 53.5693 2.1101C53.2654 2.42521 53.0572 2.94852 52.9447 3.68002L52.3539 7.42757C52.2301 8.20409 52.2807 8.77804 52.5058 9.14941C52.7421 9.50954 53.1473 9.6896 53.7212 9.6896C54.3289 9.6896 54.8016 9.50391 55.1392 9.13253C55.4881 8.7499 55.7132 8.23785 55.8145 7.59638L55.9495 6.83674H54.3458C54.222 6.83674 54.1714 6.77484 54.1939 6.65105L54.3458 5.65508C54.3683 5.52003 54.4358 5.45251 54.5484 5.45251H57.6376C57.7839 5.45251 57.8402 5.52003 57.8064 5.65508L57.3168 8.74427C57.2381 9.26195 57.1762 9.70086 57.1312 10.061C57.0974 10.4099 57.0805 10.725 57.0805 11.0063C57.0805 11.1301 57.0186 11.192 56.8948 11.192H55.7807C55.6569 11.192 55.595 11.1301 55.595 11.0063C55.595 10.86 55.6006 10.6912 55.6119 10.4999C55.6344 10.3086 55.6625 10.1116 55.6963 9.90905H55.6794C55.3868 10.3705 55.0379 10.725 54.6328 10.9725C54.2277 11.2089 53.7212 11.327 53.1135 11.327Z" fill="#7E869A"/>
<path fill-rule="evenodd" clip-rule="evenodd" d="M31.8926 37.6553C31.3559 37.6553 30.8294 37.4721 30.4406 37.1359L26.364 33.6039C25.8479 33.1568 25.6451 32.4989 25.8336 31.8879L26.4014 30.054C26.5056 29.7158 26.3934 29.352 26.1079 29.104L19.622 23.4854C19.4431 23.3304 19.4431 23.0797 19.622 22.9247C19.8009 22.7696 20.0911 22.7697 20.27 22.9247L26.756 28.5433C27.272 28.9917 27.4747 29.649 27.2855 30.2593L26.7186 32.0931C26.6145 32.4314 26.7265 32.7952 27.012 33.0425L31.0888 36.5744C31.3741 36.8217 31.7931 36.9196 32.1827 36.8286L35.6337 36.0274L32.5636 33.369C32.0969 32.9639 31.84 32.4266 31.84 31.8562C31.8402 31.7542 31.8496 31.6481 31.8678 31.54C31.9466 31.0853 32.1867 30.6727 32.5628 30.3454C32.9381 30.0189 33.4152 29.8102 33.9424 29.742C34.7137 29.642 35.5032 29.8673 36.0543 30.3454L39.122 33.0045L40.0458 30.0155C40.1502 29.6772 40.0379 29.3142 39.7524 29.0668L35.6759 25.5349C35.3904 25.2875 34.9713 25.1897 34.5809 25.2807L32.4674 25.7711C31.7631 25.9351 31.0043 25.7588 30.4883 25.3117L24.0016 19.6923C23.8227 19.5373 23.8227 19.2859 24.0016 19.1309C24.1805 18.9759 24.4707 18.9759 24.6496 19.1309L31.1356 24.7509C31.4211 24.9982 31.8408 25.0954 32.2305 25.0044L34.3439 24.5139C35.0485 24.35 35.807 24.5264 36.323 24.9734L40.4006 28.5054C40.9166 28.9525 41.1193 29.6097 40.9308 30.2207L39.8041 33.8664C39.77 33.9862 39.6713 34.0889 39.5353 34.1371C39.3644 34.1991 39.1672 34.166 39.036 34.0524L35.4063 30.9062C35.0596 30.6058 34.5634 30.4639 34.0775 30.5266C33.7469 30.57 33.447 30.7009 33.2117 30.9055C32.9748 31.1115 32.8236 31.3712 32.7735 31.6564C32.7624 31.7253 32.756 31.7928 32.756 31.8562C32.7561 32.2151 32.9182 32.5533 33.2117 32.8083L36.8424 35.9523C36.9585 36.0523 37.0036 36.199 36.9607 36.3354C36.9186 36.4725 36.7953 36.5793 36.6371 36.6165L32.4205 37.5954C32.2464 37.6353 32.069 37.6553 31.8926 37.6553Z" fill="#7E869A" stroke="#7E869A"/>
<path fill-rule="evenodd" clip-rule="evenodd" d="M22.0572 17.8446C21.9404 17.8446 21.8234 17.8061 21.7336 17.7289L15.2477 12.1089C14.7309 11.6618 14.5281 11.0046 14.7173 10.3936L15.2828 8.56178C15.3869 8.22354 15.2747 7.86049 14.9892 7.61318L10.9127 4.08118C10.6264 3.83388 10.2065 3.73608 9.81687 3.82702L5.60185 4.80525C5.35782 4.86174 5.10646 4.73566 5.04128 4.52417C4.97533 4.31265 5.1208 4.09499 5.36488 4.03849L9.57998 3.06026C10.2836 2.89629 11.043 3.07265 11.5598 3.51977L15.6365 7.05172C16.1533 7.49882 16.3561 8.15602 16.1668 8.76708L15.6016 10.5989C15.4975 10.9371 15.6094 11.3008 15.8949 11.5475L22.3816 17.1675C22.5605 17.3225 22.5605 17.5739 22.3816 17.7289C22.2918 17.8061 22.1749 17.8447 22.0572 17.8446Z" fill="#7E869A" stroke="#7E869A"/>
<path fill-rule="evenodd" clip-rule="evenodd" d="M17.6768 21.6416C17.5599 21.6416 17.443 21.6023 17.3531 21.5251L10.8665 15.9044C10.5817 15.6571 10.1619 15.56 9.77148 15.6502L7.65641 16.1421C6.95209 16.3054 6.1926 16.1297 5.67574 15.6826L1.59994 12.1506C1.08398 11.7035 0.880273 11.0463 1.06954 10.4353L2.19875 6.78136C2.24077 6.64426 2.36398 6.53753 2.52225 6.50101C2.68055 6.4638 2.84902 6.50308 2.96431 6.60364L6.59586 9.74985C6.9417 10.0502 7.43774 10.1914 7.92277 10.1281C7.92604 10.1281 7.92915 10.1273 7.93231 10.1273C8.60589 10.0357 9.12501 9.58313 9.22678 8.99895C9.23886 8.93074 9.24431 8.86325 9.24431 8.79916C9.24439 8.44507 9.07892 8.09788 8.7895 7.84712L5.16856 4.70916C5.08018 4.63686 5.02531 4.5342 5.02531 4.42122C5.02546 4.20213 5.23045 4.02441 5.4833 4.02441C5.6051 4.02439 5.72184 4.06643 5.80773 4.14085L9.43761 7.28632C9.89723 7.68453 10.1603 8.23566 10.1603 8.79916C10.1604 8.90179 10.1516 9.00859 10.1332 9.11607C9.97037 10.0502 9.13696 10.7722 8.06036 10.9134C8.05647 10.9134 8.05157 10.9141 8.04763 10.9148C7.27875 11.0119 6.49473 10.7859 5.94765 10.3099L2.87768 7.65077L1.95454 10.6406C1.8497 10.9788 1.96245 11.3419 2.24789 11.5892L6.32305 15.1212C6.60928 15.3685 7.02986 15.4656 7.41867 15.3754L9.53387 14.8842C10.2407 14.7202 11 14.8959 11.5152 15.3437L18.0013 20.9637C18.1802 21.1187 18.18 21.3702 18.0011 21.5251C17.9113 21.6023 17.7944 21.6416 17.6768 21.6416Z" fill="#7E869A" stroke="#7E869A"/>
<path fill-rule="evenodd" clip-rule="evenodd" d="M17.6182 25.6179C17.5012 25.6179 17.3835 25.5793 17.2944 25.5022C17.1156 25.3471 17.1156 25.0957 17.2944 24.9407L33.0844 11.2606C33.14 11.2124 33.2091 11.1772 33.2854 11.1593L35.8148 10.5483L38.0905 6.24473C38.0937 6.23851 38.092 6.23237 38.0865 6.22751L37.2763 5.52556C37.2708 5.5207 37.2627 5.52004 37.2563 5.52211L32.2875 7.49302L31.5839 9.68509C31.5633 9.75122 31.5226 9.81116 31.4669 9.8594L15.6773 23.5388C15.4984 23.6938 15.208 23.6931 15.0292 23.5388C14.8504 23.3838 14.8502 23.1324 15.0292 22.9774L30.7339 9.37166L31.4623 7.10311C31.4989 6.99015 31.5902 6.89714 31.7134 6.84826L36.8756 4.80082C37.2294 4.66031 37.6507 4.72645 37.925 4.96551L38.7338 5.66609C39.0088 5.90372 39.0843 6.26889 38.9229 6.57477L36.5582 11.0464C36.5026 11.1531 36.3952 11.2324 36.2648 11.2634L33.6472 11.8958L17.9425 25.5022C17.8527 25.5793 17.7358 25.6179 17.6182 25.6179Z" fill="#7E869A" stroke="#7E869A"/>
<path fill-rule="evenodd" clip-rule="evenodd" d="M13.8384 22.5773C13.7892 22.5773 13.739 22.5939 13.7016 22.6262L4.42655 30.6622C3.81255 31.194 3.47463 31.9008 3.47463 32.6531C3.47478 33.4054 3.81255 34.1122 4.42637 34.644L4.47574 34.6868C5.08957 35.2186 5.90533 35.5114 6.77362 35.5114C7.64112 35.5114 8.4577 35.2186 9.07156 34.6868L18.3477 26.6514C18.4232 26.586 18.4232 26.4799 18.3476 26.4145L13.9753 22.6262C13.9379 22.5939 13.8877 22.5773 13.8384 22.5773ZM6.77374 36.305C5.66041 36.305 4.61398 35.9295 3.82762 35.2482L3.77835 35.2054C2.99207 34.5234 2.55859 33.6175 2.55859 32.6531C2.55875 31.6893 2.99192 30.7827 3.77831 30.1007L13.0537 22.0647C13.2635 21.8836 13.5418 21.7837 13.8383 21.7837C14.135 21.7837 14.4132 21.8836 14.6231 22.0647L18.995 25.853C19.4283 26.2277 19.4282 26.8381 18.9948 27.2129L9.71891 35.2481C8.93242 35.9294 7.88599 36.305 6.77374 36.305Z" fill="#7E869A" stroke="#7E869A"/>
<path fill-rule="evenodd" clip-rule="evenodd" d="M19.8682 19.7451C19.7505 19.7451 19.6335 19.7065 19.5437 19.6287L14.9018 15.6069C14.7229 15.4519 14.7228 15.2005 14.9017 15.0454C15.0807 14.8905 15.3708 14.8905 15.5497 15.0454L20.1919 19.0672C20.3708 19.2222 20.3706 19.4737 20.1917 19.6287C20.1019 19.7058 19.985 19.7451 19.8682 19.7451Z" fill="#7E869A" stroke="#7E869A"/>
<path fill-rule="evenodd" clip-rule="evenodd" d="M26.7733 25.7266C26.6565 25.7266 26.5387 25.6881 26.4497 25.6109L21.8085 21.5898C21.6296 21.4348 21.6296 21.1834 21.8085 21.0284C21.9874 20.8733 22.2776 20.8734 22.4565 21.0284L27.0977 25.0494C27.2759 25.2044 27.2758 25.4559 27.0977 25.6109C27.0079 25.688 26.891 25.7266 26.7733 25.7266Z" fill="#7E869A" stroke="#7E869A"/>
<path fill-rule="evenodd" clip-rule="evenodd" d="M5.45568 32.662C5.33797 32.662 5.22105 32.6235 5.1312 32.5457C4.95242 32.3906 4.9523 32.1399 5.1312 31.9849L13.066 25.1104C13.2449 24.9554 13.535 24.9554 13.7139 25.1104C13.8929 25.2654 13.8928 25.5169 13.7139 25.6718L5.77937 32.5456C5.68954 32.6235 5.57249 32.662 5.45568 32.662Z" fill="#7E869A" stroke="#7E869A"/>
<path fill-rule="evenodd" clip-rule="evenodd" d="M7.22127 34.1906C7.10358 34.1906 6.98669 34.1521 6.89684 34.0742C6.71803 33.9192 6.71793 33.6685 6.89684 33.5135L14.8323 26.6389C15.0112 26.484 15.3014 26.484 15.4803 26.6389C15.6593 26.794 15.6592 27.0454 15.4803 27.2004L7.54487 34.0742C7.45507 34.152 7.33815 34.1906 7.22127 34.1906Z" fill="#7E869A" stroke="#7E869A"/>
</svg>
