<svg width="99" height="72" viewBox="0 0 99 72" fill="none" xmlns="http://www.w3.org/2000/svg">
<path d="M74.6298 59.156C75.7125 59.6203 76.8981 59.3627 77.7746 58.589C78.5479 57.9191 82.2083 54.5676 83.6005 53.7425C85.3536 52.7117 86.6938 35.1308 86.6938 35.1822C86.7972 34.1509 86.4363 33.1197 85.7145 32.3979C78.6512 25.2317 78.2903 24.3037 69.8862 23.2725C67.5661 22.963 66.0196 23.0663 65.7101 23.5819C64.4212 25.644 70.2471 29.4078 74.836 29.4078C76.5886 29.4078 82.0021 35.1308 81.4865 36.4197C81.1256 37.2962 81.2803 42.9159 81.2289 49.1027L78.9088 50.2882C77.6199 50.9586 76.0215 52.1446 75.3516 53.0207C74.1656 54.5162 74.0623 54.5162 72.0516 53.3302C70.1442 52.1961 66.8442 52.2475 66.8442 53.4335C66.8442 54.4643 70.9175 57.7124 73.5985 58.7951L74.6298 59.156Z" fill="black"/>
<path d="M98.6039 15.3323C98.6553 13.734 97.9335 12.1875 96.696 11.2077C94.3759 9.40316 91.8496 9.19699 90.6121 10.6406C86.6941 15.3838 70.9172 13.6826 55.0894 6.77399C44.211 2.03039 31.6308 -0.0831375 20.8037 0.999562C-2.70633 3.31924 -0.282857 3.88679 1.98542 61.4759L4.51172 62.7648C6.98662 64.0537 7.19277 64.0537 14.2042 62.5072C25.3921 60.0323 43.6439 60.2385 54.2643 62.8681C63.8025 65.2397 65.7618 64.8274 61.8433 61.115C54.6252 54.3098 25.8564 50.3913 14.2042 54.6707C11.8326 55.5467 9.61624 56.2171 9.25534 56.2171C8.01789 56.2171 10.3376 40.6983 9.15154 8.57804C9.20344 8.57804 33.5386 1.72136 51.6352 10.9501C61.4309 15.9508 73.3922 19.1989 82.3633 19.2508H91.0763C91.0763 61.1664 91.4372 65.5492 89.9422 65.5492C89.2719 65.5492 85.1986 65.0849 80.8682 64.5179C72.4642 63.4352 71.2781 63.6413 72.9798 66.0648C74.6296 68.3845 84.9924 70.9108 91.4887 71.2203C97.4693 71.5298 96.7475 70.6532 97.0055 66.9928C97.2631 62.5072 97.0055 66.0648 98.6039 15.3323Z" fill="black"/>
<path d="M19.9275 19.4058C21.5254 18.993 24.2584 16.6733 24.7221 15.3325C24.9283 14.6626 26.8356 14.714 32.7134 15.3844C47.2528 17.0856 40.5499 11.0536 37.766 10.2799C34.5179 9.35195 29.4653 9.71285 23.6913 10.5894C22.6081 10.7441 21.3192 11.5688 20.8555 12.4453C20.3913 13.3219 18.0197 14.7655 16.3699 16.4667C11.8844 20.9522 11.4202 43.3796 15.751 44.05C19.3081 44.5656 20.4946 45.0294 22.2991 46.731C24.5159 48.7417 24.7735 48.5355 39.4672 48.5355C41.4779 48.5355 42.5606 43.5858 29.929 43.0706C24.7221 42.8639 23.588 42.5549 21.7316 41.008C20.546 40.0286 19.2572 39.2035 18.8963 39.2035C17.2979 39.2035 18.3292 19.7667 19.9275 19.4058Z" fill="black"/>
<path d="M50.6551 47.1948C51.2222 46.473 51.6345 43.6891 51.6345 43.4315C51.6345 43.1734 53.1814 43.2767 54.8831 42.8125C61.1727 41.1113 61.0184 33.481 54.625 29.8719C52.8724 28.8921 46.479 28.5312 47.3555 24.6127C47.974 21.7259 50.1394 22.7053 52.4596 23.8394C54.0579 24.5613 55.4501 25.3864 56.8419 26.1082C59.3167 27.397 59.2653 24.0975 57.6155 22.7053C56.5842 21.8288 55.0892 20.9522 53.5942 20.2818C53.2847 20.1276 53.9032 18.6321 53.3876 17.5494C52.3048 15.3325 49.2115 14.3531 49.2115 16.2605C49.2115 16.5186 48.7472 18.5807 48.7472 18.5807C48.6958 18.5807 43.2309 16.0543 41.1688 22.1383C40.1375 25.1802 41.4264 29.6139 45.293 30.7999C48.3868 31.7793 54.0065 32.7592 53.5942 35.9554C53.0266 40.3895 45.4991 37.3476 45.4477 37.3476C40.0856 36.0068 36.4256 37.7599 42.7671 40.5957C43.8498 41.1113 46.2728 41.7298 46.7885 42.194C47.3041 42.6578 46.7366 45.5969 46.7366 46.1121C46.8399 48.3808 49.4176 48.8964 50.6551 47.1948Z" fill="black"/>
</svg>
