<svg width="151" height="40" viewBox="0 0 151 40" fill="none" xmlns="http://www.w3.org/2000/svg">
<path d="M8.41288 7.76574L9.77188 7.24802L11.0015 7.76574V14.2372H8.41288V7.76574Z" fill="#7E869A"/>
<path d="M23.9443 14.2372H21.3558V7.76573L22.5853 6.98916L23.9443 7.76573L23.9443 14.2372Z" fill="#7E869A"/>
<path d="M23.9443 27.1801H21.3558V18.12H23.9443L23.9443 27.1801Z" fill="#7E869A"/>
<path d="M11.0015 27.1801H8.41288L8.41288 18.12H11.0015L11.0015 27.1801Z" fill="#7E869A"/>
<path d="M17.4729 20.7086H14.8843L14.8843 11.6486H17.4729L17.4729 20.7086Z" fill="#7E869A"/>
<path d="M17.4729 31.0629L16.1786 31.5806L14.8843 31.0629L14.8843 24.5915H17.4729L17.4729 31.0629Z" fill="#7E869A"/>
<path d="M30.4158 31.0629L29.1862 31.6454L27.8272 31.0629V24.5915H30.4158L30.4158 31.0629Z" fill="#7E869A"/>
<path d="M30.4158 20.7086H27.8272V11.6486H30.4158L30.4158 20.7086Z" fill="#7E869A"/>
<path d="M11.6486 11.0015V8.41288L20.7086 8.41288L20.7086 11.0015L11.6486 11.0015Z" fill="#7E869A"/>
<path d="M11.6486 23.9443V21.3558L20.7086 21.3558L20.7086 23.9443L11.6486 23.9443Z" fill="#7E869A"/>
<path d="M18.12 17.4729L18.12 14.8843L27.1801 14.8843V17.4729L18.12 17.4729Z" fill="#7E869A"/>
<path d="M18.12 30.4158L18.12 27.8272L27.1801 27.8272V30.4158L18.12 30.4158Z" fill="#7E869A"/>
<path d="M7.76575 30.4158L7.05389 29.0568L7.76575 27.8272L14.2372 27.8272L14.2372 30.4158H7.76575Z" fill="#7E869A"/>
<path d="M24.5915 11.0015L24.5915 8.41288L31.0629 8.41288L31.7101 9.64245L31.0629 11.0015L24.5915 11.0015Z" fill="#7E869A"/>
<path d="M7.76575 17.4729L7.37746 16.1786L7.76575 14.8843L14.2372 14.8843L14.2372 17.4729H7.76575Z" fill="#7E869A"/>
<path d="M24.5915 23.9443L24.5915 21.3558L31.0629 21.3558L31.8395 22.6501L31.0629 23.9443H24.5915Z" fill="#7E869A"/>
<path d="M18.6057 0.386828C17.8421 0.1358 17.0262 0 16.1786 0C11.8897 0 8.41288 3.47684 8.41288 7.76574H11.0015C11.0015 4.96075 13.232 2.67678 16.0162 2.59107C16.7184 1.69209 17.5994 0.939526 18.6057 0.386828Z" fill="#7E869A"/>
<path d="M19.4141 3.72408C18.6865 3.14082 17.7981 2.74997 16.8259 2.62867C17.5403 1.81929 18.4209 1.15998 19.4142 0.704101C20.4075 1.15998 21.2881 1.81927 22.0026 2.62865C21.0303 2.74992 20.1418 3.14078 19.4141 3.72408Z" fill="#7E869A"/>
<path d="M19.8993 4.16605C20.8008 5.0977 21.3558 6.36694 21.3558 7.76573H23.9443C23.9443 6.07639 23.4049 4.51304 22.4889 3.23853C21.5166 3.27247 20.6222 3.61284 19.8993 4.16605Z" fill="#7E869A"/>
<path fill-rule="evenodd" clip-rule="evenodd" d="M30.4158 7.76573H27.8272C27.8272 4.90647 25.5093 2.58858 22.6501 2.58858C19.7908 2.58858 17.4729 4.90647 17.4729 7.76573H14.8843C14.8843 3.47684 18.3612 0 22.6501 0C26.9389 0 30.4158 3.47684 30.4158 7.76573Z" fill="#7E869A"/>
<path d="M38.4418 18.6058C38.6928 17.8422 38.8287 17.0263 38.8287 16.1786C38.8287 11.8897 35.3518 8.4129 31.0629 8.41288V11.0015C33.8679 11.0015 36.1519 13.2322 36.2376 16.0164C37.1366 16.7186 37.8891 17.5996 38.4418 18.6058Z" fill="#7E869A"/>
<path d="M35.1046 19.4144C35.6879 18.6868 36.0787 17.7983 36.2 16.8261C37.0094 17.5405 37.6686 18.421 38.1245 19.4143C37.6687 20.4076 37.0094 21.2881 36.2 22.0025C36.0787 21.0304 35.6879 20.1419 35.1046 19.4144Z" fill="#7E869A"/>
<path d="M34.6627 19.8996C33.731 20.8011 32.4617 21.3558 31.0629 21.3558V23.9443C32.7523 23.9443 34.3157 23.4049 35.5902 22.4889C35.5562 21.5167 35.2158 20.6224 34.6627 19.8996Z" fill="#7E869A"/>
<path fill-rule="evenodd" clip-rule="evenodd" d="M31.0629 30.4158V27.8272C33.9222 27.8272 36.2401 25.5093 36.2401 22.6501C36.2401 19.7908 33.9222 17.4729 31.0629 17.4729V14.8843C35.3518 14.8843 38.8287 18.3612 38.8287 22.6501C38.8287 26.9389 35.3518 30.4158 31.0629 30.4158Z" fill="#7E869A"/>
<path d="M20.2227 38.4418C20.9864 38.6928 21.8023 38.8287 22.6501 38.8287C26.9389 38.8287 30.4158 35.3518 30.4158 31.0629L27.8272 31.0629C27.8272 33.8679 25.5963 36.1519 22.8121 36.2376C22.1099 37.1366 21.2289 37.8891 20.2227 38.4418Z" fill="#7E869A"/>
<path d="M19.4141 35.1046C20.1417 35.6879 21.0302 36.0787 22.0024 36.2C21.2879 37.0093 20.4075 37.6686 19.4143 38.1245C18.421 37.6686 17.5405 37.0093 16.8261 36.2C17.7982 36.0787 18.6866 35.6878 19.4141 35.1046Z" fill="#7E869A"/>
<path d="M18.9289 34.6627C18.0274 33.731 17.4729 32.4617 17.4729 31.0629L14.8843 31.0629C14.8843 32.7523 15.4238 34.3157 16.3398 35.5902C17.3119 35.5561 18.2061 35.2158 18.9289 34.6627Z" fill="#7E869A"/>
<path fill-rule="evenodd" clip-rule="evenodd" d="M8.41288 31.0629H11.0015C11.0015 33.9222 13.3193 36.2401 16.1786 36.2401C19.0379 36.2401 21.3558 33.9222 21.3558 31.0629L23.9443 31.0629C23.9443 35.3518 20.4675 38.8287 16.1786 38.8287C11.8897 38.8287 8.41288 35.3518 8.41288 31.0629Z" fill="#7E869A"/>
<path d="M0.386868 20.2228C0.135815 20.9864 1.11158e-07 21.8024 0 22.6501C-5.62421e-07 26.9389 3.47685 30.4158 7.76575 30.4158L7.76575 27.8272C4.96076 27.8272 2.67677 25.5965 2.59107 22.8123C1.69211 22.1101 0.939562 21.2291 0.386868 20.2228Z" fill="#7E869A"/>
<path d="M3.72408 19.4143C3.14082 20.1419 2.74997 21.0304 2.62867 22.0026C1.81931 21.2882 1.16003 20.4076 0.704146 19.4143C1.16003 18.4211 1.81931 17.5405 2.62867 16.8261C2.74996 17.7983 3.14082 18.6868 3.72408 19.4143Z" fill="#7E869A"/>
<path d="M4.16605 18.9291C5.0977 18.0277 6.36695 17.4729 7.76575 17.4729V14.8843C6.07641 14.8843 4.51305 15.4237 3.23853 16.3397C3.27252 17.312 3.61288 18.2063 4.16605 18.9291Z" fill="#7E869A"/>
<path fill-rule="evenodd" clip-rule="evenodd" d="M7.76573 8.41288L7.76573 11.0015C4.90647 11.0015 2.58858 13.3193 2.58858 16.1786C2.58858 19.0379 4.90647 21.3558 7.76573 21.3558V23.9443C3.47684 23.9443 -5.62421e-07 20.4675 0 16.1786C5.62421e-07 11.8897 3.47684 8.41288 7.76573 8.41288Z" fill="#7E869A"/>
<path d="M144.979 40C144.19 40 143.458 39.8705 142.785 39.6117C142.112 39.3528 141.53 38.9904 141.038 38.5245C140.559 38.0715 140.21 37.5343 139.99 36.9131L142.358 36.02C142.514 36.5118 142.818 36.9066 143.271 37.2043C143.737 37.5149 144.306 37.6702 144.979 37.6702C145.497 37.6702 145.95 37.5732 146.338 37.379C146.739 37.1849 147.05 36.9001 147.27 36.5248C147.49 36.1624 147.6 35.7223 147.6 35.2046V32.7972L148.086 33.3797C147.723 34.0139 147.238 34.4928 146.629 34.8163C146.021 35.1399 145.329 35.3017 144.552 35.3017C143.568 35.3017 142.688 35.0752 141.912 34.6222C141.135 34.1692 140.527 33.5479 140.087 32.7584C139.647 31.9689 139.427 31.0823 139.427 30.0986C139.427 29.102 139.647 28.2155 140.087 27.4389C140.527 26.6623 141.129 26.054 141.892 25.6139C142.656 25.1609 143.523 24.9344 144.494 24.9344C145.283 24.9344 145.976 25.1027 146.571 25.4392C147.18 25.7628 147.684 26.2352 148.086 26.8565L147.736 27.4971V25.1674H150.143V35.2046C150.143 36.1236 149.917 36.9454 149.464 37.6702C149.024 38.395 148.416 38.9645 147.639 39.3787C146.875 39.7929 145.989 40 144.979 40ZM144.863 32.9526C145.406 32.9526 145.879 32.8361 146.28 32.6031C146.694 32.3572 147.018 32.0207 147.251 31.5935C147.484 31.1664 147.6 30.6746 147.6 30.1181C147.6 29.5745 147.477 29.0891 147.231 28.662C146.998 28.2219 146.675 27.8789 146.261 27.633C145.859 27.3871 145.393 27.2642 144.863 27.2642C144.332 27.2642 143.853 27.3871 143.426 27.633C142.999 27.8789 142.662 28.2219 142.417 28.662C142.184 29.0891 142.067 29.5745 142.067 30.1181C142.067 30.6617 142.184 31.147 142.417 31.5741C142.662 32.0012 142.993 32.3378 143.407 32.5837C143.834 32.8296 144.319 32.9526 144.863 32.9526Z" fill="#7E869A"/>
<path d="M128.151 35.7288V25.1674H130.539V27.2447L130.345 26.8759C130.591 26.2417 130.992 25.7628 131.549 25.4392C132.118 25.1027 132.779 24.9344 133.529 24.9344C134.306 24.9344 134.992 25.1027 135.587 25.4392C136.195 25.7757 136.668 26.2481 137.004 26.8565C137.341 27.4518 137.509 28.1443 137.509 28.9338V35.7288H134.966V29.5356C134.966 29.0697 134.875 28.6685 134.694 28.3319C134.513 27.9954 134.261 27.7366 133.937 27.5554C133.626 27.3612 133.257 27.2642 132.83 27.2642C132.416 27.2642 132.047 27.3612 131.724 27.5554C131.4 27.7366 131.148 27.9954 130.967 28.3319C130.785 28.6685 130.695 29.0697 130.695 29.5356V35.7288H128.151Z" fill="#7E869A"/>
<path d="M122.872 35.7288V25.1674H125.415V35.7288H122.872ZM122.872 23.9831V21.2651H125.415V23.9831H122.872Z" fill="#7E869A"/>
<path d="M119.278 35.8453C118.088 35.8453 117.162 35.5217 116.502 34.8745C115.855 34.2145 115.531 33.289 115.531 32.0983V27.4389H113.706V25.1674H113.901C114.418 25.1674 114.82 25.0315 115.104 24.7597C115.389 24.4879 115.531 24.0931 115.531 23.5754V22.76H118.075V25.1674H120.501V27.4389H118.075V31.9624C118.075 32.3119 118.133 32.6095 118.249 32.8555C118.379 33.1014 118.573 33.289 118.832 33.4185C119.104 33.5479 119.447 33.6126 119.861 33.6126C119.951 33.6126 120.055 33.6061 120.171 33.5932C120.301 33.5803 120.424 33.5673 120.54 33.5544V35.7288C120.359 35.7547 120.152 35.7805 119.919 35.8064C119.686 35.8323 119.473 35.8453 119.278 35.8453Z" fill="#7E869A"/>
<path d="M109.184 35.7288V21.0321H111.727V35.7288H109.184Z" fill="#7E869A"/>
<path d="M101.054 35.9618C100.238 35.9618 99.5264 35.7806 98.9181 35.4182C98.3227 35.0558 97.8632 34.551 97.5396 33.9038C97.229 33.2567 97.0737 32.4995 97.0737 31.6324V25.1674H99.617V31.4188C99.617 31.8589 99.7011 32.2472 99.8694 32.5837C100.051 32.9072 100.303 33.1661 100.627 33.3602C100.963 33.5414 101.338 33.632 101.753 33.632C102.167 33.632 102.536 33.5414 102.859 33.3602C103.183 33.1661 103.435 32.9008 103.616 32.5643C103.798 32.2277 103.888 31.8265 103.888 31.3606V25.1674H106.431V35.7288H104.024V33.6515L104.238 34.0203C103.992 34.6675 103.584 35.1528 103.014 35.4764C102.458 35.8 101.804 35.9618 101.054 35.9618Z" fill="#7E869A"/>
<path d="M90.9451 35.9618C89.8191 35.9618 88.8354 35.6964 87.9942 35.1658C87.1658 34.6222 86.5963 33.8909 86.2857 32.972L88.1883 32.0595C88.4601 32.6549 88.8354 33.1208 89.3143 33.4573C89.8062 33.7938 90.3498 33.9621 90.9451 33.9621C91.4111 33.9621 91.78 33.8586 92.0518 33.6515C92.3236 33.4444 92.4595 33.1726 92.4595 32.8361C92.4595 32.629 92.4012 32.4607 92.2847 32.3313C92.1812 32.1889 92.0323 32.0724 91.8382 31.9818C91.657 31.8783 91.4564 31.7942 91.2364 31.7294L89.5085 31.2441C88.6154 30.9852 87.9359 30.5905 87.47 30.0598C87.017 29.5292 86.7905 28.9014 86.7905 28.1766C86.7905 27.5295 86.9523 26.9665 87.2758 26.4876C87.6123 25.9958 88.0718 25.6139 88.6543 25.3421C89.2496 25.0703 89.9291 24.9344 90.6927 24.9344C91.6894 24.9344 92.5695 25.1739 93.3331 25.6528C94.0967 26.1317 94.6403 26.8047 94.9639 27.6719L93.0225 28.5843C92.8413 28.1054 92.5371 27.7236 92.11 27.4389C91.6829 27.1541 91.204 27.0118 90.6733 27.0118C90.2462 27.0118 89.9097 27.1088 89.6638 27.303C89.4179 27.4971 89.2949 27.7495 89.2949 28.0601C89.2949 28.2543 89.3467 28.4225 89.4502 28.5649C89.5538 28.7073 89.6962 28.8238 89.8773 28.9144C90.0715 29.005 90.2915 29.0891 90.5374 29.1668L92.2265 29.6715C93.0937 29.9304 93.7602 30.3187 94.2262 30.8364C94.705 31.3541 94.9445 31.9883 94.9445 32.739C94.9445 33.3732 94.7762 33.9362 94.4397 34.428C94.1032 34.9069 93.6373 35.2823 93.0419 35.5541C92.4465 35.8259 91.7476 35.9618 90.9451 35.9618Z" fill="#7E869A"/>
<path d="M75.0297 35.7288V25.1674H77.4177V27.2447L77.2235 26.8759C77.4695 26.2417 77.8707 25.7628 78.4272 25.4392C78.9967 25.1027 79.6568 24.9344 80.4075 24.9344C81.1841 24.9344 81.87 25.1027 82.4654 25.4392C83.0737 25.7757 83.5461 26.2481 83.8827 26.8565C84.2192 27.4518 84.3874 28.1443 84.3874 28.9338V35.7288H81.8441V29.5356C81.8441 29.0697 81.7535 28.6685 81.5723 28.3319C81.3911 27.9954 81.1388 27.7366 80.8152 27.5554C80.5046 27.3612 80.1357 27.2642 79.7086 27.2642C79.2944 27.2642 78.9255 27.3612 78.602 27.5554C78.2784 27.7366 78.026 27.9954 77.8448 28.3319C77.6636 28.6685 77.573 29.0697 77.573 29.5356V35.7288H75.0297Z" fill="#7E869A"/>
<path d="M67.335 35.9618C66.2996 35.9618 65.3547 35.7223 64.5005 35.2434C63.6592 34.7646 62.9862 34.1109 62.4814 33.2826C61.9896 32.4543 61.7437 31.5094 61.7437 30.4481C61.7437 29.3868 61.9896 28.442 62.4814 27.6136C62.9862 26.7853 63.6592 26.1317 64.5005 25.6528C65.3418 25.1739 66.2866 24.9344 67.335 24.9344C68.3704 24.9344 69.3088 25.1739 70.1501 25.6528C70.9914 26.1317 71.6579 26.7853 72.1497 27.6136C72.6545 28.429 72.9069 29.3738 72.9069 30.4481C72.9069 31.5094 72.6545 32.4543 72.1497 33.2826C71.645 34.1109 70.9719 34.7646 70.1307 35.2434C69.2894 35.7223 68.3575 35.9618 67.335 35.9618ZM67.335 33.6321C67.9045 33.6321 68.4028 33.4962 68.8299 33.2244C69.27 32.9526 69.6129 32.5772 69.8589 32.0983C70.1177 31.6065 70.2471 31.0564 70.2471 30.4481C70.2471 29.8268 70.1177 29.2832 69.8589 28.8173C69.6129 28.3384 69.27 27.9631 68.8299 27.6913C68.4028 27.4065 67.9045 27.2642 67.335 27.2642C66.7526 27.2642 66.2413 27.4065 65.8013 27.6913C65.3612 27.9631 65.0117 28.3384 64.7529 28.8173C64.507 29.2832 64.384 29.8268 64.384 30.4481C64.384 31.0564 64.507 31.6065 64.7529 32.0983C65.0117 32.5772 65.3612 32.9526 65.8013 33.2244C66.2413 33.4962 66.7526 33.6321 67.335 33.6321Z" fill="#7E869A"/>
<path d="M54.1401 35.9618C53.1047 35.9618 52.1469 35.7741 51.2668 35.3987C50.3996 35.0234 49.636 34.4992 48.9759 33.8262C48.3287 33.1531 47.824 32.3636 47.4616 31.4576C47.0992 30.5516 46.918 29.5615 46.918 28.4872C46.918 27.413 47.0927 26.4228 47.4421 25.5168C47.8045 24.5979 48.3093 23.8084 48.9565 23.1483C49.6166 22.4753 50.3867 21.9575 51.2668 21.5951C52.1469 21.2198 53.1047 21.0321 54.1401 21.0321C55.1755 21.0321 56.1009 21.2069 56.9163 21.5563C57.7447 21.9058 58.4436 22.3717 59.0131 22.9542C59.5826 23.5236 59.9903 24.1514 60.2362 24.8373L57.8676 25.944C57.5958 25.2192 57.1364 24.6238 56.4892 24.1578C55.8421 23.679 55.059 23.4395 54.1401 23.4395C53.2341 23.4395 52.4316 23.6531 51.7327 24.0802C51.0467 24.5073 50.5096 25.0962 50.1213 25.8469C49.746 26.5976 49.5583 27.4777 49.5583 28.4872C49.5583 29.4968 49.746 30.3834 50.1213 31.147C50.5096 31.8977 51.0467 32.4866 51.7327 32.9137C52.4316 33.3408 53.2341 33.5544 54.1401 33.5544C55.059 33.5544 55.8421 33.3214 56.4892 32.8555C57.1364 32.3766 57.5958 31.7747 57.8676 31.0499L60.2362 32.1565C59.9903 32.8425 59.5826 33.4767 59.0131 34.0591C58.4436 34.6286 57.7447 35.0881 56.9163 35.4376C56.1009 35.787 55.1755 35.9618 54.1401 35.9618Z" fill="#7E869A"/>
<path d="M127.949 16.5474C126.862 16.5474 125.91 16.3015 125.095 15.8097C124.28 15.3179 123.645 14.6513 123.192 13.81C122.739 12.9687 122.513 12.0368 122.513 11.0144C122.513 9.95304 122.739 9.01468 123.192 8.19928C123.658 7.37093 124.286 6.71732 125.076 6.23843C125.878 5.75954 126.771 5.5201 127.755 5.5201C128.583 5.5201 129.308 5.656 129.929 5.9278C130.563 6.1996 131.1 6.57495 131.54 7.05383C131.981 7.53272 132.317 8.08279 132.55 8.70405C132.783 9.31237 132.899 9.97246 132.899 10.6843C132.899 10.8655 132.887 11.0532 132.861 11.2473C132.848 11.4415 132.815 11.6097 132.764 11.7521H124.61V9.81067H131.327L130.123 10.7231C130.24 10.1278 130.207 9.59711 130.026 9.13117C129.858 8.66522 129.573 8.29635 129.172 8.02455C128.784 7.75275 128.311 7.61685 127.755 7.61685C127.224 7.61685 126.752 7.75275 126.337 8.02455C125.923 8.28341 125.606 8.6717 125.386 9.18941C125.179 9.69418 125.101 10.309 125.153 11.0338C125.101 11.6809 125.186 12.2569 125.406 12.7616C125.639 13.2535 125.975 13.6353 126.415 13.9071C126.868 14.1789 127.386 14.3148 127.968 14.3148C128.551 14.3148 129.043 14.1918 129.444 13.9459C129.858 13.7 130.181 13.37 130.414 12.9558L132.472 13.9653C132.265 14.4701 131.942 14.9166 131.502 15.3049C131.062 15.6932 130.537 15.9974 129.929 16.2174C129.334 16.4374 128.674 16.5474 127.949 16.5474Z" fill="#7E869A"/>
<path d="M115.826 16.5474C114.778 16.5474 113.833 16.308 112.992 15.8291C112.164 15.3373 111.51 14.6772 111.031 13.8489C110.552 13.0076 110.313 12.0627 110.313 11.0144C110.313 9.96598 110.552 9.02763 111.031 8.19928C111.51 7.37093 112.164 6.71732 112.992 6.23843C113.833 5.75954 114.778 5.5201 115.826 5.5201C116.577 5.5201 117.276 5.656 117.923 5.9278C118.57 6.18666 119.127 6.54906 119.593 7.01501C120.072 7.46801 120.415 8.01161 120.622 8.64581L118.389 9.61653C118.195 9.08587 117.865 8.65875 117.399 8.33518C116.946 8.01161 116.422 7.84982 115.826 7.84982C115.27 7.84982 114.772 7.98572 114.332 8.25752C113.904 8.52932 113.568 8.90467 113.322 9.38355C113.076 9.86244 112.953 10.4125 112.953 11.0338C112.953 11.655 113.076 12.2051 113.322 12.684C113.568 13.1629 113.904 13.5382 114.332 13.81C114.772 14.0818 115.27 14.2177 115.826 14.2177C116.435 14.2177 116.965 14.0559 117.418 13.7324C117.871 13.4088 118.195 12.9752 118.389 12.4316L120.622 13.4411C120.415 14.0365 120.078 14.5737 119.612 15.0525C119.146 15.5185 118.59 15.8874 117.943 16.1592C117.296 16.418 116.59 16.5474 115.826 16.5474Z" fill="#7E869A"/>
<path d="M102.487 16.5474C101.75 16.5474 101.109 16.4245 100.565 16.1786C100.022 15.9327 99.6011 15.5832 99.3034 15.1302C99.0058 14.6643 98.8569 14.1271 98.8569 13.5188C98.8569 12.9364 98.9863 12.4187 99.2452 11.9657C99.504 11.4997 99.9053 11.1114 100.449 10.8008C100.992 10.4902 101.678 10.2701 102.507 10.1407L105.963 9.5777V11.5191L102.992 12.0239C102.487 12.1145 102.112 12.2763 101.866 12.5093C101.62 12.7422 101.497 13.0464 101.497 13.4217C101.497 13.7841 101.633 14.0754 101.905 14.2954C102.19 14.5025 102.539 14.606 102.953 14.606C103.484 14.606 103.95 14.496 104.351 14.276C104.765 14.043 105.082 13.7259 105.302 13.3247C105.535 12.9234 105.652 12.4834 105.652 12.0045V9.28648C105.652 8.83348 105.471 8.45814 105.108 8.16045C104.759 7.84982 104.293 7.69451 103.71 7.69451C103.167 7.69451 102.682 7.84335 102.254 8.14104C101.84 8.42578 101.536 8.8076 101.342 9.28648L99.2646 8.27694C99.4717 7.72039 99.7953 7.24151 100.235 6.84028C100.688 6.4261 101.219 6.10253 101.827 5.86956C102.436 5.63659 103.096 5.5201 103.808 5.5201C104.675 5.5201 105.438 5.68189 106.098 6.00546C106.759 6.31609 107.27 6.75615 107.632 7.32563C108.008 7.88218 108.195 8.53579 108.195 9.28648V16.3145H105.788V14.5089L106.331 14.4701C106.06 14.9231 105.736 15.3049 105.361 15.6156C104.985 15.9132 104.558 16.1462 104.079 16.3145C103.6 16.4698 103.07 16.5474 102.487 16.5474Z" fill="#7E869A"/>
<path d="M94.0042 16.3145V1.6178H96.5475V16.3145H94.0042Z" fill="#7E869A"/>
<path d="M86.3546 16.3145V5.75307H88.7425V8.1022L88.5484 7.75274C88.7943 6.96323 89.1761 6.41316 89.6938 6.10253C90.2245 5.7919 90.8587 5.63658 91.5965 5.63658H92.2177V7.88865H91.3052C90.5804 7.88865 89.998 8.11515 89.5579 8.56815C89.1179 9.00821 88.8979 9.62946 88.8979 10.4319V16.3145H86.3546Z" fill="#7E869A"/>
<path d="M79.0877 16.5474C78.0005 16.5474 77.0492 16.3015 76.2338 15.8097C75.4184 15.3179 74.7842 14.6513 74.3312 13.81C73.8782 12.9687 73.6517 12.0368 73.6517 11.0144C73.6517 9.95304 73.8782 9.01468 74.3312 8.19928C74.7971 7.37093 75.4249 6.71732 76.2144 6.23843C77.0168 5.75954 77.9099 5.5201 78.8936 5.5201C79.7219 5.5201 80.4467 5.656 81.068 5.9278C81.7022 6.1996 82.2393 6.57495 82.6794 7.05383C83.1194 7.53272 83.4559 8.08279 83.6889 8.70405C83.9219 9.31237 84.0384 9.97246 84.0384 10.6843C84.0384 10.8655 84.0254 11.0532 83.9995 11.2473C83.9866 11.4415 83.9542 11.6097 83.9025 11.7521H75.7484V9.81067H82.4658L81.2621 10.7231C81.3786 10.1278 81.3462 9.59711 81.165 9.13117C80.9968 8.66522 80.712 8.29635 80.3108 8.02455C79.9225 7.75275 79.4501 7.61685 78.8936 7.61685C78.3629 7.61685 77.8905 7.75275 77.4763 8.02455C77.0621 8.28341 76.745 8.6717 76.525 9.18941C76.3179 9.69418 76.2403 10.309 76.292 11.0338C76.2403 11.6809 76.3244 12.2569 76.5444 12.7616C76.7774 13.2535 77.1139 13.6353 77.554 13.9071C78.007 14.1789 78.5247 14.3148 79.1071 14.3148C79.6895 14.3148 80.1814 14.1918 80.5826 13.9459C80.9968 13.7 81.3204 13.37 81.5533 12.9558L83.6112 13.9653C83.4042 14.4701 83.0806 14.9166 82.6405 15.3049C82.2005 15.6932 81.6763 15.9974 81.068 16.2174C80.4726 16.4374 79.8125 16.5474 79.0877 16.5474Z" fill="#7E869A"/>
<path d="M70.7744 16.4309C69.5836 16.4309 68.6582 16.1074 67.9981 15.4602C67.351 14.8001 67.0274 13.8747 67.0274 12.684V8.02452H65.2025V5.75304H65.3966C65.9143 5.75304 66.3156 5.61714 66.6003 5.34534C66.885 5.07354 67.0274 4.67878 67.0274 4.16107V3.34567H69.5707V5.75304H71.9975V8.02452H69.5707V12.5481C69.5707 12.8975 69.6289 13.1952 69.7454 13.4411C69.8749 13.687 70.069 13.8747 70.3279 14.0041C70.5997 14.1336 70.9426 14.1983 71.3568 14.1983C71.4474 14.1983 71.551 14.1918 71.6674 14.1789C71.7969 14.1659 71.9198 14.153 72.0363 14.14V16.3144C71.8551 16.3403 71.648 16.3662 71.4151 16.3921C71.1821 16.418 70.9685 16.4309 70.7744 16.4309Z" fill="#7E869A"/>
<path d="M54.063 16.3145V5.75307H56.451V7.83041L56.2568 7.46153C56.5027 6.82733 56.904 6.34845 57.4605 6.02487C58.03 5.68836 58.6901 5.5201 59.4408 5.5201C60.2174 5.5201 60.9033 5.68836 61.4987 6.02487C62.107 6.36139 62.5794 6.83381 62.9159 7.44212C63.2525 8.03749 63.4207 8.72994 63.4207 9.51945V16.3145H60.8774V10.1213C60.8774 9.65535 60.7868 9.25413 60.6056 8.91761C60.4244 8.58109 60.1721 8.32224 59.8485 8.14104C59.5379 7.94689 59.169 7.84982 58.7419 7.84982C58.3277 7.84982 57.9588 7.94689 57.6353 8.14104C57.3117 8.32224 57.0593 8.58109 56.8781 8.91761C56.6969 9.25413 56.6063 9.65535 56.6063 10.1213V16.3145H54.063Z" fill="#7E869A"/>
<path d="M48.466 16.3144V1.85076H51.1063V16.3144H48.466Z" fill="#7E869A"/>
</svg>
