<svg width="643" height="742" viewBox="0 0 643 742" fill="none" xmlns="http://www.w3.org/2000/svg">
<path d="M479.211 88.444C474.656 87.2294 462.132 84.8004 448.469 84.8004C434.806 84.8004 423.04 87.2294 418.865 88.444V75.464M479.211 88.444C478.148 73.7182 475.34 36.7519 474.429 27.6431C473.396 17.3142 470.114 15.9805 453.023 15.8219M479.211 88.444C498.111 104.536 535.913 146.694 535.913 186.591C535.913 191.828 498.34 197.521 448.469 197.521C421.618 197.521 396.469 196.86 381.976 194.683M418.865 75.464C420.004 74.7049 422.281 70.8185 422.281 61.3454C422.281 57.4742 420.232 54.2861 417.954 54.2861M418.865 75.464C416.133 76.1962 415.45 75.0086 415.45 71.3651C415.45 70.9255 415.45 70.2965 415.45 69.5434M417.954 54.2861C415.45 54.2861 415.45 54.7416 415.45 57.4742C415.45 58.113 415.45 59.0753 415.45 60.2069M417.954 54.2861C418.258 49.0486 419.412 32.1975 419.776 27.6431C420.501 18.5857 422.707 16.2272 440.954 15.8578M453.023 15.8219C451.274 15.8056 449.381 15.8017 447.33 15.8017C445.012 15.8017 442.893 15.8185 440.954 15.8578M453.023 15.8219V11.7028C453.052 10.9647 452.912 9.95063 452.46 8.97018M440.954 15.8578C440.954 15.0041 440.954 12.978 440.954 11.7028C440.954 11.0732 441.025 10.0174 441.448 8.97018M441.448 8.97018C442.095 7.36599 443.568 5.78212 446.875 5.78212C450.068 5.78212 451.702 7.32899 452.46 8.97018M441.448 8.97018C442.194 9.1979 444.324 9.65334 446.875 9.65334C449.425 9.65334 451.661 9.1979 452.46 8.97018M418.865 89.5826C402.318 105.447 369.217 147.651 369.223 189.551C369.223 191.295 372.032 192.68 376.966 193.774M419.888 54.946C420.01 53.1413 420.784 42.2598 420.846 41.3575C420.922 40.2296 421.216 38.1694 420.256 38.1043C419.296 38.0393 419.002 40.0994 418.926 41.2274C418.819 42.8065 418.327 52.0308 418.159 54.5123M376.966 190.878C373.775 190.256 372.272 189.574 372.203 188.868C372.126 188.081 373.831 187.266 376.966 186.472M381.976 191.637C393.012 192.969 409.509 193.878 443.914 193.878C493.435 193.878 528.471 190.052 528.997 186.591C529.432 183.734 506.345 181.126 448.469 181.126C421.037 181.126 395.406 183.064 381.976 185.429M381.976 191.637V194.683M381.976 191.637V185.429M381.976 194.683L381.065 232.135M376.966 193.774V190.917V186.472M376.966 193.774L377.194 232.135M376.966 186.472C378.362 186.118 380.043 185.769 381.976 185.429M377.194 232.135C377.346 232.059 377.922 231.907 379.015 231.907C380.109 231.907 380.837 232.059 381.065 232.135M377.194 232.135C376.435 232.286 374.917 233.137 374.917 235.323C374.917 238.055 377.421 238.966 379.015 238.966C380.609 238.966 383.114 237.828 383.114 235.323C383.114 233.319 381.748 232.362 381.065 232.135M415.45 60.2069H397.916M415.45 60.2069C415.45 63.0668 415.45 67.0083 415.45 69.5434M397.916 60.2069C399.374 60.2069 402.622 66.4312 404.065 69.5434H405.431M397.916 60.2069C395.943 60.2069 392.041 60.5257 392.223 61.8009C392.451 63.395 392.984 65.0584 390.174 67.2662C386.986 69.7711 380.609 65.4444 379.699 65.8999C378.788 66.3553 378.56 67.2662 379.699 69.5434C380.987 72.1197 386.986 79.563 390.971 79.6769C394.956 79.7907 396.778 76.3749 396.778 75.464C396.778 74.553 400.649 73.4146 402.698 72.5037C404.338 71.775 405.203 70.2265 405.431 69.5434M415.45 69.5434H405.431M446.876 35.1578C444.371 35.1578 444.371 38.1182 444.371 39.2568V63.1672C444.371 64.5336 444.371 67.2662 446.876 67.2662C449.381 67.2662 449.381 64.5336 449.381 63.1672V39.2568C449.381 38.1182 449.381 35.1578 446.876 35.1578ZM458.717 35.3856C457.123 35.3856 457.123 38.3249 457.123 39.4554V63.1963C457.123 64.5529 457.123 67.2662 458.717 67.2662C460.311 67.2662 460.311 64.5529 460.311 63.1963V39.4554C460.311 38.3249 460.311 35.3856 458.717 35.3856ZM468.176 36.3063C467.039 36.3463 467.142 39.2838 467.182 40.4137L468.016 64.1399C468.064 65.4957 468.159 68.2072 469.297 68.1672C470.435 68.1272 470.34 65.4156 470.292 64.0598L469.457 40.3336C469.418 39.2038 469.314 36.2663 468.176 36.3063ZM474.035 36.7884C472.899 36.8654 473.098 39.798 473.174 40.9259L474.78 64.6125C474.871 65.966 475.055 68.673 476.191 68.596C477.327 68.519 477.143 65.812 477.052 64.4585L475.446 40.7719C475.369 39.644 475.171 36.7114 474.035 36.7884ZM435.654 35.841C437.248 35.841 437.248 38.7803 437.248 39.9109V63.6518C437.248 65.0084 437.248 67.7216 435.654 67.7216C434.06 67.7216 434.06 65.0084 434.06 63.6518V39.9109C434.06 38.7803 434.06 35.841 435.654 35.841ZM426.195 36.7617C427.333 36.8017 427.229 39.7393 427.19 40.8691L426.355 64.5953C426.307 65.9511 426.212 68.6627 425.074 68.6226C423.936 68.5826 424.032 65.871 424.079 64.5153L424.914 40.789C424.954 39.6592 425.057 36.7217 426.195 36.7617Z" stroke="black"/>
<path d="M359.427 70.9546C361.54 70.9547 363.253 72.6675 363.253 74.7807C363.253 76.894 361.54 78.6077 359.427 78.6079C357.313 78.6079 355.6 76.8941 355.6 74.7807C355.6 72.6674 357.313 70.9546 359.427 70.9546ZM360.521 74.7807C360.521 75.3849 360.031 75.8753 359.427 75.8755C358.823 75.8755 358.332 75.3849 358.332 74.7807C358.332 74.1766 358.823 73.687 359.427 73.687C360.031 73.6871 360.52 74.1767 360.521 74.7807ZM387.664 57.2915C391.035 57.2917 393.768 60.0241 393.768 63.395C393.768 66.7659 391.035 69.4983 387.664 69.4985C384.293 69.4985 381.56 66.766 381.56 63.395C381.56 60.024 384.293 57.2915 387.664 57.2915ZM391.945 63.395C391.945 65.7598 390.029 67.677 387.664 67.6772C385.299 67.6772 383.382 65.7599 383.382 63.395C383.382 61.0301 385.299 59.1128 387.664 59.1128C390.029 59.113 391.945 61.0302 391.945 63.395ZM356.238 39.0737C358.1 39.0737 359.609 40.583 359.609 42.4448C359.609 44.3067 358.1 45.8159 356.238 45.8159C354.376 45.8158 352.867 44.3066 352.867 42.4448C352.867 40.583 354.377 39.0738 356.238 39.0737ZM357.332 42.4448C357.332 43.049 356.842 43.5385 356.238 43.5385C355.634 43.5385 355.145 43.049 355.145 42.4448C355.145 41.8407 355.634 41.3511 356.238 41.351C356.842 41.351 357.332 41.8406 357.332 42.4448ZM361.521 74.7807C361.52 73.6244 360.583 72.6871 359.427 72.687C358.27 72.687 357.332 73.6243 357.332 74.7807C357.332 75.9372 358.27 76.8755 359.427 76.8755C360.583 76.8753 361.521 75.9371 361.521 74.7807ZM392.945 63.395C392.945 60.4779 390.581 58.113 387.664 58.1128C384.747 58.1128 382.382 60.4778 382.382 63.395C382.382 66.3122 384.747 68.6772 387.664 68.6772C390.581 68.677 392.945 66.3121 392.945 63.395ZM358.332 42.4448C358.332 41.2883 357.395 40.351 356.238 40.351C355.082 40.3511 354.145 41.2884 354.145 42.4448C354.145 43.6013 355.082 44.5385 356.238 44.5385C357.395 44.5385 358.332 43.6013 358.332 42.4448Z" stroke="black"/>
<path d="M354.421 48.8209C356.972 49.9138 368.995 55.9561 374.688 58.8405C371.121 61.1177 362.3 65.6721 358.292 67.4939C353.282 69.7711 351.688 73.6423 352.827 77.0581C353.966 80.4738 357.837 83.2065 363.985 81.6124C370.134 80.0184 380.021 76.2766 388.351 73.87C397.688 71.1728 400.648 60.5737 392.222 55.4248C388.123 52.9199 362.391 38.5736 359.658 37.2073C356.925 35.841 352.372 35.3855 350.322 39.4845C348.681 42.7688 350.777 47.2593 354.421 48.8209Z" stroke="black"/>
<path d="M349.867 40.8508L341.586 46.316M57.9319 233.501L331.65 52.8726M356.016 49.5041L101.882 217.561M352.828 72.9591L177.029 190.234M358.293 82.0679L63.6249 278.361M56.3379 271.074L143.099 212.778M341.586 46.316C341.01 45.7088 338.992 44.9953 335.521 46.9992C331.182 49.5041 331.194 51.6868 331.65 52.8726M341.586 46.316L331.65 52.8726" stroke="black"/>
<path d="M68.1795 275.401C68.4073 276.312 68.2706 278.635 65.9023 280.639" stroke="black"/>
<path d="M56.3355 271.075L163.363 375.598M238.055 450.289L191.145 404.518M230.768 458.032L49.5039 280.411" stroke="black"/>
<path d="M53.1475 271.802C55.6382 271.802 57.6572 273.821 57.6572 276.312C57.6572 278.803 55.6381 280.822 53.1475 280.822C50.6568 280.822 48.6377 278.803 48.6377 276.312C48.6377 273.821 50.6568 271.802 53.1475 271.802ZM56.291 276.312C56.291 278.048 54.8835 279.456 53.1475 279.456C51.4114 279.456 50.0039 278.048 50.0039 276.312C50.0039 274.576 51.4114 273.169 53.1475 273.168C54.8836 273.168 56.291 274.576 56.291 276.312ZM22.8613 254.951C25.7291 254.951 28.0537 257.276 28.0537 260.144C28.0536 263.012 25.7291 265.336 22.8613 265.336C19.9934 265.336 17.668 263.012 17.668 260.144C17.668 257.276 19.9933 254.951 22.8613 254.951ZM26.501 260.144C26.5009 262.154 24.8716 263.784 22.8613 263.785C20.8509 263.785 19.2208 262.155 19.2207 260.144C19.2207 258.134 20.8508 256.503 22.8613 256.503C24.8717 256.504 26.501 258.134 26.501 260.144ZM55.8799 233.545C58.3706 233.545 60.3896 235.564 60.3896 238.055C60.3896 240.546 58.3706 242.565 55.8799 242.565C53.3893 242.565 51.3701 240.546 51.3701 238.055C51.3701 235.565 53.3893 233.546 55.8799 233.545ZM59.0234 238.055C59.0234 239.791 57.616 241.199 55.8799 241.199C54.1439 241.199 52.7363 239.791 52.7363 238.055C52.7363 236.319 54.1439 234.912 55.8799 234.912C57.616 234.912 59.0234 236.319 59.0234 238.055ZM177.026 190.279C179.517 190.279 181.536 192.298 181.536 194.789C181.536 197.279 179.517 199.298 177.026 199.298C174.536 199.298 172.517 197.279 172.517 194.789C172.517 192.298 174.536 190.279 177.026 190.279ZM180.17 194.789C180.17 196.525 178.762 197.932 177.026 197.932C175.29 197.932 173.883 196.525 173.883 194.789C173.883 193.053 175.29 191.645 177.026 191.645C178.762 191.645 180.17 193.053 180.17 194.789ZM57.291 276.312C57.291 274.024 55.4359 272.168 53.1475 272.168C50.8591 272.169 49.0039 274.024 49.0039 276.312C49.0039 278.6 50.8591 280.456 53.1475 280.456C55.4358 280.456 57.291 278.6 57.291 276.312ZM27.501 260.144C27.501 257.581 25.4239 255.504 22.8613 255.503C20.2985 255.503 18.2207 257.581 18.2207 260.144C18.2208 262.707 20.2986 264.785 22.8613 264.785C25.4239 264.784 27.5009 262.707 27.501 260.144ZM60.0234 238.055C60.0234 235.767 58.1683 233.912 55.8799 233.912C53.5916 233.912 51.7363 235.767 51.7363 238.055C51.7363 240.343 53.5916 242.199 55.8799 242.199C58.1683 242.199 60.0234 240.344 60.0234 238.055ZM181.17 194.789C181.17 192.5 179.315 190.645 177.026 190.645C174.738 190.645 172.883 192.5 172.883 194.789C172.883 197.077 174.738 198.932 177.026 198.932C179.315 198.932 181.17 197.077 181.17 194.789Z" stroke="black"/>
<path d="M50.8702 237.6L22.8608 254.679M21.0391 265.381L49.7316 280.411C59.0681 284.965 62.7116 274.035 55.6523 270.619L34.2468 260.372L62.7116 242.382L60.4344 240.105" stroke="black"/>
<path d="M170.876 192.511L58.3828 233.273M62.7095 242.382L173.381 201.392" stroke="black"/>
<path d="M170.879 192.511V202.303M169.969 192.967V202.759M169.058 193.195V202.986M168.147 193.65V203.214M167.236 193.878V203.67M166.325 194.333V204.125M165.414 194.561V204.353M164.503 194.789V204.581M163.592 195.244V205.036M162.682 195.472V205.264M161.771 195.699V205.491M160.86 196.155V205.947M159.949 196.61V206.402M159.038 197.066V206.858M158.127 197.294V207.085M157.216 197.749V207.313M156.305 197.977V207.769M155.395 198.432V208.224M154.484 198.66V208.452M153.573 198.888V208.679M152.662 199.343V209.135M151.751 199.571V209.363M150.84 199.798V209.59M149.929 200.254V210.046M149.018 200.482V210.273M148.108 200.937V210.729M147.197 201.165V210.957M146.286 201.62V211.184M145.375 201.848V211.64M144.464 202.303V212.095M143.553 202.531V212.323M142.642 202.759V212.551M141.731 203.214V213.006M140.821 203.442V213.234M139.91 203.67V213.462M138.999 204.125V213.917M138.088 204.581V214.372M137.177 204.808V214.828M136.266 205.036V215.056M135.355 205.491V215.283M134.444 205.719V215.739M133.534 206.175V216.194M132.623 206.402V216.422M131.712 206.858V216.65M130.801 207.313V217.105M129.89 207.541V217.333M128.979 207.769V217.56M128.068 208.224V218.016M127.157 208.452V218.244M126.247 208.907V218.699M125.336 209.135V219.155M124.425 209.59V219.382M123.514 209.818V219.838M122.603 210.046V220.065M121.692 210.501V220.521M120.781 210.729V220.749M119.87 210.957V221.204M118.96 211.412V221.432M118.049 211.64V221.887M117.138 212.095V222.115M116.227 212.551V222.343M115.316 212.778V222.57M114.405 213.234V223.026M113.494 213.462V223.253M112.583 213.917V223.709M111.673 214.145V224.164M110.762 214.6V224.392M109.851 214.828V224.847M108.94 215.056V225.075M108.029 215.511V225.531M107.118 215.739V225.758M106.207 215.966V226.214M105.296 216.422V226.442M104.386 216.65V226.897M103.475 217.105V227.125M102.564 217.333V227.58M101.653 217.56V227.808M100.742 218.016V228.263M99.8312 218.244V228.491M98.9203 218.699V228.719M98.0094 218.927V229.174M97.0985 219.382V229.63M96.1877 219.61V229.857M95.2768 219.838V230.313M94.3659 220.293V230.54M93.455 220.521V230.768M92.5442 220.749V231.224M91.6333 221.204V231.679M90.7224 221.432V232.134M89.8115 221.887V232.362M88.9007 222.343V232.59M87.9898 222.57V232.818M87.0789 223.026V233.273M86.168 223.253V233.501M85.2572 223.709V233.956M84.3463 223.937V234.184M83.4354 224.392V234.639M82.5245 224.62V234.867M81.6137 224.847V235.323M80.7028 225.303V235.55M79.7919 225.531V236.006M78.881 225.758V236.233M77.9702 226.214V236.689M77.0593 226.442V236.917M76.1484 226.897V237.372M75.2375 227.352V237.6M74.3267 227.58V237.827M73.4158 228.036V238.283M72.5049 228.263V238.738M71.594 228.719V238.966M70.6832 228.946V239.194M69.7723 229.402V239.649M68.8614 229.63V239.877M67.9505 229.857V240.332M67.0397 230.313V240.56M66.1288 230.54V241.016M65.2179 230.768V241.243M64.307 231.224V241.699M63.3962 231.451V241.926M62.4853 231.907V241.926M61.5744 232.134V241.471M60.6635 232.59V240.332M59.7527 232.818V235.095M58.8418 233.045V234.184M171.79 202.076V193.422M172.701 201.62V197.066M173.612 201.392V198.204" stroke="black"/>
<path d="M158.486 383.011L166.334 377.156M159.396 383.469L167.244 377.613M160.123 384.063L167.971 378.207M161.033 384.52L168.698 378.801M161.76 385.114L169.608 379.259M162.669 385.572L170.518 379.717M163.397 386.166L171.245 380.311M164.124 386.76L171.972 380.904M165.034 387.218L172.882 381.362M165.761 387.811L173.609 381.956M166.488 388.405L174.336 382.55M167.398 388.863L175.246 383.008M168.307 389.321L176.156 383.465M169.217 389.779L177.066 383.923M169.944 390.372L177.793 384.517M170.854 390.83L178.52 385.111M171.581 391.424L179.43 385.569M172.491 391.882L180.339 386.026M173.218 392.476L181.067 386.62M173.945 393.07L181.794 387.214M174.855 393.527L182.704 387.672M175.582 394.121L183.431 388.266M176.31 394.715L184.158 388.86M177.219 395.173L185.068 389.317M177.947 395.767L185.795 389.911M178.856 396.224L186.705 390.369M179.583 396.818L187.432 390.963M180.493 397.276L188.159 391.557M181.22 397.87L189.069 392.015M182.13 398.328L189.978 392.472M182.857 398.922L190.706 393.066M183.585 399.516L191.433 393.66M184.494 399.973L192.343 394.118M185.222 400.567L193.07 394.712M185.949 401.161L193.797 395.306M186.858 401.619L194.707 395.763M187.768 402.077L195.616 396.221M188.495 402.67L196.526 396.679M189.223 403.264L197.253 397.273M190.132 403.722L197.981 397.867M190.86 404.316L198.89 398.324M191.769 404.774L199.8 398.782M192.496 405.368L200.527 399.376M193.406 405.825L201.254 399.97M194.316 406.283L202.164 400.428M195.043 406.877L202.891 401.022M195.77 407.471L203.619 401.615M196.68 407.929L204.528 402.073M197.407 408.523L205.256 402.667M198.317 408.98L206.165 403.125M199.044 409.574L207.075 403.583M199.954 410.032L207.802 404.176M200.681 410.626L208.712 404.634M201.408 411.22L209.439 405.228M202.318 411.677L210.349 405.686M203.045 412.271L211.076 406.28M203.772 412.865L211.986 406.737M204.682 413.323L212.713 407.331M205.409 413.917L213.623 407.789M206.319 414.375L214.35 408.383M207.229 414.832L215.077 408.977M207.956 415.426L215.804 409.571M208.866 415.884L216.714 410.029M209.593 416.478L217.441 410.622M210.503 416.936L218.351 411.08M211.23 417.529L219.261 411.538M212.14 417.987L219.988 412.132M212.867 418.581L220.898 412.59M213.594 419.175L221.625 413.183M214.504 419.633L222.535 413.641M215.231 420.227L223.262 414.235M215.958 420.821L224.172 414.693M216.868 421.278L224.899 415.287M217.595 421.872L225.808 415.744M218.505 422.33L226.536 416.338M219.232 422.924L227.445 416.796M219.959 423.518L228.173 417.39M220.869 423.975L229.082 417.848M221.596 424.569L229.81 418.442M222.506 425.027L230.537 419.035M223.233 425.621L231.446 419.493M224.143 426.079L232.356 419.951M224.87 426.673L233.083 420.545M225.597 427.266L233.993 421.003M226.507 427.724L234.72 421.596M227.234 428.318L235.448 422.19M227.961 428.912L236.357 422.648M228.871 429.37L237.267 423.106M229.598 429.964L238.177 423.564M230.508 430.421L238.904 424.157M231.418 430.879L239.631 424.751M232.145 431.473L240.358 425.345M233.055 431.931L241.268 425.803M233.782 432.525L241.995 426.397M234.692 432.982L242.905 426.855M235.419 433.576L243.632 427.449M236.329 434.034L244.542 427.906M237.056 434.628L245.269 428.5M237.783 435.222L246.179 428.958M238.693 435.68L246.906 429.552M239.42 436.273L247.816 430.01M240.147 436.867L248.543 430.603M241.057 437.325L249.453 431.061M241.784 437.919L250.18 431.655M242.694 438.377L251.09 432.113M243.604 438.834L251.817 432.707M244.331 439.428L252.544 433.301M245.24 439.886L247.816 437.919M165.607 376.562L158.671 381.736M164.697 376.104L161.047 378.827M163.97 375.51L161.415 377.416" stroke="black"/>
<path d="M156.986 372.909C159.225 372.91 161.04 374.725 161.04 376.964C161.04 379.203 159.225 381.018 156.986 381.018C154.747 381.018 152.932 379.203 152.932 376.964C152.932 374.725 154.747 372.909 156.986 372.909ZM159.219 376.964C159.219 378.197 158.219 379.196 156.986 379.197C155.753 379.197 154.753 378.197 154.753 376.964C154.753 375.731 155.753 374.731 156.986 374.731C158.219 374.731 159.219 375.731 159.219 376.964ZM160.219 376.964C160.219 375.179 158.772 373.731 156.986 373.731C155.201 373.731 153.753 375.179 153.753 376.964C153.753 378.749 155.201 380.197 156.986 380.197C158.771 380.196 160.219 378.749 160.219 376.964Z" stroke="black"/>
<path d="M253.542 434.393C256.536 434.393 258.963 436.821 258.963 439.814C258.963 442.808 256.536 445.235 253.542 445.235C250.548 445.235 248.121 442.808 248.121 439.814C248.121 436.82 250.548 434.393 253.542 434.393ZM256.686 439.814C256.685 441.55 255.278 442.958 253.542 442.958C251.806 442.958 250.399 441.55 250.398 439.814C250.398 438.078 251.806 436.671 253.542 436.671C255.278 436.671 256.686 438.078 256.686 439.814ZM257.686 439.814C257.686 437.526 255.83 435.671 253.542 435.671C251.254 435.671 249.398 437.526 249.398 439.814C249.399 442.103 251.254 443.958 253.542 443.958C255.83 443.958 257.685 442.102 257.686 439.814Z" stroke="black"/>
<path d="M48.5941 279.728C108.636 339.921 229.175 460.719 230.997 462.358C232.135 463.383 234.817 467.827 230.997 470.556C227.809 472.833 224.165 470.632 222.571 469.19L30.3766 273M30.3766 273L25.3668 267.886C24.0007 267.886 22.5431 271.361 24.0005 273C25.4579 274.64 29.0103 273.801 30.3766 273Z" stroke="black"/>
<path d="M227.58 462.175C230.071 462.175 232.09 464.194 232.09 466.685C232.09 469.175 230.071 471.195 227.58 471.195C225.089 471.194 223.07 469.175 223.07 466.685C223.07 464.194 225.089 462.175 227.58 462.175ZM230.269 466.685C230.269 468.169 229.065 469.373 227.58 469.373C226.096 469.373 224.892 468.169 224.892 466.685C224.892 465.2 226.096 463.996 227.58 463.996C229.065 463.996 230.269 465.2 230.269 466.685ZM231.269 466.685C231.269 464.648 229.617 462.996 227.58 462.996C225.543 462.996 223.892 464.648 223.892 466.685C223.892 468.722 225.543 470.373 227.58 470.373C229.617 470.373 231.269 468.722 231.269 466.685Z" stroke="black"/>
<path d="M65.1025 272.699C64.9837 273.945 64.0152 274.94 62.7822 275.102C63.4341 274.639 64.0911 274.101 64.5498 273.567C64.7689 273.312 64.9785 273.015 65.1025 272.699ZM60.0625 271.164C60.2456 271.148 60.5551 271.142 61.0049 271.189C61.6494 271.256 62.547 271.424 63.7041 271.78C64.212 271.936 64.2142 272.103 64.2158 272.133C64.2227 272.262 64.1273 272.524 63.791 272.916C63.2002 273.604 62.1645 274.353 61.3027 274.882C60.3801 274.455 59.7404 273.523 59.7402 272.441C59.7402 271.978 59.8571 271.543 60.0625 271.164ZM62.4287 269.753C63.5046 269.753 64.43 270.386 64.8594 271.3C64.6433 271.087 64.3439 270.93 63.999 270.824C62.7885 270.451 61.8263 270.269 61.1084 270.194C61.0608 270.189 61.0136 270.187 60.9678 270.183C61.3884 269.911 61.8904 269.753 62.4287 269.753Z" stroke="black"/>
<path d="M24.9105 267.886C16.2572 267.886 5.78209 263.56 5.78209 253.085C5.78209 242.61 21.7224 229.402 38.3459 229.402C48.5932 229.402 53.3753 232.59 59.5237 232.59M24.9105 273.807C13.98 273.807 1 266.065 1 253.085C1 240.105 15.3463 225.531 37.435 225.531C49.2764 225.531 52.4644 228.719 58.6128 228.719C63.5316 228.719 66.4312 227.96 67.2662 227.58" stroke="black"/>
<path d="M333.244 48.5933C335.977 45.8607 339.165 40.3954 339.165 32.653C339.165 24.9106 343.491 1.00009 371.956 1.00009C393.59 1.00009 399.283 18.079 424.332 18.079M340.076 45.8607C342.353 42.9003 343.719 35.7044 343.719 30.6035C343.719 24.2274 347.59 5.32675 372.867 5.32675C388.58 5.32675 399.283 21.7225 421.144 21.7225" stroke="black"/>
<path d="M247.39 440.042L228.717 459.853M221.658 468.279V493.784C234.335 493.784 260.325 493.784 262.875 493.784C263.875 493.784 265.077 493.671 266.291 493.426M252.4 433.666C252.819 433.456 253.282 433.348 253.767 433.323M266.291 493.426C268.946 492.89 271.658 491.716 272.439 489.685C273.578 486.724 272.667 482.625 269.251 481.031C265.836 479.437 254.677 468.279 253.767 467.368C252.856 466.457 252.856 460.309 253.311 458.032C253.767 455.755 257.638 447.101 259.004 443.913C260.37 440.725 260.826 437.309 258.549 435.26C257.258 434.099 255.39 433.24 253.767 433.323M266.291 493.426C269.1 493.545 275.628 493.426 276.994 487.863C277.801 484.575 275.628 481.487 272.439 480.348C269.251 479.21 264.469 475.111 262.192 472.833C259.915 470.556 255.133 466.685 255.019 465.433C254.928 464.431 258.245 450.669 259.915 443.913C260.522 443.837 262.033 443.276 263.217 441.636C264.697 439.586 264.014 434.121 261.054 433.21C258.685 432.482 255.209 432.982 253.767 433.323" stroke="black"/>
<path d="M265.154 481.759C267.896 481.759 270.12 483.982 270.12 486.724C270.12 489.466 267.897 491.69 265.154 491.69C262.412 491.689 260.189 489.466 260.189 486.724C260.19 483.982 262.412 481.759 265.154 481.759ZM266.477 486.724C266.477 487.454 265.884 488.046 265.154 488.046C264.425 488.046 263.833 487.454 263.833 486.724C263.833 485.994 264.425 485.403 265.154 485.402C265.884 485.402 266.476 485.994 266.477 486.724ZM267.477 486.724C267.476 485.442 266.436 484.402 265.154 484.402C263.872 484.403 262.833 485.442 262.833 486.724C262.833 488.006 263.872 489.046 265.154 489.046C266.437 489.046 267.477 488.006 267.477 486.724Z" stroke="black"/>
<path d="M221.658 493.784V498.11M221.658 498.11C221.734 498.11 221.567 498.11 220.292 498.11C218.698 498.11 217.787 499.249 217.787 500.615C217.787 501.708 217.787 519.895 217.787 528.852C218.85 529.459 222.888 530.674 230.539 530.674C238.191 530.674 241.925 529.459 242.836 528.852C242.836 519.895 242.836 501.708 242.836 500.615C242.836 499.249 242.153 498.11 240.787 498.11C239.694 498.11 227.579 498.11 221.658 498.11ZM238.965 493.784V498.11" stroke="black"/>
<path d="M177.254 530.446C177.254 535.351 226.395 539.327 287.014 539.327C347.633 539.327 396.775 535.351 396.775 530.446C396.775 527.673 381.072 525.198 356.469 523.569M177.254 530.446C177.254 529.304 179.917 528.213 184.769 527.21M177.254 530.446V547.07C177.254 551.974 226.395 555.951 287.014 555.951C347.633 555.951 396.775 551.974 396.775 547.07M242.837 522.314C256.354 521.832 271.298 521.565 287.014 521.565C307.384 521.565 326.457 522.014 342.805 522.796M217.788 523.554C206.165 524.319 196.515 525.273 189.551 526.358" stroke="black"/>
<path d="M396.777 530.446V547.297" stroke="black"/>
<path d="M344.171 520.926H355.102C355.831 520.926 356.424 521.518 356.424 522.248V528.169C356.424 528.899 355.832 529.491 355.102 529.491H344.171C343.441 529.491 342.85 528.898 342.85 528.169V522.248L342.856 522.113C342.924 521.447 343.487 520.927 344.171 520.926Z" stroke="black"/>
<path d="M201.391 447.329C201.391 447.329 205.262 453.022 207.539 456.665C208.867 458.789 213.005 461.447 213.005 475.566C213.005 499.249 184.768 511.773 184.768 530.218C185.147 530.37 186.179 530.674 187.272 530.674C188.366 530.674 189.094 530.522 189.322 530.218C189.322 511.773 217.331 504.031 217.331 474.655C217.331 470.647 215.358 463.724 214.371 460.764" stroke="black"/>
<path d="M177.256 534.317H113.495L88.6738 563.465M88.6738 563.465H468.964M88.6738 563.465V741.852M468.964 563.465L449.38 534.317H396.777M468.964 563.465V741.852" stroke="black"/>
</svg>
