<svg width="643" height="742" viewBox="0 0 643 742" fill="none" xmlns="http://www.w3.org/2000/svg">
<path d="M381.974 185.577C380.041 185.917 378.361 186.267 376.964 186.62C373.829 187.414 372.125 188.23 372.201 189.016L262.84 742H643L528.995 186.739C529.43 183.882 506.344 181.274 448.467 181.274C421.035 181.274 395.404 183.212 381.974 185.577Z" fill="#FDC913"/>
<path d="M479.211 88.5923C474.656 87.3778 462.132 84.9487 448.469 84.9487C434.806 84.9487 423.04 87.3778 418.865 88.5923V75.6123M479.211 88.5923C478.148 73.8665 475.34 36.9002 474.429 27.7914C473.396 17.4625 470.114 16.1288 453.023 15.9702M479.211 88.5923C498.111 104.684 535.913 146.843 535.913 186.739C535.913 191.977 498.34 197.67 448.469 197.67C421.618 197.67 396.469 197.008 381.976 194.831M418.865 75.6123C420.004 74.8532 422.281 70.9668 422.281 61.4937C422.281 57.6225 420.232 54.4344 417.954 54.4344M418.865 75.6123C416.133 76.3445 415.45 75.1569 415.45 71.5134C415.45 71.0738 415.45 70.4448 415.45 69.6917M417.954 54.4344C415.45 54.4344 415.45 54.8899 415.45 57.6225C415.45 58.2613 415.45 59.2236 415.45 60.3552M417.954 54.4344C418.258 49.1969 419.412 32.3458 419.776 27.7914C420.501 18.734 422.707 16.3755 440.954 16.0061M453.023 15.9702C451.274 15.9539 449.381 15.95 447.33 15.95C445.012 15.95 442.893 15.9668 440.954 16.0061M453.023 15.9702V11.8511C453.052 11.113 452.912 10.0989 452.46 9.11848M440.954 16.0061C440.954 15.1524 440.954 13.1263 440.954 11.8511C440.954 11.2215 441.025 10.1657 441.448 9.11848M441.448 9.11848C442.095 7.51429 443.568 5.93042 446.875 5.93042C450.068 5.93042 451.702 7.47729 452.46 9.11848M441.448 9.11848C442.194 9.3462 444.324 9.80164 446.875 9.80164C449.425 9.80164 451.661 9.3462 452.46 9.11848M418.865 89.7309C402.318 105.595 369.217 147.799 369.223 189.699C369.223 191.443 372.032 192.829 376.966 193.922M419.888 55.0943C420.01 53.2896 420.784 42.4081 420.846 41.5058C420.922 40.3779 421.216 38.3177 420.256 38.2526C419.296 38.1876 419.002 40.2477 418.926 41.3757C418.819 42.9548 418.327 52.1791 418.159 54.6606M376.966 191.027C373.775 190.404 372.272 189.722 372.203 189.016C372.126 188.23 373.831 187.414 376.966 186.62M381.976 191.785C393.012 193.117 409.509 194.026 443.914 194.026C493.435 194.026 528.471 190.2 528.997 186.739C529.432 183.882 506.345 181.274 448.469 181.274C421.037 181.274 395.406 183.212 381.976 185.577M381.976 191.785V194.831M381.976 191.785V185.577M381.976 194.831L381.065 232.283M376.966 193.922V191.066V186.62M376.966 193.922L377.194 232.283M376.966 186.62C378.362 186.267 380.043 185.917 381.976 185.577M377.194 232.283C377.346 232.207 377.922 232.055 379.015 232.055C380.109 232.055 380.837 232.207 381.065 232.283M377.194 232.283C376.435 232.435 374.917 233.285 374.917 235.471C374.917 238.204 377.421 239.114 379.015 239.114C380.609 239.114 383.114 237.976 383.114 235.471C383.114 233.467 381.748 232.511 381.065 232.283M415.45 60.3552H397.916M415.45 60.3552C415.45 63.2151 415.45 67.1566 415.45 69.6917M397.916 60.3552C399.374 60.3552 402.622 66.5795 404.065 69.6917H405.431M397.916 60.3552C395.943 60.3552 392.041 60.674 392.223 61.9492C392.451 63.5433 392.984 65.2067 390.174 67.4145C386.986 69.9194 380.609 65.5927 379.699 66.0482C378.788 66.5036 378.56 67.4145 379.699 69.6917C380.987 72.268 386.986 79.7113 390.971 79.8252C394.956 79.939 396.778 76.5232 396.778 75.6123C396.778 74.7013 400.649 73.5629 402.698 72.652C404.338 71.9233 405.203 70.3748 405.431 69.6917M415.45 69.6917H405.431M446.876 35.3061C444.371 35.3061 444.371 38.2665 444.371 39.4051V63.3156C444.371 64.6819 444.371 67.4145 446.876 67.4145C449.381 67.4145 449.381 64.6819 449.381 63.3156V39.4051C449.381 38.2665 449.381 35.3061 446.876 35.3061ZM458.717 35.5339C457.123 35.5339 457.123 38.4732 457.123 39.6037V63.3446C457.123 64.7012 457.123 67.4145 458.717 67.4145C460.311 67.4145 460.311 64.7012 460.311 63.3446V39.6037C460.311 38.4732 460.311 35.5339 458.717 35.5339ZM468.176 36.4546C467.039 36.4946 467.142 39.4321 467.182 40.562L468.016 64.2882C468.064 65.644 468.159 68.3555 469.297 68.3155C470.435 68.2755 470.34 65.5639 470.292 64.2081L469.457 40.4819C469.418 39.3521 469.314 36.4146 468.176 36.4546ZM474.035 36.9367C472.899 37.0137 473.098 39.9463 473.174 41.0742L474.78 64.7608C474.871 66.1143 475.055 68.8213 476.191 68.7443C477.327 68.6673 477.143 65.9603 477.052 64.6068L475.446 40.9202C475.369 39.7923 475.171 36.8597 474.035 36.9367ZM435.654 35.9893C437.248 35.9893 437.248 38.9286 437.248 40.0592V63.8001C437.248 65.1567 437.248 67.8699 435.654 67.8699C434.06 67.8699 434.06 65.1567 434.06 63.8001V40.0592C434.06 38.9286 434.06 35.9893 435.654 35.9893ZM426.195 36.91C427.333 36.95 427.229 39.8876 427.19 41.0174L426.355 64.7436C426.307 66.0994 426.212 68.811 425.074 68.7709C423.936 68.7309 424.032 66.0193 424.079 64.6636L424.914 40.9373C424.954 39.8075 425.057 36.87 426.195 36.91Z" stroke="black"/>
<path d="M359.427 71.1028C361.54 71.1029 363.253 72.8158 363.253 74.929C363.253 77.0423 361.54 78.7559 359.427 78.7561C357.313 78.7561 355.6 77.0424 355.6 74.929C355.6 72.8157 357.313 71.1028 359.427 71.1028ZM360.521 74.929C360.521 75.5331 360.031 76.0235 359.427 76.0237C358.823 76.0237 358.332 75.5332 358.332 74.929C358.332 74.3249 358.823 73.8352 359.427 73.8352C360.031 73.8354 360.52 74.3249 360.521 74.929ZM387.664 57.4397C391.035 57.4399 393.768 60.1723 393.768 63.5432C393.768 66.9141 391.035 69.6465 387.664 69.6467C384.293 69.6467 381.56 66.9143 381.56 63.5432C381.56 60.1722 384.293 57.4397 387.664 57.4397ZM391.945 63.5432C391.945 65.908 390.029 67.8252 387.664 67.8254C385.299 67.8254 383.382 65.9081 383.382 63.5432C383.382 61.1783 385.299 59.261 387.664 59.261C390.029 59.2612 391.945 61.1785 391.945 63.5432ZM356.238 39.2219C358.1 39.2219 359.609 40.7312 359.609 42.593C359.609 44.4549 358.1 45.9641 356.238 45.9641C354.376 45.964 352.867 44.4548 352.867 42.593C352.867 40.7312 354.377 39.222 356.238 39.2219ZM357.332 42.593C357.332 43.1972 356.842 43.6868 356.238 43.6868C355.634 43.6867 355.145 43.1972 355.145 42.593C355.145 41.9889 355.634 41.4993 356.238 41.4993C356.842 41.4993 357.332 41.9889 357.332 42.593ZM361.521 74.929C361.52 73.7727 360.583 72.8354 359.427 72.8352C358.27 72.8352 357.332 73.7726 357.332 74.929C357.332 76.0855 358.27 77.0237 359.427 77.0237C360.583 77.0235 361.521 76.0854 361.521 74.929ZM392.945 63.5432C392.945 60.6262 390.581 58.2612 387.664 58.261C384.747 58.261 382.382 60.626 382.382 63.5432C382.382 66.4604 384.747 68.8254 387.664 68.8254C390.581 68.8252 392.945 66.4603 392.945 63.5432ZM358.332 42.593C358.332 41.4366 357.395 40.4993 356.238 40.4993C355.082 40.4993 354.145 41.4366 354.145 42.593C354.145 43.7495 355.082 44.6867 356.238 44.6868C357.395 44.6868 358.332 43.7495 358.332 42.593Z" stroke="black"/>
<path d="M354.421 48.9692C356.972 50.0622 368.995 56.1044 374.688 58.9889C371.121 61.2661 362.3 65.8204 358.292 67.6422C353.282 69.9194 351.688 73.7906 352.827 77.2064C353.966 80.6222 357.837 83.3548 363.985 81.7607C370.134 80.1667 380.021 76.4249 388.351 74.0183C397.688 71.3211 400.648 60.7221 392.222 55.5731C388.123 53.0682 362.391 38.7219 359.658 37.3556C356.925 35.9893 352.372 35.5339 350.322 39.6328C348.681 42.9171 350.777 47.4076 354.421 48.9692Z" stroke="black"/>
<path d="M349.867 40.999L341.586 46.4643M57.9319 233.649L331.65 53.0209M356.016 49.6523L101.882 217.709M352.828 73.1074L177.029 190.383M358.293 82.2161L63.6249 278.51M56.3379 271.223L143.099 212.927M341.586 46.4643C341.01 45.857 338.992 45.1435 335.521 47.1474C331.182 49.6523 331.194 51.835 331.65 53.0209M341.586 46.4643L331.65 53.0209" stroke="black"/>
<path d="M68.1795 275.55C68.4073 276.46 68.2706 278.783 65.9023 280.787" stroke="black"/>
<path d="M56.3355 271.223L163.363 375.746M238.055 450.438L191.145 404.666M230.768 458.18L49.5039 280.559" stroke="black"/>
<path d="M53.1475 271.951C55.6382 271.951 57.6572 273.97 57.6572 276.46C57.6572 278.951 55.6381 280.97 53.1475 280.97C50.6568 280.97 48.6377 278.951 48.6377 276.46C48.6377 273.97 50.6568 271.951 53.1475 271.951ZM56.291 276.46C56.291 278.196 54.8835 279.604 53.1475 279.604C51.4114 279.604 50.0039 278.196 50.0039 276.46C50.0039 274.724 51.4114 273.317 53.1475 273.317C54.8836 273.317 56.291 274.724 56.291 276.46ZM22.8613 255.099C25.7291 255.099 28.0537 257.424 28.0537 260.292C28.0536 263.16 25.7291 265.485 22.8613 265.485C19.9934 265.485 17.668 263.16 17.668 260.292C17.668 257.424 19.9933 255.099 22.8613 255.099ZM26.501 260.292C26.5009 262.303 24.8716 263.933 22.8613 263.933C20.8509 263.933 19.2208 262.303 19.2207 260.292C19.2207 258.282 20.8508 256.652 22.8613 256.652C24.8717 256.652 26.501 258.282 26.501 260.292ZM55.8799 233.694C58.3706 233.694 60.3896 235.713 60.3896 238.203C60.3896 240.694 58.3706 242.713 55.8799 242.713C53.3893 242.713 51.3701 240.694 51.3701 238.203C51.3701 235.713 53.3893 233.694 55.8799 233.694ZM59.0234 238.203C59.0234 239.94 57.616 241.347 55.8799 241.347C54.1439 241.347 52.7363 239.94 52.7363 238.203C52.7363 236.467 54.1439 235.06 55.8799 235.06C57.616 235.06 59.0234 236.467 59.0234 238.203ZM177.026 190.427C179.517 190.427 181.536 192.446 181.536 194.937C181.536 197.428 179.517 199.447 177.026 199.447C174.536 199.447 172.517 197.428 172.517 194.937C172.517 192.446 174.536 190.427 177.026 190.427ZM180.17 194.937C180.17 196.673 178.762 198.08 177.026 198.08C175.29 198.08 173.883 196.673 173.883 194.937C173.883 193.201 175.29 191.793 177.026 191.793C178.762 191.793 180.17 193.201 180.17 194.937ZM57.291 276.46C57.291 274.172 55.4359 272.317 53.1475 272.317C50.8591 272.317 49.0039 274.172 49.0039 276.46C49.0039 278.749 50.8591 280.604 53.1475 280.604C55.4358 280.604 57.291 278.749 57.291 276.46ZM27.501 260.292C27.501 257.73 25.4239 255.652 22.8613 255.652C20.2985 255.652 18.2207 257.73 18.2207 260.292C18.2208 262.855 20.2986 264.933 22.8613 264.933C25.4239 264.933 27.5009 262.855 27.501 260.292ZM60.0234 238.203C60.0234 235.915 58.1683 234.06 55.8799 234.06C53.5916 234.06 51.7363 235.915 51.7363 238.203C51.7363 240.492 53.5916 242.347 55.8799 242.347C58.1683 242.347 60.0234 240.492 60.0234 238.203ZM181.17 194.937C181.17 192.649 179.315 190.793 177.026 190.793C174.738 190.793 172.883 192.649 172.883 194.937C172.883 197.225 174.738 199.08 177.026 199.08C179.315 199.08 181.17 197.225 181.17 194.937Z" stroke="black"/>
<path d="M50.8702 237.748L22.8608 254.827M21.0391 265.53L49.7316 280.559C59.0681 285.114 62.7116 274.183 55.6523 270.767L34.2468 260.52L62.7116 242.53L60.4344 240.253" stroke="black"/>
<path d="M170.876 192.66L58.3828 233.421M62.7095 242.53L173.381 201.541" stroke="black"/>
<path d="M170.879 192.66V202.452M169.969 193.115V202.907M169.058 193.343V203.135M168.147 193.798V203.362M167.236 194.026V203.818M166.325 194.481V204.273M165.414 194.709V204.501M164.503 194.937V204.729M163.592 195.392V205.184M162.682 195.62V205.412M161.771 195.848V205.64M160.86 196.303V206.095M159.949 196.759V206.551M159.038 197.214V207.006M158.127 197.442V207.234M157.216 197.897V207.461M156.305 198.125V207.917M155.395 198.58V208.372M154.484 198.808V208.6M153.573 199.036V208.828M152.662 199.491V209.283M151.751 199.719V209.511M150.84 199.947V209.739M149.929 200.402V210.194M149.018 200.63V210.422M148.108 201.085V210.877M147.197 201.313V211.105M146.286 201.768V211.333M145.375 201.996V211.788M144.464 202.452V212.243M143.553 202.679V212.471M142.642 202.907V212.699M141.731 203.362V213.154M140.821 203.59V213.382M139.91 203.818V213.61M138.999 204.273V214.065M138.088 204.729V214.521M137.177 204.956V214.976M136.266 205.184V215.204M135.355 205.64V215.432M134.444 205.867V215.887M133.534 206.323V216.342M132.623 206.551V216.57M131.712 207.006V216.798M130.801 207.461V217.253M129.89 207.689V217.481M128.979 207.917V217.709M128.068 208.372V218.164M127.157 208.6V218.392M126.247 209.055V218.847M125.336 209.283V219.303M124.425 209.739V219.53M123.514 209.966V219.986M122.603 210.194V220.214M121.692 210.649V220.669M120.781 210.877V220.897M119.87 211.105V221.352M118.96 211.56V221.58M118.049 211.788V222.035M117.138 212.243V222.263M116.227 212.699V222.491M115.316 212.927V222.719M114.405 213.382V223.174M113.494 213.61V223.402M112.583 214.065V223.857M111.673 214.293V224.313M110.762 214.748V224.54M109.851 214.976V224.996M108.94 215.204V225.223M108.029 215.659V225.679M107.118 215.887V225.907M106.207 216.115V226.362M105.296 216.57V226.59M104.386 216.798V227.045M103.475 217.253V227.273M102.564 217.481V227.728M101.653 217.709V227.956M100.742 218.164V228.412M99.8312 218.392V228.639M98.9203 218.847V228.867M98.0094 219.075V229.322M97.0985 219.53V229.778M96.1877 219.758V230.006M95.2768 219.986V230.461M94.3659 220.441V230.689M93.455 220.669V230.916M92.5442 220.897V231.372M91.6333 221.352V231.827M90.7224 221.58V232.283M89.8115 222.035V232.51M88.9007 222.491V232.738M87.9898 222.719V232.966M87.0789 223.174V233.421M86.168 223.402V233.649M85.2572 223.857V234.104M84.3463 224.085V234.332M83.4354 224.54V234.788M82.5245 224.768V235.015M81.6137 224.996V235.471M80.7028 225.451V235.699M79.7919 225.679V236.154M78.881 225.907V236.382M77.9702 226.362V236.837M77.0593 226.59V237.065M76.1484 227.045V237.52M75.2375 227.501V237.748M74.3267 227.728V237.976M73.4158 228.184V238.431M72.5049 228.412V238.887M71.594 228.867V239.114M70.6832 229.095V239.342M69.7723 229.55V239.797M68.8614 229.778V240.025M67.9505 230.006V240.481M67.0397 230.461V240.708M66.1288 230.689V241.164M65.2179 230.916V241.391M64.307 231.372V241.847M63.3962 231.6V242.075M62.4853 232.055V242.075M61.5744 232.283V241.619M60.6635 232.738V240.481M59.7527 232.966V235.243M58.8418 233.194V234.332M171.79 202.224V193.571M172.701 201.768V197.214M173.612 201.541V198.353" stroke="black"/>
<path d="M158.486 383.159L166.334 377.304M159.396 383.617L167.244 377.762M160.123 384.211L167.971 378.356M161.033 384.669L168.698 378.949M161.76 385.263L169.608 379.407M162.669 385.72L170.518 379.865M163.397 386.314L171.245 380.459M164.124 386.908L171.972 381.053M165.034 387.366L172.882 381.51M165.761 387.96L173.609 382.104M166.488 388.554L174.336 382.698M167.398 389.011L175.246 383.156M168.307 389.469L176.156 383.614M169.217 389.927L177.066 384.071M169.944 390.521L177.793 384.665M170.854 390.978L178.52 385.259M171.581 391.572L179.43 385.717M172.491 392.03L180.339 386.175M173.218 392.624L181.067 386.769M173.945 393.218L181.794 387.363M174.855 393.676L182.704 387.82M175.582 394.27L183.431 388.414M176.31 394.863L184.158 389.008M177.219 395.321L185.068 389.466M177.947 395.915L185.795 390.06M178.856 396.373L186.705 390.517M179.583 396.967L187.432 391.111M180.493 397.424L188.159 391.705M181.22 398.018L189.069 392.163M182.13 398.476L189.978 392.621M182.857 399.07L190.706 393.215M183.585 399.664L191.433 393.808M184.494 400.122L192.343 394.266M185.222 400.716L193.07 394.86M185.949 401.309L193.797 395.454M186.858 401.767L194.707 395.912M187.768 402.225L195.616 396.369M188.495 402.819L196.526 396.827M189.223 403.413L197.253 397.421M190.132 403.87L197.981 398.015M190.86 404.464L198.89 398.473M191.769 404.922L199.8 398.93M192.496 405.516L200.527 399.524M193.406 405.974L201.254 400.118M194.316 406.431L202.164 400.576M195.043 407.025L202.891 401.17M195.77 407.619L203.619 401.764M196.68 408.077L204.528 402.222M197.407 408.671L205.256 402.815M198.317 409.129L206.165 403.273M199.044 409.722L207.075 403.731M199.954 410.18L207.802 404.325M200.681 410.774L208.712 404.783M201.408 411.368L209.439 405.376M202.318 411.826L210.349 405.834M203.045 412.42L211.076 406.428M203.772 413.014L211.986 406.886M204.682 413.471L212.713 407.48M205.409 414.065L213.623 407.937M206.319 414.523L214.35 408.531M207.229 414.981L215.077 409.125M207.956 415.575L215.804 409.719M208.866 416.032L216.714 410.177M209.593 416.626L217.441 410.771M210.503 417.084L218.351 411.228M211.23 417.678L219.261 411.686M212.14 418.136L219.988 412.28M212.867 418.729L220.898 412.738M213.594 419.323L221.625 413.332M214.504 419.781L222.535 413.789M215.231 420.375L223.262 414.383M215.958 420.969L224.172 414.841M216.868 421.427L224.899 415.435M217.595 422.02L225.808 415.893M218.505 422.478L226.536 416.487M219.232 423.072L227.445 416.944M219.959 423.666L228.173 417.538M220.869 424.124L229.082 417.996M221.596 424.718L229.81 418.59M222.506 425.175L230.537 419.184M223.233 425.769L231.446 419.642M224.143 426.227L232.356 420.099M224.87 426.821L233.083 420.693M225.597 427.415L233.993 421.151M226.507 427.873L234.72 421.745M227.234 428.466L235.448 422.339M227.961 429.06L236.357 422.796M228.871 429.518L237.267 423.254M229.598 430.112L238.177 423.712M230.508 430.57L238.904 424.306M231.418 431.027L239.631 424.9M232.145 431.621L240.358 425.494M233.055 432.079L241.268 425.951M233.782 432.673L241.995 426.545M234.692 433.131L242.905 427.003M235.419 433.725L243.632 427.597M236.329 434.182L244.542 428.055M237.056 434.776L245.269 428.648M237.783 435.37L246.179 429.106M238.693 435.828L246.906 429.7M239.42 436.422L247.816 430.158M240.147 437.016L248.543 430.752M241.057 437.473L249.453 431.209M241.784 438.067L250.18 431.803M242.694 438.525L251.09 432.261M243.604 438.983L251.817 432.855M244.331 439.577L252.544 433.449M245.24 440.034L247.816 438.067M165.607 376.71L158.671 381.885M164.697 376.252L161.047 378.976M163.97 375.658L161.415 377.565" stroke="black"/>
<path d="M156.986 373.058C159.225 373.058 161.04 374.873 161.04 377.112C161.04 379.351 159.225 381.166 156.986 381.166C154.747 381.166 152.932 379.351 152.932 377.112C152.932 374.873 154.747 373.058 156.986 373.058ZM159.219 377.112C159.219 378.345 158.219 379.345 156.986 379.345C155.753 379.345 154.753 378.345 154.753 377.112C154.753 375.879 155.753 374.879 156.986 374.879C158.219 374.879 159.219 375.879 159.219 377.112ZM160.219 377.112C160.219 375.327 158.772 373.879 156.986 373.879C155.201 373.879 153.753 375.327 153.753 377.112C153.753 378.898 155.201 380.345 156.986 380.345C158.771 380.345 160.219 378.898 160.219 377.112Z" stroke="black"/>
<path d="M253.542 434.542C256.536 434.542 258.963 436.969 258.963 439.963C258.963 442.956 256.536 445.383 253.542 445.383C250.548 445.383 248.121 442.956 248.121 439.963C248.121 436.969 250.548 434.542 253.542 434.542ZM256.686 439.963C256.685 441.698 255.278 443.106 253.542 443.106C251.806 443.106 250.399 441.699 250.398 439.963C250.398 438.226 251.806 436.819 253.542 436.819C255.278 436.819 256.686 438.226 256.686 439.963ZM257.686 439.963C257.686 437.674 255.83 435.819 253.542 435.819C251.254 435.819 249.398 437.674 249.398 439.963C249.399 442.251 251.254 444.106 253.542 444.106C255.83 444.106 257.685 442.251 257.686 439.963Z" stroke="black"/>
<path d="M48.5941 279.876C108.636 340.07 229.175 460.867 230.997 462.506C232.135 463.531 234.817 467.976 230.997 470.704C227.809 472.981 224.165 470.78 222.571 469.338L30.3766 273.148M30.3766 273.148L25.3668 268.035C24.0007 268.035 22.5431 271.509 24.0005 273.148C25.4579 274.788 29.0103 273.949 30.3766 273.148Z" stroke="black"/>
<path d="M227.58 462.323C230.071 462.323 232.09 464.342 232.09 466.833C232.09 469.324 230.071 471.343 227.58 471.343C225.089 471.343 223.07 469.324 223.07 466.833C223.07 464.342 225.089 462.323 227.58 462.323ZM230.269 466.833C230.269 468.318 229.065 469.521 227.58 469.521C226.096 469.521 224.892 468.318 224.892 466.833C224.892 465.348 226.096 464.145 227.58 464.145C229.065 464.145 230.269 465.348 230.269 466.833ZM231.269 466.833C231.269 464.796 229.617 463.145 227.58 463.145C225.543 463.145 223.892 464.796 223.892 466.833C223.892 468.87 225.543 470.521 227.58 470.521C229.617 470.521 231.269 468.87 231.269 466.833Z" stroke="black"/>
<path d="M65.1025 272.847C64.9837 274.093 64.0152 275.088 62.7822 275.25C63.4341 274.787 64.0911 274.25 64.5498 273.715C64.7689 273.46 64.9785 273.164 65.1025 272.847ZM60.0625 271.312C60.2456 271.296 60.5551 271.291 61.0049 271.337C61.6494 271.405 62.547 271.572 63.7041 271.928C64.212 272.084 64.2142 272.251 64.2158 272.281C64.2227 272.41 64.1273 272.672 63.791 273.064C63.2002 273.752 62.1645 274.501 61.3027 275.03C60.3801 274.604 59.7404 273.671 59.7402 272.589C59.7402 272.126 59.8571 271.692 60.0625 271.312ZM62.4287 269.901C63.5046 269.901 64.43 270.535 64.8594 271.448C64.6433 271.235 64.3439 271.078 63.999 270.972C62.7885 270.6 61.8263 270.417 61.1084 270.342C61.0608 270.337 61.0136 270.336 60.9678 270.332C61.3884 270.059 61.8904 269.901 62.4287 269.901Z" stroke="black"/>
<path d="M24.9105 268.035C16.2572 268.035 5.78209 263.708 5.78209 253.233C5.78209 242.758 21.7224 229.55 38.3459 229.55C48.5932 229.55 53.3753 232.738 59.5237 232.738M24.9105 273.955C13.98 273.955 1 266.213 1 253.233C1 240.253 15.3463 225.679 37.435 225.679C49.2764 225.679 52.4644 228.867 58.6128 228.867C63.5316 228.867 66.4312 228.108 67.2662 227.728" stroke="black"/>
<path d="M333.244 48.7415C335.977 46.0089 339.165 40.5437 339.165 32.8012C339.165 25.0588 343.491 1.14832 371.956 1.14832C393.59 1.14832 399.283 18.2272 424.332 18.2272M340.076 46.0089C342.353 43.0486 343.719 35.8527 343.719 30.7518C343.719 24.3756 347.59 5.47497 372.867 5.47497C388.58 5.47497 399.283 21.8707 421.144 21.8707" stroke="black"/>
<path d="M247.39 440.19L228.717 460.002M221.658 468.427V493.932C234.335 493.932 260.325 493.932 262.875 493.932C263.875 493.932 265.077 493.82 266.291 493.575M252.4 433.814C252.819 433.605 253.282 433.496 253.767 433.471M266.291 493.575C268.946 493.038 271.658 491.865 272.439 489.833C273.578 486.873 272.667 482.774 269.251 481.18C265.836 479.586 254.677 468.427 253.767 467.516C252.856 466.606 252.856 460.457 253.311 458.18C253.767 455.903 257.638 447.25 259.004 444.061C260.37 440.873 260.826 437.458 258.549 435.408C257.258 434.247 255.39 433.389 253.767 433.471M266.291 493.575C269.1 493.694 275.628 493.575 276.994 488.011C277.801 484.724 275.628 481.635 272.439 480.496C269.251 479.358 264.469 475.259 262.192 472.982C259.915 470.705 255.133 466.833 255.019 465.581C254.928 464.579 258.245 450.817 259.915 444.061C260.522 443.986 262.033 443.424 263.217 441.784C264.697 439.735 264.014 434.27 261.054 433.359C258.685 432.63 255.209 433.13 253.767 433.471" stroke="black"/>
<path d="M265.154 481.907C267.896 481.907 270.12 484.13 270.12 486.872C270.12 489.614 267.897 491.838 265.154 491.838C262.412 491.838 260.189 489.614 260.189 486.872C260.19 484.13 262.412 481.907 265.154 481.907ZM266.477 486.872C266.477 487.602 265.884 488.194 265.154 488.194C264.425 488.194 263.833 487.602 263.833 486.872C263.833 486.142 264.425 485.551 265.154 485.551C265.884 485.551 266.476 486.142 266.477 486.872ZM267.477 486.872C267.476 485.59 266.436 484.551 265.154 484.551C263.872 484.551 262.833 485.59 262.833 486.872C262.833 488.154 263.872 489.194 265.154 489.194C266.437 489.194 267.477 488.154 267.477 486.872Z" stroke="black"/>
<path d="M221.658 493.932V498.258M221.658 498.258C221.734 498.258 221.567 498.258 220.292 498.258C218.698 498.258 217.787 499.397 217.787 500.763C217.787 501.856 217.787 520.044 217.787 529C218.85 529.608 222.888 530.822 230.539 530.822C238.191 530.822 241.925 529.608 242.836 529C242.836 520.044 242.836 501.856 242.836 500.763C242.836 499.397 242.153 498.258 240.787 498.258C239.694 498.258 227.579 498.258 221.658 498.258ZM238.965 493.932V498.258" stroke="black"/>
<path d="M177.254 530.594C177.254 535.499 226.395 539.475 287.014 539.475C347.633 539.475 396.775 535.499 396.775 530.594C396.775 527.822 381.072 525.346 356.469 523.717M177.254 530.594C177.254 529.453 179.917 528.361 184.769 527.358M177.254 530.594V547.218C177.254 552.123 226.395 556.099 287.014 556.099C347.633 556.099 396.775 552.123 396.775 547.218M242.837 522.462C256.354 521.981 271.298 521.713 287.014 521.713C307.384 521.713 326.457 522.162 342.805 522.945M217.788 523.702C206.165 524.467 196.515 525.421 189.551 526.506" stroke="black"/>
<path d="M396.777 530.594V547.446" stroke="black"/>
<path d="M344.171 521.075H355.102C355.831 521.075 356.424 521.666 356.424 522.396V528.317C356.424 529.047 355.832 529.639 355.102 529.639H344.171C343.441 529.639 342.85 529.047 342.85 528.317V522.396L342.856 522.261C342.924 521.595 343.487 521.075 344.171 521.075Z" stroke="black"/>
<path d="M201.391 447.477C201.391 447.477 205.262 453.17 207.539 456.813C208.867 458.938 213.005 461.596 213.005 475.714C213.005 499.397 184.768 511.921 184.768 530.367C185.147 530.518 186.179 530.822 187.272 530.822C188.366 530.822 189.094 530.67 189.322 530.367C189.322 511.921 217.331 504.179 217.331 474.803C217.331 470.795 215.358 463.873 214.371 460.912" stroke="black"/>
<path d="M177.256 534.466H113.495L88.6738 563.614M88.6738 563.614H468.964M88.6738 563.614V742M468.964 563.614L449.38 534.466H396.777M468.964 563.614V742" stroke="black"/>
</svg>
