<svg width="194" height="40" viewBox="0 0 194 40" fill="none" xmlns="http://www.w3.org/2000/svg">
<path d="M179.425 20.8235L171.558 3.69321V17.2953C171.558 18.5465 171.693 19.3272 171.963 19.6374C172.333 20.0578 172.919 20.268 173.72 20.268H174.44V20.8235H167.354V20.268H168.075C168.935 20.268 169.546 20.0078 169.906 19.4873C170.126 19.167 170.237 18.4364 170.237 17.2953V3.99348C170.237 3.09268 170.136 2.4421 169.936 2.04174C169.796 1.75148 169.536 1.51127 169.156 1.3211C168.785 1.12092 168.185 1.02083 167.354 1.02083V0.465332H173.119L180.506 16.3945L187.772 0.465332H193.537V1.02083H192.832C191.961 1.02083 191.345 1.28106 190.985 1.80152C190.765 2.12181 190.655 2.85246 190.655 3.99348V17.2953C190.655 18.5465 190.795 19.3272 191.075 19.6374C191.445 20.0578 192.031 20.268 192.832 20.268H193.537V20.8235H184.89V20.268H185.61C186.481 20.268 187.092 20.0078 187.442 19.4873C187.662 19.167 187.772 18.4364 187.772 17.2953V3.69321L179.92 20.8235H179.425Z" fill="#7E869A"/>
<path d="M166.094 20.268V20.8235H157.371V20.268H158.092C158.932 20.268 159.543 20.0228 159.923 19.5323C160.164 19.2121 160.284 18.4414 160.284 17.2203V4.06855C160.284 3.03763 160.219 2.35702 160.089 2.02673C159.988 1.7765 159.783 1.56131 159.473 1.38115C159.033 1.14093 158.572 1.02083 158.092 1.02083H157.371V0.465332H166.094V1.02083H165.358C164.527 1.02083 163.922 1.26605 163.542 1.75648C163.291 2.07677 163.166 2.84746 163.166 4.06855V17.2203C163.166 18.2512 163.231 18.9318 163.361 19.2621C163.462 19.5123 163.672 19.7275 163.992 19.9077C164.422 20.1479 164.878 20.268 165.358 20.268H166.094Z" fill="#7E869A"/>
<path d="M155.434 15.1935L155.929 15.2986L154.188 20.8235H138.424V20.268H139.19C140.05 20.268 140.666 19.9878 141.036 19.4272C141.246 19.107 141.351 18.3663 141.351 17.2053V4.06855C141.351 2.79741 141.211 2.0017 140.931 1.68142C140.541 1.24102 139.96 1.02083 139.19 1.02083H138.424V0.465332H147.642V1.02083C146.561 1.01082 145.8 1.11091 145.36 1.3211C144.93 1.53128 144.634 1.79652 144.474 2.11681C144.314 2.43709 144.234 3.20277 144.234 4.41386V17.2053C144.234 18.036 144.314 18.6065 144.474 18.9168C144.594 19.127 144.779 19.2821 145.03 19.3822C145.28 19.4823 146.061 19.5323 147.372 19.5323H148.858C150.42 19.5323 151.516 19.4172 152.146 19.187C152.777 18.9568 153.352 18.5515 153.873 17.971C154.393 17.3804 154.914 16.4546 155.434 15.1935Z" fill="#7E869A"/>
<path d="M108.427 20.8235V20.268H109.193C110.054 20.268 110.664 19.9928 111.025 19.4423C111.245 19.112 111.355 18.3713 111.355 17.2203V4.06855C111.355 2.79741 111.215 2.0017 110.934 1.68142C110.544 1.24102 109.964 1.02083 109.193 1.02083H108.427V0.465332H116.715C119.757 0.465332 122.069 0.81064 123.651 1.50126C125.242 2.19187 126.518 3.3429 127.479 4.95434C128.45 6.56577 128.936 8.42744 128.936 10.5393C128.936 13.3718 128.075 15.739 126.353 17.6407C124.422 19.7626 121.479 20.8235 117.525 20.8235H108.427ZM114.237 19.3522C115.509 19.6324 116.575 19.7726 117.435 19.7726C119.757 19.7726 121.684 18.9568 123.215 17.3254C124.747 15.6939 125.512 13.4819 125.512 10.6895C125.512 7.87695 124.747 5.65997 123.215 4.03852C121.684 2.41707 119.717 1.60635 117.315 1.60635C116.414 1.60635 115.388 1.75148 114.237 2.04174V19.3522Z" fill="#7E869A"/>
<path d="M85.2764 0.465332H90.8013L103.247 15.734V3.99348C103.247 2.74236 103.107 1.96167 102.827 1.65139C102.457 1.23102 101.871 1.02083 101.07 1.02083H100.365V0.465332H107.451V1.02083H106.731C105.87 1.02083 105.259 1.28106 104.899 1.80152C104.679 2.12181 104.569 2.85246 104.569 3.99348V21.1538H104.028L90.6061 4.75916V17.2953C90.6061 18.5465 90.7412 19.3272 91.0115 19.6374C91.3918 20.0578 91.9773 20.268 92.7681 20.268H93.4887V20.8235H86.4024V20.268H87.108C87.9788 20.268 88.5943 20.0078 88.9546 19.4873C89.1748 19.167 89.2849 18.4364 89.2849 17.2953V3.13772C88.6944 2.4471 88.244 1.99169 87.9337 1.7715C87.6335 1.5513 87.1881 1.34612 86.5975 1.15595C86.3073 1.06587 85.8669 1.02083 85.2764 1.02083V0.465332Z" fill="#7E869A"/>
<path d="M77.528 14.0075H69.646L68.2648 17.2204C67.9245 18.0111 67.7543 18.6016 67.7543 18.9919C67.7543 19.3022 67.8994 19.5775 68.1897 19.8177C68.49 20.0479 69.1305 20.198 70.1114 20.2681V20.8236H63.7007V20.2681C64.5514 20.1179 65.1019 19.9228 65.3522 19.6826C65.8626 19.2021 66.4281 18.2263 67.0487 16.7549L74.2101 0H74.7355L81.8218 16.9351C82.3924 18.2963 82.9078 19.1821 83.3682 19.5925C83.8386 19.9928 84.4892 20.218 85.32 20.2681V20.8236H77.2878V20.2681C78.0985 20.228 78.644 20.0929 78.9243 19.8627C79.2145 19.6325 79.3597 19.3523 79.3597 19.022C79.3597 18.5816 79.1595 17.886 78.7591 16.9351L77.528 14.0075ZM77.1076 12.8965L73.6546 4.66917L70.1114 12.8965H77.1076Z" fill="#7E869A"/>
<path d="M41.0009 20.8235L33.1339 3.69321V17.2953C33.1339 18.5465 33.269 19.3272 33.5393 19.6374C33.9096 20.0578 34.4951 20.268 35.2959 20.268H36.0165V20.8235H28.9302V20.268H29.6508C30.5116 20.268 31.1221 20.0078 31.4825 19.4873C31.7026 19.167 31.8127 18.4364 31.8127 17.2953V3.99348C31.8127 3.09268 31.7127 2.4421 31.5125 2.04174C31.3724 1.75148 31.1121 1.51127 30.7318 1.3211C30.3615 1.12092 29.7609 1.02083 28.9302 1.02083V0.465332H34.6953L42.0819 16.3945L49.3484 0.465332H55.1135V1.02083H54.4079C53.5371 1.02083 52.9216 1.28106 52.5613 1.80152C52.3411 2.12181 52.231 2.85246 52.231 3.99348V17.2953C52.231 18.5465 52.3711 19.3272 52.6513 19.6374C53.0217 20.0578 53.6072 20.268 54.4079 20.268H55.1135V20.8235H46.4658V20.268H47.1865C48.0572 20.268 48.6678 20.0078 49.0181 19.4873C49.2383 19.167 49.3484 18.4364 49.3484 17.2953V3.69321L41.4964 20.8235H41.0009Z" fill="#7E869A"/>
<path d="M27.67 20.268V20.8235H18.9473V20.268H19.6679C20.5087 20.268 21.1192 20.0228 21.4995 19.5323C21.7398 19.2121 21.8599 18.4414 21.8599 17.2203V4.06855C21.8599 3.03763 21.7948 2.35702 21.6647 2.02673C21.5646 1.7765 21.3594 1.56131 21.0491 1.38115C20.6087 1.14093 20.1483 1.02083 19.6679 1.02083H18.9473V0.465332H27.67V1.02083H26.9344C26.1036 1.02083 25.4981 1.26605 25.1178 1.75648C24.8675 2.07677 24.7424 2.84746 24.7424 4.06855V17.2203C24.7424 18.2512 24.8075 18.9318 24.9376 19.2621C25.0377 19.5123 25.2479 19.7275 25.5682 19.9077C25.9986 20.1479 26.454 20.268 26.9344 20.268H27.67Z" fill="#7E869A"/>
<path d="M17.0102 15.1935L17.5056 15.2986L15.7641 20.8235H0V20.268H0.765683C1.62645 20.268 2.242 19.9878 2.61233 19.4272C2.82252 19.107 2.92761 18.3663 2.92761 17.2053V4.06855C2.92761 2.79741 2.78749 2.0017 2.50724 1.68142C2.11689 1.24102 1.53637 1.02083 0.765683 1.02083H0V0.465332H9.21822V1.02083C8.13726 1.01082 7.37658 1.11091 6.93619 1.3211C6.5058 1.53128 6.21054 1.79652 6.0504 2.11681C5.89026 2.43709 5.81018 3.20277 5.81018 4.41386V17.2053C5.81018 18.036 5.89026 18.6065 6.0504 18.9168C6.17051 19.127 6.35567 19.2821 6.60589 19.3822C6.85612 19.4823 7.63681 19.5323 8.94798 19.5323H10.4343C11.9957 19.5323 13.0917 19.4172 13.7222 19.187C14.3528 18.9568 14.9283 18.5515 15.4488 17.971C15.9692 17.3804 16.4897 16.4546 17.0102 15.1935Z" fill="#7E869A"/>
<path d="M183.469 31.2253H185.795L191.036 37.6546V32.711C191.036 32.1841 190.977 31.8554 190.859 31.7248C190.703 31.5478 190.456 31.4592 190.119 31.4592H189.822V31.2253H192.806V31.4592H192.503C192.14 31.4592 191.883 31.5688 191.731 31.788C191.639 31.9228 191.592 32.2305 191.592 32.711V39.9368H191.365L185.713 33.0334V38.3121C185.713 38.8389 185.77 39.1676 185.884 39.2983C186.044 39.4753 186.29 39.5638 186.623 39.5638H186.927V39.7977H183.943V39.5638H184.24C184.607 39.5638 184.866 39.4542 185.018 39.2351C185.11 39.1002 185.157 38.7925 185.157 38.3121V32.3506C184.908 32.0598 184.718 31.8681 184.588 31.7753C184.461 31.6826 184.274 31.5962 184.025 31.5161C183.903 31.4782 183.717 31.4592 183.469 31.4592V31.2253Z" fill="#7E869A"/>
<path d="M179.147 31.0293C180.259 31.0293 181.222 31.4529 182.036 32.3C182.853 33.1429 183.262 34.1965 183.262 35.4609C183.262 36.7632 182.851 37.8442 182.029 38.704C181.207 39.5637 180.213 39.9936 179.045 39.9936C177.865 39.9936 176.873 39.5743 176.068 38.7356C175.267 37.8969 174.867 36.8116 174.867 35.4798C174.867 34.1186 175.33 33.008 176.257 32.1483C177.062 31.4023 178.025 31.0293 179.147 31.0293ZM179.026 31.4908C178.259 31.4908 177.644 31.7753 177.18 32.3442C176.603 33.0523 176.314 34.0891 176.314 35.4546C176.314 36.8538 176.614 37.9306 177.212 38.685C177.671 39.2582 178.278 39.5448 179.033 39.5448C179.838 39.5448 180.502 39.2308 181.024 38.6028C181.551 37.9749 181.814 36.9844 181.814 35.6316C181.814 34.1649 181.526 33.0712 180.948 32.3506C180.485 31.7774 179.844 31.4908 179.026 31.4908Z" fill="#7E869A"/>
<path d="M174.226 39.5638V39.7977H170.553V39.5638H170.856C171.21 39.5638 171.467 39.4606 171.627 39.254C171.729 39.1192 171.779 38.7947 171.779 38.2805V32.7426C171.779 32.3085 171.752 32.0219 171.697 31.8828C171.655 31.7774 171.568 31.6868 171.438 31.611C171.252 31.5098 171.058 31.4592 170.856 31.4592H170.553V31.2253H174.226V31.4592H173.916C173.566 31.4592 173.311 31.5625 173.151 31.769C173.046 31.9039 172.993 32.2284 172.993 32.7426V38.2805C172.993 38.7146 173.02 39.0012 173.075 39.1402C173.117 39.2456 173.206 39.3362 173.341 39.4121C173.522 39.5132 173.714 39.5638 173.916 39.5638H174.226Z" fill="#7E869A"/>
<path d="M169.937 31.2253L170.032 33.2357H169.791C169.745 32.8817 169.682 32.6288 169.602 32.4771C169.471 32.2326 169.296 32.0535 169.077 31.9397C168.862 31.8217 168.578 31.7627 168.224 31.7627H167.016V38.3121C167.016 38.8389 167.073 39.1676 167.187 39.2983C167.347 39.4753 167.594 39.5638 167.926 39.5638H168.224V39.7977H164.589V39.5638H164.892C165.254 39.5638 165.512 39.4542 165.663 39.2351C165.756 39.1002 165.802 38.7925 165.802 38.3121V31.7627H164.772C164.371 31.7627 164.087 31.7922 163.918 31.8512C163.699 31.9313 163.512 32.0851 163.356 32.3127C163.2 32.5403 163.107 32.8479 163.078 33.2357H162.837L162.939 31.2253H169.937Z" fill="#7E869A"/>
<path d="M159.142 36.9275H155.823L155.241 38.2804C155.098 38.6134 155.026 38.862 155.026 39.0264C155.026 39.157 155.087 39.2729 155.21 39.3741C155.336 39.471 155.606 39.5342 156.019 39.5637V39.7976H153.319V39.5637C153.678 39.5005 153.909 39.4183 154.015 39.3172C154.23 39.1149 154.468 38.704 154.729 38.0844L157.745 31.0293H157.966L160.95 38.1603C161.19 38.7335 161.407 39.1065 161.601 39.2793C161.799 39.4478 162.073 39.5427 162.423 39.5637V39.7976H159.041V39.5637C159.382 39.5469 159.612 39.49 159.73 39.3931C159.852 39.2961 159.913 39.1781 159.913 39.039C159.913 38.8536 159.829 38.5607 159.66 38.1603L159.142 36.9275ZM158.965 36.4597L157.511 32.9954L156.019 36.4597H158.965Z" fill="#7E869A"/>
<path d="M153.462 39.7977H151.173L148.272 35.7897C148.057 35.7981 147.882 35.8023 147.747 35.8023C147.692 35.8023 147.633 35.8023 147.57 35.8023C147.507 35.7981 147.441 35.7939 147.374 35.7897V38.2805C147.374 38.8199 147.433 39.155 147.551 39.2856C147.711 39.4711 147.951 39.5638 148.272 39.5638H148.607V39.7977H144.934V39.5638H145.256C145.618 39.5638 145.878 39.4458 146.034 39.2098C146.122 39.0791 146.166 38.7694 146.166 38.2805V32.7426C146.166 32.2031 146.107 31.8681 145.989 31.7374C145.825 31.552 145.581 31.4592 145.256 31.4592H144.934V31.2253H148.057C148.967 31.2253 149.637 31.2928 150.067 31.4276C150.501 31.5583 150.868 31.8027 151.167 32.161C151.47 32.515 151.622 32.9386 151.622 33.4317C151.622 33.9585 151.449 34.4157 151.104 34.8035C150.762 35.1912 150.231 35.4652 149.511 35.6253L151.281 38.0845C151.685 38.6493 152.033 39.0243 152.324 39.2098C152.615 39.3952 152.994 39.5132 153.462 39.5638V39.7977ZM147.374 35.3914C147.454 35.3914 147.523 35.3935 147.582 35.3977C147.641 35.3977 147.69 35.3977 147.728 35.3977C148.545 35.3977 149.161 35.2207 149.574 34.8667C149.991 34.5127 150.2 34.0617 150.2 33.5138C150.2 32.9786 150.031 32.5445 149.694 32.2115C149.361 31.8744 148.918 31.7058 148.366 31.7058C148.122 31.7058 147.791 31.7458 147.374 31.8259V35.3914Z" fill="#7E869A"/>
<path d="M140.22 31.0293C141.333 31.0293 142.296 31.4529 143.109 32.3C143.927 33.1429 144.336 34.1965 144.336 35.4609C144.336 36.7632 143.925 37.8442 143.103 38.704C142.281 39.5637 141.287 39.9936 140.119 39.9936C138.939 39.9936 137.947 39.5743 137.142 38.7356C136.341 37.8969 135.94 36.8116 135.94 35.4798C135.94 34.1186 136.404 33.008 137.331 32.1483C138.136 31.4023 139.099 31.0293 140.22 31.0293ZM140.1 31.4908C139.333 31.4908 138.718 31.7753 138.254 32.3442C137.677 33.0523 137.388 34.0891 137.388 35.4546C137.388 36.8538 137.687 37.9306 138.286 38.685C138.745 39.2582 139.352 39.5448 140.107 39.5448C140.911 39.5448 141.575 39.2308 142.098 38.6028C142.625 37.9749 142.888 36.9844 142.888 35.6316C142.888 34.1649 142.599 33.0712 142.022 32.3506C141.558 31.7774 140.918 31.4908 140.1 31.4908Z" fill="#7E869A"/>
<path d="M131.062 35.7834V38.2805C131.062 38.8199 131.121 39.155 131.239 39.2856C131.399 39.4711 131.642 39.5638 131.966 39.5638H132.295V39.7977H128.622V39.5638H128.944C129.307 39.5638 129.566 39.4458 129.722 39.2098C129.806 39.0791 129.849 38.7694 129.849 38.2805V32.7426C129.849 32.2031 129.792 31.8681 129.678 31.7374C129.513 31.552 129.269 31.4592 128.944 31.4592H128.622V31.2253H131.764C132.531 31.2253 133.136 31.3054 133.578 31.4656C134.021 31.6215 134.394 31.887 134.697 32.2621C135.001 32.6372 135.152 33.0818 135.152 33.596C135.152 34.2956 134.921 34.8646 134.457 35.3029C133.998 35.7412 133.347 35.9604 132.504 35.9604C132.297 35.9604 132.074 35.9456 131.834 35.9161C131.593 35.8866 131.336 35.8424 131.062 35.7834ZM131.062 35.423C131.286 35.4652 131.484 35.4968 131.657 35.5178C131.829 35.5389 131.977 35.5495 132.099 35.5495C132.537 35.5495 132.915 35.3809 133.231 35.0437C133.551 34.7023 133.711 34.2619 133.711 33.7225C133.711 33.3516 133.635 33.0081 133.484 32.692C133.332 32.3717 133.117 32.1336 132.839 31.9776C132.561 31.8175 132.244 31.7374 131.89 31.7374C131.676 31.7374 131.399 31.7774 131.062 31.8575V35.423Z" fill="#7E869A"/>
<path d="M128.651 39.7977H126.363L123.461 35.7897C123.246 35.7981 123.071 35.8023 122.936 35.8023C122.881 35.8023 122.822 35.8023 122.759 35.8023C122.696 35.7981 122.631 35.7939 122.563 35.7897V38.2805C122.563 38.8199 122.622 39.155 122.74 39.2856C122.9 39.4711 123.141 39.5638 123.461 39.5638H123.796V39.7977H120.123V39.5638H120.445C120.808 39.5638 121.067 39.4458 121.223 39.2098C121.312 39.0791 121.356 38.7694 121.356 38.2805V32.7426C121.356 32.2031 121.297 31.8681 121.179 31.7374C121.014 31.552 120.77 31.4592 120.445 31.4592H120.123V31.2253H123.246C124.156 31.2253 124.826 31.2928 125.256 31.4276C125.69 31.5583 126.057 31.8027 126.356 32.161C126.66 32.515 126.812 32.9386 126.812 33.4317C126.812 33.9585 126.639 34.4157 126.293 34.8035C125.952 35.1912 125.421 35.4652 124.7 35.6253L126.47 38.0845C126.875 38.6493 127.222 39.0243 127.513 39.2098C127.804 39.3952 128.183 39.5132 128.651 39.5638V39.7977ZM122.563 35.3914C122.643 35.3914 122.713 35.3935 122.772 35.3977C122.831 35.3977 122.879 35.3977 122.917 35.3977C123.735 35.3977 124.35 35.2207 124.763 34.8667C125.18 34.5127 125.389 34.0617 125.389 33.5138C125.389 32.9786 125.221 32.5445 124.883 32.2115C124.55 31.8744 124.108 31.7058 123.556 31.7058C123.311 31.7058 122.981 31.7458 122.563 31.8259V35.3914Z" fill="#7E869A"/>
<path d="M115.41 31.0293C116.522 31.0293 117.485 31.4529 118.299 32.3C119.116 33.1429 119.525 34.1965 119.525 35.4609C119.525 36.7632 119.114 37.8442 118.292 38.704C117.471 39.5637 116.476 39.9936 115.309 39.9936C114.129 39.9936 113.136 39.5743 112.331 38.7356C111.53 37.8969 111.13 36.8116 111.13 35.4798C111.13 34.1186 111.593 33.008 112.521 32.1483C113.326 31.4023 114.289 31.0293 115.41 31.0293ZM115.29 31.4908C114.523 31.4908 113.907 31.7753 113.444 32.3442C112.866 33.0523 112.578 34.0891 112.578 35.4546C112.578 36.8538 112.877 37.9306 113.475 38.685C113.935 39.2582 114.542 39.5448 115.296 39.5448C116.101 39.5448 116.765 39.2308 117.287 38.6028C117.814 37.9749 118.078 36.9844 118.078 35.6316C118.078 34.1649 117.789 33.0712 117.211 32.3506C116.748 31.7774 116.107 31.4908 115.29 31.4908Z" fill="#7E869A"/>
<path d="M109.963 31.0293L110.159 33.9437H109.963C109.702 33.0712 109.329 32.4433 108.844 32.0598C108.36 31.6762 107.778 31.4845 107.099 31.4845C106.53 31.4845 106.016 31.6299 105.557 31.9207C105.098 32.2073 104.735 32.6666 104.47 33.2988C104.208 33.931 104.078 34.717 104.078 35.6569C104.078 36.4323 104.202 37.1046 104.451 37.6735C104.699 38.2425 105.072 38.6787 105.57 38.9821C106.071 39.2856 106.642 39.4373 107.283 39.4373C107.839 39.4373 108.33 39.3193 108.756 39.0833C109.181 38.8431 109.649 38.3689 110.159 37.6609L110.355 37.7873C109.925 38.5501 109.424 39.1086 108.851 39.4626C108.277 39.8166 107.597 39.9936 106.809 39.9936C105.388 39.9936 104.288 39.4668 103.509 38.4132C102.927 37.6293 102.636 36.7063 102.636 35.6442C102.636 34.7887 102.828 34.0027 103.212 33.2862C103.595 32.5697 104.122 32.0155 104.792 31.6235C105.466 31.2274 106.202 31.0293 106.998 31.0293C107.618 31.0293 108.229 31.181 108.832 31.4845C109.009 31.5772 109.135 31.6235 109.211 31.6235C109.325 31.6235 109.424 31.5835 109.508 31.5034C109.618 31.3896 109.696 31.2316 109.742 31.0293H109.963Z" fill="#7E869A"/>
<path d="M96.005 31.2253H98.9953V31.4592H98.8309C98.7213 31.4592 98.5612 31.5077 98.3504 31.6047C98.1397 31.7016 97.948 31.8407 97.7752 32.0219C97.6024 32.2031 97.3895 32.4981 97.1367 32.9069L95.0694 36.1627V38.3121C95.0694 38.8389 95.1284 39.1676 95.2464 39.2983C95.4066 39.4753 95.6595 39.5638 96.005 39.5638H96.2832V39.7977H92.6418V39.5638H92.9453C93.3077 39.5638 93.5648 39.4542 93.7166 39.2351C93.8093 39.1002 93.8556 38.7925 93.8556 38.3121V36.2828L91.5039 32.692C91.2258 32.2705 91.0361 32.0071 90.935 31.9018C90.838 31.7964 90.6336 31.67 90.3217 31.5225C90.2375 31.4803 90.1152 31.4592 89.9551 31.4592V31.2253H93.6217V31.4592H93.4321C93.234 31.4592 93.0507 31.5056 92.8821 31.5983C92.7177 31.691 92.6355 31.8301 92.6355 32.0156C92.6355 32.1673 92.7641 32.4412 93.0212 32.8374L94.8102 35.6L96.4918 32.9575C96.7447 32.5614 96.8711 32.2663 96.8711 32.0725C96.8711 31.9545 96.8395 31.8491 96.7763 31.7564C96.7173 31.6637 96.6309 31.592 96.5171 31.5414C96.4033 31.4866 96.2326 31.4592 96.005 31.4592V31.2253Z" fill="#7E869A"/>
<path d="M89.1234 31.0293L89.3193 33.9437H89.1234C88.8621 33.0712 88.4891 32.4433 88.0044 32.0598C87.5197 31.6762 86.9381 31.4845 86.2596 31.4845C85.6906 31.4845 85.1764 31.6299 84.7171 31.9207C84.2577 32.2073 83.8952 32.6666 83.6297 33.2988C83.3684 33.931 83.2378 34.717 83.2378 35.6569C83.2378 36.4323 83.3621 37.1046 83.6107 37.6735C83.8594 38.2425 84.2324 38.6787 84.7297 38.9821C85.2312 39.2856 85.8023 39.4373 86.4429 39.4373C86.9992 39.4373 87.4902 39.3193 87.9159 39.0833C88.3416 38.8431 88.8094 38.3689 89.3193 37.6609L89.5153 37.7873C89.0854 38.5501 88.5839 39.1086 88.0107 39.4626C87.4375 39.8166 86.7569 39.9936 85.9688 39.9936C84.5485 39.9936 83.4485 39.4668 82.6688 38.4132C82.0872 37.6293 81.7964 36.7063 81.7964 35.6442C81.7964 34.7887 81.9881 34.0027 82.3717 33.2862C82.7552 32.5697 83.282 32.0155 83.9521 31.6235C84.6264 31.2274 85.3619 31.0293 86.1584 31.0293C86.778 31.0293 87.3891 31.181 87.9918 31.4845C88.1688 31.5772 88.2952 31.6235 88.3711 31.6235C88.4849 31.6235 88.5839 31.5835 88.6682 31.5034C88.7778 31.3896 88.8557 31.2316 88.9021 31.0293H89.1234Z" fill="#7E869A"/>
<path d="M71.9307 31.2253H74.2571L79.4979 37.6546V32.711C79.4979 32.1841 79.4389 31.8554 79.3209 31.7248C79.1649 31.5478 78.9184 31.4592 78.5812 31.4592H78.2841V31.2253H81.268V31.4592H80.9645C80.6021 31.4592 80.345 31.5688 80.1933 31.788C80.1005 31.9228 80.0542 32.2305 80.0542 32.711V39.9368H79.8266L74.1749 33.0334V38.3121C74.1749 38.8389 74.2318 39.1676 74.3456 39.2983C74.5057 39.4753 74.7523 39.5638 75.0852 39.5638H75.3887V39.7977H72.4048V39.5638H72.7019C73.0686 39.5638 73.3278 39.4542 73.4795 39.2351C73.5722 39.1002 73.6186 38.7925 73.6186 38.3121V32.3506C73.3699 32.0598 73.1803 31.8681 73.0496 31.7753C72.9232 31.6826 72.7356 31.5962 72.487 31.5161C72.3648 31.4782 72.1793 31.4592 71.9307 31.4592V31.2253Z" fill="#7E869A"/>
<path d="M68.7989 36.9275H65.48L64.8984 38.2804C64.7551 38.6134 64.6835 38.862 64.6835 39.0264C64.6835 39.157 64.7446 39.2729 64.8668 39.3741C64.9932 39.471 65.2629 39.5342 65.676 39.5637V39.7976H62.9766V39.5637C63.3348 39.5005 63.5666 39.4183 63.672 39.3172C63.8869 39.1149 64.125 38.704 64.3863 38.0844L67.4018 31.0293H67.6231L70.607 38.1603C70.8472 38.7335 71.0643 39.1065 71.2581 39.2793C71.4562 39.4478 71.7302 39.5427 72.08 39.5637V39.7976H68.6978V39.5637C69.0392 39.5469 69.2689 39.49 69.3869 39.3931C69.5091 39.2961 69.5702 39.1781 69.5702 39.039C69.5702 38.8536 69.4859 38.5607 69.3173 38.1603L68.7989 36.9275ZM68.6219 36.4597L67.1679 32.9954L65.676 36.4597H68.6219Z" fill="#7E869A"/>
<path d="M62.5813 31.2253L62.6762 33.2357H62.4359C62.3896 32.8817 62.3263 32.6288 62.2463 32.4771C62.1156 32.2326 61.9407 32.0535 61.7216 31.9397C61.5066 31.8217 61.2221 31.7627 60.8681 31.7627H59.6606V38.3121C59.6606 38.8389 59.7175 39.1676 59.8313 39.2983C59.9915 39.4753 60.238 39.5638 60.571 39.5638H60.8681V39.7977H57.2331V39.5638H57.5365C57.899 39.5638 58.1561 39.4542 58.3078 39.2351C58.4005 39.1002 58.4469 38.7925 58.4469 38.3121V31.7627H57.4164C57.016 31.7627 56.7315 31.7922 56.563 31.8512C56.3438 31.9313 56.1563 32.0851 56.0003 32.3127C55.8444 32.5403 55.7517 32.8479 55.7222 33.2357H55.4819L55.5831 31.2253H62.5813Z" fill="#7E869A"/>
<path d="M45.6924 31.2253H48.0188L53.2596 37.6546V32.711C53.2596 32.1841 53.2006 31.8554 53.0826 31.7248C52.9266 31.5478 52.6801 31.4592 52.3429 31.4592H52.0458V31.2253H55.0297V31.4592H54.7262C54.3638 31.4592 54.1067 31.5688 53.955 31.788C53.8623 31.9228 53.8159 32.2305 53.8159 32.711V39.9368H53.5883L47.9366 33.0334V38.3121C47.9366 38.8389 47.9935 39.1676 48.1073 39.2983C48.2675 39.4753 48.514 39.5638 48.847 39.5638H49.1504V39.7977H46.1665V39.5638H46.4636C46.8303 39.5638 47.0895 39.4542 47.2412 39.2351C47.3339 39.1002 47.3803 38.7925 47.3803 38.3121V32.3506C47.1316 32.0598 46.942 31.8681 46.8113 31.7753C46.6849 31.6826 46.4974 31.5962 46.2487 31.5161C46.1265 31.4782 45.941 31.4592 45.6924 31.4592V31.2253Z" fill="#7E869A"/>
<path d="M42.8129 31.4592V31.2253H45.8474V31.4592H45.525C45.1878 31.4592 44.9286 31.6004 44.7474 31.8828C44.6589 32.0135 44.6146 32.3169 44.6146 32.7932V36.2701C44.6146 37.1299 44.5282 37.7979 44.3554 38.2742C44.1869 38.7462 43.8518 39.1529 43.3503 39.4943C42.853 39.8314 42.1744 40 41.3147 40C40.379 40 39.6689 39.8378 39.1842 39.5132C38.6995 39.1887 38.356 38.7525 38.1537 38.2046C38.0189 37.8295 37.9515 37.1257 37.9515 36.0931V32.7426C37.9515 32.2158 37.8777 31.8702 37.7302 31.7058C37.5869 31.5414 37.353 31.4592 37.0285 31.4592H36.7061V31.2253H40.4106V31.4592H40.0819C39.7279 31.4592 39.475 31.5709 39.3233 31.7943C39.2179 31.946 39.1652 32.2621 39.1652 32.7426V36.4788C39.1652 36.8117 39.1947 37.1931 39.2537 37.623C39.317 38.0529 39.4286 38.388 39.5888 38.6282C39.749 38.8684 39.9786 39.0665 40.2779 39.2224C40.5813 39.3784 40.9522 39.4563 41.3905 39.4563C41.951 39.4563 42.4526 39.3341 42.8951 39.0897C43.3376 38.8452 43.639 38.5334 43.7991 38.154C43.9635 37.7705 44.0457 37.1236 44.0457 36.2132V32.7426C44.0457 32.2073 43.9867 31.8723 43.8687 31.7374C43.7043 31.552 43.4599 31.4592 43.1353 31.4592H42.8129Z" fill="#7E869A"/>
<path d="M32.1451 31.0293C33.2577 31.0293 34.2208 31.4529 35.0342 32.3C35.8518 33.1429 36.2606 34.1965 36.2606 35.4609C36.2606 36.7632 35.8497 37.8442 35.0278 38.704C34.206 39.5637 33.2114 39.9936 32.0439 39.9936C30.8639 39.9936 29.8714 39.5743 29.0664 38.7356C28.2656 37.8969 27.8652 36.8116 27.8652 35.4798C27.8652 34.1186 28.3288 33.008 29.256 32.1483C30.061 31.4023 31.024 31.0293 32.1451 31.0293ZM32.025 31.4908C31.2579 31.4908 30.6426 31.7753 30.179 32.3442C29.6016 33.0523 29.3129 34.0891 29.3129 35.4546C29.3129 36.8538 29.6122 37.9306 30.2106 38.685C30.67 39.2582 31.2769 39.5448 32.0313 39.5448C32.8363 39.5448 33.5001 39.2308 34.0227 38.6028C34.5495 37.9749 34.8129 36.9844 34.8129 35.6316C34.8129 34.1649 34.5242 33.0712 33.9468 32.3506C33.4832 31.7774 32.8426 31.4908 32.025 31.4908Z" fill="#7E869A"/>
<path d="M26.6971 31.0293L26.8931 33.9437H26.6971C26.4358 33.0712 26.0628 32.4433 25.5781 32.0598C25.0935 31.6762 24.5119 31.4845 23.8333 31.4845C23.2644 31.4845 22.7502 31.6299 22.2908 31.9207C21.8314 32.2073 21.469 32.6666 21.2034 33.2988C20.9421 33.931 20.8115 34.717 20.8115 35.6569C20.8115 36.4323 20.9358 37.1046 21.1845 37.6735C21.4331 38.2425 21.8061 38.6787 22.3034 38.9821C22.805 39.2856 23.376 39.4373 24.0166 39.4373C24.573 39.4373 25.064 39.3193 25.4896 39.0833C25.9153 38.8431 26.3831 38.3689 26.8931 37.6609L27.089 37.7873C26.6592 38.5501 26.1576 39.1086 25.5845 39.4626C25.0113 39.8166 24.3306 39.9936 23.5425 39.9936C22.1222 39.9936 21.0222 39.4668 20.2425 38.4132C19.6609 37.6293 19.3701 36.7063 19.3701 35.6442C19.3701 34.7887 19.5619 34.0027 19.9454 33.2862C20.3289 32.5697 20.8557 32.0155 21.5259 31.6235C22.2002 31.2274 22.9356 31.0293 23.7322 31.0293C24.3517 31.0293 24.9628 31.181 25.5655 31.4845C25.7425 31.5772 25.8689 31.6235 25.9448 31.6235C26.0586 31.6235 26.1576 31.5835 26.2419 31.5034C26.3515 31.3896 26.4295 31.2316 26.4758 31.0293H26.6971Z" fill="#7E869A"/>
<path d="M18.1927 31.0293L18.3887 33.9437H18.1927C17.9314 33.0712 17.5584 32.4433 17.0737 32.0598C16.5891 31.6762 16.0075 31.4845 15.3289 31.4845C14.76 31.4845 14.2458 31.6299 13.7864 31.9207C13.327 32.2073 12.9646 32.6666 12.699 33.2988C12.4377 33.931 12.3071 34.717 12.3071 35.6569C12.3071 36.4323 12.4314 37.1046 12.6801 37.6735C12.9287 38.2425 13.3017 38.6787 13.799 38.9821C14.3006 39.2856 14.8716 39.4373 15.5123 39.4373C16.0686 39.4373 16.5596 39.3193 16.9852 39.0833C17.4109 38.8431 17.8787 38.3689 18.3887 37.6609L18.5847 37.7873C18.1548 38.5501 17.6532 39.1086 17.0801 39.4626C16.5069 39.8166 15.8262 39.9936 15.0381 39.9936C13.6178 39.9936 12.5178 39.4668 11.7381 38.4132C11.1565 37.6293 10.8657 36.7063 10.8657 35.6442C10.8657 34.7887 11.0575 34.0027 11.441 33.2862C11.8245 32.5697 12.3513 32.0155 13.0215 31.6235C13.6958 31.2274 14.4312 31.0293 15.2278 31.0293C15.8473 31.0293 16.4584 31.181 17.0611 31.4845C17.2381 31.5772 17.3645 31.6235 17.4404 31.6235C17.5542 31.6235 17.6532 31.5835 17.7375 31.5034C17.8471 31.3896 17.9251 31.2316 17.9714 31.0293H18.1927Z" fill="#7E869A"/>
<path d="M7.09338 36.9275H3.77443L3.19283 38.2804C3.04953 38.6134 2.97788 38.862 2.97788 39.0264C2.97788 39.157 3.039 39.2729 3.16122 39.3741C3.28765 39.471 3.55738 39.5342 3.97041 39.5637V39.7976H1.271V39.5637C1.62923 39.5005 1.86103 39.4183 1.9664 39.3172C2.18134 39.1149 2.41946 38.704 2.68076 38.0844L5.69626 31.0293H5.91753L8.90142 38.1603C9.14165 38.7335 9.3587 39.1065 9.55257 39.2793C9.75065 39.4478 10.0246 39.5427 10.3744 39.5637V39.7976H6.99223V39.5637C7.33361 39.5469 7.5633 39.49 7.68131 39.3931C7.80353 39.2961 7.86464 39.1781 7.86464 39.039C7.86464 38.8536 7.78035 38.5607 7.61177 38.1603L7.09338 36.9275ZM6.91637 36.4597L5.46236 32.9954L3.97041 36.4597H6.91637Z" fill="#7E869A"/>
</svg>
