<svg width="211" height="40" viewBox="0 0 211 40" fill="none" xmlns="http://www.w3.org/2000/svg">
<path d="M199.584 30.7805V13.7405H201.6V24.9005L207.792 18.0605H210.48L205.464 23.4605L210.696 30.7805H208.248L204.096 24.8285L201.6 27.4685V30.7805H199.584Z" fill="white"/>
<path d="M185.873 30.7805V18.0605H187.721L187.793 21.3005L187.553 21.0845C187.713 20.3325 187.993 19.7165 188.393 19.2365C188.793 18.7405 189.273 18.3725 189.833 18.1325C190.409 17.8925 191.025 17.7725 191.681 17.7725C192.657 17.7725 193.457 17.9885 194.081 18.4205C194.721 18.8525 195.193 19.4365 195.497 20.1725C195.817 20.8925 195.977 21.7005 195.977 22.5965V30.7805H193.961V23.1725C193.961 22.3885 193.865 21.7325 193.673 21.2045C193.497 20.6605 193.209 20.2525 192.809 19.9805C192.409 19.6925 191.889 19.5485 191.249 19.5485C190.273 19.5485 189.465 19.8605 188.825 20.4845C188.201 21.0925 187.889 21.9885 187.889 23.1725V30.7805H185.873Z" fill="white"/>
<path d="M176.181 31.0685C174.869 31.0685 173.821 30.7645 173.037 30.1565C172.269 29.5485 171.885 28.7005 171.885 27.6125C171.885 26.5245 172.205 25.6685 172.845 25.0445C173.485 24.4205 174.501 23.9805 175.893 23.7245L180.405 22.8845C180.405 21.8125 180.149 21.0125 179.637 20.4845C179.141 19.9565 178.389 19.6925 177.381 19.6925C176.501 19.6925 175.805 19.8925 175.293 20.2925C174.781 20.6765 174.429 21.2365 174.237 21.9725L172.101 21.8045C172.341 20.6045 172.917 19.6365 173.829 18.9005C174.757 18.1485 175.941 17.7725 177.381 17.7725C179.013 17.7725 180.261 18.2365 181.125 19.1645C181.989 20.0765 182.421 21.3405 182.421 22.9565V28.2125C182.421 28.5005 182.469 28.7085 182.565 28.8365C182.677 28.9485 182.853 29.0045 183.093 29.0045H183.597V30.7805C183.533 30.7965 183.429 30.8045 183.285 30.8045C183.141 30.8205 182.989 30.8285 182.829 30.8285C182.253 30.8285 181.781 30.7405 181.413 30.5645C181.061 30.3725 180.805 30.0845 180.645 29.7005C180.485 29.3005 180.405 28.7805 180.405 28.1405L180.645 28.1885C180.533 28.7325 180.261 29.2285 179.829 29.6765C179.397 30.1085 178.861 30.4525 178.221 30.7085C177.581 30.9485 176.901 31.0685 176.181 31.0685ZM176.373 29.2925C177.221 29.2925 177.941 29.1325 178.533 28.8125C179.141 28.4765 179.605 28.0285 179.925 27.4685C180.245 26.8925 180.405 26.2525 180.405 25.5485V24.6365L176.277 25.4045C175.413 25.5645 174.813 25.8125 174.477 26.1485C174.157 26.4685 173.997 26.8925 173.997 27.4205C173.997 28.0125 174.205 28.4765 174.621 28.8125C175.053 29.1325 175.637 29.2925 176.373 29.2925Z" fill="white"/>
<path d="M157.004 30.7805V13.7405H163.46C164.66 13.7405 165.692 13.9485 166.556 14.3645C167.42 14.7805 168.084 15.3805 168.548 16.1645C169.028 16.9325 169.268 17.8445 169.268 18.9005C169.268 19.6685 169.084 20.3565 168.716 20.9645C168.364 21.5565 167.908 22.0285 167.348 22.3805C166.788 22.7325 166.204 22.9245 165.596 22.9565L165.452 22.7405C166.492 22.7405 167.308 22.9805 167.9 23.4605C168.508 23.9405 168.86 24.7085 168.956 25.7645L169.436 30.7805H167.348L166.916 25.9805C166.852 25.2765 166.596 24.7565 166.148 24.4205C165.716 24.0845 165.004 23.9165 164.012 23.9165H159.068V30.7805H157.004ZM159.068 21.9005H163.724C164.764 21.9005 165.588 21.6365 166.196 21.1085C166.804 20.5805 167.108 19.8285 167.108 18.8525C167.108 17.8605 166.796 17.1005 166.172 16.5725C165.548 16.0285 164.644 15.7565 163.46 15.7565H159.068V21.9005Z" fill="white"/>
<path d="M140.956 31.0685C139.852 31.0685 138.892 30.7965 138.076 30.2525C137.276 29.7085 136.66 28.9405 136.228 27.9485C135.796 26.9565 135.58 25.7805 135.58 24.4205C135.58 23.0605 135.796 21.8845 136.228 20.8925C136.66 19.9005 137.276 19.1325 138.076 18.5885C138.892 18.0445 139.852 17.7725 140.956 17.7725C141.804 17.7725 142.58 17.9565 143.284 18.3245C143.988 18.6765 144.516 19.1805 144.868 19.8365V13.7405H146.884V30.7805H145.06L144.988 28.8605C144.636 29.5485 144.1 30.0925 143.38 30.4925C142.66 30.8765 141.852 31.0685 140.956 31.0685ZM141.364 29.1485C142.116 29.1485 142.748 28.9565 143.26 28.5725C143.788 28.1885 144.188 27.6445 144.46 26.9405C144.732 26.2205 144.868 25.3805 144.868 24.4205C144.868 23.4285 144.732 22.5805 144.46 21.8765C144.188 21.1725 143.788 20.6365 143.26 20.2685C142.748 19.8845 142.116 19.6925 141.364 19.6925C140.244 19.6925 139.348 20.1165 138.676 20.9645C138.02 21.7965 137.692 22.9485 137.692 24.4205C137.692 25.8765 138.02 27.0285 138.676 27.8765C139.348 28.7245 140.244 29.1485 141.364 29.1485Z" fill="white"/>
<path d="M122.779 30.7805V18.0605H124.627L124.699 21.3005L124.459 21.0845C124.619 20.3325 124.899 19.7165 125.299 19.2365C125.699 18.7405 126.179 18.3725 126.739 18.1325C127.315 17.8925 127.931 17.7725 128.587 17.7725C129.563 17.7725 130.363 17.9885 130.987 18.4205C131.627 18.8525 132.099 19.4365 132.403 20.1725C132.723 20.8925 132.883 21.7005 132.883 22.5965V30.7805H130.867V23.1725C130.867 22.3885 130.771 21.7325 130.579 21.2045C130.403 20.6605 130.115 20.2525 129.715 19.9805C129.315 19.6925 128.795 19.5485 128.155 19.5485C127.179 19.5485 126.371 19.8605 125.731 20.4845C125.107 21.0925 124.795 21.9885 124.795 23.1725V30.7805H122.779Z" fill="white"/>
<path d="M113.087 31.0685C111.775 31.0685 110.727 30.7645 109.943 30.1565C109.175 29.5485 108.791 28.7005 108.791 27.6125C108.791 26.5245 109.111 25.6685 109.751 25.0445C110.391 24.4205 111.407 23.9805 112.799 23.7245L117.311 22.8845C117.311 21.8125 117.055 21.0125 116.543 20.4845C116.047 19.9565 115.295 19.6925 114.287 19.6925C113.407 19.6925 112.711 19.8925 112.199 20.2925C111.687 20.6765 111.335 21.2365 111.143 21.9725L109.007 21.8045C109.247 20.6045 109.823 19.6365 110.735 18.9005C111.663 18.1485 112.847 17.7725 114.287 17.7725C115.919 17.7725 117.167 18.2365 118.031 19.1645C118.895 20.0765 119.327 21.3405 119.327 22.9565V28.2125C119.327 28.5005 119.375 28.7085 119.471 28.8365C119.583 28.9485 119.759 29.0045 119.999 29.0045H120.503V30.7805C120.439 30.7965 120.335 30.8045 120.191 30.8045C120.047 30.8205 119.895 30.8285 119.735 30.8285C119.159 30.8285 118.687 30.7405 118.319 30.5645C117.967 30.3725 117.711 30.0845 117.551 29.7005C117.391 29.3005 117.311 28.7805 117.311 28.1405L117.551 28.1885C117.439 28.7325 117.167 29.2285 116.735 29.6765C116.303 30.1085 115.767 30.4525 115.127 30.7085C114.487 30.9485 113.807 31.0685 113.087 31.0685ZM113.279 29.2925C114.127 29.2925 114.847 29.1325 115.439 28.8125C116.047 28.4765 116.511 28.0285 116.831 27.4685C117.151 26.8925 117.311 26.2525 117.311 25.5485V24.6365L113.183 25.4045C112.319 25.5645 111.719 25.8125 111.383 26.1485C111.063 26.4685 110.903 26.8925 110.903 27.4205C110.903 28.0125 111.111 28.4765 111.527 28.8125C111.959 29.1325 112.543 29.2925 113.279 29.2925Z" fill="white"/>
<path d="M95.1699 31.0685C93.9699 31.0685 92.9299 30.7965 92.0499 30.2525C91.1859 29.7085 90.5139 28.9405 90.0339 27.9485C89.5699 26.9405 89.3379 25.7645 89.3379 24.4205C89.3379 23.0765 89.5699 21.9085 90.0339 20.9165C90.5139 19.9245 91.1779 19.1565 92.0259 18.6125C92.8899 18.0525 93.9059 17.7725 95.0739 17.7725C96.1779 17.7725 97.1539 18.0365 98.0019 18.5645C98.8499 19.0765 99.5059 19.8285 99.9699 20.8205C100.45 21.8125 100.69 23.0205 100.69 24.4445V25.0445H91.4499C91.5299 26.4045 91.8899 27.4285 92.5299 28.1165C93.1859 28.8045 94.0659 29.1485 95.1699 29.1485C96.0019 29.1485 96.6819 28.9565 97.2099 28.5725C97.7539 28.1725 98.1299 27.6525 98.3379 27.0125L100.498 27.1805C100.162 28.3165 99.5219 29.2525 98.5779 29.9885C97.6499 30.7085 96.5139 31.0685 95.1699 31.0685ZM91.4499 23.2685H98.4819C98.3859 22.0365 98.0259 21.1325 97.4019 20.5565C96.7939 19.9805 96.0179 19.6925 95.0739 19.6925C94.0979 19.6925 93.2899 19.9965 92.6499 20.6045C92.0259 21.1965 91.6259 22.0845 91.4499 23.2685Z" fill="white"/>
<path d="M82.4823 31.0685C81.3463 31.0685 80.3783 30.8845 79.5783 30.5165C78.7943 30.1485 78.1783 29.6445 77.7303 29.0045C77.2983 28.3485 77.0503 27.6045 76.9863 26.7725L79.0983 26.6285C79.2263 27.3965 79.5543 28.0125 80.0823 28.4765C80.6103 28.9245 81.4103 29.1485 82.4823 29.1485C83.3463 29.1485 84.0343 29.0125 84.5463 28.7405C85.0743 28.4525 85.3383 27.9965 85.3383 27.3725C85.3383 27.0365 85.2583 26.7565 85.0983 26.5325C84.9383 26.3085 84.6263 26.1165 84.1623 25.9565C83.6983 25.7805 83.0103 25.6125 82.0983 25.4525C80.8823 25.2285 79.9223 24.9565 79.2183 24.6365C78.5303 24.3005 78.0343 23.8925 77.7303 23.4125C77.4423 22.9165 77.2983 22.3325 77.2983 21.6605C77.2983 20.5245 77.7143 19.5965 78.5463 18.8765C79.3783 18.1405 80.5623 17.7725 82.0983 17.7725C83.1383 17.7725 84.0103 17.9645 84.7143 18.3485C85.4343 18.7165 85.9943 19.2125 86.3943 19.8365C86.8103 20.4445 87.0823 21.1165 87.2103 21.8525L85.0983 21.9965C85.0023 21.5485 84.8263 21.1565 84.5703 20.8205C84.3143 20.4685 83.9783 20.1965 83.5623 20.0045C83.1463 19.7965 82.6503 19.6925 82.0743 19.6925C81.1623 19.6925 80.4903 19.8685 80.0583 20.2205C79.6263 20.5725 79.4103 21.0205 79.4103 21.5645C79.4103 21.9805 79.5063 22.3245 79.6983 22.5965C79.9063 22.8525 80.2343 23.0685 80.6823 23.2445C81.1303 23.4045 81.7303 23.5485 82.4823 23.6765C83.7783 23.9005 84.7863 24.1725 85.5063 24.4925C86.2263 24.8125 86.7303 25.2045 87.0183 25.6685C87.3063 26.1325 87.4503 26.7005 87.4503 27.3725C87.4503 28.1565 87.2263 28.8285 86.7783 29.3885C86.3463 29.9325 85.7543 30.3485 85.0023 30.6365C84.2663 30.9245 83.4263 31.0685 82.4823 31.0685Z" fill="white"/>
<path d="M72.2238 30.7806V18.0606H74.2398V30.7806H72.2238ZM72.1758 16.0686V13.7166H74.2878V16.0686H72.1758Z" fill="white"/>
<path d="M56.3867 30.7805V13.7405H62.8427C64.0427 13.7405 65.0747 13.9485 65.9387 14.3645C66.8027 14.7805 67.4667 15.3805 67.9307 16.1645C68.4107 16.9325 68.6507 17.8445 68.6507 18.9005C68.6507 19.6685 68.4667 20.3565 68.0987 20.9645C67.7467 21.5565 67.2907 22.0285 66.7307 22.3805C66.1707 22.7325 65.5867 22.9245 64.9787 22.9565L64.8347 22.7405C65.8747 22.7405 66.6907 22.9805 67.2827 23.4605C67.8907 23.9405 68.2427 24.7085 68.3387 25.7645L68.8187 30.7805H66.7307L66.2987 25.9805C66.2347 25.2765 65.9787 24.7565 65.5307 24.4205C65.0987 24.0845 64.3867 23.9165 63.3947 23.9165H58.4507V30.7805H56.3867ZM58.4507 21.9005H63.1067C64.1467 21.9005 64.9707 21.6365 65.5787 21.1085C66.1867 20.5805 66.4907 19.8285 66.4907 18.8525C66.4907 17.8605 66.1787 17.1005 65.5547 16.5725C64.9307 16.0285 64.0267 15.7565 62.8427 15.7565H58.4507V21.9005Z" fill="white"/>
<path d="M9.57617 37.0462C16.3676 37.1086 22.9964 33.6103 26.6345 27.3089C31.9796 18.0504 28.8556 6.22796 19.6673 0.808105C22.9121 0.838018 26.1941 1.67944 29.2048 3.41766C38.517 8.79407 41.7076 20.7016 36.3312 30.0138C30.9548 39.326 19.0473 42.5166 9.73504 37.1402C9.6817 37.1094 9.62911 37.0775 9.57617 37.0462Z" fill="white"/>
</svg>
