<svg width="188" height="29" viewBox="0 0 188 29" fill="none" xmlns="http://www.w3.org/2000/svg">
<path fill-rule="evenodd" clip-rule="evenodd" d="M13.1568 1.23343C13.1568 0.552225 13.7091 0 14.3903 0C15.0715 0 15.6237 0.552224 15.6237 1.23343V1.35852C15.6237 2.84507 17.6685 3.2518 18.2373 1.87841L18.2853 1.76263C18.546 1.13328 19.2675 0.834419 19.8968 1.0951C20.5262 1.35579 20.8251 2.07731 20.5644 2.70666L20.5163 2.82266C19.9474 4.19612 21.681 5.35443 22.7322 4.30324L22.8207 4.21474C23.3023 3.73305 24.0833 3.73305 24.565 4.21474C25.0467 4.69642 25.0467 5.47739 24.565 5.95907L24.4765 6.04753C23.4254 7.09869 24.5836 8.83216 25.957 8.26328L26.0729 8.21531C26.7022 7.95462 27.4237 8.25348 27.6844 8.88283C27.9451 9.51218 27.6462 10.2337 27.0169 10.4944L26.901 10.5424C25.5274 11.1114 25.9342 13.1565 27.421 13.1565H27.5466C28.2278 13.1565 28.78 13.7088 28.78 14.39C28.78 15.0712 28.2278 15.6234 27.5466 15.6234H20.5913L8.18812 15.6234H1.23343C0.552225 15.6234 0 15.0712 0 14.39C0 13.7088 0.552224 13.1565 1.23343 13.1565H1.35873C2.84551 13.1565 3.2523 11.1115 1.8787 10.5425L1.76284 10.4945C1.13349 10.2338 0.834626 9.51231 1.09531 8.88296C1.356 8.25361 2.07751 7.95475 2.70686 8.21544L2.82252 8.26334C4.19588 8.83221 5.35411 7.09879 4.30299 6.04766L4.21456 5.95923C3.73287 5.47754 3.73287 4.69658 4.21456 4.2149C4.69624 3.73321 5.4772 3.73321 5.95889 4.2149L6.04744 4.30345C7.09869 5.3547 8.83233 4.19632 8.26339 2.82279L8.21533 2.70677C7.95465 2.07742 8.25351 1.3559 8.88286 1.09521C9.51221 0.83453 10.2337 1.13339 10.4944 1.76274L10.5425 1.87889C11.1115 3.25264 13.1568 2.84581 13.1568 1.35888V1.23343ZM2.0913 17.6792C1.2156 17.6792 0.568414 18.5032 0.868767 19.3257C1.05406 19.8332 1.54654 20.146 2.08679 20.146H26.6932C27.2334 20.146 27.7259 19.8332 27.9112 19.3257C28.2115 18.5032 27.5644 17.6792 26.6886 17.6792H2.0913ZM4.91533 22.2017C3.78926 22.2017 3.14146 23.4353 3.91359 24.255C4.1685 24.5256 4.52732 24.6686 4.89909 24.6686H23.8809C24.2526 24.6686 24.6114 24.5256 24.8664 24.255C25.6385 23.4353 24.9907 22.2017 23.8646 22.2017H4.91533ZM14.39 28.78C14.5899 28.78 14.7889 28.7759 14.9869 28.7678C17.0117 28.6852 16.6383 26.7243 14.6118 26.7243H14.1681C12.1417 26.7243 11.7683 28.6852 13.793 28.7678C13.991 28.7759 14.19 28.78 14.39 28.78Z" fill="#FFD701"/>
<path d="M187.701 8.54C187.767 8.7 187.787 8.87333 187.761 9.06C187.747 9.23333 187.674 9.39333 187.541 9.54L182.961 14.58C182.841 14.7 182.841 14.8267 182.961 14.96L187.541 19.98C187.674 20.1133 187.747 20.2733 187.761 20.46C187.787 20.6333 187.767 20.8 187.701 20.96C187.634 21.1333 187.521 21.2733 187.361 21.38C187.214 21.4733 187.054 21.52 186.881 21.52H186.121C185.881 21.52 185.661 21.42 185.461 21.22L181.681 17.06C181.654 17.02 181.614 17.0133 181.561 17.04C181.521 17.0533 181.501 17.08 181.501 17.12V20.6C181.501 20.8533 181.407 21.0733 181.221 21.26C181.047 21.4333 180.834 21.52 180.581 21.52H180.021C179.767 21.52 179.554 21.4333 179.381 21.26C179.207 21.0733 179.121 20.8533 179.121 20.6V8.92C179.121 8.65333 179.207 8.43333 179.381 8.26C179.554 8.08667 179.767 8 180.021 8H180.581C180.834 8 181.047 8.08667 181.221 8.26C181.407 8.43333 181.501 8.65333 181.501 8.92V12.38C181.501 12.4333 181.521 12.4667 181.561 12.48C181.614 12.4933 181.654 12.4867 181.681 12.46L185.461 8.3C185.661 8.1 185.887 8 186.141 8H186.881C187.267 8 187.541 8.18 187.701 8.54Z" fill="black"/>
<path d="M175.479 20.6C175.479 20.8533 175.386 21.0733 175.199 21.26C175.026 21.4333 174.813 21.52 174.559 21.52H173.979C173.619 21.52 173.353 21.3667 173.179 21.06L168.919 13.68C168.893 13.6267 168.853 13.6133 168.799 13.64C168.746 13.6533 168.719 13.68 168.719 13.72V20.6C168.719 20.8533 168.626 21.0733 168.439 21.26C168.266 21.4333 168.059 21.52 167.819 21.52H167.259C167.006 21.52 166.786 21.4333 166.599 21.26C166.426 21.0733 166.339 20.8533 166.339 20.6V8.92C166.339 8.65333 166.426 8.43333 166.599 8.26C166.786 8.08667 167.006 8 167.259 8H167.839C168.199 8 168.466 8.15333 168.639 8.46L172.899 15.84C172.939 15.8933 172.979 15.9133 173.019 15.9C173.073 15.8867 173.099 15.8533 173.099 15.8V8.92C173.099 8.65333 173.186 8.43333 173.359 8.26C173.546 8.08667 173.766 8 174.019 8H174.559C174.813 8 175.026 8.08667 175.199 8.26C175.386 8.43333 175.479 8.65333 175.479 8.92V20.6Z" fill="black"/>
<path d="M162.687 20.32C162.767 20.6267 162.72 20.9067 162.547 21.16C162.373 21.4 162.127 21.52 161.807 21.52H161.227C161.04 21.52 160.86 21.46 160.687 21.34C160.527 21.22 160.413 21.0733 160.347 20.9L159.587 18.6C159.533 18.4267 159.42 18.34 159.247 18.34H155.827C155.653 18.34 155.54 18.4267 155.487 18.6L154.727 20.9C154.66 21.0733 154.547 21.22 154.387 21.34C154.227 21.46 154.047 21.52 153.847 21.52H153.267C152.947 21.52 152.7 21.4 152.527 21.16C152.34 20.8933 152.3 20.6133 152.407 20.32L156.287 8.62C156.353 8.43333 156.46 8.28667 156.607 8.18C156.767 8.06 156.94 8 157.127 8H157.947C158.133 8 158.307 8.06 158.467 8.18C158.627 8.28667 158.733 8.43333 158.787 8.62L162.687 20.32ZM158.647 15.72L157.647 12.66C157.58 12.5667 157.507 12.5667 157.427 12.66L156.427 15.72C156.4 15.7867 156.407 15.8467 156.447 15.9C156.487 15.9533 156.54 15.98 156.607 15.98H158.467C158.533 15.98 158.587 15.9533 158.627 15.9C158.667 15.8467 158.673 15.7867 158.647 15.72Z" fill="black"/>
<path d="M148.625 20.26C148.759 20.5667 148.739 20.8467 148.565 21.1C148.365 21.38 148.112 21.52 147.805 21.52H147.205C147.032 21.52 146.859 21.4667 146.685 21.36C146.525 21.2533 146.412 21.12 146.345 20.96L144.465 16.46C144.399 16.3 144.279 16.22 144.105 16.22H142.245C142.072 16.22 141.985 16.3067 141.985 16.48V20.6C141.985 20.8533 141.892 21.0733 141.705 21.26C141.532 21.4333 141.319 21.52 141.065 21.52H140.505C140.252 21.52 140.039 21.4333 139.865 21.26C139.705 21.0733 139.625 20.8533 139.625 20.6V8.92C139.625 8.65333 139.705 8.43333 139.865 8.26C140.039 8.08667 140.252 8 140.505 8H145.925C146.405 8 146.845 8.12 147.245 8.36C147.645 8.6 147.965 8.92 148.205 9.32C148.445 9.72 148.565 10.1667 148.565 10.66V13.58C148.565 14.1 148.425 14.5733 148.145 15C147.879 15.4133 147.525 15.7333 147.085 15.96C147.032 15.9733 146.992 16.02 146.965 16.1C146.939 16.1667 146.945 16.2333 146.985 16.3L148.625 20.26ZM146.185 13.58V10.66C146.185 10.4733 146.099 10.38 145.925 10.38H142.245C142.072 10.38 141.985 10.4667 141.985 10.64V13.58C141.985 13.7533 142.072 13.84 142.245 13.84H145.925C146.099 13.84 146.185 13.7533 146.185 13.58Z" fill="black"/>
<path d="M129.329 18.88C129.329 19.36 129.209 19.8 128.969 20.2C128.729 20.6 128.409 20.92 128.009 21.16C127.609 21.4 127.169 21.52 126.689 21.52H121.349C121.095 21.52 120.875 21.4333 120.689 21.26C120.515 21.0733 120.429 20.8533 120.429 20.6V8.92C120.429 8.65333 120.515 8.43333 120.689 8.26C120.875 8.08667 121.095 8 121.349 8H126.689C127.169 8 127.609 8.12 128.009 8.36C128.409 8.6 128.729 8.92 128.969 9.32C129.209 9.72 129.329 10.1667 129.329 10.66V18.88ZM126.949 18.88V10.66C126.949 10.4733 126.862 10.38 126.689 10.38H123.089C122.915 10.38 122.829 10.4667 122.829 10.64V18.9C122.829 19.0733 122.915 19.16 123.089 19.16H126.689C126.755 19.16 126.815 19.1333 126.869 19.08C126.922 19.0133 126.949 18.9467 126.949 18.88Z" fill="black"/>
<path d="M116.807 20.6C116.807 20.8533 116.714 21.0733 116.527 21.26C116.354 21.4333 116.141 21.52 115.887 21.52H115.307C114.947 21.52 114.681 21.3667 114.507 21.06L110.247 13.68C110.221 13.6267 110.181 13.6133 110.127 13.64C110.074 13.6533 110.047 13.68 110.047 13.72V20.6C110.047 20.8533 109.954 21.0733 109.767 21.26C109.594 21.4333 109.387 21.52 109.147 21.52H108.587C108.334 21.52 108.114 21.4333 107.927 21.26C107.754 21.0733 107.667 20.8533 107.667 20.6V8.92C107.667 8.65333 107.754 8.43333 107.927 8.26C108.114 8.08667 108.334 8 108.587 8H109.167C109.527 8 109.794 8.15333 109.967 8.46L114.227 15.84C114.267 15.8933 114.307 15.9133 114.347 15.9C114.401 15.8867 114.427 15.8533 114.427 15.8V8.92C114.427 8.65333 114.514 8.43333 114.687 8.26C114.874 8.08667 115.094 8 115.347 8H115.887C116.141 8 116.354 8.08667 116.527 8.26C116.714 8.43333 116.807 8.65333 116.807 8.92V20.6Z" fill="black"/>
<path d="M104.015 20.32C104.095 20.6267 104.048 20.9067 103.875 21.16C103.702 21.4 103.455 21.52 103.135 21.52H102.555C102.368 21.52 102.188 21.46 102.015 21.34C101.855 21.22 101.742 21.0733 101.675 20.9L100.915 18.6C100.862 18.4267 100.748 18.34 100.575 18.34H97.1549C96.9816 18.34 96.8683 18.4267 96.8149 18.6L96.0549 20.9C95.9883 21.0733 95.8749 21.22 95.7149 21.34C95.5549 21.46 95.3749 21.52 95.1749 21.52H94.5949C94.2749 21.52 94.0283 21.4 93.8549 21.16C93.6683 20.8933 93.6283 20.6133 93.7349 20.32L97.6149 8.62C97.6816 8.43333 97.7883 8.28667 97.9349 8.18C98.0949 8.06 98.2683 8 98.4549 8H99.2749C99.4616 8 99.6349 8.06 99.7949 8.18C99.9549 8.28667 100.062 8.43333 100.115 8.62L104.015 20.32ZM99.9749 15.72L98.9749 12.66C98.9083 12.5667 98.8349 12.5667 98.7549 12.66L97.7549 15.72C97.7283 15.7867 97.7349 15.8467 97.7749 15.9C97.8149 15.9533 97.8683 15.98 97.9349 15.98H99.7949C99.8616 15.98 99.9149 15.9533 99.9549 15.9C99.9949 15.8467 100.002 15.7867 99.9749 15.72Z" fill="black"/>
<path d="M83.472 20.6C83.472 20.8533 83.3787 21.0733 83.192 21.26C83.0187 21.4333 82.812 21.52 82.572 21.52H75.692C75.452 21.52 75.2387 21.4333 75.052 21.26C74.8787 21.0733 74.792 20.8533 74.792 20.6V8.92C74.792 8.65333 74.8787 8.43333 75.052 8.26C75.2387 8.08667 75.452 8 75.692 8H82.572C82.812 8 83.0187 8.08667 83.192 8.26C83.3787 8.43333 83.472 8.65333 83.472 8.92V9.46C83.472 9.71333 83.3787 9.93333 83.192 10.12C83.0187 10.2933 82.812 10.38 82.572 10.38H77.412C77.252 10.38 77.172 10.4667 77.172 10.64V13.3C77.172 13.4867 77.252 13.58 77.412 13.58H81.852C82.1187 13.58 82.3387 13.6667 82.512 13.84C82.6853 14.0133 82.772 14.2267 82.772 14.48V15.04C82.772 15.2933 82.6853 15.5133 82.512 15.7C82.3387 15.8733 82.1187 15.96 81.852 15.96H77.412C77.252 15.96 77.172 16.04 77.172 16.2V18.9C77.172 19.0733 77.252 19.16 77.412 19.16H82.572C82.812 19.16 83.0187 19.2467 83.192 19.42C83.3787 19.5933 83.472 19.8133 83.472 20.08V20.6Z" fill="black"/>
<path d="M71.1708 18.88C71.1708 19.36 71.0508 19.8 70.8108 20.2C70.5708 20.6 70.2508 20.92 69.8508 21.16C69.4508 21.4 69.0108 21.52 68.5308 21.52H64.6908C64.2108 21.52 63.7641 21.4 63.3508 21.16C62.9508 20.92 62.6308 20.6 62.3908 20.2C62.1508 19.8 62.0308 19.36 62.0308 18.88V18.28C62.0308 18.0267 62.1174 17.8133 62.2908 17.64C62.4774 17.4533 62.6974 17.36 62.9508 17.36H63.5108C63.7508 17.36 63.9574 17.4533 64.1308 17.64C64.3174 17.8133 64.4108 18.0267 64.4108 18.28V18.88C64.4108 18.9467 64.4374 19.0133 64.4908 19.08C64.5574 19.1333 64.6241 19.16 64.6908 19.16H68.5308C68.5974 19.16 68.6574 19.1333 68.7108 19.08C68.7641 19.0133 68.7908 18.9467 68.7908 18.88V17.06C68.7908 16.9133 68.7241 16.82 68.5908 16.78L63.7908 14.98C63.2574 14.7933 62.8308 14.4667 62.5108 14C62.1908 13.5333 62.0308 13.02 62.0308 12.46V10.66C62.0308 10.1667 62.1508 9.72 62.3908 9.32C62.6308 8.92 62.9508 8.6 63.3508 8.36C63.7641 8.12 64.2108 8 64.6908 8H68.5308C69.0108 8 69.4508 8.12 69.8508 8.36C70.2508 8.6 70.5708 8.92 70.8108 9.32C71.0508 9.72 71.1708 10.1667 71.1708 10.66V11.2C71.1708 11.4533 71.0774 11.6667 70.8908 11.84C70.7174 12.0133 70.5041 12.1 70.2508 12.1H69.7108C69.4574 12.1 69.2374 12.0133 69.0508 11.84C68.8774 11.6667 68.7908 11.4533 68.7908 11.2V10.66C68.7908 10.4733 68.7041 10.38 68.5308 10.38H64.6908C64.6241 10.38 64.5574 10.4067 64.4908 10.46C64.4374 10.5133 64.4108 10.58 64.4108 10.66V12.46C64.4108 12.62 64.4774 12.72 64.6108 12.76L69.4308 14.56C69.9508 14.7467 70.3708 15.0733 70.6908 15.54C71.0108 16.0067 71.1708 16.5133 71.1708 17.06V18.88Z" fill="black"/>
<path d="M58.3873 20.6C58.3873 20.8533 58.294 21.0733 58.1073 21.26C57.934 21.4333 57.7207 21.52 57.4673 21.52H56.9273C56.674 21.52 56.454 21.4333 56.2673 21.26C56.094 21.0733 56.0073 20.8533 56.0073 20.6V8.92C56.0073 8.65333 56.094 8.43333 56.2673 8.26C56.454 8.08667 56.674 8 56.9273 8H57.4673C57.7207 8 57.934 8.08667 58.1073 8.26C58.294 8.43333 58.3873 8.65333 58.3873 8.92V20.6Z" fill="black"/>
<path d="M52.2661 20.26C52.3994 20.5667 52.3794 20.8467 52.2061 21.1C52.0061 21.38 51.7528 21.52 51.4461 21.52H50.8461C50.6728 21.52 50.4994 21.4667 50.3261 21.36C50.1661 21.2533 50.0528 21.12 49.9861 20.96L48.1061 16.46C48.0394 16.3 47.9194 16.22 47.7461 16.22H45.8861C45.7128 16.22 45.6261 16.3067 45.6261 16.48V20.6C45.6261 20.8533 45.5328 21.0733 45.3461 21.26C45.1728 21.4333 44.9594 21.52 44.7061 21.52H44.1461C43.8928 21.52 43.6794 21.4333 43.5061 21.26C43.3461 21.0733 43.2661 20.8533 43.2661 20.6V8.92C43.2661 8.65333 43.3461 8.43333 43.5061 8.26C43.6794 8.08667 43.8928 8 44.1461 8H49.5661C50.0461 8 50.4861 8.12 50.8861 8.36C51.2861 8.6 51.6061 8.92 51.8461 9.32C52.0861 9.72 52.2061 10.1667 52.2061 10.66V13.58C52.2061 14.1 52.0661 14.5733 51.7861 15C51.5194 15.4133 51.1661 15.7333 50.7261 15.96C50.6728 15.9733 50.6328 16.02 50.6061 16.1C50.5794 16.1667 50.5861 16.2333 50.6261 16.3L52.2661 20.26ZM49.8261 13.58V10.66C49.8261 10.4733 49.7394 10.38 49.5661 10.38H45.8861C45.7128 10.38 45.6261 10.4667 45.6261 10.64V13.58C45.6261 13.7533 45.7128 13.84 45.8861 13.84H49.5661C49.7394 13.84 49.8261 13.7533 49.8261 13.58Z" fill="black"/>
</svg>
