<svg width="211" height="39" viewBox="0 0 211 39" fill="none" xmlns="http://www.w3.org/2000/svg">
<path d="M22.1651 35.9834C24.1917 35.9834 24.6526 38.1345 22.6549 38.4753C21.5891 38.6572 20.4936 38.7519 19.376 38.752C18.2583 38.7519 17.1628 38.6572 16.0969 38.4753C14.0992 38.1345 14.5602 35.9834 16.5867 35.9834H22.1651ZM32.1318 29.8945C33.648 29.8945 34.5202 31.5555 33.4805 32.6591C33.1373 33.0234 32.6542 33.2158 32.1538 33.2158H6.59927C6.09871 33.2158 5.6156 33.0233 5.27229 32.6591C4.23229 31.5555 5.10427 29.8945 6.62065 29.8945H32.1318ZM35.9357 23.8047C37.1148 23.8047 37.9861 24.9141 37.5813 26.0215C37.3316 26.7048 36.6685 27.126 35.9411 27.126H2.8119C2.08442 27.126 1.42128 26.7047 1.17132 26.0215C0.766149 24.9141 1.63721 23.8047 2.81642 23.8047H35.9357ZM21.0371 1.82896C21.0371 3.83027 23.7899 4.37785 24.5558 2.5289L24.6202 2.37354C24.9712 1.52597 25.943 1.1235 26.7905 1.47461C27.6381 1.82572 28.0405 2.79745 27.6894 3.64501L27.625 3.80052C26.8588 5.64985 29.1929 7.20974 30.6085 5.79446L30.728 5.67504C31.3766 5.0266 32.428 5.02666 33.0765 5.67518C33.7252 6.32379 33.7251 7.3754 33.0765 8.02396L32.9574 8.14305C31.542 9.55826 33.1013 11.8924 34.9506 11.1266L35.1066 11.062C35.9539 10.7111 36.9252 11.1134 37.2762 11.9607C37.6274 12.8081 37.225 13.7797 36.3776 14.1308L36.2218 14.1953C34.3724 14.9614 34.9201 17.7148 36.9219 17.7148H37.0913C38.0085 17.7148 38.752 18.4583 38.752 19.3755C38.752 20.2926 38.0085 21.0361 37.0913 21.0361H1.66064C0.743496 21.0361 0 20.2926 0 19.3755C0 18.4583 0.743496 17.7148 1.66064 17.7148H1.82931C3.83096 17.7148 4.37869 14.9616 2.52946 14.1955L2.37351 14.1309C1.52595 13.7798 1.12349 12.808 1.47461 11.9605C1.82572 11.1129 2.79745 10.7104 3.64504 11.0615L3.80009 11.1257C5.649 11.8916 7.20833 9.55793 5.79322 8.14283L5.67435 8.02396C5.02578 7.37539 5.02578 6.32383 5.67435 5.67526C6.3229 5.02671 7.3744 5.02667 8.02299 5.67518L8.14222 5.7944C9.55775 7.20975 11.8919 5.65005 11.1259 3.80068L11.0612 3.64443C10.7102 2.79714 11.1125 1.82578 11.9598 1.4747C12.8071 1.12355 13.7787 1.52589 14.1298 2.37332L14.1947 2.52999C14.961 4.37967 17.7148 3.83183 17.7148 1.82972V1.66113C17.7148 0.743715 18.4586 0 19.376 0C20.2934 0 21.0371 0.743715 21.0371 1.66113V1.82896Z" fill="#FFCC12"/>
<path d="M199.584 29.9714V12.9314H201.6V24.0914L207.792 17.2514H210.48L205.464 22.6514L210.696 29.9714H208.248L204.096 24.0194L201.6 26.6594V29.9714H199.584Z" fill="white"/>
<path d="M185.873 29.9714V17.2514H187.721L187.793 20.4914L187.553 20.2754C187.713 19.5234 187.993 18.9074 188.393 18.4274C188.793 17.9314 189.273 17.5634 189.833 17.3234C190.409 17.0834 191.025 16.9634 191.681 16.9634C192.657 16.9634 193.457 17.1794 194.081 17.6114C194.721 18.0434 195.193 18.6274 195.497 19.3634C195.817 20.0834 195.977 20.8914 195.977 21.7874V29.9714H193.961V22.3634C193.961 21.5794 193.865 20.9234 193.673 20.3954C193.497 19.8514 193.209 19.4434 192.809 19.1714C192.409 18.8834 191.889 18.7394 191.249 18.7394C190.273 18.7394 189.465 19.0514 188.825 19.6754C188.201 20.2834 187.889 21.1794 187.889 22.3634V29.9714H185.873Z" fill="white"/>
<path d="M176.181 30.2594C174.869 30.2594 173.821 29.9554 173.037 29.3474C172.269 28.7394 171.885 27.8914 171.885 26.8034C171.885 25.7154 172.205 24.8594 172.845 24.2354C173.485 23.6114 174.501 23.1714 175.893 22.9154L180.405 22.0754C180.405 21.0034 180.149 20.2034 179.637 19.6754C179.141 19.1474 178.389 18.8834 177.381 18.8834C176.501 18.8834 175.805 19.0834 175.293 19.4834C174.781 19.8674 174.429 20.4274 174.237 21.1634L172.101 20.9954C172.341 19.7954 172.917 18.8274 173.829 18.0914C174.757 17.3394 175.941 16.9634 177.381 16.9634C179.013 16.9634 180.261 17.4274 181.125 18.3554C181.989 19.2674 182.421 20.5314 182.421 22.1474V27.4034C182.421 27.6914 182.469 27.8994 182.565 28.0274C182.677 28.1394 182.853 28.1954 183.093 28.1954H183.597V29.9714C183.533 29.9874 183.429 29.9954 183.285 29.9954C183.141 30.0114 182.989 30.0194 182.829 30.0194C182.253 30.0194 181.781 29.9314 181.413 29.7554C181.061 29.5634 180.805 29.2754 180.645 28.8914C180.485 28.4914 180.405 27.9714 180.405 27.3314L180.645 27.3794C180.533 27.9234 180.261 28.4194 179.829 28.8674C179.397 29.2994 178.861 29.6434 178.221 29.8994C177.581 30.1394 176.901 30.2594 176.181 30.2594ZM176.373 28.4834C177.221 28.4834 177.941 28.3234 178.533 28.0034C179.141 27.6674 179.605 27.2194 179.925 26.6594C180.245 26.0834 180.405 25.4434 180.405 24.7394V23.8274L176.277 24.5954C175.413 24.7554 174.813 25.0034 174.477 25.3394C174.157 25.6594 173.997 26.0834 173.997 26.6114C173.997 27.2034 174.205 27.6674 174.621 28.0034C175.053 28.3234 175.637 28.4834 176.373 28.4834Z" fill="white"/>
<path d="M157.004 29.9714V12.9314H163.46C164.66 12.9314 165.692 13.1394 166.556 13.5554C167.42 13.9714 168.084 14.5714 168.548 15.3554C169.028 16.1234 169.268 17.0354 169.268 18.0914C169.268 18.8594 169.084 19.5474 168.716 20.1554C168.364 20.7474 167.908 21.2194 167.348 21.5714C166.788 21.9234 166.204 22.1154 165.596 22.1474L165.452 21.9314C166.492 21.9314 167.308 22.1714 167.9 22.6514C168.508 23.1314 168.86 23.8994 168.956 24.9554L169.436 29.9714H167.348L166.916 25.1714C166.852 24.4674 166.596 23.9474 166.148 23.6114C165.716 23.2754 165.004 23.1074 164.012 23.1074H159.068V29.9714H157.004ZM159.068 21.0914H163.724C164.764 21.0914 165.588 20.8274 166.196 20.2994C166.804 19.7714 167.108 19.0194 167.108 18.0434C167.108 17.0514 166.796 16.2914 166.172 15.7634C165.548 15.2194 164.644 14.9474 163.46 14.9474H159.068V21.0914Z" fill="white"/>
<path d="M140.956 30.2594C139.852 30.2594 138.892 29.9874 138.076 29.4434C137.276 28.8994 136.66 28.1314 136.228 27.1394C135.796 26.1474 135.58 24.9714 135.58 23.6114C135.58 22.2514 135.796 21.0754 136.228 20.0834C136.66 19.0914 137.276 18.3234 138.076 17.7794C138.892 17.2354 139.852 16.9634 140.956 16.9634C141.804 16.9634 142.58 17.1474 143.284 17.5154C143.988 17.8674 144.516 18.3714 144.868 19.0274V12.9314H146.884V29.9714H145.06L144.988 28.0514C144.636 28.7394 144.1 29.2834 143.38 29.6834C142.66 30.0674 141.852 30.2594 140.956 30.2594ZM141.364 28.3394C142.116 28.3394 142.748 28.1474 143.26 27.7634C143.788 27.3794 144.188 26.8354 144.46 26.1314C144.732 25.4114 144.868 24.5714 144.868 23.6114C144.868 22.6194 144.732 21.7714 144.46 21.0674C144.188 20.3634 143.788 19.8274 143.26 19.4594C142.748 19.0754 142.116 18.8834 141.364 18.8834C140.244 18.8834 139.348 19.3074 138.676 20.1554C138.02 20.9874 137.692 22.1394 137.692 23.6114C137.692 25.0674 138.02 26.2194 138.676 27.0674C139.348 27.9154 140.244 28.3394 141.364 28.3394Z" fill="white"/>
<path d="M122.779 29.9714V17.2514H124.627L124.699 20.4914L124.459 20.2754C124.619 19.5234 124.899 18.9074 125.299 18.4274C125.699 17.9314 126.179 17.5634 126.739 17.3234C127.315 17.0834 127.931 16.9634 128.587 16.9634C129.563 16.9634 130.363 17.1794 130.987 17.6114C131.627 18.0434 132.099 18.6274 132.403 19.3634C132.723 20.0834 132.883 20.8914 132.883 21.7874V29.9714H130.867V22.3634C130.867 21.5794 130.771 20.9234 130.579 20.3954C130.403 19.8514 130.115 19.4434 129.715 19.1714C129.315 18.8834 128.795 18.7394 128.155 18.7394C127.179 18.7394 126.371 19.0514 125.731 19.6754C125.107 20.2834 124.795 21.1794 124.795 22.3634V29.9714H122.779Z" fill="white"/>
<path d="M113.087 30.2594C111.775 30.2594 110.727 29.9554 109.943 29.3474C109.175 28.7394 108.791 27.8914 108.791 26.8034C108.791 25.7154 109.111 24.8594 109.751 24.2354C110.391 23.6114 111.407 23.1714 112.799 22.9154L117.311 22.0754C117.311 21.0034 117.055 20.2034 116.543 19.6754C116.047 19.1474 115.295 18.8834 114.287 18.8834C113.407 18.8834 112.711 19.0834 112.199 19.4834C111.687 19.8674 111.335 20.4274 111.143 21.1634L109.007 20.9954C109.247 19.7954 109.823 18.8274 110.735 18.0914C111.663 17.3394 112.847 16.9634 114.287 16.9634C115.919 16.9634 117.167 17.4274 118.031 18.3554C118.895 19.2674 119.327 20.5314 119.327 22.1474V27.4034C119.327 27.6914 119.375 27.8994 119.471 28.0274C119.583 28.1394 119.759 28.1954 119.999 28.1954H120.503V29.9714C120.439 29.9874 120.335 29.9954 120.191 29.9954C120.047 30.0114 119.895 30.0194 119.735 30.0194C119.159 30.0194 118.687 29.9314 118.319 29.7554C117.967 29.5634 117.711 29.2754 117.551 28.8914C117.391 28.4914 117.311 27.9714 117.311 27.3314L117.551 27.3794C117.439 27.9234 117.167 28.4194 116.735 28.8674C116.303 29.2994 115.767 29.6434 115.127 29.8994C114.487 30.1394 113.807 30.2594 113.087 30.2594ZM113.279 28.4834C114.127 28.4834 114.847 28.3234 115.439 28.0034C116.047 27.6674 116.511 27.2194 116.831 26.6594C117.151 26.0834 117.311 25.4434 117.311 24.7394V23.8274L113.183 24.5954C112.319 24.7554 111.719 25.0034 111.383 25.3394C111.063 25.6594 110.903 26.0834 110.903 26.6114C110.903 27.2034 111.111 27.6674 111.527 28.0034C111.959 28.3234 112.543 28.4834 113.279 28.4834Z" fill="white"/>
<path d="M95.1699 30.2594C93.9699 30.2594 92.9299 29.9874 92.0499 29.4434C91.1859 28.8994 90.5139 28.1314 90.0339 27.1394C89.5699 26.1314 89.3379 24.9554 89.3379 23.6114C89.3379 22.2674 89.5699 21.0994 90.0339 20.1074C90.5139 19.1154 91.1779 18.3474 92.0259 17.8034C92.8899 17.2434 93.9059 16.9634 95.0739 16.9634C96.1779 16.9634 97.1539 17.2274 98.0019 17.7554C98.8499 18.2674 99.5059 19.0194 99.9699 20.0114C100.45 21.0034 100.69 22.2114 100.69 23.6354V24.2354H91.4499C91.5299 25.5954 91.8899 26.6194 92.5299 27.3074C93.1859 27.9954 94.0659 28.3394 95.1699 28.3394C96.0019 28.3394 96.6819 28.1474 97.2099 27.7634C97.7539 27.3634 98.1299 26.8434 98.3379 26.2034L100.498 26.3714C100.162 27.5074 99.5219 28.4434 98.5779 29.1794C97.6499 29.8994 96.5139 30.2594 95.1699 30.2594ZM91.4499 22.4594H98.4819C98.3859 21.2274 98.0259 20.3234 97.4019 19.7474C96.7939 19.1714 96.0179 18.8834 95.0739 18.8834C94.0979 18.8834 93.2899 19.1874 92.6499 19.7954C92.0259 20.3874 91.6259 21.2754 91.4499 22.4594Z" fill="white"/>
<path d="M82.4823 30.2594C81.3463 30.2594 80.3783 30.0754 79.5783 29.7074C78.7943 29.3394 78.1783 28.8354 77.7303 28.1954C77.2983 27.5394 77.0503 26.7954 76.9863 25.9634L79.0983 25.8194C79.2263 26.5874 79.5543 27.2034 80.0823 27.6674C80.6103 28.1154 81.4103 28.3394 82.4823 28.3394C83.3463 28.3394 84.0343 28.2034 84.5463 27.9314C85.0743 27.6434 85.3383 27.1874 85.3383 26.5634C85.3383 26.2274 85.2583 25.9474 85.0983 25.7234C84.9383 25.4994 84.6263 25.3074 84.1623 25.1474C83.6983 24.9714 83.0103 24.8034 82.0983 24.6434C80.8823 24.4194 79.9223 24.1474 79.2183 23.8274C78.5303 23.4914 78.0343 23.0834 77.7303 22.6034C77.4423 22.1074 77.2983 21.5234 77.2983 20.8514C77.2983 19.7154 77.7143 18.7874 78.5463 18.0674C79.3783 17.3314 80.5623 16.9634 82.0983 16.9634C83.1383 16.9634 84.0103 17.1554 84.7143 17.5394C85.4343 17.9074 85.9943 18.4034 86.3943 19.0274C86.8103 19.6354 87.0823 20.3074 87.2103 21.0434L85.0983 21.1874C85.0023 20.7394 84.8263 20.3474 84.5703 20.0114C84.3143 19.6594 83.9783 19.3874 83.5623 19.1954C83.1463 18.9874 82.6503 18.8834 82.0743 18.8834C81.1623 18.8834 80.4903 19.0594 80.0583 19.4114C79.6263 19.7634 79.4103 20.2114 79.4103 20.7554C79.4103 21.1714 79.5063 21.5154 79.6983 21.7874C79.9063 22.0434 80.2343 22.2594 80.6823 22.4354C81.1303 22.5954 81.7303 22.7394 82.4823 22.8674C83.7783 23.0914 84.7863 23.3634 85.5063 23.6834C86.2263 24.0034 86.7303 24.3954 87.0183 24.8594C87.3063 25.3234 87.4503 25.8914 87.4503 26.5634C87.4503 27.3474 87.2263 28.0194 86.7783 28.5794C86.3463 29.1234 85.7543 29.5394 85.0023 29.8274C84.2663 30.1154 83.4263 30.2594 82.4823 30.2594Z" fill="white"/>
<path d="M72.2238 29.9715V17.2515H74.2398V29.9715H72.2238ZM72.1758 15.2595V12.9075H74.2878V15.2595H72.1758Z" fill="white"/>
<path d="M56.3867 29.9714V12.9314H62.8427C64.0427 12.9314 65.0747 13.1394 65.9387 13.5554C66.8027 13.9714 67.4667 14.5714 67.9307 15.3554C68.4107 16.1234 68.6507 17.0354 68.6507 18.0914C68.6507 18.8594 68.4667 19.5474 68.0987 20.1554C67.7467 20.7474 67.2907 21.2194 66.7307 21.5714C66.1707 21.9234 65.5867 22.1154 64.9787 22.1474L64.8347 21.9314C65.8747 21.9314 66.6907 22.1714 67.2827 22.6514C67.8907 23.1314 68.2427 23.8994 68.3387 24.9554L68.8187 29.9714H66.7307L66.2987 25.1714C66.2347 24.4674 65.9787 23.9474 65.5307 23.6114C65.0987 23.2754 64.3867 23.1074 63.3947 23.1074H58.4507V29.9714H56.3867ZM58.4507 21.0914H63.1067C64.1467 21.0914 64.9707 20.8274 65.5787 20.2994C66.1867 19.7714 66.4907 19.0194 66.4907 18.0434C66.4907 17.0514 66.1787 16.2914 65.5547 15.7634C64.9307 15.2194 64.0267 14.9474 62.8427 14.9474H58.4507V21.0914Z" fill="white"/>
</svg>
