<svg width="1440" height="709" viewBox="0 0 1440 709" fill="none" xmlns="http://www.w3.org/2000/svg">
<mask id="mask0_1035_487" style="mask-type:alpha" maskUnits="userSpaceOnUse" x="0" y="0" width="1440" height="709">
<rect width="1440" height="709" fill="#FFD701"/>
</mask>
<g mask="url(#mask0_1035_487)">
<path fill-rule="evenodd" clip-rule="evenodd" d="M1026.93 -39.4195C979.436 -27.4496 995.267 -3.89588 1040.44 -14.3212C1122.3 -33.2413 1242.77 15.0242 1309.96 84.9131C1420.39 199.593 1467.11 530.502 1397.61 711.209C1331.58 883.808 1287.18 939.024 1152.81 1018.18C953.952 1135.18 776.72 1131.7 540.411 936.321C326.111 759.475 358.932 477.603 616.092 269.095C652.001 240.136 721.118 170.633 772.473 112.714C836.956 39.7363 880.588 5.37134 923.448 -5.82645C961.674 -15.4796 958.585 -26.2912 918.042 -26.2912C854.331 -26.2912 799.116 12.7077 701.426 125.843C657.407 176.807 609.141 223.532 565.895 256.353C272.826 479.92 277.845 788.431 580.568 1016.63C673.238 1086.52 939.279 1188.84 1152.81 1071.85C1331.58 973.771 1368.65 932.846 1447.42 742.1C1527.74 547.106 1487.58 214.261 1368.27 85.2994C1292.58 4.21294 1120.76 -62.5873 1026.93 -39.4195ZM911.478 101.13C894.488 112.714 881.36 123.14 869.776 133.179C850.47 149.782 871.707 179.9 893.716 167.544C911.478 157.505 935.804 137.04 964.764 115.803C988.317 98.8137 985.614 88.7743 955.883 84.141C941.596 81.8242 937.348 82.9825 911.478 101.13ZM1166.32 170.243C1147.01 177.193 1065.93 240.522 1065.93 249.017C1065.93 255.581 1084.08 263.686 1098.75 263.686C1110.72 263.686 1212.66 194.187 1212.66 186.078C1212.66 177.197 1179.06 165.61 1166.32 170.243ZM812.244 325.466C772.473 341.683 723.435 387.246 737.721 394.968C757.414 405.394 857.807 358.673 857.807 338.98C857.42 328.555 827.303 319.288 812.244 325.466ZM1013.42 377.983C933.487 431.654 929.626 437.06 957.813 445.555C974.03 450.574 1074.04 398.444 1074.04 385.315C1073.65 367.167 1036.2 362.538 1013.42 377.983ZM1259.38 408.873C1234.67 419.684 1166.32 462.158 1166.32 466.792C1166.32 497.296 1307.64 451.343 1312.28 419.294C1314.59 403.463 1284.48 397.675 1259.38 408.873ZM588.677 549.809C528.827 593.055 522.649 601.16 543.114 610.427C563.965 620.08 564.737 619.312 655.862 557.918C680.961 540.928 683.278 534.364 666.288 526.641C643.507 516.216 628.834 520.463 588.677 549.809ZM855.49 587.649C808.382 620.084 800.274 628.189 807.224 636.297C818.036 649.425 835.411 647.881 865.529 629.733C881.36 620.08 904.142 606.566 916.112 599.615C942.754 584.17 945.071 579.151 931.943 568.725C913.795 554.052 898.35 557.918 855.49 587.649ZM1144.7 703.869C1100.29 721.631 1043.15 772.217 1060.14 778.782C1092.18 791.138 1213.04 718.546 1183.31 704.645C1172.11 699.24 1156.28 699.236 1144.7 703.869ZM780.195 848.284C756.255 856.779 702.97 897.322 702.97 906.976C702.97 930.529 806.452 891.53 821.511 861.799C830.391 844.037 809.927 837.473 780.195 848.284ZM1185.24 876.854C1114.19 912.764 1089.1 945.584 1134.27 944.426C1149.72 944.04 1233.89 896.164 1242.77 883.036C1257.45 859.868 1225.78 856.003 1185.24 876.854Z" fill="white"/>
</g>
</svg>
