<svg width="44" height="30" viewBox="0 0 44 30" fill="none" xmlns="http://www.w3.org/2000/svg">
<path d="M34.2308 17.0742L35.465 17.0455C48.9844 16.8159 44.478 -3.04697 30.0114 2.20579C19.3336 6.08077 21.3142 23.9057 32.7382 26.8335C37.79 28.1251 43.4159 27.2066 39.2252 25.7714C35.6373 24.5659 32.7382 21.0927 32.9391 18.2511C32.9965 17.6196 33.5419 17.0742 34.2308 17.0742Z" fill="black"/>
<path d="M7.8526 1.48828C-5.15012 6.48269 0.13134 28.2974 14.5692 29.2446C18.3294 29.503 19.3053 28.6131 16.4637 27.5511C13.7081 26.5178 10.235 21.6382 9.86185 18.3373C9.77574 17.6771 10.2924 17.1317 10.9526 17.1317C14.7415 17.1317 16.3201 17.1317 18.5303 14.0891C23.9553 6.56881 16.7507 -1.92744 7.8526 1.48828Z" fill="black"/>
</svg>
