<svg width="172" height="40" viewBox="0 0 172 40" fill="none" xmlns="http://www.w3.org/2000/svg">
<path d="M165.683 39.8803C164.345 39.8803 163.305 39.4641 162.562 38.6317C161.833 37.7993 161.469 36.5655 161.469 34.9305V30.003C161.469 28.3531 161.885 27.097 162.718 26.2349C163.55 25.3579 164.732 24.9194 166.263 24.9194C167.318 24.9194 168.203 25.1201 168.916 25.5214C169.63 25.9079 170.157 26.4653 170.499 27.1937C170.841 27.9071 170.967 28.747 170.878 29.7131C170.863 29.8766 170.789 29.9584 170.655 29.9584H168.604C168.441 29.9584 168.366 29.8692 168.381 29.6908C168.441 28.903 168.292 28.2862 167.935 27.8403C167.593 27.3943 167.051 27.1714 166.308 27.1714C165.52 27.1714 164.933 27.4018 164.546 27.8625C164.16 28.3233 163.966 29.0517 163.966 30.0476V34.7967C163.966 35.7926 164.145 36.5135 164.502 36.9594C164.858 37.4054 165.431 37.6283 166.218 37.6283C166.976 37.6283 167.549 37.3979 167.935 36.9371C168.322 36.4764 168.515 35.8 168.515 34.9082V34.0163H166.419C166.27 34.0163 166.196 33.9346 166.196 33.7711V32.3441C166.196 32.1806 166.27 32.0988 166.419 32.0988H170.722C170.871 32.0988 170.945 32.1806 170.945 32.3441V36.4466C170.945 37.0858 170.953 37.6432 170.967 38.1189C170.997 38.5945 171.042 39.033 171.101 39.4343C171.131 39.6127 171.057 39.7019 170.878 39.7019H169.251C169.117 39.7019 169.035 39.6276 169.005 39.4789C168.976 39.3006 168.946 39.0925 168.916 38.8546C168.901 38.6019 168.886 38.327 168.872 38.0297H168.849C168.671 38.4013 168.433 38.7283 168.136 39.0107C167.839 39.2931 167.489 39.5087 167.088 39.6573C166.687 39.8059 166.218 39.8803 165.683 39.8803Z" fill="#7E869A"/>
<path d="M147.753 39.7017C147.619 39.7017 147.552 39.62 147.552 39.4565V25.3429C147.552 25.1794 147.627 25.0977 147.775 25.0977H150.607C150.741 25.0977 150.822 25.1571 150.852 25.276L153.461 32.5446C153.624 32.946 153.78 33.3845 153.929 33.8601C154.092 34.3209 154.241 34.7743 154.375 35.2202C154.524 35.6512 154.642 36.0451 154.732 36.4019H154.776C154.747 36.0006 154.717 35.5398 154.687 35.0195C154.672 34.4993 154.657 33.9716 154.642 33.4365C154.628 32.9014 154.62 32.4406 154.62 32.0541V25.3429C154.62 25.1794 154.695 25.0977 154.843 25.0977H156.783C156.932 25.0977 157.006 25.1794 157.006 25.3429V39.4565C157.006 39.62 156.932 39.7017 156.783 39.7017H153.996C153.877 39.7017 153.788 39.6423 153.728 39.5234L151.142 32.4554C150.889 31.7717 150.659 31.0879 150.451 30.4042C150.243 29.7056 150.049 29.059 149.871 28.4644H149.826C149.856 28.8955 149.878 29.386 149.893 29.936C149.908 30.4711 149.916 31.0062 149.916 31.5413C149.931 32.0764 149.938 32.5669 149.938 33.0128V39.4565C149.938 39.62 149.864 39.7017 149.715 39.7017H147.753Z" fill="#7E869A"/>
<path d="M140.603 39.7017C140.454 39.7017 140.38 39.62 140.38 39.4565V25.3429C140.38 25.1794 140.454 25.0977 140.603 25.0977H142.654C142.803 25.0977 142.877 25.1794 142.877 25.3429V39.4565C142.877 39.62 142.803 39.7017 142.654 39.7017H140.603Z" fill="#7E869A"/>
<path d="M131.047 39.7017C130.899 39.7017 130.824 39.62 130.824 39.4565V27.3496H127.904C127.755 27.3496 127.681 27.2678 127.681 27.1043V25.3429C127.681 25.1794 127.755 25.0977 127.904 25.0977H136.265C136.413 25.0977 136.488 25.1794 136.488 25.3429V27.1043C136.488 27.2678 136.413 27.3496 136.265 27.3496H133.344V39.4565C133.344 39.62 133.27 39.7017 133.121 39.7017H131.047Z" fill="#7E869A"/>
<path d="M119.247 39.7017C119.098 39.7017 119.024 39.62 119.024 39.4565V25.3429C119.024 25.1794 119.098 25.0977 119.247 25.0977H121.298C121.373 25.0977 121.425 25.1274 121.454 25.1868C121.499 25.2314 121.521 25.2835 121.521 25.3429V37.4498H125.981C126.129 37.4498 126.204 37.5316 126.204 37.6951V39.4565C126.204 39.62 126.129 39.7017 125.981 39.7017H119.247Z" fill="#7E869A"/>
<path d="M109.76 39.8801C108.2 39.8801 107.025 39.4565 106.238 38.6092C105.465 37.7471 105.078 36.4539 105.078 34.7297V25.3429C105.078 25.1794 105.152 25.0977 105.301 25.0977H107.352C107.501 25.0977 107.575 25.1794 107.575 25.3429V34.6851C107.575 35.7107 107.754 36.4613 108.11 36.937C108.467 37.3978 109.017 37.6282 109.76 37.6282C110.504 37.6282 111.046 37.3978 111.388 36.937C111.745 36.4613 111.923 35.7107 111.923 34.6851V25.3429C111.923 25.1794 111.997 25.0977 112.146 25.0977H114.197C114.346 25.0977 114.42 25.1794 114.42 25.3429V34.752C114.42 36.4465 114.026 37.7248 113.239 38.5869C112.451 39.4491 111.291 39.8801 109.76 39.8801Z" fill="#7E869A"/>
<path d="M96.5796 39.8803C95.0039 39.8803 93.8743 39.4938 93.1905 38.7209C92.5216 37.9479 92.2466 36.8926 92.3655 35.5548C92.3804 35.3467 92.4622 35.2426 92.6108 35.2426H94.6175C94.7661 35.2426 94.833 35.3467 94.8181 35.5548C94.7884 36.2534 94.9222 36.7885 95.2195 37.1601C95.5316 37.5169 96.0073 37.6952 96.6464 37.6952C97.2856 37.6952 97.7538 37.5614 98.0511 37.2939C98.3484 37.0115 98.497 36.5804 98.497 36.0007C98.497 35.6886 98.4524 35.4136 98.3633 35.1757C98.2889 34.9379 98.1552 34.7224 97.9619 34.5291C97.7687 34.321 97.516 34.1278 97.2038 33.9494L94.7958 32.5225C93.9635 32.0171 93.3614 31.4671 92.9898 30.8726C92.6331 30.2631 92.4622 29.505 92.477 28.5983C92.4919 27.4092 92.8338 26.5025 93.5027 25.8782C94.1864 25.239 95.1972 24.9194 96.535 24.9194C98.0065 24.9194 99.1065 25.2836 99.8348 26.012C100.563 26.7403 100.868 27.7734 100.749 29.1111C100.719 29.3341 100.645 29.4456 100.526 29.4456H98.4747C98.3261 29.4456 98.2592 29.3341 98.2741 29.1111C98.3335 28.5017 98.2146 28.0186 97.9173 27.6619C97.62 27.2903 97.1741 27.1045 96.5796 27.1045C96.0742 27.1045 95.6803 27.2308 95.3978 27.4835C95.1303 27.7213 94.9891 28.0929 94.9742 28.5983C94.9594 29.0591 95.056 29.4456 95.2641 29.7577C95.487 30.055 95.8363 30.3374 96.312 30.605L98.6531 31.9874C99.2328 32.3292 99.6862 32.686 100.013 33.0576C100.355 33.4292 100.6 33.8528 100.749 34.3285C100.912 34.7893 100.987 35.3467 100.972 36.0007C100.972 37.2493 100.623 38.208 99.924 38.8769C99.2254 39.5458 98.1106 39.8803 96.5796 39.8803Z" fill="#7E869A"/>
<path d="M78.9394 39.7017C78.8057 39.7017 78.7388 39.62 78.7388 39.4565V25.3429C78.7388 25.1794 78.8131 25.0977 78.9617 25.0977H81.7934C81.9271 25.0977 82.0089 25.1571 82.0386 25.276L84.6473 32.5446C84.8108 32.946 84.9669 33.3845 85.1155 33.8601C85.279 34.3209 85.4277 34.7743 85.5614 35.2202C85.7101 35.6512 85.829 36.0451 85.9182 36.4019H85.9628C85.933 36.0006 85.9033 35.5398 85.8736 35.0195C85.8587 34.4993 85.8439 33.9716 85.829 33.4365C85.8141 32.9014 85.8067 32.4406 85.8067 32.0541V25.3429C85.8067 25.1794 85.881 25.0977 86.0297 25.0977H87.9694C88.1181 25.0977 88.1924 25.1794 88.1924 25.3429V39.4565C88.1924 39.62 88.1181 39.7017 87.9694 39.7017H85.1824C85.0635 39.7017 84.9743 39.6423 84.9149 39.5234L82.3285 32.4554C82.0758 31.7717 81.8454 31.0879 81.6373 30.4042C81.4292 29.7056 81.236 29.059 81.0576 28.4644H81.013C81.0427 28.8955 81.065 29.386 81.0799 29.936C81.0947 30.4711 81.1022 31.0062 81.1022 31.5413C81.117 32.0764 81.1245 32.5669 81.1245 33.0128V39.4565C81.1245 39.62 81.0502 39.7017 80.9015 39.7017H78.9394Z" fill="#7E869A"/>
<path d="M69.4738 39.8803C67.9131 39.8803 66.7239 39.4641 65.9064 38.6317C65.1037 37.7844 64.7024 36.5432 64.7024 34.9082V29.9138C64.7024 28.2639 65.1037 27.0227 65.9064 26.1903C66.7239 25.3431 67.9131 24.9194 69.4738 24.9194C71.0643 24.9194 72.2608 25.3431 73.0635 26.1903C73.881 27.0227 74.2898 28.2639 74.2898 29.9138V34.9082C74.2898 36.5432 73.881 37.7844 73.0635 38.6317C72.2608 39.4641 71.0643 39.8803 69.4738 39.8803ZM69.4738 37.6283C70.2467 37.6283 70.8264 37.3979 71.2129 36.9371C71.5994 36.4764 71.7926 35.7629 71.7926 34.7967V30.0253C71.7926 29.0443 71.5994 28.3233 71.2129 27.8625C70.8264 27.4018 70.2467 27.1714 69.4738 27.1714C68.7306 27.1714 68.1658 27.4018 67.7793 27.8625C67.3928 28.3233 67.1996 29.0443 67.1996 30.0253V34.7967C67.1996 35.7629 67.3928 36.4764 67.7793 36.9371C68.1658 37.3979 68.7306 37.6283 69.4738 37.6283Z" fill="#7E869A"/>
<path d="M55.9218 39.8803C54.3759 39.8803 53.1942 39.4641 52.3767 38.6317C51.5592 37.7844 51.1504 36.5061 51.1504 34.7967V30.0253C51.1504 28.3308 51.5592 27.0599 52.3767 26.2126C53.1942 25.3505 54.3759 24.9194 55.9218 24.9194C56.992 24.9194 57.8987 25.1275 58.642 25.5437C59.3852 25.9599 59.9277 26.5545 60.2696 27.3274C60.6115 28.0855 60.7155 28.9848 60.5817 30.0253C60.5669 30.1888 60.4925 30.2705 60.3588 30.2705H58.3075C58.144 30.2705 58.0697 30.1888 58.0845 30.0253C58.1589 29.1037 58.0177 28.3977 57.6609 27.9071C57.3042 27.4166 56.7319 27.1714 55.9441 27.1714C55.186 27.1714 54.6138 27.4092 54.2273 27.8848C53.8408 28.3456 53.6476 29.0814 53.6476 30.0922V34.6852C53.6476 35.7109 53.8408 36.4615 54.2273 36.9371C54.6286 37.3979 55.2009 37.6283 55.9441 37.6283C56.7616 37.6283 57.3413 37.3682 57.6832 36.848C58.0251 36.3277 58.1663 35.6365 58.1068 34.7744C58.092 34.596 58.1589 34.5068 58.3075 34.5068H60.3588C60.5074 34.5068 60.5892 34.6035 60.604 34.7967C60.7378 36.3574 60.3959 37.5986 59.5784 38.5202C58.7609 39.4269 57.542 39.8803 55.9218 39.8803Z" fill="#7E869A"/>
<path d="M93.7472 17.5839C92.2014 17.5839 91.0197 17.1677 90.2021 16.3353C89.3846 15.488 88.9758 14.2097 88.9758 12.5003V7.7289C88.9758 6.03438 89.3846 4.76349 90.2021 3.91623C91.0197 3.05411 92.2014 2.62305 93.7472 2.62305C94.8175 2.62305 95.7242 2.83115 96.4674 3.24734C97.2106 3.66354 97.7531 4.25811 98.095 5.03105C98.4369 5.78913 98.541 6.68841 98.4072 7.7289C98.3923 7.89241 98.318 7.97416 98.1842 7.97416H96.133C95.9694 7.97416 95.8951 7.89241 95.91 7.7289C95.9843 6.80732 95.8431 6.10127 95.4864 5.61075C95.1296 5.12023 94.5573 4.87498 93.7695 4.87498C93.0115 4.87498 92.4392 5.1128 92.0527 5.58846C91.6663 6.04925 91.473 6.78503 91.473 7.79579V12.3888C91.473 13.4145 91.6663 14.1651 92.0527 14.6408C92.4541 15.1016 93.0263 15.3319 93.7695 15.3319C94.5871 15.3319 95.1668 15.0718 95.5087 14.5516C95.8505 14.0313 95.9917 13.3401 95.9323 12.478C95.9174 12.2997 95.9843 12.2105 96.133 12.2105H98.1842C98.3329 12.2105 98.4146 12.3071 98.4295 12.5003C98.5632 14.0611 98.2214 15.3022 97.4038 16.2238C96.5863 17.1305 95.3674 17.5839 93.7472 17.5839Z" fill="#7E869A"/>
<path d="M80.6543 17.5839C79.0787 17.5839 77.949 17.1974 77.2652 16.4245C76.5963 15.6515 76.3213 14.5962 76.4403 13.2584C76.4551 13.0503 76.5369 12.9462 76.6855 12.9462H78.6922C78.8408 12.9462 78.9077 13.0503 78.8928 13.2584C78.8631 13.957 78.9969 14.4921 79.2942 14.8637C79.6063 15.2205 80.082 15.3988 80.7211 15.3988C81.3603 15.3988 81.8285 15.2651 82.1258 14.9975C82.4231 14.7151 82.5717 14.284 82.5717 13.7043C82.5717 13.3922 82.5271 13.1172 82.438 12.8794C82.3636 12.6415 82.2299 12.426 82.0366 12.2328C81.8434 12.0247 81.5907 11.8314 81.2786 11.6531L78.8706 10.2261C78.0382 9.72071 77.4362 9.17073 77.0646 8.57616C76.7078 7.96673 76.5369 7.20866 76.5517 6.30194C76.5666 5.1128 76.9085 4.20609 77.5774 3.58179C78.2611 2.94263 79.2719 2.62305 80.6097 2.62305C82.0812 2.62305 83.1812 2.98722 83.9095 3.71557C84.6379 4.44391 84.9426 5.47698 84.8237 6.81476C84.7939 7.03772 84.7196 7.1492 84.6007 7.1492H82.5494C82.4008 7.1492 82.3339 7.03772 82.3488 6.81476C82.4082 6.20532 82.2893 5.72224 81.992 5.36549C81.6948 4.99389 81.2488 4.80809 80.6543 4.80809C80.1489 4.80809 79.755 4.93443 79.4726 5.18712C79.205 5.42495 79.0638 5.79656 79.0489 6.30194C79.0341 6.76273 79.1307 7.1492 79.3388 7.46135C79.5617 7.75863 79.911 8.04105 80.3867 8.30861L82.7278 9.69098C83.3075 10.0329 83.7609 10.3896 84.0879 10.7612C84.4298 11.1328 84.675 11.5564 84.8237 12.0321C84.9872 12.4929 85.0615 13.0503 85.0466 13.7043C85.0466 14.9529 84.6973 15.9117 83.9987 16.5805C83.3001 17.2494 82.1853 17.5839 80.6543 17.5839Z" fill="#7E869A"/>
<path d="M64.7784 17.4056C64.6297 17.4056 64.5554 17.3238 64.5554 17.1603V3.04677C64.5554 2.88327 64.6297 2.80151 64.7784 2.80151H68.1005C69.7059 2.80151 70.8876 3.19542 71.6456 3.98322C72.4037 4.77102 72.7828 5.95273 72.7828 7.52833C72.7828 9.05935 72.3963 10.2262 71.6234 11.0289C70.8504 11.8315 69.691 12.2329 68.1451 12.2329H67.0526V17.1603C67.0526 17.3238 66.9783 17.4056 66.8296 17.4056H64.7784ZM67.0526 10.0255H68.0782C68.8363 10.0255 69.3937 9.82485 69.7505 9.42352C70.1072 9.02219 70.2856 8.40532 70.2856 7.57293C70.2856 6.66621 70.1072 6.01218 69.7505 5.61085C69.3937 5.20951 68.8437 5.00885 68.1005 5.00885H67.0526V10.0255Z" fill="#7E869A"/>
<path d="M51.5963 17.4056C51.4476 17.4056 51.3733 17.3238 51.3733 17.1603V3.04677C51.3733 2.88327 51.4476 2.80151 51.5963 2.80151H55.2751C56.8805 2.80151 58.0622 3.15825 58.8203 3.87174C59.5783 4.57035 59.9574 5.63315 59.9574 7.06011C59.9574 8.11547 59.7716 8.98503 59.4 9.66878C59.0284 10.3377 58.4932 10.8059 57.7946 11.0734V11.118L60.5817 17.0935C60.6709 17.3016 60.6188 17.4056 60.4256 17.4056H58.1291C58.0102 17.4056 57.921 17.3461 57.8615 17.2272L55.342 11.5194H53.8705V17.1603C53.8705 17.3238 53.7962 17.4056 53.6475 17.4056H51.5963ZM53.8705 9.44582H55.2529C56.0258 9.44582 56.5832 9.26001 56.9251 8.88841C57.2818 8.5168 57.4602 7.94453 57.4602 7.17159C57.4602 6.39865 57.2892 5.84868 56.9474 5.52166C56.6055 5.19465 56.0555 5.03115 55.2974 5.03115H53.8705V9.44582Z" fill="#7E869A"/>
<g clip-path="url(#clip0_1026_104)">
<path fill-rule="evenodd" clip-rule="evenodd" d="M17.4527 1.73971C17.8837 1.51061 18.961 0.135986 18.961 0.135986C18.961 0.135986 20.0384 1.51061 20.4694 1.73971C20.6051 1.81221 20.8261 1.83905 21.0856 1.87038C21.6502 1.9375 22.3966 2.02789 22.8395 2.65613C23.4859 3.57255 35.9829 23.9628 36.4137 25.3374C36.8447 26.7121 37.9221 40 37.9221 40H0C0 40 1.07733 26.7121 1.50827 25.3374C1.9392 23.9628 14.4363 3.57255 15.0827 2.65613C15.5255 2.02789 16.2718 1.9375 16.8365 1.87038C17.096 1.83905 17.317 1.81221 17.4527 1.73971ZM19.3705 16.3944L15.1333 23.4768L9.83661 21.5094L10.8959 32.133C11.8376 31.7395 14.1445 30.9526 15.8396 30.9526C17.5344 30.9526 18.8998 31.7395 19.3705 32.133C19.9591 31.7395 21.56 30.9526 23.2547 30.9526C24.9498 30.9526 26.786 31.7395 27.4922 32.133L28.1983 21.5094L22.9017 23.4768L19.3705 16.3944Z" fill="#7E869A"/>
</g>
<defs>
<clipPath id="clip0_1026_104">
<rect width="37.9221" height="40" fill="white"/>
</clipPath>
</defs>
</svg>
