<svg width="1440" height="624" viewBox="0 0 1440 624" fill="none" xmlns="http://www.w3.org/2000/svg">
<mask id="mask0_1035_491" style="mask-type:alpha" maskUnits="userSpaceOnUse" x="0" y="0" width="1440" height="624">
<rect width="1440" height="624" fill="#FFD701"/>
</mask>
<g mask="url(#mask0_1035_491)">
<path fill-rule="evenodd" clip-rule="evenodd" d="M925.895 -110.355C856.214 -103.182 807.71 -82.0041 819.324 -63.5589C824.789 -54.6781 845.967 -54.3364 857.922 -62.8759C950.489 -128.458 1205.65 -52.2871 1310.85 -11.2979C1501.11 63.1653 1554.73 218.244 1431.08 335.746C1391.12 373.66 1364.48 378.101 1248.68 367.171C1145.87 357.265 1086.09 372.294 978.156 437.193C920.088 472.034 888.322 487.401 834.695 518.143C596.276 654.431 440.176 413.28 587.394 135.579C635.556 44.7204 709.337 -32.8172 770.137 -40.6736C794.047 -43.7477 784.483 -51.6038 756.474 -51.6038C684.402 -51.6038 600.374 18.4191 544.014 116.451C385.524 391.761 523.861 642.818 795.414 572.453C844.942 559.474 848.699 557.769 954.246 498.677C1137.67 396.204 1169.44 384.932 1246.29 394.497C1379.17 411.234 1437.92 401.325 1488.13 353.845C1622.71 226.438 1556.78 52.2384 1341.93 -31.4475C1169.78 -98.3963 1041.01 -122.651 925.895 -110.355ZM982.6 -8.22388C872.613 -0.0261135 741.786 51.5551 741.786 87.0789C741.786 88.7869 727.44 104.499 709.678 122.261C584.32 247.961 590.469 399.62 721.292 390.397C755.108 388.006 770.82 381.516 854.506 334.038C965.86 270.846 987.037 266.064 1121.96 276.653C1397.95 298.172 1429.04 192.281 1402.05 140.361C1361.06 61.1159 1133.92 -19.496 982.6 -8.22388ZM1107.95 249.327C967.226 237.713 928.97 246.591 799.854 321.396C711.728 372.291 693.966 375.368 675.179 343.26C617.453 244.545 758.182 36.864 1000.7 19.1021C1156.46 7.8303 1352.86 89.1285 1353.89 169.057C1355.26 273.579 1171.49 254.451 1107.95 249.327ZM950.15 77.1698C896.181 88.1003 758.865 142.069 758.865 197.063C758.865 221.315 809.418 227.125 873.293 210.046C980.889 181.354 1039.3 175.543 1156.8 179.984C1242.88 183.4 1269.52 136.604 1201.55 102.105C1161.92 81.9519 1003.09 66.2393 950.15 77.1698ZM1196.08 136.946C1196.08 156.757 1165 164.271 1114.11 156.757C1076.53 151.292 1062.19 151.637 984.308 160.517C929.656 166.666 896.178 172.811 852.115 184.766C834.353 189.548 817.958 192.967 815.908 192.284C807.369 188.868 882.177 111.327 989.432 101.08C1029.74 96.9813 1196.08 96.298 1196.08 136.946Z" fill="#FFD701"/>
</g>
</svg>
